<?xml version="1.0" encoding="UTF-8" standalone="no"?>
<!DOCTYPE svg PUBLIC "-//W3C//DTD SVG 1.1//EN"
 "http://www.w3.org/Graphics/SVG/1.1/DTD/svg11.dtd">
<!-- Generated by graphviz version 2.43.0 (0)
 -->
<!-- Title: parse Pages: 1 -->
<svg width="744pt" height="620pt"
 viewBox="0.00 0.00 744.00 620.00" xmlns="http://www.w3.org/2000/svg" xmlns:xlink="http://www.w3.org/1999/xlink">
<g id="graph0" class="graph" transform="scale(1 1) rotate(0) translate(4 616)">
<title>parse</title>
<polygon fill="white" stroke="transparent" points="-4,4 -4,-616 740,-616 740,4 -4,4"/>
<!-- n0 -->
<g id="node1" class="node">
<title>n0</title>
<polygon fill="none" stroke="black" points="518,-612 460,-612 460,-576 518,-576 518,-612"/>
<text text-anchor="middle" x="489" y="-591.5" font-family="Helvetica,sans-Serif" font-size="10.00">program</text>
</g>
<!-- n1 -->
<g id="node2" class="node">
<title>n1</title>
<polygon fill="none" stroke="black" points="372.5,-540 305.5,-540 305.5,-504 372.5,-504 372.5,-540"/>
<text text-anchor="middle" x="339" y="-519.5" font-family="Helvetica,sans-Serif" font-size="10.00">statement</text>
</g>
<!-- n0&#45;&gt;n1 -->
<g id="edge24" class="edge">
<title>n0&#45;&gt;n1</title>
<path fill="none" stroke="black" d="M459.72,-579.34C437.57,-569 406.82,-554.65 381.89,-543.02"/>
<polygon fill="black" stroke="black" points="383.2,-539.76 372.65,-538.71 380.24,-546.11 383.2,-539.76"/>
</g>
<!-- n25 -->
<g id="node26" class="node">
<title>n25</title>
<polygon fill="none" stroke="black" points="522.5,-540 455.5,-540 455.5,-504 522.5,-504 522.5,-540"/>
<text text-anchor="middle" x="489" y="-519.5" font-family="Helvetica,sans-Serif" font-size="10.00">statement</text>
</g>
<!-- n0&#45;&gt;n25 -->
<g id="edge31" class="edge">
<title>n0&#45;&gt;n25</title>
<path fill="none" stroke="black" d="M489,-575.7C489,-567.98 489,-558.71 489,-550.11"/>
<polygon fill="black" stroke="black" points="492.5,-550.1 489,-540.1 485.5,-550.1 492.5,-550.1"/>
</g>
<!-- n32 -->
<g id="node33" class="node">
<title>n32</title>
<polygon fill="none" stroke="black" points="595,-540 541,-540 541,-504 595,-504 595,-540"/>
<text text-anchor="start" x="558" y="-519.5" font-family="Helvetica,sans-Serif" font-size="10.00">EOF</text>
</g>
<!-- n0&#45;&gt;n32 -->
<g id="edge32" class="edge">
<title>n0&#45;&gt;n32</title>
<path fill="none" stroke="black" d="M508.53,-575.7C518.38,-566.97 530.49,-556.24 541.2,-546.75"/>
<polygon fill="black" stroke="black" points="543.53,-549.36 548.7,-540.1 538.89,-544.12 543.53,-549.36"/>
</g>
<!-- n2 -->
<g id="node3" class="node">
<title>n2</title>
<polygon fill="none" stroke="black" points="296.5,-468 237.5,-468 237.5,-432 296.5,-432 296.5,-468"/>
<text text-anchor="middle" x="267" y="-447.5" font-family="Helvetica,sans-Serif" font-size="10.00">ruleStmt</text>
</g>
<!-- n1&#45;&gt;n2 -->
<g id="edge23" class="edge">
<title>n1&#45;&gt;n2</title>
<path fill="none" stroke="black" d="M321.2,-503.7C312.4,-495.14 301.62,-484.66 292,-475.3"/>
<polygon fill="black" stroke="black" points="294.2,-472.57 284.59,-468.1 289.32,-477.58 294.2,-472.57"/>
</g>
<!-- n3 -->
<g id="node4" class="node">
<title>n3</title>
<polygon fill="none" stroke="black" points="146,-396 92,-396 92,-360 146,-360 146,-396"/>
<text text-anchor="middle" x="119" y="-375.5" font-family="Helvetica,sans-Serif" font-size="10.00">si</text>
</g>
<!-- n2&#45;&gt;n3 -->
<g id="edge1" class="edge">
<title>n2&#45;&gt;n3</title>
<path fill="none" stroke="black" d="M237.41,-435C213.77,-423.82 180.54,-408.11 155.3,-396.17"/>
<polygon fill="black" stroke="black" points="156.59,-392.91 146.05,-391.79 153.59,-399.23 156.59,-392.91"/>
</g>
<!-- n4 -->
<g id="node5" class="node">
<title>n4</title>
<polygon fill="none" stroke="black" points="218,-396 164,-396 164,-360 218,-360 218,-396"/>
<text text-anchor="middle" x="191" y="-375.5" font-family="Helvetica,sans-Serif" font-size="10.00">cond</text>
</g>
<!-- n2&#45;&gt;n4 -->
<g id="edge9" class="edge">
<title>n2&#45;&gt;n4</title>
<path fill="none" stroke="black" d="M248.21,-431.7C238.83,-423.05 227.32,-412.45 217.09,-403.03"/>
<polygon fill="black" stroke="black" points="219.3,-400.3 209.57,-396.1 214.55,-405.45 219.3,-400.3"/>
</g>
<!-- n12 -->
<g id="node13" class="node">
<title>n12</title>
<polygon fill="none" stroke="black" points="294,-396 240,-396 240,-360 294,-360 294,-396"/>
<text text-anchor="middle" x="267" y="-375.5" font-family="Helvetica,sans-Serif" font-size="10.00">:</text>
</g>
<!-- n2&#45;&gt;n12 -->
<g id="edge10" class="edge">
<title>n2&#45;&gt;n12</title>
<path fill="none" stroke="black" d="M267,-431.7C267,-423.98 267,-414.71 267,-406.11"/>
<polygon fill="black" stroke="black" points="270.5,-406.1 267,-396.1 263.5,-406.1 270.5,-406.1"/>
</g>
<!-- n13 -->
<g id="node14" class="node">
<title>n13</title>
<polygon fill="none" stroke="black" points="368,-396 314,-396 314,-360 368,-360 368,-396"/>
<text text-anchor="middle" x="341" y="-375.5" font-family="Helvetica,sans-Serif" font-size="10.00">action</text>
</g>
<!-- n2&#45;&gt;n13 -->
<g id="edge22" class="edge">
<title>n2&#45;&gt;n13</title>
<path fill="none" stroke="black" d="M285.29,-431.7C294.43,-423.05 305.64,-412.45 315.6,-403.03"/>
<polygon fill="black" stroke="black" points="318.06,-405.52 322.92,-396.1 313.25,-400.43 318.06,-405.52"/>
</g>
<!-- n5 -->
<g id="node6" class="node">
<title>n5</title>
<polygon fill="none" stroke="black" points="54,-324 0,-324 0,-288 54,-288 54,-324"/>
<text text-anchor="middle" x="27" y="-303.5" font-family="Helvetica,sans-Serif" font-size="10.00">ingreso</text>
</g>
<!-- n4&#45;&gt;n5 -->
<g id="edge2" class="edge">
<title>n4&#45;&gt;n5</title>
<path fill="none" stroke="black" d="M163.96,-363.99C160.95,-362.61 157.92,-361.26 155,-360 117.36,-343.77 104.96,-341.62 63.37,-324.01"/>
<polygon fill="black" stroke="black" points="64.61,-320.73 54.04,-320.01 61.85,-327.17 64.61,-320.73"/>
</g>
<!-- n6 -->
<g id="node7" class="node">
<title>n6</title>
<polygon fill="none" stroke="black" points="145.5,-324 72.5,-324 72.5,-288 145.5,-288 145.5,-324"/>
<text text-anchor="middle" x="109" y="-303.5" font-family="Helvetica,sans-Serif" font-size="10.00">comparator</text>
</g>
<!-- n4&#45;&gt;n6 -->
<g id="edge4" class="edge">
<title>n4&#45;&gt;n6</title>
<path fill="none" stroke="black" d="M170.73,-359.7C160.5,-350.97 147.94,-340.24 136.82,-330.75"/>
<polygon fill="black" stroke="black" points="138.91,-327.94 129.04,-324.1 134.37,-333.26 138.91,-327.94"/>
</g>
<!-- n8 -->
<g id="node9" class="node">
<title>n8</title>
<polygon fill="none" stroke="black" points="218,-324 164,-324 164,-288 218,-288 218,-324"/>
<text text-anchor="middle" x="191" y="-303.5" font-family="Helvetica,sans-Serif" font-size="10.00">expr</text>
</g>
<!-- n4&#45;&gt;n8 -->
<g id="edge8" class="edge">
<title>n4&#45;&gt;n8</title>
<path fill="none" stroke="black" d="M191,-359.7C191,-351.98 191,-342.71 191,-334.11"/>
<polygon fill="black" stroke="black" points="194.5,-334.1 191,-324.1 187.5,-334.1 194.5,-334.1"/>
</g>
<!-- n7 -->
<g id="node8" class="node">
<title>n7</title>
<polygon fill="none" stroke="black" points="136,-252 82,-252 82,-216 136,-216 136,-252"/>
<text text-anchor="middle" x="109" y="-231.5" font-family="Helvetica,sans-Serif" font-size="10.00">&gt;</text>
</g>
<!-- n6&#45;&gt;n7 -->
<g id="edge3" class="edge">
<title>n6&#45;&gt;n7</title>
<path fill="none" stroke="black" d="M109,-287.7C109,-279.98 109,-270.71 109,-262.11"/>
<polygon fill="black" stroke="black" points="112.5,-262.1 109,-252.1 105.5,-262.1 112.5,-262.1"/>
</g>
<!-- n9 -->
<g id="node10" class="node">
<title>n9</title>
<polygon fill="none" stroke="black" points="218,-252 164,-252 164,-216 218,-216 218,-252"/>
<text text-anchor="middle" x="191" y="-231.5" font-family="Helvetica,sans-Serif" font-size="10.00">term</text>
</g>
<!-- n8&#45;&gt;n9 -->
<g id="edge7" class="edge">
<title>n8&#45;&gt;n9</title>
<path fill="none" stroke="black" d="M191,-287.7C191,-279.98 191,-270.71 191,-262.11"/>
<polygon fill="black" stroke="black" points="194.5,-262.1 191,-252.1 187.5,-262.1 194.5,-262.1"/>
</g>
<!-- n10 -->
<g id="node11" class="node">
<title>n10</title>
<polygon fill="none" stroke="black" points="218,-180 164,-180 164,-144 218,-144 218,-180"/>
<text text-anchor="middle" x="191" y="-159.5" font-family="Helvetica,sans-Serif" font-size="10.00">factor</text>
</g>
<!-- n9&#45;&gt;n10 -->
<g id="edge6" class="edge">
<title>n9&#45;&gt;n10</title>
<path fill="none" stroke="black" d="M191,-215.7C191,-207.98 191,-198.71 191,-190.11"/>
<polygon fill="black" stroke="black" points="194.5,-190.1 191,-180.1 187.5,-190.1 194.5,-190.1"/>
</g>
<!-- n11 -->
<g id="node12" class="node">
<title>n11</title>
<polygon fill="none" stroke="black" points="218,-108 164,-108 164,-72 218,-72 218,-108"/>
<text text-anchor="middle" x="191" y="-87.5" font-family="Helvetica,sans-Serif" font-size="10.00">100000</text>
</g>
<!-- n10&#45;&gt;n11 -->
<g id="edge5" class="edge">
<title>n10&#45;&gt;n11</title>
<path fill="none" stroke="black" d="M191,-143.7C191,-135.98 191,-126.71 191,-118.11"/>
<polygon fill="black" stroke="black" points="194.5,-118.1 191,-108.1 187.5,-118.1 194.5,-118.1"/>
</g>
<!-- n14 -->
<g id="node15" class="node">
<title>n14</title>
<polygon fill="none" stroke="black" points="298,-324 236,-324 236,-288 298,-288 298,-324"/>
<text text-anchor="middle" x="267" y="-303.5" font-family="Helvetica,sans-Serif" font-size="10.00">impuesto</text>
</g>
<!-- n13&#45;&gt;n14 -->
<g id="edge11" class="edge">
<title>n13&#45;&gt;n14</title>
<path fill="none" stroke="black" d="M322.71,-359.7C313.57,-351.05 302.36,-340.45 292.4,-331.03"/>
<polygon fill="black" stroke="black" points="294.75,-328.43 285.08,-324.1 289.94,-333.52 294.75,-328.43"/>
</g>
<!-- n15 -->
<g id="node16" class="node">
<title>n15</title>
<polygon fill="none" stroke="black" points="370,-324 316,-324 316,-288 370,-288 370,-324"/>
<text text-anchor="middle" x="343" y="-303.5" font-family="Helvetica,sans-Serif" font-size="10.00">=</text>
</g>
<!-- n13&#45;&gt;n15 -->
<g id="edge12" class="edge">
<title>n13&#45;&gt;n15</title>
<path fill="none" stroke="black" d="M341.49,-359.7C341.71,-351.98 341.98,-342.71 342.23,-334.11"/>
<polygon fill="black" stroke="black" points="345.72,-334.2 342.51,-324.1 338.73,-334 345.72,-334.2"/>
</g>
<!-- n16 -->
<g id="node17" class="node">
<title>n16</title>
<polygon fill="none" stroke="black" points="442,-324 388,-324 388,-288 442,-288 442,-324"/>
<text text-anchor="middle" x="415" y="-303.5" font-family="Helvetica,sans-Serif" font-size="10.00">expr</text>
</g>
<!-- n13&#45;&gt;n16 -->
<g id="edge20" class="edge">
<title>n13&#45;&gt;n16</title>
<path fill="none" stroke="black" d="M359.29,-359.7C368.43,-351.05 379.64,-340.45 389.6,-331.03"/>
<polygon fill="black" stroke="black" points="392.06,-333.52 396.92,-324.1 387.25,-328.43 392.06,-333.52"/>
</g>
<!-- n24 -->
<g id="node25" class="node">
<title>n24</title>
<polygon fill="none" stroke="black" points="514,-324 460,-324 460,-288 514,-288 514,-324"/>
<text text-anchor="middle" x="487" y="-303.5" font-family="Helvetica,sans-Serif" font-size="10.00">;</text>
</g>
<!-- n13&#45;&gt;n24 -->
<g id="edge21" class="edge">
<title>n13&#45;&gt;n24</title>
<path fill="none" stroke="black" d="M368.12,-364C391.33,-352.87 424.94,-336.75 450.51,-324.5"/>
<polygon fill="black" stroke="black" points="452.03,-327.65 459.53,-320.17 449,-321.34 452.03,-327.65"/>
</g>
<!-- n17 -->
<g id="node18" class="node">
<title>n17</title>
<polygon fill="none" stroke="black" points="442,-252 388,-252 388,-216 442,-216 442,-252"/>
<text text-anchor="middle" x="415" y="-231.5" font-family="Helvetica,sans-Serif" font-size="10.00">term</text>
</g>
<!-- n16&#45;&gt;n17 -->
<g id="edge19" class="edge">
<title>n16&#45;&gt;n17</title>
<path fill="none" stroke="black" d="M415,-287.7C415,-279.98 415,-270.71 415,-262.11"/>
<polygon fill="black" stroke="black" points="418.5,-262.1 415,-252.1 411.5,-262.1 418.5,-262.1"/>
</g>
<!-- n18 -->
<g id="node19" class="node">
<title>n18</title>
<polygon fill="none" stroke="black" points="370,-180 316,-180 316,-144 370,-144 370,-180"/>
<text text-anchor="middle" x="343" y="-159.5" font-family="Helvetica,sans-Serif" font-size="10.00">term</text>
</g>
<!-- n17&#45;&gt;n18 -->
<g id="edge15" class="edge">
<title>n17&#45;&gt;n18</title>
<path fill="none" stroke="black" d="M397.2,-215.7C388.4,-207.14 377.62,-196.66 368,-187.3"/>
<polygon fill="black" stroke="black" points="370.2,-184.57 360.59,-180.1 365.32,-189.58 370.2,-184.57"/>
</g>
<!-- n21 -->
<g id="node22" class="node">
<title>n21</title>
<polygon fill="none" stroke="black" points="442,-180 388,-180 388,-144 442,-144 442,-180"/>
<text text-anchor="middle" x="415" y="-159.5" font-family="Helvetica,sans-Serif" font-size="10.00">*</text>
</g>
<!-- n17&#45;&gt;n21 -->
<g id="edge16" class="edge">
<title>n17&#45;&gt;n21</title>
<path fill="none" stroke="black" d="M415,-215.7C415,-207.98 415,-198.71 415,-190.11"/>
<polygon fill="black" stroke="black" points="418.5,-190.1 415,-180.1 411.5,-190.1 418.5,-190.1"/>
</g>
<!-- n22 -->
<g id="node23" class="node">
<title>n22</title>
<polygon fill="none" stroke="black" points="514,-180 460,-180 460,-144 514,-144 514,-180"/>
<text text-anchor="middle" x="487" y="-159.5" font-family="Helvetica,sans-Serif" font-size="10.00">factor</text>
</g>
<!-- n17&#45;&gt;n22 -->
<g id="edge18" class="edge">
<title>n17&#45;&gt;n22</title>
<path fill="none" stroke="black" d="M432.8,-215.7C441.6,-207.14 452.38,-196.66 462,-187.3"/>
<polygon fill="black" stroke="black" points="464.68,-189.58 469.41,-180.1 459.8,-184.57 464.68,-189.58"/>
</g>
<!-- n19 -->
<g id="node20" class="node">
<title>n19</title>
<polygon fill="none" stroke="black" points="370,-108 316,-108 316,-72 370,-72 370,-108"/>
<text text-anchor="middle" x="343" y="-87.5" font-family="Helvetica,sans-Serif" font-size="10.00">factor</text>
</g>
<!-- n18&#45;&gt;n19 -->
<g id="edge14" class="edge">
<title>n18&#45;&gt;n19</title>
<path fill="none" stroke="black" d="M343,-143.7C343,-135.98 343,-126.71 343,-118.11"/>
<polygon fill="black" stroke="black" points="346.5,-118.1 343,-108.1 339.5,-118.1 346.5,-118.1"/>
</g>
<!-- n20 -->
<g id="node21" class="node">
<title>n20</title>
<polygon fill="none" stroke="black" points="370,-36 316,-36 316,0 370,0 370,-36"/>
<text text-anchor="middle" x="343" y="-15.5" font-family="Helvetica,sans-Serif" font-size="10.00">ingreso</text>
</g>
<!-- n19&#45;&gt;n20 -->
<g id="edge13" class="edge">
<title>n19&#45;&gt;n20</title>
<path fill="none" stroke="black" d="M343,-71.7C343,-63.98 343,-54.71 343,-46.11"/>
<polygon fill="black" stroke="black" points="346.5,-46.1 343,-36.1 339.5,-46.1 346.5,-46.1"/>
</g>
<!-- n23 -->
<g id="node24" class="node">
<title>n23</title>
<polygon fill="none" stroke="black" points="514,-108 460,-108 460,-72 514,-72 514,-108"/>
<text text-anchor="middle" x="487" y="-87.5" font-family="Helvetica,sans-Serif" font-size="10.00">0.2</text>
</g>
<!-- n22&#45;&gt;n23 -->
<g id="edge17" class="edge">
<title>n22&#45;&gt;n23</title>
<path fill="none" stroke="black" d="M487,-143.7C487,-135.98 487,-126.71 487,-118.11"/>
<polygon fill="black" stroke="black" points="490.5,-118.1 487,-108.1 483.5,-118.1 490.5,-118.1"/>
</g>
<!-- n26 -->
<g id="node27" class="node">
<title>n26</title>
<polygon fill="none" stroke="black" points="554,-468 492,-468 492,-432 554,-432 554,-468"/>
<text text-anchor="middle" x="523" y="-447.5" font-family="Helvetica,sans-Serif" font-size="10.00">printStmt</text>
</g>
<!-- n25&#45;&gt;n26 -->
<g id="edge30" class="edge">
<title>n25&#45;&gt;n26</title>
<path fill="none" stroke="black" d="M497.4,-503.7C501.27,-495.73 505.95,-486.1 510.24,-477.26"/>
<polygon fill="black" stroke="black" points="513.47,-478.63 514.69,-468.1 507.17,-475.57 513.47,-478.63"/>
</g>
<!-- n27 -->
<g id="node28" class="node">
<title>n27</title>
<polygon fill="none" stroke="black" points="440,-396 386,-396 386,-360 440,-360 440,-396"/>
<text text-anchor="middle" x="413" y="-375.5" font-family="Helvetica,sans-Serif" font-size="10.00">print</text>
</g>
<!-- n26&#45;&gt;n27 -->
<g id="edge25" class="edge">
<title>n26&#45;&gt;n27</title>
<path fill="none" stroke="black" d="M496.09,-431.88C481.84,-422.81 464.15,-411.55 448.76,-401.76"/>
<polygon fill="black" stroke="black" points="450.33,-398.61 440.01,-396.19 446.57,-404.51 450.33,-398.61"/>
</g>
<!-- n28 -->
<g id="node29" class="node">
<title>n28</title>
<polygon fill="none" stroke="black" points="512,-396 458,-396 458,-360 512,-360 512,-396"/>
<text text-anchor="middle" x="485" y="-375.5" font-family="Helvetica,sans-Serif" font-size="10.00">(</text>
</g>
<!-- n26&#45;&gt;n28 -->
<g id="edge26" class="edge">
<title>n26&#45;&gt;n28</title>
<path fill="none" stroke="black" d="M513.61,-431.7C509.24,-423.64 503.94,-413.89 499.1,-404.98"/>
<polygon fill="black" stroke="black" points="502.13,-403.22 494.29,-396.1 495.98,-406.56 502.13,-403.22"/>
</g>
<!-- n29 -->
<g id="node30" class="node">
<title>n29</title>
<polygon fill="none" stroke="black" points="592,-396 530,-396 530,-360 592,-360 592,-396"/>
<text text-anchor="middle" x="561" y="-375.5" font-family="Helvetica,sans-Serif" font-size="10.00">impuesto</text>
</g>
<!-- n26&#45;&gt;n29 -->
<g id="edge27" class="edge">
<title>n26&#45;&gt;n29</title>
<path fill="none" stroke="black" d="M532.39,-431.7C536.76,-423.64 542.06,-413.89 546.9,-404.98"/>
<polygon fill="black" stroke="black" points="550.02,-406.56 551.71,-396.1 543.87,-403.22 550.02,-406.56"/>
</g>
<!-- n30 -->
<g id="node31" class="node">
<title>n30</title>
<polygon fill="none" stroke="black" points="664,-396 610,-396 610,-360 664,-360 664,-396"/>
<text text-anchor="middle" x="637" y="-375.5" font-family="Helvetica,sans-Serif" font-size="10.00">)</text>
</g>
<!-- n26&#45;&gt;n30 -->
<g id="edge28" class="edge">
<title>n26&#45;&gt;n30</title>
<path fill="none" stroke="black" d="M550.89,-431.88C566.02,-422.59 584.88,-411 601.1,-401.04"/>
<polygon fill="black" stroke="black" points="603.1,-403.92 609.79,-395.71 599.44,-397.96 603.1,-403.92"/>
</g>
<!-- n31 -->
<g id="node32" class="node">
<title>n31</title>
<polygon fill="none" stroke="black" points="736,-396 682,-396 682,-360 736,-360 736,-396"/>
<text text-anchor="middle" x="709" y="-375.5" font-family="Helvetica,sans-Serif" font-size="10.00">;</text>
</g>
<!-- n26&#45;&gt;n31 -->
<g id="edge29" class="edge">
<title>n26&#45;&gt;n31</title>
<path fill="none" stroke="black" d="M554.08,-439.04C582.69,-429.65 626.42,-414.74 672.14,-396.17"/>
<polygon fill="black" stroke="black" points="673.69,-399.32 681.61,-392.28 671.03,-392.84 673.69,-399.32"/>
</g>
</g>
</svg>
