<?xml version="1.0" encoding="UTF-8" standalone="no"?>
<!DOCTYPE svg PUBLIC "-//W3C//DTD SVG 1.1//EN"
 "http://www.w3.org/Graphics/SVG/1.1/DTD/svg11.dtd">
<!-- Generated by graphviz version 2.43.0 (0)
 -->
<!-- Title: ast Pages: 1 -->
<svg width="234pt" height="358pt"
 viewBox="0.00 0.00 233.85 357.71" xmlns="http://www.w3.org/2000/svg" xmlns:xlink="http://www.w3.org/1999/xlink">
<g id="graph0" class="graph" transform="scale(1 1) rotate(0) translate(4 353.71)">
<title>ast</title>
<polygon fill="white" stroke="transparent" points="-4,4 -4,-353.71 229.85,-353.71 229.85,4 -4,4"/>
<!-- n0 -->
<g id="node1" class="node">
<title>n0</title>
<polygon fill="none" stroke="black" points="165.25,-349.71 107.25,-349.71 107.25,-313.71 165.25,-313.71 165.25,-349.71"/>
<text text-anchor="middle" x="136.25" y="-329.21" font-family="Helvetica,sans-Serif" font-size="10.00">Program</text>
</g>
<!-- n1 -->
<g id="node2" class="node">
<title>n1</title>
<polygon fill="none" stroke="black" points="119.25,-274.49 65.25,-274.49 65.25,-238.49 119.25,-238.49 119.25,-274.49"/>
<text text-anchor="middle" x="92.25" y="-253.99" font-family="Helvetica,sans-Serif" font-size="10.00">Rule</text>
</g>
<!-- n0&#45;&gt;n1 -->
<g id="edge7" class="edge">
<title>n0&#45;&gt;n1</title>
<path fill="none" stroke="black" d="M125.83,-313.36C120.46,-304.42 113.8,-293.34 107.84,-283.42"/>
<polygon fill="black" stroke="black" points="110.76,-281.49 102.61,-274.72 104.76,-285.09 110.76,-281.49"/>
</g>
<!-- n8 -->
<g id="node9" class="node">
<title>n8</title>
<ellipse fill="none" stroke="black" cx="181.25" cy="-256.49" rx="43.68" ry="21.43"/>
<text text-anchor="middle" x="181.25" y="-259.49" font-family="Helvetica,sans-Serif" font-size="10.00">Print</text>
<text text-anchor="middle" x="181.25" y="-248.49" font-family="Helvetica,sans-Serif" font-size="10.00">impuesto</text>
</g>
<!-- n0&#45;&gt;n8 -->
<g id="edge8" class="edge">
<title>n0&#45;&gt;n8</title>
<path fill="none" stroke="black" d="M146.92,-313.36C152,-305.09 158.21,-294.99 163.94,-285.66"/>
<polygon fill="black" stroke="black" points="166.98,-287.39 169.24,-277.04 161.02,-283.73 166.98,-287.39"/>
</g>
<!-- n2 -->
<g id="node3" class="node">
<title>n2</title>
<ellipse fill="none" stroke="black" cx="45.25" cy="-178.07" rx="45.01" ry="21.43"/>
<text text-anchor="middle" x="45.25" y="-181.07" font-family="Helvetica,sans-Serif" font-size="10.00">Cond</text>
<text text-anchor="middle" x="45.25" y="-170.07" font-family="Helvetica,sans-Serif" font-size="10.00">ingreso &gt;</text>
</g>
<!-- n1&#45;&gt;n2 -->
<g id="edge2" class="edge">
<title>n1&#45;&gt;n2</title>
<path fill="none" stroke="black" d="M81.59,-238.15C76.02,-229.09 69.06,-217.77 62.72,-207.47"/>
<polygon fill="black" stroke="black" points="65.59,-205.45 57.37,-198.76 59.63,-209.12 65.59,-205.45"/>
</g>
<!-- n4 -->
<g id="node5" class="node">
<title>n4</title>
<polygon fill="none" stroke="black" points="170.25,-196.07 108.25,-196.07 108.25,-160.07 170.25,-160.07 170.25,-196.07"/>
<text text-anchor="middle" x="139.25" y="-181.07" font-family="Helvetica,sans-Serif" font-size="10.00">Action</text>
<text text-anchor="middle" x="139.25" y="-170.07" font-family="Helvetica,sans-Serif" font-size="10.00">impuesto</text>
</g>
<!-- n1&#45;&gt;n4 -->
<g id="edge6" class="edge">
<title>n1&#45;&gt;n4</title>
<path fill="none" stroke="black" d="M102.92,-238.15C108.97,-228.31 116.66,-215.81 123.41,-204.84"/>
<polygon fill="black" stroke="black" points="126.54,-206.43 128.79,-196.08 120.57,-202.76 126.54,-206.43"/>
</g>
<!-- n3 -->
<g id="node4" class="node">
<title>n3</title>
<ellipse fill="none" stroke="black" cx="45.25" cy="-99.64" rx="43.68" ry="21.43"/>
<text text-anchor="middle" x="45.25" y="-102.64" font-family="Helvetica,sans-Serif" font-size="10.00">Number</text>
<text text-anchor="middle" x="45.25" y="-91.64" font-family="Helvetica,sans-Serif" font-size="10.00">100000.0</text>
</g>
<!-- n2&#45;&gt;n3 -->
<g id="edge1" class="edge">
<title>n2&#45;&gt;n3</title>
<path fill="none" stroke="black" d="M45.25,-156.59C45.25,-148.73 45.25,-139.58 45.25,-130.99"/>
<polygon fill="black" stroke="black" points="48.75,-130.91 45.25,-120.91 41.75,-130.91 48.75,-130.91"/>
</g>
<!-- n5 -->
<g id="node6" class="node">
<title>n5</title>
<ellipse fill="none" stroke="black" cx="139.25" cy="-99.64" rx="32.55" ry="21.43"/>
<text text-anchor="middle" x="139.25" y="-102.64" font-family="Helvetica,sans-Serif" font-size="10.00">BinOp</text>
<text text-anchor="middle" x="139.25" y="-91.64" font-family="Helvetica,sans-Serif" font-size="10.00">*</text>
</g>
<!-- n4&#45;&gt;n5 -->
<g id="edge5" class="edge">
<title>n4&#45;&gt;n5</title>
<path fill="none" stroke="black" d="M139.25,-159.72C139.25,-151.25 139.25,-140.8 139.25,-131.06"/>
<polygon fill="black" stroke="black" points="142.75,-130.89 139.25,-120.89 135.75,-130.89 142.75,-130.89"/>
</g>
<!-- n6 -->
<g id="node7" class="node">
<title>n6</title>
<ellipse fill="none" stroke="black" cx="91.25" cy="-21.21" rx="37.45" ry="21.43"/>
<text text-anchor="middle" x="91.25" y="-24.21" font-family="Helvetica,sans-Serif" font-size="10.00">Var</text>
<text text-anchor="middle" x="91.25" y="-13.21" font-family="Helvetica,sans-Serif" font-size="10.00">ingreso</text>
</g>
<!-- n5&#45;&gt;n6 -->
<g id="edge3" class="edge">
<title>n5&#45;&gt;n6</title>
<path fill="none" stroke="black" d="M127.39,-79.75C121.78,-70.81 114.97,-59.97 108.78,-50.11"/>
<polygon fill="black" stroke="black" points="111.6,-48.03 103.32,-41.42 105.67,-51.75 111.6,-48.03"/>
</g>
<!-- n7 -->
<g id="node8" class="node">
<title>n7</title>
<ellipse fill="none" stroke="black" cx="186.25" cy="-21.21" rx="39.7" ry="21.43"/>
<text text-anchor="middle" x="186.25" y="-24.21" font-family="Helvetica,sans-Serif" font-size="10.00">Number</text>
<text text-anchor="middle" x="186.25" y="-13.21" font-family="Helvetica,sans-Serif" font-size="10.00">0.2</text>
</g>
<!-- n5&#45;&gt;n7 -->
<g id="edge4" class="edge">
<title>n5&#45;&gt;n7</title>
<path fill="none" stroke="black" d="M150.87,-79.75C156.33,-70.88 162.94,-60.13 168.96,-50.33"/>
<polygon fill="black" stroke="black" points="172.02,-52.04 174.28,-41.69 166.06,-48.37 172.02,-52.04"/>
</g>
</g>
</svg>
