<?xml version="1.0" encoding="UTF-8" standalone="no"?>
<!DOCTYPE svg PUBLIC "-//W3C//DTD SVG 1.1//EN"
 "http://www.w3.org/Graphics/SVG/1.1/DTD/svg11.dtd">
<!-- Generated by graphviz version 2.43.0 (0)
 -->
<!-- Title: ast Pages: 1 -->
<svg width="1489pt" height="515pt"
 viewBox="0.00 0.00 1488.60 514.56" xmlns="http://www.w3.org/2000/svg" xmlns:xlink="http://www.w3.org/1999/xlink">
<g id="graph0" class="graph" transform="scale(1 1) rotate(0) translate(4 510.56)">
<title>ast</title>
<polygon fill="white" stroke="transparent" points="-4,4 -4,-510.56 1484.6,-510.56 1484.6,4 -4,4"/>
<!-- n0 -->
<g id="node1" class="node">
<title>n0</title>
<polygon fill="none" stroke="black" points="771.6,-506.56 713.6,-506.56 713.6,-470.56 771.6,-470.56 771.6,-506.56"/>
<text text-anchor="middle" x="742.6" y="-486.06" font-family="Helvetica,sans-Serif" font-size="10.00">Program</text>
</g>
<!-- n1 -->
<g id="node2" class="node">
<title>n1</title>
<polygon fill="none" stroke="black" points="318.6,-431.35 244.6,-431.35 244.6,-395.35 318.6,-395.35 318.6,-431.35"/>
<text text-anchor="middle" x="281.6" y="-416.35" font-family="Helvetica,sans-Serif" font-size="10.00">Assignment</text>
<text text-anchor="middle" x="281.6" y="-405.35" font-family="Helvetica,sans-Serif" font-size="10.00">sueldo</text>
</g>
<!-- n0&#45;&gt;n1 -->
<g id="edge6" class="edge">
<title>n0&#45;&gt;n1</title>
<path fill="none" stroke="black" d="M713.38,-484.07C650.96,-476.45 500.05,-457.2 374.6,-434.56 359.67,-431.86 343.49,-428.5 328.87,-425.3"/>
<polygon fill="black" stroke="black" points="329.56,-421.87 319.03,-423.12 328.04,-428.7 329.56,-421.87"/>
</g>
<!-- n7 -->
<g id="node8" class="node">
<title>n7</title>
<polygon fill="none" stroke="black" points="457.6,-431.35 383.6,-431.35 383.6,-395.35 457.6,-395.35 457.6,-431.35"/>
<text text-anchor="middle" x="420.6" y="-416.35" font-family="Helvetica,sans-Serif" font-size="10.00">Assignment</text>
<text text-anchor="middle" x="420.6" y="-405.35" font-family="Helvetica,sans-Serif" font-size="10.00">extras</text>
</g>
<!-- n0&#45;&gt;n7 -->
<g id="edge14" class="edge">
<title>n0&#45;&gt;n7</title>
<path fill="none" stroke="black" d="M713.47,-484.15C664.24,-477.93 561.53,-462.94 467.17,-434.39"/>
<polygon fill="black" stroke="black" points="468.07,-431.01 457.48,-431.4 466.01,-437.7 468.07,-431.01"/>
</g>
<!-- n15 -->
<g id="node16" class="node">
<title>n15</title>
<polygon fill="none" stroke="black" points="549.6,-431.35 475.6,-431.35 475.6,-395.35 549.6,-395.35 549.6,-431.35"/>
<text text-anchor="middle" x="512.6" y="-416.35" font-family="Helvetica,sans-Serif" font-size="10.00">Assignment</text>
<text text-anchor="middle" x="512.6" y="-405.35" font-family="Helvetica,sans-Serif" font-size="10.00">ingreso</text>
</g>
<!-- n0&#45;&gt;n15 -->
<g id="edge18" class="edge">
<title>n0&#45;&gt;n15</title>
<path fill="none" stroke="black" d="M713.53,-480.47C678.8,-471.72 618.85,-455.75 559.37,-434.64"/>
<polygon fill="black" stroke="black" points="560.43,-431.3 549.83,-431.21 558.06,-437.88 560.43,-431.3"/>
</g>
<!-- n19 -->
<g id="node20" class="node">
<title>n19</title>
<polygon fill="none" stroke="black" points="641.6,-431.35 567.6,-431.35 567.6,-395.35 641.6,-395.35 641.6,-431.35"/>
<text text-anchor="middle" x="604.6" y="-416.35" font-family="Helvetica,sans-Serif" font-size="10.00">Assignment</text>
<text text-anchor="middle" x="604.6" y="-405.35" font-family="Helvetica,sans-Serif" font-size="10.00">t1</text>
</g>
<!-- n0&#45;&gt;n19 -->
<g id="edge20" class="edge">
<title>n0&#45;&gt;n19</title>
<path fill="none" stroke="black" d="M713.33,-472.03C693.67,-461.6 667.48,-447.71 645.73,-436.17"/>
<polygon fill="black" stroke="black" points="647.19,-432.98 636.71,-431.38 643.91,-439.16 647.19,-432.98"/>
</g>
<!-- n21 -->
<g id="node22" class="node">
<title>n21</title>
<polygon fill="none" stroke="black" points="733.6,-431.35 659.6,-431.35 659.6,-395.35 733.6,-395.35 733.6,-431.35"/>
<text text-anchor="middle" x="696.6" y="-416.35" font-family="Helvetica,sans-Serif" font-size="10.00">Assignment</text>
<text text-anchor="middle" x="696.6" y="-405.35" font-family="Helvetica,sans-Serif" font-size="10.00">t2</text>
</g>
<!-- n0&#45;&gt;n21 -->
<g id="edge22" class="edge">
<title>n0&#45;&gt;n21</title>
<path fill="none" stroke="black" d="M731.7,-470.21C726.08,-461.27 719.12,-450.2 712.89,-440.27"/>
<polygon fill="black" stroke="black" points="715.7,-438.18 707.42,-431.57 709.78,-441.9 715.7,-438.18"/>
</g>
<!-- n23 -->
<g id="node24" class="node">
<title>n23</title>
<polygon fill="none" stroke="black" points="825.6,-431.35 751.6,-431.35 751.6,-395.35 825.6,-395.35 825.6,-431.35"/>
<text text-anchor="middle" x="788.6" y="-416.35" font-family="Helvetica,sans-Serif" font-size="10.00">Assignment</text>
<text text-anchor="middle" x="788.6" y="-405.35" font-family="Helvetica,sans-Serif" font-size="10.00">impuesto</text>
</g>
<!-- n0&#45;&gt;n23 -->
<g id="edge24" class="edge">
<title>n0&#45;&gt;n23</title>
<path fill="none" stroke="black" d="M753.5,-470.21C759.11,-461.27 766.07,-450.2 772.31,-440.27"/>
<polygon fill="black" stroke="black" points="775.42,-441.9 777.77,-431.57 769.49,-438.18 775.42,-441.9"/>
</g>
<!-- n25 -->
<g id="node26" class="node">
<title>n25</title>
<polygon fill="none" stroke="black" points="918.6,-431.35 864.6,-431.35 864.6,-395.35 918.6,-395.35 918.6,-431.35"/>
<text text-anchor="middle" x="891.6" y="-410.85" font-family="Helvetica,sans-Serif" font-size="10.00">Rule</text>
</g>
<!-- n0&#45;&gt;n25 -->
<g id="edge35" class="edge">
<title>n0&#45;&gt;n25</title>
<path fill="none" stroke="black" d="M771.68,-473.27C795.67,-461.48 829.81,-444.71 855.53,-432.07"/>
<polygon fill="black" stroke="black" points="857.16,-435.16 864.59,-427.61 854.08,-428.88 857.16,-435.16"/>
</g>
<!-- n36 -->
<g id="node37" class="node">
<title>n36</title>
<polygon fill="none" stroke="black" points="1106.6,-431.35 1052.6,-431.35 1052.6,-395.35 1106.6,-395.35 1106.6,-431.35"/>
<text text-anchor="middle" x="1079.6" y="-410.85" font-family="Helvetica,sans-Serif" font-size="10.00">Rule</text>
</g>
<!-- n0&#45;&gt;n36 -->
<g id="edge44" class="edge">
<title>n0&#45;&gt;n36</title>
<path fill="none" stroke="black" d="M771.62,-481.25C832.82,-467.96 975.01,-437.07 1042.61,-422.38"/>
<polygon fill="black" stroke="black" points="1043.39,-425.79 1052.41,-420.25 1041.9,-418.95 1043.39,-425.79"/>
</g>
<!-- n45 -->
<g id="node46" class="node">
<title>n45</title>
<polygon fill="none" stroke="black" points="1239.6,-431.35 1185.6,-431.35 1185.6,-395.35 1239.6,-395.35 1239.6,-431.35"/>
<text text-anchor="middle" x="1212.6" y="-410.85" font-family="Helvetica,sans-Serif" font-size="10.00">Rule</text>
</g>
<!-- n0&#45;&gt;n45 -->
<g id="edge55" class="edge">
<title>n0&#45;&gt;n45</title>
<path fill="none" stroke="black" d="M771.72,-484.07C834.66,-476.38 988.03,-456.89 1115.6,-434.56 1135.52,-431.07 1157.6,-426.52 1175.66,-422.62"/>
<polygon fill="black" stroke="black" points="1176.49,-426.03 1185.51,-420.48 1174.99,-419.19 1176.49,-426.03"/>
</g>
<!-- n56 -->
<g id="node57" class="node">
<title>n56</title>
<ellipse fill="none" stroke="black" cx="1301.6" cy="-413.35" rx="43.68" ry="21.43"/>
<text text-anchor="middle" x="1301.6" y="-416.35" font-family="Helvetica,sans-Serif" font-size="10.00">Print</text>
<text text-anchor="middle" x="1301.6" y="-405.35" font-family="Helvetica,sans-Serif" font-size="10.00">impuesto</text>
</g>
<!-- n0&#45;&gt;n56 -->
<g id="edge56" class="edge">
<title>n0&#45;&gt;n56</title>
<path fill="none" stroke="black" d="M771.85,-487.14C850.22,-485.44 1070.97,-476.97 1248.6,-434.56 1252.42,-433.65 1256.34,-432.53 1260.24,-431.29"/>
<polygon fill="black" stroke="black" points="1261.47,-434.56 1269.79,-428.01 1259.19,-427.94 1261.47,-434.56"/>
</g>
<!-- n2 -->
<g id="node3" class="node">
<title>n2</title>
<ellipse fill="none" stroke="black" cx="233.6" cy="-334.92" rx="32.55" ry="21.43"/>
<text text-anchor="middle" x="233.6" y="-337.92" font-family="Helvetica,sans-Serif" font-size="10.00">BinOp</text>
<text text-anchor="middle" x="233.6" y="-326.92" font-family="Helvetica,sans-Serif" font-size="10.00">*</text>
</g>
<!-- n1&#45;&gt;n2 -->
<g id="edge5" class="edge">
<title>n1&#45;&gt;n2</title>
<path fill="none" stroke="black" d="M270.71,-395C264.83,-385.64 257.44,-373.88 250.8,-363.31"/>
<polygon fill="black" stroke="black" points="253.74,-361.41 245.46,-354.8 247.81,-365.13 253.74,-361.41"/>
</g>
<!-- n3 -->
<g id="node4" class="node">
<title>n3</title>
<ellipse fill="none" stroke="black" cx="136.6" cy="-256.49" rx="32.55" ry="21.43"/>
<text text-anchor="middle" x="136.6" y="-259.49" font-family="Helvetica,sans-Serif" font-size="10.00">BinOp</text>
<text text-anchor="middle" x="136.6" y="-248.49" font-family="Helvetica,sans-Serif" font-size="10.00">+</text>
</g>
<!-- n2&#45;&gt;n3 -->
<g id="edge3" class="edge">
<title>n2&#45;&gt;n3</title>
<path fill="none" stroke="black" d="M213.5,-318.08C199.45,-307.02 180.5,-292.08 164.92,-279.81"/>
<polygon fill="black" stroke="black" points="166.69,-276.75 156.67,-273.31 162.36,-282.25 166.69,-276.75"/>
</g>
<!-- n6 -->
<g id="node7" class="node">
<title>n6</title>
<ellipse fill="none" stroke="black" cx="233.6" cy="-256.49" rx="39.7" ry="21.43"/>
<text text-anchor="middle" x="233.6" y="-259.49" font-family="Helvetica,sans-Serif" font-size="10.00">Number</text>
<text text-anchor="middle" x="233.6" y="-248.49" font-family="Helvetica,sans-Serif" font-size="10.00">1.05</text>
</g>
<!-- n2&#45;&gt;n6 -->
<g id="edge4" class="edge">
<title>n2&#45;&gt;n6</title>
<path fill="none" stroke="black" d="M233.6,-313.44C233.6,-305.58 233.6,-296.44 233.6,-287.84"/>
<polygon fill="black" stroke="black" points="237.1,-287.76 233.6,-277.76 230.1,-287.76 237.1,-287.76"/>
</g>
<!-- n4 -->
<g id="node5" class="node">
<title>n4</title>
<ellipse fill="none" stroke="black" cx="39.6" cy="-178.07" rx="39.7" ry="21.43"/>
<text text-anchor="middle" x="39.6" y="-181.07" font-family="Helvetica,sans-Serif" font-size="10.00">Number</text>
<text text-anchor="middle" x="39.6" y="-170.07" font-family="Helvetica,sans-Serif" font-size="10.00">80000.0</text>
</g>
<!-- n3&#45;&gt;n4 -->
<g id="edge1" class="edge">
<title>n3&#45;&gt;n4</title>
<path fill="none" stroke="black" d="M116.5,-239.66C102.83,-228.88 84.51,-214.45 69.18,-202.37"/>
<polygon fill="black" stroke="black" points="71.04,-199.38 61.02,-195.94 66.71,-204.88 71.04,-199.38"/>
</g>
<!-- n5 -->
<g id="node6" class="node">
<title>n5</title>
<ellipse fill="none" stroke="black" cx="136.6" cy="-178.07" rx="39.7" ry="21.43"/>
<text text-anchor="middle" x="136.6" y="-181.07" font-family="Helvetica,sans-Serif" font-size="10.00">Number</text>
<text text-anchor="middle" x="136.6" y="-170.07" font-family="Helvetica,sans-Serif" font-size="10.00">20000.0</text>
</g>
<!-- n3&#45;&gt;n5 -->
<g id="edge2" class="edge">
<title>n3&#45;&gt;n5</title>
<path fill="none" stroke="black" d="M136.6,-235.01C136.6,-227.15 136.6,-218.01 136.6,-209.42"/>
<polygon fill="black" stroke="black" points="140.1,-209.34 136.6,-199.34 133.1,-209.34 140.1,-209.34"/>
</g>
<!-- n8 -->
<g id="node9" class="node">
<title>n8</title>
<ellipse fill="none" stroke="black" cx="420.6" cy="-334.92" rx="32.55" ry="21.43"/>
<text text-anchor="middle" x="420.6" y="-337.92" font-family="Helvetica,sans-Serif" font-size="10.00">BinOp</text>
<text text-anchor="middle" x="420.6" y="-326.92" font-family="Helvetica,sans-Serif" font-size="10.00">+</text>
</g>
<!-- n7&#45;&gt;n8 -->
<g id="edge13" class="edge">
<title>n7&#45;&gt;n8</title>
<path fill="none" stroke="black" d="M420.6,-395C420.6,-386.53 420.6,-376.08 420.6,-366.34"/>
<polygon fill="black" stroke="black" points="424.1,-366.17 420.6,-356.17 417.1,-366.17 424.1,-366.17"/>
</g>
<!-- n9 -->
<g id="node10" class="node">
<title>n9</title>
<ellipse fill="none" stroke="black" cx="330.6" cy="-256.49" rx="32.55" ry="21.43"/>
<text text-anchor="middle" x="330.6" y="-259.49" font-family="Helvetica,sans-Serif" font-size="10.00">BinOp</text>
<text text-anchor="middle" x="330.6" y="-248.49" font-family="Helvetica,sans-Serif" font-size="10.00">*</text>
</g>
<!-- n8&#45;&gt;n9 -->
<g id="edge9" class="edge">
<title>n8&#45;&gt;n9</title>
<path fill="none" stroke="black" d="M401.51,-317.71C388.83,-306.94 371.98,-292.64 357.89,-280.67"/>
<polygon fill="black" stroke="black" points="359.86,-277.75 349.97,-273.94 355.32,-283.08 359.86,-277.75"/>
</g>
<!-- n12 -->
<g id="node13" class="node">
<title>n12</title>
<ellipse fill="none" stroke="black" cx="420.6" cy="-256.49" rx="32.55" ry="21.43"/>
<text text-anchor="middle" x="420.6" y="-259.49" font-family="Helvetica,sans-Serif" font-size="10.00">BinOp</text>
<text text-anchor="middle" x="420.6" y="-248.49" font-family="Helvetica,sans-Serif" font-size="10.00">/</text>
</g>
<!-- n8&#45;&gt;n12 -->
<g id="edge12" class="edge">
<title>n8&#45;&gt;n12</title>
<path fill="none" stroke="black" d="M420.6,-313.44C420.6,-305.58 420.6,-296.44 420.6,-287.84"/>
<polygon fill="black" stroke="black" points="424.1,-287.76 420.6,-277.76 417.1,-287.76 424.1,-287.76"/>
</g>
<!-- n10 -->
<g id="node11" class="node">
<title>n10</title>
<ellipse fill="none" stroke="black" cx="233.6" cy="-178.07" rx="39.7" ry="21.43"/>
<text text-anchor="middle" x="233.6" y="-181.07" font-family="Helvetica,sans-Serif" font-size="10.00">Number</text>
<text text-anchor="middle" x="233.6" y="-170.07" font-family="Helvetica,sans-Serif" font-size="10.00">12000.0</text>
</g>
<!-- n9&#45;&gt;n10 -->
<g id="edge7" class="edge">
<title>n9&#45;&gt;n10</title>
<path fill="none" stroke="black" d="M310.5,-239.66C296.83,-228.88 278.51,-214.45 263.18,-202.37"/>
<polygon fill="black" stroke="black" points="265.04,-199.38 255.02,-195.94 260.71,-204.88 265.04,-199.38"/>
</g>
<!-- n11 -->
<g id="node12" class="node">
<title>n11</title>
<ellipse fill="none" stroke="black" cx="330.6" cy="-178.07" rx="39.7" ry="21.43"/>
<text text-anchor="middle" x="330.6" y="-181.07" font-family="Helvetica,sans-Serif" font-size="10.00">Number</text>
<text text-anchor="middle" x="330.6" y="-170.07" font-family="Helvetica,sans-Serif" font-size="10.00">1.3</text>
</g>
<!-- n9&#45;&gt;n11 -->
<g id="edge8" class="edge">
<title>n9&#45;&gt;n11</title>
<path fill="none" stroke="black" d="M330.6,-235.01C330.6,-227.15 330.6,-218.01 330.6,-209.42"/>
<polygon fill="black" stroke="black" points="334.1,-209.34 330.6,-199.34 327.1,-209.34 334.1,-209.34"/>
</g>
<!-- n13 -->
<g id="node14" class="node">
<title>n13</title>
<ellipse fill="none" stroke="black" cx="427.6" cy="-178.07" rx="39.7" ry="21.43"/>
<text text-anchor="middle" x="427.6" y="-181.07" font-family="Helvetica,sans-Serif" font-size="10.00">Number</text>
<text text-anchor="middle" x="427.6" y="-170.07" font-family="Helvetica,sans-Serif" font-size="10.00">3500.0</text>
</g>
<!-- n12&#45;&gt;n13 -->
<g id="edge10" class="edge">
<title>n12&#45;&gt;n13</title>
<path fill="none" stroke="black" d="M422.47,-235.01C423.19,-227.15 424.03,-218.01 424.82,-209.42"/>
<polygon fill="black" stroke="black" points="428.31,-209.62 425.74,-199.34 421.34,-208.98 428.31,-209.62"/>
</g>
<!-- n14 -->
<g id="node15" class="node">
<title>n14</title>
<ellipse fill="none" stroke="black" cx="524.6" cy="-178.07" rx="39.7" ry="21.43"/>
<text text-anchor="middle" x="524.6" y="-181.07" font-family="Helvetica,sans-Serif" font-size="10.00">Number</text>
<text text-anchor="middle" x="524.6" y="-170.07" font-family="Helvetica,sans-Serif" font-size="10.00">1.4</text>
</g>
<!-- n12&#45;&gt;n14 -->
<g id="edge11" class="edge">
<title>n12&#45;&gt;n14</title>
<path fill="none" stroke="black" d="M441.64,-240.03C456.6,-229.03 476.94,-214.09 493.73,-201.75"/>
<polygon fill="black" stroke="black" points="496.16,-204.31 502.14,-195.57 492.01,-198.67 496.16,-204.31"/>
</g>
<!-- n16 -->
<g id="node17" class="node">
<title>n16</title>
<ellipse fill="none" stroke="black" cx="504.6" cy="-334.92" rx="32.55" ry="21.43"/>
<text text-anchor="middle" x="504.6" y="-337.92" font-family="Helvetica,sans-Serif" font-size="10.00">BinOp</text>
<text text-anchor="middle" x="504.6" y="-326.92" font-family="Helvetica,sans-Serif" font-size="10.00">+</text>
</g>
<!-- n15&#45;&gt;n16 -->
<g id="edge17" class="edge">
<title>n15&#45;&gt;n16</title>
<path fill="none" stroke="black" d="M510.78,-395C509.9,-386.53 508.8,-376.08 507.78,-366.34"/>
<polygon fill="black" stroke="black" points="511.24,-365.75 506.72,-356.17 504.28,-366.48 511.24,-365.75"/>
</g>
<!-- n17 -->
<g id="node18" class="node">
<title>n17</title>
<ellipse fill="none" stroke="black" cx="505.6" cy="-256.49" rx="34.8" ry="21.43"/>
<text text-anchor="middle" x="505.6" y="-259.49" font-family="Helvetica,sans-Serif" font-size="10.00">Var</text>
<text text-anchor="middle" x="505.6" y="-248.49" font-family="Helvetica,sans-Serif" font-size="10.00">sueldo</text>
</g>
<!-- n16&#45;&gt;n17 -->
<g id="edge15" class="edge">
<title>n16&#45;&gt;n17</title>
<path fill="none" stroke="black" d="M504.87,-313.44C504.97,-305.58 505.09,-296.44 505.2,-287.84"/>
<polygon fill="black" stroke="black" points="508.7,-287.81 505.33,-277.76 501.7,-287.72 508.7,-287.81"/>
</g>
<!-- n18 -->
<g id="node19" class="node">
<title>n18</title>
<ellipse fill="none" stroke="black" cx="591.6" cy="-256.49" rx="33.47" ry="21.43"/>
<text text-anchor="middle" x="591.6" y="-259.49" font-family="Helvetica,sans-Serif" font-size="10.00">Var</text>
<text text-anchor="middle" x="591.6" y="-248.49" font-family="Helvetica,sans-Serif" font-size="10.00">extras</text>
</g>
<!-- n16&#45;&gt;n18 -->
<g id="edge16" class="edge">
<title>n16&#45;&gt;n18</title>
<path fill="none" stroke="black" d="M523.48,-317.34C535.67,-306.62 551.72,-292.52 565.18,-280.7"/>
<polygon fill="black" stroke="black" points="567.55,-283.27 572.76,-274.04 562.93,-278.01 567.55,-283.27"/>
</g>
<!-- n20 -->
<g id="node21" class="node">
<title>n20</title>
<ellipse fill="none" stroke="black" cx="594.6" cy="-334.92" rx="39.7" ry="21.43"/>
<text text-anchor="middle" x="594.6" y="-337.92" font-family="Helvetica,sans-Serif" font-size="10.00">Number</text>
<text text-anchor="middle" x="594.6" y="-326.92" font-family="Helvetica,sans-Serif" font-size="10.00">0.18</text>
</g>
<!-- n19&#45;&gt;n20 -->
<g id="edge19" class="edge">
<title>n19&#45;&gt;n20</title>
<path fill="none" stroke="black" d="M602.33,-395C601.22,-386.53 599.85,-376.08 598.58,-366.34"/>
<polygon fill="black" stroke="black" points="602.02,-365.63 597.25,-356.17 595.07,-366.54 602.02,-365.63"/>
</g>
<!-- n22 -->
<g id="node23" class="node">
<title>n22</title>
<ellipse fill="none" stroke="black" cx="691.6" cy="-334.92" rx="39.7" ry="21.43"/>
<text text-anchor="middle" x="691.6" y="-337.92" font-family="Helvetica,sans-Serif" font-size="10.00">Number</text>
<text text-anchor="middle" x="691.6" y="-326.92" font-family="Helvetica,sans-Serif" font-size="10.00">0.22</text>
</g>
<!-- n21&#45;&gt;n22 -->
<g id="edge21" class="edge">
<title>n21&#45;&gt;n22</title>
<path fill="none" stroke="black" d="M695.46,-395C694.91,-386.53 694.23,-376.08 693.59,-366.34"/>
<polygon fill="black" stroke="black" points="697.07,-365.92 692.92,-356.17 690.08,-366.38 697.07,-365.92"/>
</g>
<!-- n24 -->
<g id="node25" class="node">
<title>n24</title>
<ellipse fill="none" stroke="black" cx="788.6" cy="-334.92" rx="39.7" ry="21.43"/>
<text text-anchor="middle" x="788.6" y="-337.92" font-family="Helvetica,sans-Serif" font-size="10.00">Number</text>
<text text-anchor="middle" x="788.6" y="-326.92" font-family="Helvetica,sans-Serif" font-size="10.00">0.0</text>
</g>
<!-- n23&#45;&gt;n24 -->
<g id="edge23" class="edge">
<title>n23&#45;&gt;n24</title>
<path fill="none" stroke="black" d="M788.6,-395C788.6,-386.53 788.6,-376.08 788.6,-366.34"/>
<polygon fill="black" stroke="black" points="792.1,-366.17 788.6,-356.17 785.1,-366.17 792.1,-366.17"/>
</g>
<!-- n26 -->
<g id="node27" class="node">
<title>n26</title>
<ellipse fill="none" stroke="black" cx="891.6" cy="-334.92" rx="45.01" ry="21.43"/>
<text text-anchor="middle" x="891.6" y="-337.92" font-family="Helvetica,sans-Serif" font-size="10.00">Cond</text>
<text text-anchor="middle" x="891.6" y="-326.92" font-family="Helvetica,sans-Serif" font-size="10.00">ingreso &gt;</text>
</g>
<!-- n25&#45;&gt;n26 -->
<g id="edge26" class="edge">
<title>n25&#45;&gt;n26</title>
<path fill="none" stroke="black" d="M891.6,-395C891.6,-386.53 891.6,-376.08 891.6,-366.34"/>
<polygon fill="black" stroke="black" points="895.1,-366.17 891.6,-356.17 888.1,-366.17 895.1,-366.17"/>
</g>
<!-- n28 -->
<g id="node29" class="node">
<title>n28</title>
<polygon fill="none" stroke="black" points="1016.6,-352.92 954.6,-352.92 954.6,-316.92 1016.6,-316.92 1016.6,-352.92"/>
<text text-anchor="middle" x="985.6" y="-337.92" font-family="Helvetica,sans-Serif" font-size="10.00">Action</text>
<text text-anchor="middle" x="985.6" y="-326.92" font-family="Helvetica,sans-Serif" font-size="10.00">impuesto</text>
</g>
<!-- n25&#45;&gt;n28 -->
<g id="edge34" class="edge">
<title>n25&#45;&gt;n28</title>
<path fill="none" stroke="black" d="M912.93,-395C925.88,-384.47 942.58,-370.89 956.7,-359.41"/>
<polygon fill="black" stroke="black" points="959.13,-361.95 964.68,-352.93 954.71,-356.52 959.13,-361.95"/>
</g>
<!-- n27 -->
<g id="node28" class="node">
<title>n27</title>
<ellipse fill="none" stroke="black" cx="891.6" cy="-256.49" rx="43.68" ry="21.43"/>
<text text-anchor="middle" x="891.6" y="-259.49" font-family="Helvetica,sans-Serif" font-size="10.00">Number</text>
<text text-anchor="middle" x="891.6" y="-248.49" font-family="Helvetica,sans-Serif" font-size="10.00">200000.0</text>
</g>
<!-- n26&#45;&gt;n27 -->
<g id="edge25" class="edge">
<title>n26&#45;&gt;n27</title>
<path fill="none" stroke="black" d="M891.6,-313.44C891.6,-305.58 891.6,-296.44 891.6,-287.84"/>
<polygon fill="black" stroke="black" points="895.1,-287.76 891.6,-277.76 888.1,-287.76 895.1,-287.76"/>
</g>
<!-- n29 -->
<g id="node30" class="node">
<title>n29</title>
<ellipse fill="none" stroke="black" cx="985.6" cy="-256.49" rx="32.55" ry="21.43"/>
<text text-anchor="middle" x="985.6" y="-259.49" font-family="Helvetica,sans-Serif" font-size="10.00">BinOp</text>
<text text-anchor="middle" x="985.6" y="-248.49" font-family="Helvetica,sans-Serif" font-size="10.00">+</text>
</g>
<!-- n28&#45;&gt;n29 -->
<g id="edge33" class="edge">
<title>n28&#45;&gt;n29</title>
<path fill="none" stroke="black" d="M985.6,-316.58C985.6,-308.1 985.6,-297.65 985.6,-287.91"/>
<polygon fill="black" stroke="black" points="989.1,-287.74 985.6,-277.74 982.1,-287.74 989.1,-287.74"/>
</g>
<!-- n30 -->
<g id="node31" class="node">
<title>n30</title>
<ellipse fill="none" stroke="black" cx="905.6" cy="-178.07" rx="43.68" ry="21.43"/>
<text text-anchor="middle" x="905.6" y="-181.07" font-family="Helvetica,sans-Serif" font-size="10.00">Var</text>
<text text-anchor="middle" x="905.6" y="-170.07" font-family="Helvetica,sans-Serif" font-size="10.00">impuesto</text>
</g>
<!-- n29&#45;&gt;n30 -->
<g id="edge27" class="edge">
<title>n29&#45;&gt;n30</title>
<path fill="none" stroke="black" d="M967.84,-238.53C957.35,-228.5 943.85,-215.61 932.11,-204.4"/>
<polygon fill="black" stroke="black" points="934.35,-201.69 924.7,-197.31 929.51,-206.75 934.35,-201.69"/>
</g>
<!-- n31 -->
<g id="node32" class="node">
<title>n31</title>
<ellipse fill="none" stroke="black" cx="999.6" cy="-178.07" rx="32.55" ry="21.43"/>
<text text-anchor="middle" x="999.6" y="-181.07" font-family="Helvetica,sans-Serif" font-size="10.00">BinOp</text>
<text text-anchor="middle" x="999.6" y="-170.07" font-family="Helvetica,sans-Serif" font-size="10.00">*</text>
</g>
<!-- n29&#45;&gt;n31 -->
<g id="edge32" class="edge">
<title>n29&#45;&gt;n31</title>
<path fill="none" stroke="black" d="M989.28,-235.41C990.74,-227.4 992.46,-218.01 994.08,-209.21"/>
<polygon fill="black" stroke="black" points="997.54,-209.74 995.9,-199.28 990.65,-208.48 997.54,-209.74"/>
</g>
<!-- n32 -->
<g id="node33" class="node">
<title>n32</title>
<ellipse fill="none" stroke="black" cx="974.6" cy="-99.64" rx="32.55" ry="21.43"/>
<text text-anchor="middle" x="974.6" y="-102.64" font-family="Helvetica,sans-Serif" font-size="10.00">BinOp</text>
<text text-anchor="middle" x="974.6" y="-91.64" font-family="Helvetica,sans-Serif" font-size="10.00">&#45;</text>
</g>
<!-- n31&#45;&gt;n32 -->
<g id="edge30" class="edge">
<title>n31&#45;&gt;n32</title>
<path fill="none" stroke="black" d="M993.03,-156.99C990.36,-148.82 987.22,-139.23 984.3,-130.29"/>
<polygon fill="black" stroke="black" points="987.56,-129 981.12,-120.59 980.91,-131.18 987.56,-129"/>
</g>
<!-- n35 -->
<g id="node36" class="node">
<title>n35</title>
<ellipse fill="none" stroke="black" cx="1052.6" cy="-99.64" rx="27" ry="21.43"/>
<text text-anchor="middle" x="1052.6" y="-102.64" font-family="Helvetica,sans-Serif" font-size="10.00">Var</text>
<text text-anchor="middle" x="1052.6" y="-91.64" font-family="Helvetica,sans-Serif" font-size="10.00">t2</text>
</g>
<!-- n31&#45;&gt;n35 -->
<g id="edge31" class="edge">
<title>n31&#45;&gt;n35</title>
<path fill="none" stroke="black" d="M1012.43,-158.57C1018.99,-149.11 1027.08,-137.43 1034.28,-127.05"/>
<polygon fill="black" stroke="black" points="1037.25,-128.92 1040.07,-118.71 1031.49,-124.93 1037.25,-128.92"/>
</g>
<!-- n33 -->
<g id="node34" class="node">
<title>n33</title>
<ellipse fill="none" stroke="black" cx="925.6" cy="-21.21" rx="37.45" ry="21.43"/>
<text text-anchor="middle" x="925.6" y="-24.21" font-family="Helvetica,sans-Serif" font-size="10.00">Var</text>
<text text-anchor="middle" x="925.6" y="-13.21" font-family="Helvetica,sans-Serif" font-size="10.00">ingreso</text>
</g>
<!-- n32&#45;&gt;n33 -->
<g id="edge28" class="edge">
<title>n32&#45;&gt;n33</title>
<path fill="none" stroke="black" d="M962.49,-79.75C956.76,-70.81 949.8,-59.97 943.48,-50.11"/>
<polygon fill="black" stroke="black" points="946.26,-47.95 937.91,-41.42 940.36,-51.73 946.26,-47.95"/>
</g>
<!-- n34 -->
<g id="node35" class="node">
<title>n34</title>
<ellipse fill="none" stroke="black" cx="1024.6" cy="-21.21" rx="43.68" ry="21.43"/>
<text text-anchor="middle" x="1024.6" y="-24.21" font-family="Helvetica,sans-Serif" font-size="10.00">Number</text>
<text text-anchor="middle" x="1024.6" y="-13.21" font-family="Helvetica,sans-Serif" font-size="10.00">200000.0</text>
</g>
<!-- n32&#45;&gt;n34 -->
<g id="edge29" class="edge">
<title>n32&#45;&gt;n34</title>
<path fill="none" stroke="black" d="M986.96,-79.75C992.76,-70.88 999.79,-60.13 1006.2,-50.33"/>
<polygon fill="black" stroke="black" points="1009.31,-51.97 1011.86,-41.69 1003.45,-48.14 1009.31,-51.97"/>
</g>
<!-- n37 -->
<g id="node38" class="node">
<title>n37</title>
<ellipse fill="none" stroke="black" cx="1079.6" cy="-334.92" rx="45.01" ry="21.43"/>
<text text-anchor="middle" x="1079.6" y="-337.92" font-family="Helvetica,sans-Serif" font-size="10.00">Cond</text>
<text text-anchor="middle" x="1079.6" y="-326.92" font-family="Helvetica,sans-Serif" font-size="10.00">ingreso &gt;</text>
</g>
<!-- n36&#45;&gt;n37 -->
<g id="edge37" class="edge">
<title>n36&#45;&gt;n37</title>
<path fill="none" stroke="black" d="M1079.6,-395C1079.6,-386.53 1079.6,-376.08 1079.6,-366.34"/>
<polygon fill="black" stroke="black" points="1083.1,-366.17 1079.6,-356.17 1076.1,-366.17 1083.1,-366.17"/>
</g>
<!-- n39 -->
<g id="node40" class="node">
<title>n39</title>
<polygon fill="none" stroke="black" points="1204.6,-352.92 1142.6,-352.92 1142.6,-316.92 1204.6,-316.92 1204.6,-352.92"/>
<text text-anchor="middle" x="1173.6" y="-337.92" font-family="Helvetica,sans-Serif" font-size="10.00">Action</text>
<text text-anchor="middle" x="1173.6" y="-326.92" font-family="Helvetica,sans-Serif" font-size="10.00">impuesto</text>
</g>
<!-- n36&#45;&gt;n39 -->
<g id="edge43" class="edge">
<title>n36&#45;&gt;n39</title>
<path fill="none" stroke="black" d="M1100.93,-395C1113.88,-384.47 1130.58,-370.89 1144.7,-359.41"/>
<polygon fill="black" stroke="black" points="1147.13,-361.95 1152.68,-352.93 1142.71,-356.52 1147.13,-361.95"/>
</g>
<!-- n38 -->
<g id="node39" class="node">
<title>n38</title>
<ellipse fill="none" stroke="black" cx="1079.6" cy="-256.49" rx="43.68" ry="21.43"/>
<text text-anchor="middle" x="1079.6" y="-259.49" font-family="Helvetica,sans-Serif" font-size="10.00">Number</text>
<text text-anchor="middle" x="1079.6" y="-248.49" font-family="Helvetica,sans-Serif" font-size="10.00">200000.0</text>
</g>
<!-- n37&#45;&gt;n38 -->
<g id="edge36" class="edge">
<title>n37&#45;&gt;n38</title>
<path fill="none" stroke="black" d="M1079.6,-313.44C1079.6,-305.58 1079.6,-296.44 1079.6,-287.84"/>
<polygon fill="black" stroke="black" points="1083.1,-287.76 1079.6,-277.76 1076.1,-287.76 1083.1,-287.76"/>
</g>
<!-- n40 -->
<g id="node41" class="node">
<title>n40</title>
<ellipse fill="none" stroke="black" cx="1173.6" cy="-256.49" rx="32.55" ry="21.43"/>
<text text-anchor="middle" x="1173.6" y="-259.49" font-family="Helvetica,sans-Serif" font-size="10.00">BinOp</text>
<text text-anchor="middle" x="1173.6" y="-248.49" font-family="Helvetica,sans-Serif" font-size="10.00">+</text>
</g>
<!-- n39&#45;&gt;n40 -->
<g id="edge42" class="edge">
<title>n39&#45;&gt;n40</title>
<path fill="none" stroke="black" d="M1173.6,-316.58C1173.6,-308.1 1173.6,-297.65 1173.6,-287.91"/>
<polygon fill="black" stroke="black" points="1177.1,-287.74 1173.6,-277.74 1170.1,-287.74 1177.1,-287.74"/>
</g>
<!-- n41 -->
<g id="node42" class="node">
<title>n41</title>
<ellipse fill="none" stroke="black" cx="1119.6" cy="-178.07" rx="43.68" ry="21.43"/>
<text text-anchor="middle" x="1119.6" y="-181.07" font-family="Helvetica,sans-Serif" font-size="10.00">Var</text>
<text text-anchor="middle" x="1119.6" y="-170.07" font-family="Helvetica,sans-Serif" font-size="10.00">impuesto</text>
</g>
<!-- n40&#45;&gt;n41 -->
<g id="edge38" class="edge">
<title>n40&#45;&gt;n41</title>
<path fill="none" stroke="black" d="M1160.53,-236.99C1154.15,-227.97 1146.35,-216.93 1139.28,-206.92"/>
<polygon fill="black" stroke="black" points="1141.93,-204.61 1133.3,-198.46 1136.22,-208.65 1141.93,-204.61"/>
</g>
<!-- n42 -->
<g id="node43" class="node">
<title>n42</title>
<ellipse fill="none" stroke="black" cx="1213.6" cy="-178.07" rx="32.55" ry="21.43"/>
<text text-anchor="middle" x="1213.6" y="-181.07" font-family="Helvetica,sans-Serif" font-size="10.00">BinOp</text>
<text text-anchor="middle" x="1213.6" y="-170.07" font-family="Helvetica,sans-Serif" font-size="10.00">*</text>
</g>
<!-- n40&#45;&gt;n42 -->
<g id="edge41" class="edge">
<title>n40&#45;&gt;n42</title>
<path fill="none" stroke="black" d="M1183.69,-236.21C1188.29,-227.43 1193.82,-216.86 1198.86,-207.22"/>
<polygon fill="black" stroke="black" points="1201.97,-208.83 1203.51,-198.35 1195.77,-205.58 1201.97,-208.83"/>
</g>
<!-- n43 -->
<g id="node44" class="node">
<title>n43</title>
<ellipse fill="none" stroke="black" cx="1146.6" cy="-99.64" rx="43.68" ry="21.43"/>
<text text-anchor="middle" x="1146.6" y="-102.64" font-family="Helvetica,sans-Serif" font-size="10.00">Number</text>
<text text-anchor="middle" x="1146.6" y="-91.64" font-family="Helvetica,sans-Serif" font-size="10.00">100000.0</text>
</g>
<!-- n42&#45;&gt;n43 -->
<g id="edge39" class="edge">
<title>n42&#45;&gt;n43</title>
<path fill="none" stroke="black" d="M1198.06,-159.34C1189.68,-149.78 1179.17,-137.8 1169.84,-127.15"/>
<polygon fill="black" stroke="black" points="1172.21,-124.55 1162.99,-119.34 1166.95,-129.16 1172.21,-124.55"/>
</g>
<!-- n44 -->
<g id="node45" class="node">
<title>n44</title>
<ellipse fill="none" stroke="black" cx="1235.6" cy="-99.64" rx="27" ry="21.43"/>
<text text-anchor="middle" x="1235.6" y="-102.64" font-family="Helvetica,sans-Serif" font-size="10.00">Var</text>
<text text-anchor="middle" x="1235.6" y="-91.64" font-family="Helvetica,sans-Serif" font-size="10.00">t1</text>
</g>
<!-- n42&#45;&gt;n44 -->
<g id="edge40" class="edge">
<title>n42&#45;&gt;n44</title>
<path fill="none" stroke="black" d="M1219.38,-156.99C1221.73,-148.82 1224.49,-139.23 1227.06,-130.29"/>
<polygon fill="black" stroke="black" points="1230.45,-131.16 1229.86,-120.59 1223.73,-129.23 1230.45,-131.16"/>
</g>
<!-- n46 -->
<g id="node47" class="node">
<title>n46</title>
<ellipse fill="none" stroke="black" cx="1273.6" cy="-334.92" rx="50.82" ry="21.43"/>
<text text-anchor="middle" x="1273.6" y="-337.92" font-family="Helvetica,sans-Serif" font-size="10.00">Cond</text>
<text text-anchor="middle" x="1273.6" y="-326.92" font-family="Helvetica,sans-Serif" font-size="10.00">ingreso &lt;=</text>
</g>
<!-- n45&#45;&gt;n46 -->
<g id="edge46" class="edge">
<title>n45&#45;&gt;n46</title>
<path fill="none" stroke="black" d="M1226.44,-395C1233.87,-385.69 1243.21,-373.99 1251.61,-363.46"/>
<polygon fill="black" stroke="black" points="1254.59,-365.34 1258.09,-355.34 1249.12,-360.98 1254.59,-365.34"/>
</g>
<!-- n48 -->
<g id="node49" class="node">
<title>n48</title>
<polygon fill="none" stroke="black" points="1404.6,-352.92 1342.6,-352.92 1342.6,-316.92 1404.6,-316.92 1404.6,-352.92"/>
<text text-anchor="middle" x="1373.6" y="-337.92" font-family="Helvetica,sans-Serif" font-size="10.00">Action</text>
<text text-anchor="middle" x="1373.6" y="-326.92" font-family="Helvetica,sans-Serif" font-size="10.00">impuesto</text>
</g>
<!-- n45&#45;&gt;n48 -->
<g id="edge54" class="edge">
<title>n45&#45;&gt;n48</title>
<path fill="none" stroke="black" d="M1239.95,-396.58C1242.84,-395.03 1245.77,-393.52 1248.6,-392.13 1282.84,-375.33 1294.71,-373.57 1333.07,-356.23"/>
<polygon fill="black" stroke="black" points="1334.63,-359.36 1342.25,-352.01 1331.7,-353 1334.63,-359.36"/>
</g>
<!-- n47 -->
<g id="node48" class="node">
<title>n47</title>
<ellipse fill="none" stroke="black" cx="1273.6" cy="-256.49" rx="43.68" ry="21.43"/>
<text text-anchor="middle" x="1273.6" y="-259.49" font-family="Helvetica,sans-Serif" font-size="10.00">Number</text>
<text text-anchor="middle" x="1273.6" y="-248.49" font-family="Helvetica,sans-Serif" font-size="10.00">200000.0</text>
</g>
<!-- n46&#45;&gt;n47 -->
<g id="edge45" class="edge">
<title>n46&#45;&gt;n47</title>
<path fill="none" stroke="black" d="M1273.6,-313.44C1273.6,-305.58 1273.6,-296.44 1273.6,-287.84"/>
<polygon fill="black" stroke="black" points="1277.1,-287.76 1273.6,-277.76 1270.1,-287.76 1277.1,-287.76"/>
</g>
<!-- n49 -->
<g id="node50" class="node">
<title>n49</title>
<ellipse fill="none" stroke="black" cx="1373.6" cy="-256.49" rx="32.55" ry="21.43"/>
<text text-anchor="middle" x="1373.6" y="-259.49" font-family="Helvetica,sans-Serif" font-size="10.00">BinOp</text>
<text text-anchor="middle" x="1373.6" y="-248.49" font-family="Helvetica,sans-Serif" font-size="10.00">+</text>
</g>
<!-- n48&#45;&gt;n49 -->
<g id="edge53" class="edge">
<title>n48&#45;&gt;n49</title>
<path fill="none" stroke="black" d="M1373.6,-316.58C1373.6,-308.1 1373.6,-297.65 1373.6,-287.91"/>
<polygon fill="black" stroke="black" points="1377.1,-287.74 1373.6,-277.74 1370.1,-287.74 1377.1,-287.74"/>
</g>
<!-- n50 -->
<g id="node51" class="node">
<title>n50</title>
<ellipse fill="none" stroke="black" cx="1320.6" cy="-178.07" rx="43.68" ry="21.43"/>
<text text-anchor="middle" x="1320.6" y="-181.07" font-family="Helvetica,sans-Serif" font-size="10.00">Var</text>
<text text-anchor="middle" x="1320.6" y="-170.07" font-family="Helvetica,sans-Serif" font-size="10.00">impuesto</text>
</g>
<!-- n49&#45;&gt;n50 -->
<g id="edge47" class="edge">
<title>n49&#45;&gt;n50</title>
<path fill="none" stroke="black" d="M1360.77,-236.99C1354.51,-227.97 1346.86,-216.93 1339.91,-206.92"/>
<polygon fill="black" stroke="black" points="1342.62,-204.69 1334.05,-198.46 1336.87,-208.67 1342.62,-204.69"/>
</g>
<!-- n51 -->
<g id="node52" class="node">
<title>n51</title>
<ellipse fill="none" stroke="black" cx="1414.6" cy="-178.07" rx="32.55" ry="21.43"/>
<text text-anchor="middle" x="1414.6" y="-181.07" font-family="Helvetica,sans-Serif" font-size="10.00">BinOp</text>
<text text-anchor="middle" x="1414.6" y="-170.07" font-family="Helvetica,sans-Serif" font-size="10.00">*</text>
</g>
<!-- n49&#45;&gt;n51 -->
<g id="edge52" class="edge">
<title>n49&#45;&gt;n51</title>
<path fill="none" stroke="black" d="M1383.94,-236.21C1388.65,-227.43 1394.32,-216.86 1399.49,-207.22"/>
<polygon fill="black" stroke="black" points="1402.61,-208.81 1404.26,-198.35 1396.44,-205.5 1402.61,-208.81"/>
</g>
<!-- n52 -->
<g id="node53" class="node">
<title>n52</title>
<ellipse fill="none" stroke="black" cx="1375.6" cy="-99.64" rx="32.55" ry="21.43"/>
<text text-anchor="middle" x="1375.6" y="-102.64" font-family="Helvetica,sans-Serif" font-size="10.00">BinOp</text>
<text text-anchor="middle" x="1375.6" y="-91.64" font-family="Helvetica,sans-Serif" font-size="10.00">&#45;</text>
</g>
<!-- n51&#45;&gt;n52 -->
<g id="edge50" class="edge">
<title>n51&#45;&gt;n52</title>
<path fill="none" stroke="black" d="M1404.76,-157.78C1400.32,-149.09 1395,-138.66 1390.12,-129.09"/>
<polygon fill="black" stroke="black" points="1393.1,-127.24 1385.44,-119.92 1386.86,-130.42 1393.1,-127.24"/>
</g>
<!-- n55 -->
<g id="node56" class="node">
<title>n55</title>
<ellipse fill="none" stroke="black" cx="1453.6" cy="-99.64" rx="27" ry="21.43"/>
<text text-anchor="middle" x="1453.6" y="-102.64" font-family="Helvetica,sans-Serif" font-size="10.00">Var</text>
<text text-anchor="middle" x="1453.6" y="-91.64" font-family="Helvetica,sans-Serif" font-size="10.00">t1</text>
</g>
<!-- n51&#45;&gt;n55 -->
<g id="edge51" class="edge">
<title>n51&#45;&gt;n55</title>
<path fill="none" stroke="black" d="M1424.44,-157.78C1428.95,-148.93 1434.39,-138.28 1439.34,-128.57"/>
<polygon fill="black" stroke="black" points="1442.47,-130.15 1443.89,-119.65 1436.23,-126.97 1442.47,-130.15"/>
</g>
<!-- n53 -->
<g id="node54" class="node">
<title>n53</title>
<ellipse fill="none" stroke="black" cx="1325.6" cy="-21.21" rx="37.45" ry="21.43"/>
<text text-anchor="middle" x="1325.6" y="-24.21" font-family="Helvetica,sans-Serif" font-size="10.00">Var</text>
<text text-anchor="middle" x="1325.6" y="-13.21" font-family="Helvetica,sans-Serif" font-size="10.00">ingreso</text>
</g>
<!-- n52&#45;&gt;n53 -->
<g id="edge48" class="edge">
<title>n52&#45;&gt;n53</title>
<path fill="none" stroke="black" d="M1363.24,-79.75C1357.33,-70.72 1350.15,-59.74 1343.65,-49.81"/>
<polygon fill="black" stroke="black" points="1346.57,-47.87 1338.16,-41.42 1340.71,-51.7 1346.57,-47.87"/>
</g>
<!-- n54 -->
<g id="node55" class="node">
<title>n54</title>
<ellipse fill="none" stroke="black" cx="1424.6" cy="-21.21" rx="43.68" ry="21.43"/>
<text text-anchor="middle" x="1424.6" y="-24.21" font-family="Helvetica,sans-Serif" font-size="10.00">Number</text>
<text text-anchor="middle" x="1424.6" y="-13.21" font-family="Helvetica,sans-Serif" font-size="10.00">100000.0</text>
</g>
<!-- n52&#45;&gt;n54 -->
<g id="edge49" class="edge">
<title>n52&#45;&gt;n54</title>
<path fill="none" stroke="black" d="M1387.71,-79.75C1393.4,-70.88 1400.29,-60.13 1406.57,-50.33"/>
<polygon fill="black" stroke="black" points="1409.66,-51.99 1412.11,-41.69 1403.77,-48.22 1409.66,-51.99"/>
</g>
</g>
</svg>
