<?xml version="1.0" encoding="UTF-8" standalone="no"?>
<!DOCTYPE svg PUBLIC "-//W3C//DTD SVG 1.1//EN"
 "http://www.w3.org/Graphics/SVG/1.1/DTD/svg11.dtd">
<!-- Generated by graphviz version 2.43.0 (0)
 -->
<!-- Title: parse Pages: 1 -->
<svg width="646pt" height="476pt"
 viewBox="0.00 0.00 646.00 476.00" xmlns="http://www.w3.org/2000/svg" xmlns:xlink="http://www.w3.org/1999/xlink">
<g id="graph0" class="graph" transform="scale(1 1) rotate(0) translate(4 472)">
<title>parse</title>
<polygon fill="white" stroke="transparent" points="-4,4 -4,-472 642,-472 642,4 -4,4"/>
<!-- n0 -->
<g id="node1" class="node">
<title>n0</title>
<polygon fill="none" stroke="black" points="383,-468 325,-468 325,-432 383,-432 383,-468"/>
<text text-anchor="middle" x="354" y="-447.5" font-family="Helvetica,sans-Serif" font-size="10.00">program</text>
</g>
<!-- n1 -->
<g id="node2" class="node">
<title>n1</title>
<polygon fill="none" stroke="black" points="269.5,-396 202.5,-396 202.5,-360 269.5,-360 269.5,-396"/>
<text text-anchor="middle" x="236" y="-375.5" font-family="Helvetica,sans-Serif" font-size="10.00">statement</text>
</g>
<!-- n0&#45;&gt;n1 -->
<g id="edge9" class="edge">
<title>n0&#45;&gt;n1</title>
<path fill="none" stroke="black" d="M325.13,-431.88C309.71,-422.72 290.52,-411.34 273.9,-401.48"/>
<polygon fill="black" stroke="black" points="275.36,-398.28 264.98,-396.19 271.79,-404.3 275.36,-398.28"/>
</g>
<!-- n10 -->
<g id="node11" class="node">
<title>n10</title>
<polygon fill="none" stroke="black" points="387.5,-396 320.5,-396 320.5,-360 387.5,-360 387.5,-396"/>
<text text-anchor="middle" x="354" y="-375.5" font-family="Helvetica,sans-Serif" font-size="10.00">statement</text>
</g>
<!-- n0&#45;&gt;n10 -->
<g id="edge16" class="edge">
<title>n0&#45;&gt;n10</title>
<path fill="none" stroke="black" d="M354,-431.7C354,-423.98 354,-414.71 354,-406.11"/>
<polygon fill="black" stroke="black" points="357.5,-406.1 354,-396.1 350.5,-406.1 357.5,-406.1"/>
</g>
<!-- n17 -->
<g id="node18" class="node">
<title>n17</title>
<polygon fill="none" stroke="black" points="460,-396 406,-396 406,-360 460,-360 460,-396"/>
<text text-anchor="start" x="423" y="-375.5" font-family="Helvetica,sans-Serif" font-size="10.00">EOF</text>
</g>
<!-- n0&#45;&gt;n17 -->
<g id="edge17" class="edge">
<title>n0&#45;&gt;n17</title>
<path fill="none" stroke="black" d="M373.53,-431.7C383.38,-422.97 395.49,-412.24 406.2,-402.75"/>
<polygon fill="black" stroke="black" points="408.53,-405.36 413.7,-396.1 403.89,-400.12 408.53,-405.36"/>
</g>
<!-- n2 -->
<g id="node3" class="node">
<title>n2</title>
<polygon fill="none" stroke="black" points="208,-324 134,-324 134,-288 208,-288 208,-324"/>
<text text-anchor="middle" x="171" y="-303.5" font-family="Helvetica,sans-Serif" font-size="10.00">assignment</text>
</g>
<!-- n1&#45;&gt;n2 -->
<g id="edge8" class="edge">
<title>n1&#45;&gt;n2</title>
<path fill="none" stroke="black" d="M219.93,-359.7C212.06,-351.22 202.44,-340.86 193.83,-331.58"/>
<polygon fill="black" stroke="black" points="196.25,-329.05 186.88,-324.1 191.12,-333.81 196.25,-329.05"/>
</g>
<!-- n3 -->
<g id="node4" class="node">
<title>n3</title>
<polygon fill="none" stroke="black" points="54,-252 0,-252 0,-216 54,-216 54,-252"/>
<text text-anchor="middle" x="27" y="-231.5" font-family="Helvetica,sans-Serif" font-size="10.00">ingreso</text>
</g>
<!-- n2&#45;&gt;n3 -->
<g id="edge1" class="edge">
<title>n2&#45;&gt;n3</title>
<path fill="none" stroke="black" d="M135.77,-287.88C113.77,-277.18 85.51,-263.44 63.3,-252.65"/>
<polygon fill="black" stroke="black" points="64.72,-249.44 54.2,-248.22 61.66,-255.74 64.72,-249.44"/>
</g>
<!-- n4 -->
<g id="node5" class="node">
<title>n4</title>
<polygon fill="none" stroke="black" points="126,-252 72,-252 72,-216 126,-216 126,-252"/>
<text text-anchor="middle" x="99" y="-231.5" font-family="Helvetica,sans-Serif" font-size="10.00">=</text>
</g>
<!-- n2&#45;&gt;n4 -->
<g id="edge2" class="edge">
<title>n2&#45;&gt;n4</title>
<path fill="none" stroke="black" d="M153.2,-287.7C144.4,-279.14 133.62,-268.66 124,-259.3"/>
<polygon fill="black" stroke="black" points="126.2,-256.57 116.59,-252.1 121.32,-261.58 126.2,-256.57"/>
</g>
<!-- n5 -->
<g id="node6" class="node">
<title>n5</title>
<polygon fill="none" stroke="black" points="198,-252 144,-252 144,-216 198,-216 198,-252"/>
<text text-anchor="middle" x="171" y="-231.5" font-family="Helvetica,sans-Serif" font-size="10.00">expr</text>
</g>
<!-- n2&#45;&gt;n5 -->
<g id="edge6" class="edge">
<title>n2&#45;&gt;n5</title>
<path fill="none" stroke="black" d="M171,-287.7C171,-279.98 171,-270.71 171,-262.11"/>
<polygon fill="black" stroke="black" points="174.5,-262.1 171,-252.1 167.5,-262.1 174.5,-262.1"/>
</g>
<!-- n9 -->
<g id="node10" class="node">
<title>n9</title>
<polygon fill="none" stroke="black" points="270,-252 216,-252 216,-216 270,-216 270,-252"/>
<text text-anchor="middle" x="243" y="-231.5" font-family="Helvetica,sans-Serif" font-size="10.00">;</text>
</g>
<!-- n2&#45;&gt;n9 -->
<g id="edge7" class="edge">
<title>n2&#45;&gt;n9</title>
<path fill="none" stroke="black" d="M188.8,-287.7C197.6,-279.14 208.38,-268.66 218,-259.3"/>
<polygon fill="black" stroke="black" points="220.68,-261.58 225.41,-252.1 215.8,-256.57 220.68,-261.58"/>
</g>
<!-- n6 -->
<g id="node7" class="node">
<title>n6</title>
<polygon fill="none" stroke="black" points="198,-180 144,-180 144,-144 198,-144 198,-180"/>
<text text-anchor="middle" x="171" y="-159.5" font-family="Helvetica,sans-Serif" font-size="10.00">term</text>
</g>
<!-- n5&#45;&gt;n6 -->
<g id="edge5" class="edge">
<title>n5&#45;&gt;n6</title>
<path fill="none" stroke="black" d="M171,-215.7C171,-207.98 171,-198.71 171,-190.11"/>
<polygon fill="black" stroke="black" points="174.5,-190.1 171,-180.1 167.5,-190.1 174.5,-190.1"/>
</g>
<!-- n7 -->
<g id="node8" class="node">
<title>n7</title>
<polygon fill="none" stroke="black" points="198,-108 144,-108 144,-72 198,-72 198,-108"/>
<text text-anchor="middle" x="171" y="-87.5" font-family="Helvetica,sans-Serif" font-size="10.00">factor</text>
</g>
<!-- n6&#45;&gt;n7 -->
<g id="edge4" class="edge">
<title>n6&#45;&gt;n7</title>
<path fill="none" stroke="black" d="M171,-143.7C171,-135.98 171,-126.71 171,-118.11"/>
<polygon fill="black" stroke="black" points="174.5,-118.1 171,-108.1 167.5,-118.1 174.5,-118.1"/>
</g>
<!-- n8 -->
<g id="node9" class="node">
<title>n8</title>
<polygon fill="none" stroke="black" points="198,-36 144,-36 144,0 198,0 198,-36"/>
<text text-anchor="middle" x="171" y="-15.5" font-family="Helvetica,sans-Serif" font-size="10.00">100000</text>
</g>
<!-- n7&#45;&gt;n8 -->
<g id="edge3" class="edge">
<title>n7&#45;&gt;n8</title>
<path fill="none" stroke="black" d="M171,-71.7C171,-63.98 171,-54.71 171,-46.11"/>
<polygon fill="black" stroke="black" points="174.5,-46.1 171,-36.1 167.5,-46.1 174.5,-46.1"/>
</g>
<!-- n11 -->
<g id="node12" class="node">
<title>n11</title>
<polygon fill="none" stroke="black" points="456,-324 394,-324 394,-288 456,-288 456,-324"/>
<text text-anchor="middle" x="425" y="-303.5" font-family="Helvetica,sans-Serif" font-size="10.00">printStmt</text>
</g>
<!-- n10&#45;&gt;n11 -->
<g id="edge15" class="edge">
<title>n10&#45;&gt;n11</title>
<path fill="none" stroke="black" d="M371.55,-359.7C380.23,-351.14 390.86,-340.66 400.35,-331.3"/>
<polygon fill="black" stroke="black" points="402.99,-333.62 407.65,-324.1 398.07,-328.63 402.99,-333.62"/>
</g>
<!-- n12 -->
<g id="node13" class="node">
<title>n12</title>
<polygon fill="none" stroke="black" points="342,-252 288,-252 288,-216 342,-216 342,-252"/>
<text text-anchor="middle" x="315" y="-231.5" font-family="Helvetica,sans-Serif" font-size="10.00">print</text>
</g>
<!-- n11&#45;&gt;n12 -->
<g id="edge10" class="edge">
<title>n11&#45;&gt;n12</title>
<path fill="none" stroke="black" d="M398.09,-287.88C383.84,-278.81 366.15,-267.55 350.76,-257.76"/>
<polygon fill="black" stroke="black" points="352.33,-254.61 342.01,-252.19 348.57,-260.51 352.33,-254.61"/>
</g>
<!-- n13 -->
<g id="node14" class="node">
<title>n13</title>
<polygon fill="none" stroke="black" points="414,-252 360,-252 360,-216 414,-216 414,-252"/>
<text text-anchor="middle" x="387" y="-231.5" font-family="Helvetica,sans-Serif" font-size="10.00">(</text>
</g>
<!-- n11&#45;&gt;n13 -->
<g id="edge11" class="edge">
<title>n11&#45;&gt;n13</title>
<path fill="none" stroke="black" d="M415.61,-287.7C411.24,-279.64 405.94,-269.89 401.1,-260.98"/>
<polygon fill="black" stroke="black" points="404.13,-259.22 396.29,-252.1 397.98,-262.56 404.13,-259.22"/>
</g>
<!-- n14 -->
<g id="node15" class="node">
<title>n14</title>
<polygon fill="none" stroke="black" points="494,-252 432,-252 432,-216 494,-216 494,-252"/>
<text text-anchor="middle" x="463" y="-231.5" font-family="Helvetica,sans-Serif" font-size="10.00">impuesto</text>
</g>
<!-- n11&#45;&gt;n14 -->
<g id="edge12" class="edge">
<title>n11&#45;&gt;n14</title>
<path fill="none" stroke="black" d="M434.39,-287.7C438.76,-279.64 444.06,-269.89 448.9,-260.98"/>
<polygon fill="black" stroke="black" points="452.02,-262.56 453.71,-252.1 445.87,-259.22 452.02,-262.56"/>
</g>
<!-- n15 -->
<g id="node16" class="node">
<title>n15</title>
<polygon fill="none" stroke="black" points="566,-252 512,-252 512,-216 566,-216 566,-252"/>
<text text-anchor="middle" x="539" y="-231.5" font-family="Helvetica,sans-Serif" font-size="10.00">)</text>
</g>
<!-- n11&#45;&gt;n15 -->
<g id="edge13" class="edge">
<title>n11&#45;&gt;n15</title>
<path fill="none" stroke="black" d="M452.89,-287.88C468.02,-278.59 486.88,-267 503.1,-257.04"/>
<polygon fill="black" stroke="black" points="505.1,-259.92 511.79,-251.71 501.44,-253.96 505.1,-259.92"/>
</g>
<!-- n16 -->
<g id="node17" class="node">
<title>n16</title>
<polygon fill="none" stroke="black" points="638,-252 584,-252 584,-216 638,-216 638,-252"/>
<text text-anchor="middle" x="611" y="-231.5" font-family="Helvetica,sans-Serif" font-size="10.00">;</text>
</g>
<!-- n11&#45;&gt;n16 -->
<g id="edge14" class="edge">
<title>n11&#45;&gt;n16</title>
<path fill="none" stroke="black" d="M456.08,-295.04C484.69,-285.65 528.42,-270.74 574.14,-252.17"/>
<polygon fill="black" stroke="black" points="575.69,-255.32 583.61,-248.28 573.03,-248.84 575.69,-255.32"/>
</g>
</g>
</svg>
