<?xml version="1.0" encoding="UTF-8" standalone="no"?>
<!DOCTYPE svg PUBLIC "-//W3C//DTD SVG 1.1//EN"
 "http://www.w3.org/Graphics/SVG/1.1/DTD/svg11.dtd">
<!-- Generated by graphviz version 2.43.0 (0)
 -->
<!-- Title: ast Pages: 1 -->
<svg width="195pt" height="201pt"
 viewBox="0.00 0.00 194.68 200.85" xmlns="http://www.w3.org/2000/svg" xmlns:xlink="http://www.w3.org/1999/xlink">
<g id="graph0" class="graph" transform="scale(1 1) rotate(0) translate(4 196.85)">
<title>ast</title>
<polygon fill="white" stroke="transparent" points="-4,4 -4,-196.85 190.68,-196.85 190.68,4 -4,4"/>
<!-- n0 -->
<g id="node1" class="node">
<title>n0</title>
<polygon fill="none" stroke="black" points="121.84,-192.85 63.84,-192.85 63.84,-156.85 121.84,-156.85 121.84,-192.85"/>
<text text-anchor="middle" x="92.84" y="-172.35" font-family="Helvetica,sans-Serif" font-size="10.00">Program</text>
</g>
<!-- n1 -->
<g id="node2" class="node">
<title>n1</title>
<polygon fill="none" stroke="black" points="80.84,-117.64 6.84,-117.64 6.84,-81.64 80.84,-81.64 80.84,-117.64"/>
<text text-anchor="middle" x="43.84" y="-102.64" font-family="Helvetica,sans-Serif" font-size="10.00">Assignment</text>
<text text-anchor="middle" x="43.84" y="-91.64" font-family="Helvetica,sans-Serif" font-size="10.00">ingreso</text>
</g>
<!-- n0&#45;&gt;n1 -->
<g id="edge2" class="edge">
<title>n0&#45;&gt;n1</title>
<path fill="none" stroke="black" d="M81.23,-156.5C75.19,-147.48 67.68,-136.27 60.99,-126.26"/>
<polygon fill="black" stroke="black" points="63.84,-124.23 55.37,-117.87 58.02,-128.12 63.84,-124.23"/>
</g>
<!-- n3 -->
<g id="node4" class="node">
<title>n3</title>
<ellipse fill="none" stroke="black" cx="142.84" cy="-99.64" rx="43.68" ry="21.43"/>
<text text-anchor="middle" x="142.84" y="-102.64" font-family="Helvetica,sans-Serif" font-size="10.00">Print</text>
<text text-anchor="middle" x="142.84" y="-91.64" font-family="Helvetica,sans-Serif" font-size="10.00">impuesto</text>
</g>
<!-- n0&#45;&gt;n3 -->
<g id="edge3" class="edge">
<title>n0&#45;&gt;n3</title>
<path fill="none" stroke="black" d="M104.69,-156.5C110.44,-148.08 117.48,-137.77 123.95,-128.3"/>
<polygon fill="black" stroke="black" points="126.92,-130.16 129.67,-119.93 121.14,-126.21 126.92,-130.16"/>
</g>
<!-- n2 -->
<g id="node3" class="node">
<title>n2</title>
<ellipse fill="none" stroke="black" cx="43.84" cy="-21.21" rx="43.68" ry="21.43"/>
<text text-anchor="middle" x="43.84" y="-24.21" font-family="Helvetica,sans-Serif" font-size="10.00">Number</text>
<text text-anchor="middle" x="43.84" y="-13.21" font-family="Helvetica,sans-Serif" font-size="10.00">100000.0</text>
</g>
<!-- n1&#45;&gt;n2 -->
<g id="edge1" class="edge">
<title>n1&#45;&gt;n2</title>
<path fill="none" stroke="black" d="M43.84,-81.3C43.84,-72.82 43.84,-62.37 43.84,-52.63"/>
<polygon fill="black" stroke="black" points="47.34,-52.46 43.84,-42.46 40.34,-52.46 47.34,-52.46"/>
</g>
</g>
</svg>
