<?xml version="1.0" encoding="UTF-8" standalone="no"?>
<!DOCTYPE svg PUBLIC "-//W3C//DTD SVG 1.1//EN"
 "http://www.w3.org/Graphics/SVG/1.1/DTD/svg11.dtd">
<!-- Generated by graphviz version 2.43.0 (0)
 -->
<!-- Title: parse Pages: 1 -->
<svg width="2103pt" height="620pt"
 viewBox="0.00 0.00 2103.00 620.00" xmlns="http://www.w3.org/2000/svg" xmlns:xlink="http://www.w3.org/1999/xlink">
<g id="graph0" class="graph" transform="scale(1 1) rotate(0) translate(4 616)">
<title>parse</title>
<polygon fill="white" stroke="transparent" points="-4,4 -4,-616 2099,-616 2099,4 -4,4"/>
<!-- n0 -->
<g id="node1" class="node">
<title>n0</title>
<polygon fill="none" stroke="black" points="1070,-612 1012,-612 1012,-576 1070,-576 1070,-612"/>
<text text-anchor="middle" x="1041" y="-591.5" font-family="Helvetica,sans-Serif" font-size="10.00">program</text>
</g>
<!-- n1 -->
<g id="node2" class="node">
<title>n1</title>
<polygon fill="none" stroke="black" points="407.5,-540 340.5,-540 340.5,-504 407.5,-504 407.5,-540"/>
<text text-anchor="middle" x="374" y="-519.5" font-family="Helvetica,sans-Serif" font-size="10.00">statement</text>
</g>
<!-- n0&#45;&gt;n1 -->
<g id="edge9" class="edge">
<title>n0&#45;&gt;n1</title>
<path fill="none" stroke="black" d="M1011.72,-590.22C932.17,-582.63 705.37,-560.72 517,-540 483.69,-536.34 446.06,-531.85 417.76,-528.4"/>
<polygon fill="black" stroke="black" points="418.14,-524.92 407.79,-527.19 417.29,-531.87 418.14,-524.92"/>
</g>
<!-- n10 -->
<g id="node11" class="node">
<title>n10</title>
<polygon fill="none" stroke="black" points="593.5,-540 526.5,-540 526.5,-504 593.5,-504 593.5,-540"/>
<text text-anchor="middle" x="560" y="-519.5" font-family="Helvetica,sans-Serif" font-size="10.00">statement</text>
</g>
<!-- n0&#45;&gt;n10 -->
<g id="edge18" class="edge">
<title>n0&#45;&gt;n10</title>
<path fill="none" stroke="black" d="M1011.99,-588.78C930.76,-576.96 700.66,-543.47 603.81,-529.38"/>
<polygon fill="black" stroke="black" points="604.17,-525.89 593.77,-527.91 603.16,-532.82 604.17,-525.89"/>
</g>
<!-- n19 -->
<g id="node20" class="node">
<title>n19</title>
<polygon fill="none" stroke="black" points="845.5,-540 778.5,-540 778.5,-504 845.5,-504 845.5,-540"/>
<text text-anchor="middle" x="812" y="-519.5" font-family="Helvetica,sans-Serif" font-size="10.00">statement</text>
</g>
<!-- n0&#45;&gt;n19 -->
<g id="edge27" class="edge">
<title>n0&#45;&gt;n19</title>
<path fill="none" stroke="black" d="M1012,-584.13C972.42,-572.04 901.17,-550.26 855.26,-536.22"/>
<polygon fill="black" stroke="black" points="856.18,-532.84 845.59,-533.27 854.13,-539.54 856.18,-532.84"/>
</g>
<!-- n28 -->
<g id="node29" class="node">
<title>n28</title>
<polygon fill="none" stroke="black" points="1032.5,-540 965.5,-540 965.5,-504 1032.5,-504 1032.5,-540"/>
<text text-anchor="middle" x="999" y="-519.5" font-family="Helvetica,sans-Serif" font-size="10.00">statement</text>
</g>
<!-- n0&#45;&gt;n28 -->
<g id="edge41" class="edge">
<title>n0&#45;&gt;n28</title>
<path fill="none" stroke="black" d="M1030.62,-575.7C1025.74,-567.56 1019.81,-557.69 1014.42,-548.7"/>
<polygon fill="black" stroke="black" points="1017.41,-546.88 1009.26,-540.1 1011.41,-550.48 1017.41,-546.88"/>
</g>
<!-- n42 -->
<g id="node43" class="node">
<title>n42</title>
<polygon fill="none" stroke="black" points="1117.5,-540 1050.5,-540 1050.5,-504 1117.5,-504 1117.5,-540"/>
<text text-anchor="middle" x="1084" y="-519.5" font-family="Helvetica,sans-Serif" font-size="10.00">statement</text>
</g>
<!-- n0&#45;&gt;n42 -->
<g id="edge50" class="edge">
<title>n0&#45;&gt;n42</title>
<path fill="none" stroke="black" d="M1051.63,-575.7C1056.63,-567.56 1062.69,-557.69 1068.21,-548.7"/>
<polygon fill="black" stroke="black" points="1071.24,-550.46 1073.49,-540.1 1065.28,-546.79 1071.24,-550.46"/>
</g>
<!-- n51 -->
<g id="node52" class="node">
<title>n51</title>
<polygon fill="none" stroke="black" points="1202.5,-540 1135.5,-540 1135.5,-504 1202.5,-504 1202.5,-540"/>
<text text-anchor="middle" x="1169" y="-519.5" font-family="Helvetica,sans-Serif" font-size="10.00">statement</text>
</g>
<!-- n0&#45;&gt;n51 -->
<g id="edge74" class="edge">
<title>n0&#45;&gt;n51</title>
<path fill="none" stroke="black" d="M1070.05,-577.12C1087.49,-567.57 1109.94,-555.3 1129.04,-544.85"/>
<polygon fill="black" stroke="black" points="1130.74,-547.91 1137.83,-540.04 1127.38,-541.77 1130.74,-547.91"/>
</g>
<!-- n75 -->
<g id="node76" class="node">
<title>n75</title>
<polygon fill="none" stroke="black" points="1287.5,-540 1220.5,-540 1220.5,-504 1287.5,-504 1287.5,-540"/>
<text text-anchor="middle" x="1254" y="-519.5" font-family="Helvetica,sans-Serif" font-size="10.00">statement</text>
</g>
<!-- n0&#45;&gt;n75 -->
<g id="edge81" class="edge">
<title>n0&#45;&gt;n75</title>
<path fill="none" stroke="black" d="M1070.09,-584.65C1102.26,-575.25 1155.76,-559.17 1210.74,-539.97"/>
<polygon fill="black" stroke="black" points="1212.02,-543.22 1220.29,-536.6 1209.69,-536.62 1212.02,-543.22"/>
</g>
<!-- n82 -->
<g id="node83" class="node">
<title>n82</title>
<polygon fill="none" stroke="black" points="1360,-540 1306,-540 1306,-504 1360,-504 1360,-540"/>
<text text-anchor="start" x="1323" y="-519.5" font-family="Helvetica,sans-Serif" font-size="10.00">EOF</text>
</g>
<!-- n0&#45;&gt;n82 -->
<g id="edge82" class="edge">
<title>n0&#45;&gt;n82</title>
<path fill="none" stroke="black" d="M1070.24,-589.12C1118.23,-582.26 1216.32,-566.21 1296,-540 1296.1,-539.97 1296.2,-539.93 1296.3,-539.9"/>
<polygon fill="black" stroke="black" points="1297.67,-543.13 1305.8,-536.33 1295.21,-536.57 1297.67,-543.13"/>
</g>
<!-- n2 -->
<g id="node3" class="node">
<title>n2</title>
<polygon fill="none" stroke="black" points="208,-468 134,-468 134,-432 208,-432 208,-468"/>
<text text-anchor="middle" x="171" y="-447.5" font-family="Helvetica,sans-Serif" font-size="10.00">assignment</text>
</g>
<!-- n1&#45;&gt;n2 -->
<g id="edge8" class="edge">
<title>n1&#45;&gt;n2</title>
<path fill="none" stroke="black" d="M340.48,-509.44C306.99,-497.89 255.21,-480.04 217.7,-467.1"/>
<polygon fill="black" stroke="black" points="218.61,-463.71 208.01,-463.76 216.32,-470.33 218.61,-463.71"/>
</g>
<!-- n3 -->
<g id="node4" class="node">
<title>n3</title>
<polygon fill="none" stroke="black" points="54,-396 0,-396 0,-360 54,-360 54,-396"/>
<text text-anchor="middle" x="27" y="-375.5" font-family="Helvetica,sans-Serif" font-size="10.00">base</text>
</g>
<!-- n2&#45;&gt;n3 -->
<g id="edge1" class="edge">
<title>n2&#45;&gt;n3</title>
<path fill="none" stroke="black" d="M135.77,-431.88C113.77,-421.18 85.51,-407.44 63.3,-396.65"/>
<polygon fill="black" stroke="black" points="64.72,-393.44 54.2,-392.22 61.66,-399.74 64.72,-393.44"/>
</g>
<!-- n4 -->
<g id="node5" class="node">
<title>n4</title>
<polygon fill="none" stroke="black" points="126,-396 72,-396 72,-360 126,-360 126,-396"/>
<text text-anchor="middle" x="99" y="-375.5" font-family="Helvetica,sans-Serif" font-size="10.00">=</text>
</g>
<!-- n2&#45;&gt;n4 -->
<g id="edge2" class="edge">
<title>n2&#45;&gt;n4</title>
<path fill="none" stroke="black" d="M153.2,-431.7C144.4,-423.14 133.62,-412.66 124,-403.3"/>
<polygon fill="black" stroke="black" points="126.2,-400.57 116.59,-396.1 121.32,-405.58 126.2,-400.57"/>
</g>
<!-- n5 -->
<g id="node6" class="node">
<title>n5</title>
<polygon fill="none" stroke="black" points="198,-396 144,-396 144,-360 198,-360 198,-396"/>
<text text-anchor="middle" x="171" y="-375.5" font-family="Helvetica,sans-Serif" font-size="10.00">expr</text>
</g>
<!-- n2&#45;&gt;n5 -->
<g id="edge6" class="edge">
<title>n2&#45;&gt;n5</title>
<path fill="none" stroke="black" d="M171,-431.7C171,-423.98 171,-414.71 171,-406.11"/>
<polygon fill="black" stroke="black" points="174.5,-406.1 171,-396.1 167.5,-406.1 174.5,-406.1"/>
</g>
<!-- n9 -->
<g id="node10" class="node">
<title>n9</title>
<polygon fill="none" stroke="black" points="270,-396 216,-396 216,-360 270,-360 270,-396"/>
<text text-anchor="middle" x="243" y="-375.5" font-family="Helvetica,sans-Serif" font-size="10.00">;</text>
</g>
<!-- n2&#45;&gt;n9 -->
<g id="edge7" class="edge">
<title>n2&#45;&gt;n9</title>
<path fill="none" stroke="black" d="M188.8,-431.7C197.6,-423.14 208.38,-412.66 218,-403.3"/>
<polygon fill="black" stroke="black" points="220.68,-405.58 225.41,-396.1 215.8,-400.57 220.68,-405.58"/>
</g>
<!-- n6 -->
<g id="node7" class="node">
<title>n6</title>
<polygon fill="none" stroke="black" points="198,-324 144,-324 144,-288 198,-288 198,-324"/>
<text text-anchor="middle" x="171" y="-303.5" font-family="Helvetica,sans-Serif" font-size="10.00">term</text>
</g>
<!-- n5&#45;&gt;n6 -->
<g id="edge5" class="edge">
<title>n5&#45;&gt;n6</title>
<path fill="none" stroke="black" d="M171,-359.7C171,-351.98 171,-342.71 171,-334.11"/>
<polygon fill="black" stroke="black" points="174.5,-334.1 171,-324.1 167.5,-334.1 174.5,-334.1"/>
</g>
<!-- n7 -->
<g id="node8" class="node">
<title>n7</title>
<polygon fill="none" stroke="black" points="198,-252 144,-252 144,-216 198,-216 198,-252"/>
<text text-anchor="middle" x="171" y="-231.5" font-family="Helvetica,sans-Serif" font-size="10.00">factor</text>
</g>
<!-- n6&#45;&gt;n7 -->
<g id="edge4" class="edge">
<title>n6&#45;&gt;n7</title>
<path fill="none" stroke="black" d="M171,-287.7C171,-279.98 171,-270.71 171,-262.11"/>
<polygon fill="black" stroke="black" points="174.5,-262.1 171,-252.1 167.5,-262.1 174.5,-262.1"/>
</g>
<!-- n8 -->
<g id="node9" class="node">
<title>n8</title>
<polygon fill="none" stroke="black" points="198,-180 144,-180 144,-144 198,-144 198,-180"/>
<text text-anchor="middle" x="171" y="-159.5" font-family="Helvetica,sans-Serif" font-size="10.00">110000</text>
</g>
<!-- n7&#45;&gt;n8 -->
<g id="edge3" class="edge">
<title>n7&#45;&gt;n8</title>
<path fill="none" stroke="black" d="M171,-215.7C171,-207.98 171,-198.71 171,-190.11"/>
<polygon fill="black" stroke="black" points="174.5,-190.1 171,-180.1 167.5,-190.1 174.5,-190.1"/>
</g>
<!-- n11 -->
<g id="node12" class="node">
<title>n11</title>
<polygon fill="none" stroke="black" points="496,-468 422,-468 422,-432 496,-432 496,-468"/>
<text text-anchor="middle" x="459" y="-447.5" font-family="Helvetica,sans-Serif" font-size="10.00">assignment</text>
</g>
<!-- n10&#45;&gt;n11 -->
<g id="edge17" class="edge">
<title>n10&#45;&gt;n11</title>
<path fill="none" stroke="black" d="M535.29,-503.88C522.33,-494.89 506.27,-483.76 492.23,-474.03"/>
<polygon fill="black" stroke="black" points="494.02,-471.01 483.8,-468.19 490.03,-476.76 494.02,-471.01"/>
</g>
<!-- n12 -->
<g id="node13" class="node">
<title>n12</title>
<polygon fill="none" stroke="black" points="342,-396 288,-396 288,-360 342,-360 342,-396"/>
<text text-anchor="middle" x="315" y="-375.5" font-family="Helvetica,sans-Serif" font-size="10.00">extra</text>
</g>
<!-- n11&#45;&gt;n12 -->
<g id="edge10" class="edge">
<title>n11&#45;&gt;n12</title>
<path fill="none" stroke="black" d="M423.77,-431.88C401.77,-421.18 373.51,-407.44 351.3,-396.65"/>
<polygon fill="black" stroke="black" points="352.72,-393.44 342.2,-392.22 349.66,-399.74 352.72,-393.44"/>
</g>
<!-- n13 -->
<g id="node14" class="node">
<title>n13</title>
<polygon fill="none" stroke="black" points="414,-396 360,-396 360,-360 414,-360 414,-396"/>
<text text-anchor="middle" x="387" y="-375.5" font-family="Helvetica,sans-Serif" font-size="10.00">=</text>
</g>
<!-- n11&#45;&gt;n13 -->
<g id="edge11" class="edge">
<title>n11&#45;&gt;n13</title>
<path fill="none" stroke="black" d="M441.2,-431.7C432.4,-423.14 421.62,-412.66 412,-403.3"/>
<polygon fill="black" stroke="black" points="414.2,-400.57 404.59,-396.1 409.32,-405.58 414.2,-400.57"/>
</g>
<!-- n14 -->
<g id="node15" class="node">
<title>n14</title>
<polygon fill="none" stroke="black" points="486,-396 432,-396 432,-360 486,-360 486,-396"/>
<text text-anchor="middle" x="459" y="-375.5" font-family="Helvetica,sans-Serif" font-size="10.00">expr</text>
</g>
<!-- n11&#45;&gt;n14 -->
<g id="edge15" class="edge">
<title>n11&#45;&gt;n14</title>
<path fill="none" stroke="black" d="M459,-431.7C459,-423.98 459,-414.71 459,-406.11"/>
<polygon fill="black" stroke="black" points="462.5,-406.1 459,-396.1 455.5,-406.1 462.5,-406.1"/>
</g>
<!-- n18 -->
<g id="node19" class="node">
<title>n18</title>
<polygon fill="none" stroke="black" points="558,-396 504,-396 504,-360 558,-360 558,-396"/>
<text text-anchor="middle" x="531" y="-375.5" font-family="Helvetica,sans-Serif" font-size="10.00">;</text>
</g>
<!-- n11&#45;&gt;n18 -->
<g id="edge16" class="edge">
<title>n11&#45;&gt;n18</title>
<path fill="none" stroke="black" d="M476.8,-431.7C485.6,-423.14 496.38,-412.66 506,-403.3"/>
<polygon fill="black" stroke="black" points="508.68,-405.58 513.41,-396.1 503.8,-400.57 508.68,-405.58"/>
</g>
<!-- n15 -->
<g id="node16" class="node">
<title>n15</title>
<polygon fill="none" stroke="black" points="486,-324 432,-324 432,-288 486,-288 486,-324"/>
<text text-anchor="middle" x="459" y="-303.5" font-family="Helvetica,sans-Serif" font-size="10.00">term</text>
</g>
<!-- n14&#45;&gt;n15 -->
<g id="edge14" class="edge">
<title>n14&#45;&gt;n15</title>
<path fill="none" stroke="black" d="M459,-359.7C459,-351.98 459,-342.71 459,-334.11"/>
<polygon fill="black" stroke="black" points="462.5,-334.1 459,-324.1 455.5,-334.1 462.5,-334.1"/>
</g>
<!-- n16 -->
<g id="node17" class="node">
<title>n16</title>
<polygon fill="none" stroke="black" points="486,-252 432,-252 432,-216 486,-216 486,-252"/>
<text text-anchor="middle" x="459" y="-231.5" font-family="Helvetica,sans-Serif" font-size="10.00">factor</text>
</g>
<!-- n15&#45;&gt;n16 -->
<g id="edge13" class="edge">
<title>n15&#45;&gt;n16</title>
<path fill="none" stroke="black" d="M459,-287.7C459,-279.98 459,-270.71 459,-262.11"/>
<polygon fill="black" stroke="black" points="462.5,-262.1 459,-252.1 455.5,-262.1 462.5,-262.1"/>
</g>
<!-- n17 -->
<g id="node18" class="node">
<title>n17</title>
<polygon fill="none" stroke="black" points="486,-180 432,-180 432,-144 486,-144 486,-180"/>
<text text-anchor="middle" x="459" y="-159.5" font-family="Helvetica,sans-Serif" font-size="10.00">15000</text>
</g>
<!-- n16&#45;&gt;n17 -->
<g id="edge12" class="edge">
<title>n16&#45;&gt;n17</title>
<path fill="none" stroke="black" d="M459,-215.7C459,-207.98 459,-198.71 459,-190.11"/>
<polygon fill="black" stroke="black" points="462.5,-190.1 459,-180.1 455.5,-190.1 462.5,-190.1"/>
</g>
<!-- n20 -->
<g id="node21" class="node">
<title>n20</title>
<polygon fill="none" stroke="black" points="784,-468 710,-468 710,-432 784,-432 784,-468"/>
<text text-anchor="middle" x="747" y="-447.5" font-family="Helvetica,sans-Serif" font-size="10.00">assignment</text>
</g>
<!-- n19&#45;&gt;n20 -->
<g id="edge26" class="edge">
<title>n19&#45;&gt;n20</title>
<path fill="none" stroke="black" d="M795.93,-503.7C788.06,-495.22 778.44,-484.86 769.83,-475.58"/>
<polygon fill="black" stroke="black" points="772.25,-473.05 762.88,-468.1 767.12,-477.81 772.25,-473.05"/>
</g>
<!-- n21 -->
<g id="node22" class="node">
<title>n21</title>
<polygon fill="none" stroke="black" points="630,-396 576,-396 576,-360 630,-360 630,-396"/>
<text text-anchor="middle" x="603" y="-375.5" font-family="Helvetica,sans-Serif" font-size="10.00">tasa</text>
</g>
<!-- n20&#45;&gt;n21 -->
<g id="edge19" class="edge">
<title>n20&#45;&gt;n21</title>
<path fill="none" stroke="black" d="M711.77,-431.88C689.77,-421.18 661.51,-407.44 639.3,-396.65"/>
<polygon fill="black" stroke="black" points="640.72,-393.44 630.2,-392.22 637.66,-399.74 640.72,-393.44"/>
</g>
<!-- n22 -->
<g id="node23" class="node">
<title>n22</title>
<polygon fill="none" stroke="black" points="702,-396 648,-396 648,-360 702,-360 702,-396"/>
<text text-anchor="middle" x="675" y="-375.5" font-family="Helvetica,sans-Serif" font-size="10.00">=</text>
</g>
<!-- n20&#45;&gt;n22 -->
<g id="edge20" class="edge">
<title>n20&#45;&gt;n22</title>
<path fill="none" stroke="black" d="M729.2,-431.7C720.4,-423.14 709.62,-412.66 700,-403.3"/>
<polygon fill="black" stroke="black" points="702.2,-400.57 692.59,-396.1 697.32,-405.58 702.2,-400.57"/>
</g>
<!-- n23 -->
<g id="node24" class="node">
<title>n23</title>
<polygon fill="none" stroke="black" points="774,-396 720,-396 720,-360 774,-360 774,-396"/>
<text text-anchor="middle" x="747" y="-375.5" font-family="Helvetica,sans-Serif" font-size="10.00">expr</text>
</g>
<!-- n20&#45;&gt;n23 -->
<g id="edge24" class="edge">
<title>n20&#45;&gt;n23</title>
<path fill="none" stroke="black" d="M747,-431.7C747,-423.98 747,-414.71 747,-406.11"/>
<polygon fill="black" stroke="black" points="750.5,-406.1 747,-396.1 743.5,-406.1 750.5,-406.1"/>
</g>
<!-- n27 -->
<g id="node28" class="node">
<title>n27</title>
<polygon fill="none" stroke="black" points="846,-396 792,-396 792,-360 846,-360 846,-396"/>
<text text-anchor="middle" x="819" y="-375.5" font-family="Helvetica,sans-Serif" font-size="10.00">;</text>
</g>
<!-- n20&#45;&gt;n27 -->
<g id="edge25" class="edge">
<title>n20&#45;&gt;n27</title>
<path fill="none" stroke="black" d="M764.8,-431.7C773.6,-423.14 784.38,-412.66 794,-403.3"/>
<polygon fill="black" stroke="black" points="796.68,-405.58 801.41,-396.1 791.8,-400.57 796.68,-405.58"/>
</g>
<!-- n24 -->
<g id="node25" class="node">
<title>n24</title>
<polygon fill="none" stroke="black" points="774,-324 720,-324 720,-288 774,-288 774,-324"/>
<text text-anchor="middle" x="747" y="-303.5" font-family="Helvetica,sans-Serif" font-size="10.00">term</text>
</g>
<!-- n23&#45;&gt;n24 -->
<g id="edge23" class="edge">
<title>n23&#45;&gt;n24</title>
<path fill="none" stroke="black" d="M747,-359.7C747,-351.98 747,-342.71 747,-334.11"/>
<polygon fill="black" stroke="black" points="750.5,-334.1 747,-324.1 743.5,-334.1 750.5,-334.1"/>
</g>
<!-- n25 -->
<g id="node26" class="node">
<title>n25</title>
<polygon fill="none" stroke="black" points="774,-252 720,-252 720,-216 774,-216 774,-252"/>
<text text-anchor="middle" x="747" y="-231.5" font-family="Helvetica,sans-Serif" font-size="10.00">factor</text>
</g>
<!-- n24&#45;&gt;n25 -->
<g id="edge22" class="edge">
<title>n24&#45;&gt;n25</title>
<path fill="none" stroke="black" d="M747,-287.7C747,-279.98 747,-270.71 747,-262.11"/>
<polygon fill="black" stroke="black" points="750.5,-262.1 747,-252.1 743.5,-262.1 750.5,-262.1"/>
</g>
<!-- n26 -->
<g id="node27" class="node">
<title>n26</title>
<polygon fill="none" stroke="black" points="774,-180 720,-180 720,-144 774,-144 774,-180"/>
<text text-anchor="middle" x="747" y="-159.5" font-family="Helvetica,sans-Serif" font-size="10.00">0.18</text>
</g>
<!-- n25&#45;&gt;n26 -->
<g id="edge21" class="edge">
<title>n25&#45;&gt;n26</title>
<path fill="none" stroke="black" d="M747,-215.7C747,-207.98 747,-198.71 747,-190.11"/>
<polygon fill="black" stroke="black" points="750.5,-190.1 747,-180.1 743.5,-190.1 750.5,-190.1"/>
</g>
<!-- n29 -->
<g id="node30" class="node">
<title>n29</title>
<polygon fill="none" stroke="black" points="1036,-468 962,-468 962,-432 1036,-432 1036,-468"/>
<text text-anchor="middle" x="999" y="-447.5" font-family="Helvetica,sans-Serif" font-size="10.00">assignment</text>
</g>
<!-- n28&#45;&gt;n29 -->
<g id="edge40" class="edge">
<title>n28&#45;&gt;n29</title>
<path fill="none" stroke="black" d="M999,-503.7C999,-495.98 999,-486.71 999,-478.11"/>
<polygon fill="black" stroke="black" points="1002.5,-478.1 999,-468.1 995.5,-478.1 1002.5,-478.1"/>
</g>
<!-- n30 -->
<g id="node31" class="node">
<title>n30</title>
<polygon fill="none" stroke="black" points="918,-396 864,-396 864,-360 918,-360 918,-396"/>
<text text-anchor="middle" x="891" y="-375.5" font-family="Helvetica,sans-Serif" font-size="10.00">ingreso</text>
</g>
<!-- n29&#45;&gt;n30 -->
<g id="edge28" class="edge">
<title>n29&#45;&gt;n30</title>
<path fill="none" stroke="black" d="M972.58,-431.88C958.59,-422.81 941.22,-411.55 926.11,-401.76"/>
<polygon fill="black" stroke="black" points="927.82,-398.69 917.52,-396.19 924.01,-404.57 927.82,-398.69"/>
</g>
<!-- n31 -->
<g id="node32" class="node">
<title>n31</title>
<polygon fill="none" stroke="black" points="990,-396 936,-396 936,-360 990,-360 990,-396"/>
<text text-anchor="middle" x="963" y="-375.5" font-family="Helvetica,sans-Serif" font-size="10.00">=</text>
</g>
<!-- n29&#45;&gt;n31 -->
<g id="edge29" class="edge">
<title>n29&#45;&gt;n31</title>
<path fill="none" stroke="black" d="M990.1,-431.7C986,-423.73 981.05,-414.1 976.51,-405.26"/>
<polygon fill="black" stroke="black" points="979.48,-403.4 971.8,-396.1 973.26,-406.6 979.48,-403.4"/>
</g>
<!-- n32 -->
<g id="node33" class="node">
<title>n32</title>
<polygon fill="none" stroke="black" points="1062,-396 1008,-396 1008,-360 1062,-360 1062,-396"/>
<text text-anchor="middle" x="1035" y="-375.5" font-family="Helvetica,sans-Serif" font-size="10.00">expr</text>
</g>
<!-- n29&#45;&gt;n32 -->
<g id="edge38" class="edge">
<title>n29&#45;&gt;n32</title>
<path fill="none" stroke="black" d="M1007.9,-431.7C1012,-423.73 1016.95,-414.1 1021.49,-405.26"/>
<polygon fill="black" stroke="black" points="1024.74,-406.6 1026.2,-396.1 1018.52,-403.4 1024.74,-406.6"/>
</g>
<!-- n41 -->
<g id="node42" class="node">
<title>n41</title>
<polygon fill="none" stroke="black" points="1134,-396 1080,-396 1080,-360 1134,-360 1134,-396"/>
<text text-anchor="middle" x="1107" y="-375.5" font-family="Helvetica,sans-Serif" font-size="10.00">;</text>
</g>
<!-- n29&#45;&gt;n41 -->
<g id="edge39" class="edge">
<title>n29&#45;&gt;n41</title>
<path fill="none" stroke="black" d="M1025.42,-431.88C1039.41,-422.81 1056.78,-411.55 1071.89,-401.76"/>
<polygon fill="black" stroke="black" points="1073.99,-404.57 1080.48,-396.19 1070.18,-398.69 1073.99,-404.57"/>
</g>
<!-- n33 -->
<g id="node34" class="node">
<title>n33</title>
<polygon fill="none" stroke="black" points="990,-324 936,-324 936,-288 990,-288 990,-324"/>
<text text-anchor="middle" x="963" y="-303.5" font-family="Helvetica,sans-Serif" font-size="10.00">expr</text>
</g>
<!-- n32&#45;&gt;n33 -->
<g id="edge33" class="edge">
<title>n32&#45;&gt;n33</title>
<path fill="none" stroke="black" d="M1017.2,-359.7C1008.4,-351.14 997.62,-340.66 988,-331.3"/>
<polygon fill="black" stroke="black" points="990.2,-328.57 980.59,-324.1 985.32,-333.58 990.2,-328.57"/>
</g>
<!-- n37 -->
<g id="node38" class="node">
<title>n37</title>
<polygon fill="none" stroke="black" points="1062,-324 1008,-324 1008,-288 1062,-288 1062,-324"/>
<text text-anchor="middle" x="1035" y="-303.5" font-family="Helvetica,sans-Serif" font-size="10.00">+</text>
</g>
<!-- n32&#45;&gt;n37 -->
<g id="edge34" class="edge">
<title>n32&#45;&gt;n37</title>
<path fill="none" stroke="black" d="M1035,-359.7C1035,-351.98 1035,-342.71 1035,-334.11"/>
<polygon fill="black" stroke="black" points="1038.5,-334.1 1035,-324.1 1031.5,-334.1 1038.5,-334.1"/>
</g>
<!-- n38 -->
<g id="node39" class="node">
<title>n38</title>
<polygon fill="none" stroke="black" points="1134,-324 1080,-324 1080,-288 1134,-288 1134,-324"/>
<text text-anchor="middle" x="1107" y="-303.5" font-family="Helvetica,sans-Serif" font-size="10.00">term</text>
</g>
<!-- n32&#45;&gt;n38 -->
<g id="edge37" class="edge">
<title>n32&#45;&gt;n38</title>
<path fill="none" stroke="black" d="M1052.8,-359.7C1061.6,-351.14 1072.38,-340.66 1082,-331.3"/>
<polygon fill="black" stroke="black" points="1084.68,-333.58 1089.41,-324.1 1079.8,-328.57 1084.68,-333.58"/>
</g>
<!-- n34 -->
<g id="node35" class="node">
<title>n34</title>
<polygon fill="none" stroke="black" points="990,-252 936,-252 936,-216 990,-216 990,-252"/>
<text text-anchor="middle" x="963" y="-231.5" font-family="Helvetica,sans-Serif" font-size="10.00">term</text>
</g>
<!-- n33&#45;&gt;n34 -->
<g id="edge32" class="edge">
<title>n33&#45;&gt;n34</title>
<path fill="none" stroke="black" d="M963,-287.7C963,-279.98 963,-270.71 963,-262.11"/>
<polygon fill="black" stroke="black" points="966.5,-262.1 963,-252.1 959.5,-262.1 966.5,-262.1"/>
</g>
<!-- n35 -->
<g id="node36" class="node">
<title>n35</title>
<polygon fill="none" stroke="black" points="990,-180 936,-180 936,-144 990,-144 990,-180"/>
<text text-anchor="middle" x="963" y="-159.5" font-family="Helvetica,sans-Serif" font-size="10.00">factor</text>
</g>
<!-- n34&#45;&gt;n35 -->
<g id="edge31" class="edge">
<title>n34&#45;&gt;n35</title>
<path fill="none" stroke="black" d="M963,-215.7C963,-207.98 963,-198.71 963,-190.11"/>
<polygon fill="black" stroke="black" points="966.5,-190.1 963,-180.1 959.5,-190.1 966.5,-190.1"/>
</g>
<!-- n36 -->
<g id="node37" class="node">
<title>n36</title>
<polygon fill="none" stroke="black" points="990,-108 936,-108 936,-72 990,-72 990,-108"/>
<text text-anchor="middle" x="963" y="-87.5" font-family="Helvetica,sans-Serif" font-size="10.00">base</text>
</g>
<!-- n35&#45;&gt;n36 -->
<g id="edge30" class="edge">
<title>n35&#45;&gt;n36</title>
<path fill="none" stroke="black" d="M963,-143.7C963,-135.98 963,-126.71 963,-118.11"/>
<polygon fill="black" stroke="black" points="966.5,-118.1 963,-108.1 959.5,-118.1 966.5,-118.1"/>
</g>
<!-- n39 -->
<g id="node40" class="node">
<title>n39</title>
<polygon fill="none" stroke="black" points="1134,-252 1080,-252 1080,-216 1134,-216 1134,-252"/>
<text text-anchor="middle" x="1107" y="-231.5" font-family="Helvetica,sans-Serif" font-size="10.00">factor</text>
</g>
<!-- n38&#45;&gt;n39 -->
<g id="edge36" class="edge">
<title>n38&#45;&gt;n39</title>
<path fill="none" stroke="black" d="M1107,-287.7C1107,-279.98 1107,-270.71 1107,-262.11"/>
<polygon fill="black" stroke="black" points="1110.5,-262.1 1107,-252.1 1103.5,-262.1 1110.5,-262.1"/>
</g>
<!-- n40 -->
<g id="node41" class="node">
<title>n40</title>
<polygon fill="none" stroke="black" points="1134,-180 1080,-180 1080,-144 1134,-144 1134,-180"/>
<text text-anchor="middle" x="1107" y="-159.5" font-family="Helvetica,sans-Serif" font-size="10.00">extra</text>
</g>
<!-- n39&#45;&gt;n40 -->
<g id="edge35" class="edge">
<title>n39&#45;&gt;n40</title>
<path fill="none" stroke="black" d="M1107,-215.7C1107,-207.98 1107,-198.71 1107,-190.11"/>
<polygon fill="black" stroke="black" points="1110.5,-190.1 1107,-180.1 1103.5,-190.1 1110.5,-190.1"/>
</g>
<!-- n43 -->
<g id="node44" class="node">
<title>n43</title>
<polygon fill="none" stroke="black" points="1296,-468 1222,-468 1222,-432 1296,-432 1296,-468"/>
<text text-anchor="middle" x="1259" y="-447.5" font-family="Helvetica,sans-Serif" font-size="10.00">assignment</text>
</g>
<!-- n42&#45;&gt;n43 -->
<g id="edge49" class="edge">
<title>n42&#45;&gt;n43</title>
<path fill="none" stroke="black" d="M1117.92,-507.25C1120.65,-506.15 1123.37,-505.06 1126,-504 1154.63,-492.5 1186.77,-479.69 1212.28,-469.55"/>
<polygon fill="black" stroke="black" points="1213.71,-472.74 1221.71,-465.8 1211.13,-466.24 1213.71,-472.74"/>
</g>
<!-- n44 -->
<g id="node45" class="node">
<title>n44</title>
<polygon fill="none" stroke="black" points="1214,-396 1152,-396 1152,-360 1214,-360 1214,-396"/>
<text text-anchor="middle" x="1183" y="-375.5" font-family="Helvetica,sans-Serif" font-size="10.00">impuesto</text>
</g>
<!-- n43&#45;&gt;n44 -->
<g id="edge42" class="edge">
<title>n43&#45;&gt;n44</title>
<path fill="none" stroke="black" d="M1240.21,-431.7C1230.83,-423.05 1219.32,-412.45 1209.09,-403.03"/>
<polygon fill="black" stroke="black" points="1211.3,-400.3 1201.57,-396.1 1206.55,-405.45 1211.3,-400.3"/>
</g>
<!-- n45 -->
<g id="node46" class="node">
<title>n45</title>
<polygon fill="none" stroke="black" points="1286,-396 1232,-396 1232,-360 1286,-360 1286,-396"/>
<text text-anchor="middle" x="1259" y="-375.5" font-family="Helvetica,sans-Serif" font-size="10.00">=</text>
</g>
<!-- n43&#45;&gt;n45 -->
<g id="edge43" class="edge">
<title>n43&#45;&gt;n45</title>
<path fill="none" stroke="black" d="M1259,-431.7C1259,-423.98 1259,-414.71 1259,-406.11"/>
<polygon fill="black" stroke="black" points="1262.5,-406.1 1259,-396.1 1255.5,-406.1 1262.5,-406.1"/>
</g>
<!-- n46 -->
<g id="node47" class="node">
<title>n46</title>
<polygon fill="none" stroke="black" points="1358,-396 1304,-396 1304,-360 1358,-360 1358,-396"/>
<text text-anchor="middle" x="1331" y="-375.5" font-family="Helvetica,sans-Serif" font-size="10.00">expr</text>
</g>
<!-- n43&#45;&gt;n46 -->
<g id="edge47" class="edge">
<title>n43&#45;&gt;n46</title>
<path fill="none" stroke="black" d="M1276.8,-431.7C1285.6,-423.14 1296.38,-412.66 1306,-403.3"/>
<polygon fill="black" stroke="black" points="1308.68,-405.58 1313.41,-396.1 1303.8,-400.57 1308.68,-405.58"/>
</g>
<!-- n50 -->
<g id="node51" class="node">
<title>n50</title>
<polygon fill="none" stroke="black" points="1430,-396 1376,-396 1376,-360 1430,-360 1430,-396"/>
<text text-anchor="middle" x="1403" y="-375.5" font-family="Helvetica,sans-Serif" font-size="10.00">;</text>
</g>
<!-- n43&#45;&gt;n50 -->
<g id="edge48" class="edge">
<title>n43&#45;&gt;n50</title>
<path fill="none" stroke="black" d="M1294.23,-431.88C1316.23,-421.18 1344.49,-407.44 1366.7,-396.65"/>
<polygon fill="black" stroke="black" points="1368.34,-399.74 1375.8,-392.22 1365.28,-393.44 1368.34,-399.74"/>
</g>
<!-- n47 -->
<g id="node48" class="node">
<title>n47</title>
<polygon fill="none" stroke="black" points="1348,-324 1294,-324 1294,-288 1348,-288 1348,-324"/>
<text text-anchor="middle" x="1321" y="-303.5" font-family="Helvetica,sans-Serif" font-size="10.00">term</text>
</g>
<!-- n46&#45;&gt;n47 -->
<g id="edge46" class="edge">
<title>n46&#45;&gt;n47</title>
<path fill="none" stroke="black" d="M1328.53,-359.7C1327.43,-351.98 1326.1,-342.71 1324.87,-334.11"/>
<polygon fill="black" stroke="black" points="1328.32,-333.51 1323.44,-324.1 1321.39,-334.5 1328.32,-333.51"/>
</g>
<!-- n48 -->
<g id="node49" class="node">
<title>n48</title>
<polygon fill="none" stroke="black" points="1348,-252 1294,-252 1294,-216 1348,-216 1348,-252"/>
<text text-anchor="middle" x="1321" y="-231.5" font-family="Helvetica,sans-Serif" font-size="10.00">factor</text>
</g>
<!-- n47&#45;&gt;n48 -->
<g id="edge45" class="edge">
<title>n47&#45;&gt;n48</title>
<path fill="none" stroke="black" d="M1321,-287.7C1321,-279.98 1321,-270.71 1321,-262.11"/>
<polygon fill="black" stroke="black" points="1324.5,-262.1 1321,-252.1 1317.5,-262.1 1324.5,-262.1"/>
</g>
<!-- n49 -->
<g id="node50" class="node">
<title>n49</title>
<polygon fill="none" stroke="black" points="1348,-180 1294,-180 1294,-144 1348,-144 1348,-180"/>
<text text-anchor="middle" x="1321" y="-159.5" font-family="Helvetica,sans-Serif" font-size="10.00">0</text>
</g>
<!-- n48&#45;&gt;n49 -->
<g id="edge44" class="edge">
<title>n48&#45;&gt;n49</title>
<path fill="none" stroke="black" d="M1321,-215.7C1321,-207.98 1321,-198.71 1321,-190.11"/>
<polygon fill="black" stroke="black" points="1324.5,-190.1 1321,-180.1 1317.5,-190.1 1324.5,-190.1"/>
</g>
<!-- n52 -->
<g id="node53" class="node">
<title>n52</title>
<polygon fill="none" stroke="black" points="1576.5,-468 1517.5,-468 1517.5,-432 1576.5,-432 1576.5,-468"/>
<text text-anchor="middle" x="1547" y="-447.5" font-family="Helvetica,sans-Serif" font-size="10.00">ruleStmt</text>
</g>
<!-- n51&#45;&gt;n52 -->
<g id="edge73" class="edge">
<title>n51&#45;&gt;n52</title>
<path fill="none" stroke="black" d="M1202.7,-506.59C1205.48,-505.64 1208.27,-504.76 1211,-504 1315.85,-474.92 1443.81,-460.25 1507.32,-454.3"/>
<polygon fill="black" stroke="black" points="1507.67,-457.79 1517.31,-453.39 1507.03,-450.82 1507.67,-457.79"/>
</g>
<!-- n53 -->
<g id="node54" class="node">
<title>n53</title>
<polygon fill="none" stroke="black" points="1502,-396 1448,-396 1448,-360 1502,-360 1502,-396"/>
<text text-anchor="middle" x="1475" y="-375.5" font-family="Helvetica,sans-Serif" font-size="10.00">si</text>
</g>
<!-- n52&#45;&gt;n53 -->
<g id="edge51" class="edge">
<title>n52&#45;&gt;n53</title>
<path fill="none" stroke="black" d="M1529.2,-431.7C1520.4,-423.14 1509.62,-412.66 1500,-403.3"/>
<polygon fill="black" stroke="black" points="1502.2,-400.57 1492.59,-396.1 1497.32,-405.58 1502.2,-400.57"/>
</g>
<!-- n54 -->
<g id="node55" class="node">
<title>n54</title>
<polygon fill="none" stroke="black" points="1574,-396 1520,-396 1520,-360 1574,-360 1574,-396"/>
<text text-anchor="middle" x="1547" y="-375.5" font-family="Helvetica,sans-Serif" font-size="10.00">cond</text>
</g>
<!-- n52&#45;&gt;n54 -->
<g id="edge59" class="edge">
<title>n52&#45;&gt;n54</title>
<path fill="none" stroke="black" d="M1547,-431.7C1547,-423.98 1547,-414.71 1547,-406.11"/>
<polygon fill="black" stroke="black" points="1550.5,-406.1 1547,-396.1 1543.5,-406.1 1550.5,-406.1"/>
</g>
<!-- n62 -->
<g id="node63" class="node">
<title>n62</title>
<polygon fill="none" stroke="black" points="1646,-396 1592,-396 1592,-360 1646,-360 1646,-396"/>
<text text-anchor="middle" x="1619" y="-375.5" font-family="Helvetica,sans-Serif" font-size="10.00">:</text>
</g>
<!-- n52&#45;&gt;n62 -->
<g id="edge60" class="edge">
<title>n52&#45;&gt;n62</title>
<path fill="none" stroke="black" d="M1564.8,-431.7C1573.6,-423.14 1584.38,-412.66 1594,-403.3"/>
<polygon fill="black" stroke="black" points="1596.68,-405.58 1601.41,-396.1 1591.8,-400.57 1596.68,-405.58"/>
</g>
<!-- n63 -->
<g id="node64" class="node">
<title>n63</title>
<polygon fill="none" stroke="black" points="1727,-396 1673,-396 1673,-360 1727,-360 1727,-396"/>
<text text-anchor="middle" x="1700" y="-375.5" font-family="Helvetica,sans-Serif" font-size="10.00">action</text>
</g>
<!-- n52&#45;&gt;n63 -->
<g id="edge72" class="edge">
<title>n52&#45;&gt;n63</title>
<path fill="none" stroke="black" d="M1576.86,-435.34C1601.65,-424 1636.99,-407.83 1663.46,-395.72"/>
<polygon fill="black" stroke="black" points="1665.14,-398.8 1672.78,-391.45 1662.23,-392.43 1665.14,-398.8"/>
</g>
<!-- n55 -->
<g id="node56" class="node">
<title>n55</title>
<polygon fill="none" stroke="black" points="1420,-324 1366,-324 1366,-288 1420,-288 1420,-324"/>
<text text-anchor="middle" x="1393" y="-303.5" font-family="Helvetica,sans-Serif" font-size="10.00">ingreso</text>
</g>
<!-- n54&#45;&gt;n55 -->
<g id="edge52" class="edge">
<title>n54&#45;&gt;n55</title>
<path fill="none" stroke="black" d="M1519.91,-364.11C1516.91,-362.71 1513.89,-361.32 1511,-360 1477.47,-344.73 1466.79,-341.02 1429.58,-324.2"/>
<polygon fill="black" stroke="black" points="1430.64,-320.84 1420.09,-319.89 1427.75,-327.21 1430.64,-320.84"/>
</g>
<!-- n56 -->
<g id="node57" class="node">
<title>n56</title>
<polygon fill="none" stroke="black" points="1511.5,-324 1438.5,-324 1438.5,-288 1511.5,-288 1511.5,-324"/>
<text text-anchor="middle" x="1475" y="-303.5" font-family="Helvetica,sans-Serif" font-size="10.00">comparator</text>
</g>
<!-- n54&#45;&gt;n56 -->
<g id="edge54" class="edge">
<title>n54&#45;&gt;n56</title>
<path fill="none" stroke="black" d="M1529.2,-359.7C1520.4,-351.14 1509.62,-340.66 1500,-331.3"/>
<polygon fill="black" stroke="black" points="1502.2,-328.57 1492.59,-324.1 1497.32,-333.58 1502.2,-328.57"/>
</g>
<!-- n58 -->
<g id="node59" class="node">
<title>n58</title>
<polygon fill="none" stroke="black" points="1584,-324 1530,-324 1530,-288 1584,-288 1584,-324"/>
<text text-anchor="middle" x="1557" y="-303.5" font-family="Helvetica,sans-Serif" font-size="10.00">expr</text>
</g>
<!-- n54&#45;&gt;n58 -->
<g id="edge58" class="edge">
<title>n54&#45;&gt;n58</title>
<path fill="none" stroke="black" d="M1549.47,-359.7C1550.57,-351.98 1551.9,-342.71 1553.13,-334.11"/>
<polygon fill="black" stroke="black" points="1556.61,-334.5 1554.56,-324.1 1549.68,-333.51 1556.61,-334.5"/>
</g>
<!-- n57 -->
<g id="node58" class="node">
<title>n57</title>
<polygon fill="none" stroke="black" points="1502,-252 1448,-252 1448,-216 1502,-216 1502,-252"/>
<text text-anchor="middle" x="1475" y="-231.5" font-family="Helvetica,sans-Serif" font-size="10.00">&gt;=</text>
</g>
<!-- n56&#45;&gt;n57 -->
<g id="edge53" class="edge">
<title>n56&#45;&gt;n57</title>
<path fill="none" stroke="black" d="M1475,-287.7C1475,-279.98 1475,-270.71 1475,-262.11"/>
<polygon fill="black" stroke="black" points="1478.5,-262.1 1475,-252.1 1471.5,-262.1 1478.5,-262.1"/>
</g>
<!-- n59 -->
<g id="node60" class="node">
<title>n59</title>
<polygon fill="none" stroke="black" points="1584,-252 1530,-252 1530,-216 1584,-216 1584,-252"/>
<text text-anchor="middle" x="1557" y="-231.5" font-family="Helvetica,sans-Serif" font-size="10.00">term</text>
</g>
<!-- n58&#45;&gt;n59 -->
<g id="edge57" class="edge">
<title>n58&#45;&gt;n59</title>
<path fill="none" stroke="black" d="M1557,-287.7C1557,-279.98 1557,-270.71 1557,-262.11"/>
<polygon fill="black" stroke="black" points="1560.5,-262.1 1557,-252.1 1553.5,-262.1 1560.5,-262.1"/>
</g>
<!-- n60 -->
<g id="node61" class="node">
<title>n60</title>
<polygon fill="none" stroke="black" points="1584,-180 1530,-180 1530,-144 1584,-144 1584,-180"/>
<text text-anchor="middle" x="1557" y="-159.5" font-family="Helvetica,sans-Serif" font-size="10.00">factor</text>
</g>
<!-- n59&#45;&gt;n60 -->
<g id="edge56" class="edge">
<title>n59&#45;&gt;n60</title>
<path fill="none" stroke="black" d="M1557,-215.7C1557,-207.98 1557,-198.71 1557,-190.11"/>
<polygon fill="black" stroke="black" points="1560.5,-190.1 1557,-180.1 1553.5,-190.1 1560.5,-190.1"/>
</g>
<!-- n61 -->
<g id="node62" class="node">
<title>n61</title>
<polygon fill="none" stroke="black" points="1584,-108 1530,-108 1530,-72 1584,-72 1584,-108"/>
<text text-anchor="middle" x="1557" y="-87.5" font-family="Helvetica,sans-Serif" font-size="10.00">120000</text>
</g>
<!-- n60&#45;&gt;n61 -->
<g id="edge55" class="edge">
<title>n60&#45;&gt;n61</title>
<path fill="none" stroke="black" d="M1557,-143.7C1557,-135.98 1557,-126.71 1557,-118.11"/>
<polygon fill="black" stroke="black" points="1560.5,-118.1 1557,-108.1 1553.5,-118.1 1560.5,-118.1"/>
</g>
<!-- n64 -->
<g id="node65" class="node">
<title>n64</title>
<polygon fill="none" stroke="black" points="1664,-324 1602,-324 1602,-288 1664,-288 1664,-324"/>
<text text-anchor="middle" x="1633" y="-303.5" font-family="Helvetica,sans-Serif" font-size="10.00">impuesto</text>
</g>
<!-- n63&#45;&gt;n64 -->
<g id="edge61" class="edge">
<title>n63&#45;&gt;n64</title>
<path fill="none" stroke="black" d="M1683.44,-359.7C1675.32,-351.22 1665.41,-340.86 1656.53,-331.58"/>
<polygon fill="black" stroke="black" points="1658.81,-328.91 1649.37,-324.1 1653.76,-333.75 1658.81,-328.91"/>
</g>
<!-- n65 -->
<g id="node66" class="node">
<title>n65</title>
<polygon fill="none" stroke="black" points="1736,-324 1682,-324 1682,-288 1736,-288 1736,-324"/>
<text text-anchor="middle" x="1709" y="-303.5" font-family="Helvetica,sans-Serif" font-size="10.00">=</text>
</g>
<!-- n63&#45;&gt;n65 -->
<g id="edge62" class="edge">
<title>n63&#45;&gt;n65</title>
<path fill="none" stroke="black" d="M1702.22,-359.7C1703.22,-351.98 1704.41,-342.71 1705.51,-334.11"/>
<polygon fill="black" stroke="black" points="1709,-334.47 1706.8,-324.1 1702.05,-333.58 1709,-334.47"/>
</g>
<!-- n66 -->
<g id="node67" class="node">
<title>n66</title>
<polygon fill="none" stroke="black" points="1808,-324 1754,-324 1754,-288 1808,-288 1808,-324"/>
<text text-anchor="middle" x="1781" y="-303.5" font-family="Helvetica,sans-Serif" font-size="10.00">expr</text>
</g>
<!-- n63&#45;&gt;n66 -->
<g id="edge70" class="edge">
<title>n63&#45;&gt;n66</title>
<path fill="none" stroke="black" d="M1720.02,-359.7C1730.13,-350.97 1742.54,-340.24 1753.52,-330.75"/>
<polygon fill="black" stroke="black" points="1755.93,-333.29 1761.21,-324.1 1751.35,-327.99 1755.93,-333.29"/>
</g>
<!-- n74 -->
<g id="node75" class="node">
<title>n74</title>
<polygon fill="none" stroke="black" points="1880,-324 1826,-324 1826,-288 1880,-288 1880,-324"/>
<text text-anchor="middle" x="1853" y="-303.5" font-family="Helvetica,sans-Serif" font-size="10.00">;</text>
</g>
<!-- n63&#45;&gt;n74 -->
<g id="edge71" class="edge">
<title>n63&#45;&gt;n74</title>
<path fill="none" stroke="black" d="M1727.1,-364.12C1730.1,-362.72 1733.11,-361.32 1736,-360 1769.16,-344.81 1779.65,-340.96 1816.51,-324.17"/>
<polygon fill="black" stroke="black" points="1818.27,-327.22 1825.9,-319.88 1815.35,-320.85 1818.27,-327.22"/>
</g>
<!-- n67 -->
<g id="node68" class="node">
<title>n67</title>
<polygon fill="none" stroke="black" points="1808,-252 1754,-252 1754,-216 1808,-216 1808,-252"/>
<text text-anchor="middle" x="1781" y="-231.5" font-family="Helvetica,sans-Serif" font-size="10.00">term</text>
</g>
<!-- n66&#45;&gt;n67 -->
<g id="edge69" class="edge">
<title>n66&#45;&gt;n67</title>
<path fill="none" stroke="black" d="M1781,-287.7C1781,-279.98 1781,-270.71 1781,-262.11"/>
<polygon fill="black" stroke="black" points="1784.5,-262.1 1781,-252.1 1777.5,-262.1 1784.5,-262.1"/>
</g>
<!-- n68 -->
<g id="node69" class="node">
<title>n68</title>
<polygon fill="none" stroke="black" points="1736,-180 1682,-180 1682,-144 1736,-144 1736,-180"/>
<text text-anchor="middle" x="1709" y="-159.5" font-family="Helvetica,sans-Serif" font-size="10.00">term</text>
</g>
<!-- n67&#45;&gt;n68 -->
<g id="edge65" class="edge">
<title>n67&#45;&gt;n68</title>
<path fill="none" stroke="black" d="M1763.2,-215.7C1754.4,-207.14 1743.62,-196.66 1734,-187.3"/>
<polygon fill="black" stroke="black" points="1736.2,-184.57 1726.59,-180.1 1731.32,-189.58 1736.2,-184.57"/>
</g>
<!-- n71 -->
<g id="node72" class="node">
<title>n71</title>
<polygon fill="none" stroke="black" points="1808,-180 1754,-180 1754,-144 1808,-144 1808,-180"/>
<text text-anchor="middle" x="1781" y="-159.5" font-family="Helvetica,sans-Serif" font-size="10.00">*</text>
</g>
<!-- n67&#45;&gt;n71 -->
<g id="edge66" class="edge">
<title>n67&#45;&gt;n71</title>
<path fill="none" stroke="black" d="M1781,-215.7C1781,-207.98 1781,-198.71 1781,-190.11"/>
<polygon fill="black" stroke="black" points="1784.5,-190.1 1781,-180.1 1777.5,-190.1 1784.5,-190.1"/>
</g>
<!-- n72 -->
<g id="node73" class="node">
<title>n72</title>
<polygon fill="none" stroke="black" points="1880,-180 1826,-180 1826,-144 1880,-144 1880,-180"/>
<text text-anchor="middle" x="1853" y="-159.5" font-family="Helvetica,sans-Serif" font-size="10.00">factor</text>
</g>
<!-- n67&#45;&gt;n72 -->
<g id="edge68" class="edge">
<title>n67&#45;&gt;n72</title>
<path fill="none" stroke="black" d="M1798.8,-215.7C1807.6,-207.14 1818.38,-196.66 1828,-187.3"/>
<polygon fill="black" stroke="black" points="1830.68,-189.58 1835.41,-180.1 1825.8,-184.57 1830.68,-189.58"/>
</g>
<!-- n69 -->
<g id="node70" class="node">
<title>n69</title>
<polygon fill="none" stroke="black" points="1736,-108 1682,-108 1682,-72 1736,-72 1736,-108"/>
<text text-anchor="middle" x="1709" y="-87.5" font-family="Helvetica,sans-Serif" font-size="10.00">factor</text>
</g>
<!-- n68&#45;&gt;n69 -->
<g id="edge64" class="edge">
<title>n68&#45;&gt;n69</title>
<path fill="none" stroke="black" d="M1709,-143.7C1709,-135.98 1709,-126.71 1709,-118.11"/>
<polygon fill="black" stroke="black" points="1712.5,-118.1 1709,-108.1 1705.5,-118.1 1712.5,-118.1"/>
</g>
<!-- n70 -->
<g id="node71" class="node">
<title>n70</title>
<polygon fill="none" stroke="black" points="1736,-36 1682,-36 1682,0 1736,0 1736,-36"/>
<text text-anchor="middle" x="1709" y="-15.5" font-family="Helvetica,sans-Serif" font-size="10.00">ingreso</text>
</g>
<!-- n69&#45;&gt;n70 -->
<g id="edge63" class="edge">
<title>n69&#45;&gt;n70</title>
<path fill="none" stroke="black" d="M1709,-71.7C1709,-63.98 1709,-54.71 1709,-46.11"/>
<polygon fill="black" stroke="black" points="1712.5,-46.1 1709,-36.1 1705.5,-46.1 1712.5,-46.1"/>
</g>
<!-- n73 -->
<g id="node74" class="node">
<title>n73</title>
<polygon fill="none" stroke="black" points="1880,-108 1826,-108 1826,-72 1880,-72 1880,-108"/>
<text text-anchor="middle" x="1853" y="-87.5" font-family="Helvetica,sans-Serif" font-size="10.00">tasa</text>
</g>
<!-- n72&#45;&gt;n73 -->
<g id="edge67" class="edge">
<title>n72&#45;&gt;n73</title>
<path fill="none" stroke="black" d="M1853,-143.7C1853,-135.98 1853,-126.71 1853,-118.11"/>
<polygon fill="black" stroke="black" points="1856.5,-118.1 1853,-108.1 1849.5,-118.1 1856.5,-118.1"/>
</g>
<!-- n76 -->
<g id="node77" class="node">
<title>n76</title>
<polygon fill="none" stroke="black" points="1913,-468 1851,-468 1851,-432 1913,-432 1913,-468"/>
<text text-anchor="middle" x="1882" y="-447.5" font-family="Helvetica,sans-Serif" font-size="10.00">printStmt</text>
</g>
<!-- n75&#45;&gt;n76 -->
<g id="edge80" class="edge">
<title>n75&#45;&gt;n76</title>
<path fill="none" stroke="black" d="M1287.51,-506.7C1290.68,-505.67 1293.88,-504.74 1297,-504 1400.67,-479.35 1724.91,-459.63 1840.53,-453.21"/>
<polygon fill="black" stroke="black" points="1840.94,-456.7 1850.73,-452.65 1840.56,-449.71 1840.94,-456.7"/>
</g>
<!-- n77 -->
<g id="node78" class="node">
<title>n77</title>
<polygon fill="none" stroke="black" points="1799,-396 1745,-396 1745,-360 1799,-360 1799,-396"/>
<text text-anchor="middle" x="1772" y="-375.5" font-family="Helvetica,sans-Serif" font-size="10.00">print</text>
</g>
<!-- n76&#45;&gt;n77 -->
<g id="edge75" class="edge">
<title>n76&#45;&gt;n77</title>
<path fill="none" stroke="black" d="M1855.09,-431.88C1840.84,-422.81 1823.15,-411.55 1807.76,-401.76"/>
<polygon fill="black" stroke="black" points="1809.33,-398.61 1799.01,-396.19 1805.57,-404.51 1809.33,-398.61"/>
</g>
<!-- n78 -->
<g id="node79" class="node">
<title>n78</title>
<polygon fill="none" stroke="black" points="1871,-396 1817,-396 1817,-360 1871,-360 1871,-396"/>
<text text-anchor="middle" x="1844" y="-375.5" font-family="Helvetica,sans-Serif" font-size="10.00">(</text>
</g>
<!-- n76&#45;&gt;n78 -->
<g id="edge76" class="edge">
<title>n76&#45;&gt;n78</title>
<path fill="none" stroke="black" d="M1872.61,-431.7C1868.24,-423.64 1862.94,-413.89 1858.1,-404.98"/>
<polygon fill="black" stroke="black" points="1861.13,-403.22 1853.29,-396.1 1854.98,-406.56 1861.13,-403.22"/>
</g>
<!-- n79 -->
<g id="node80" class="node">
<title>n79</title>
<polygon fill="none" stroke="black" points="1951,-396 1889,-396 1889,-360 1951,-360 1951,-396"/>
<text text-anchor="middle" x="1920" y="-375.5" font-family="Helvetica,sans-Serif" font-size="10.00">impuesto</text>
</g>
<!-- n76&#45;&gt;n79 -->
<g id="edge77" class="edge">
<title>n76&#45;&gt;n79</title>
<path fill="none" stroke="black" d="M1891.39,-431.7C1895.76,-423.64 1901.06,-413.89 1905.9,-404.98"/>
<polygon fill="black" stroke="black" points="1909.02,-406.56 1910.71,-396.1 1902.87,-403.22 1909.02,-406.56"/>
</g>
<!-- n80 -->
<g id="node81" class="node">
<title>n80</title>
<polygon fill="none" stroke="black" points="2023,-396 1969,-396 1969,-360 2023,-360 2023,-396"/>
<text text-anchor="middle" x="1996" y="-375.5" font-family="Helvetica,sans-Serif" font-size="10.00">)</text>
</g>
<!-- n76&#45;&gt;n80 -->
<g id="edge78" class="edge">
<title>n76&#45;&gt;n80</title>
<path fill="none" stroke="black" d="M1909.89,-431.88C1925.02,-422.59 1943.88,-411 1960.1,-401.04"/>
<polygon fill="black" stroke="black" points="1962.1,-403.92 1968.79,-395.71 1958.44,-397.96 1962.1,-403.92"/>
</g>
<!-- n81 -->
<g id="node82" class="node">
<title>n81</title>
<polygon fill="none" stroke="black" points="2095,-396 2041,-396 2041,-360 2095,-360 2095,-396"/>
<text text-anchor="middle" x="2068" y="-375.5" font-family="Helvetica,sans-Serif" font-size="10.00">;</text>
</g>
<!-- n76&#45;&gt;n81 -->
<g id="edge79" class="edge">
<title>n76&#45;&gt;n81</title>
<path fill="none" stroke="black" d="M1913.08,-439.04C1941.69,-429.65 1985.42,-414.74 2031.14,-396.17"/>
<polygon fill="black" stroke="black" points="2032.69,-399.32 2040.61,-392.28 2030.03,-392.84 2032.69,-399.32"/>
</g>
</g>
</svg>
