<?xml version="1.0" encoding="UTF-8" standalone="no"?>
<!DOCTYPE svg PUBLIC "-//W3C//DTD SVG 1.1//EN"
 "http://www.w3.org/Graphics/SVG/1.1/DTD/svg11.dtd">
<!-- Generated by graphviz version 2.43.0 (0)
 -->
<!-- Title: ast Pages: 1 -->
<svg width="707pt" height="358pt"
 viewBox="0.00 0.00 706.84 357.71" xmlns="http://www.w3.org/2000/svg" xmlns:xlink="http://www.w3.org/1999/xlink">
<g id="graph0" class="graph" transform="scale(1 1) rotate(0) translate(4 353.71)">
<title>ast</title>
<polygon fill="white" stroke="transparent" points="-4,4 -4,-353.71 702.84,-353.71 702.84,4 -4,4"/>
<!-- n0 -->
<g id="node1" class="node">
<title>n0</title>
<polygon fill="none" stroke="black" points="360.84,-349.71 302.84,-349.71 302.84,-313.71 360.84,-313.71 360.84,-349.71"/>
<text text-anchor="middle" x="331.84" y="-329.21" font-family="Helvetica,sans-Serif" font-size="10.00">Program</text>
</g>
<!-- n1 -->
<g id="node2" class="node">
<title>n1</title>
<polygon fill="none" stroke="black" points="86.84,-274.49 12.84,-274.49 12.84,-238.49 86.84,-238.49 86.84,-274.49"/>
<text text-anchor="middle" x="49.84" y="-259.49" font-family="Helvetica,sans-Serif" font-size="10.00">Assignment</text>
<text text-anchor="middle" x="49.84" y="-248.49" font-family="Helvetica,sans-Serif" font-size="10.00">base</text>
</g>
<!-- n0&#45;&gt;n1 -->
<g id="edge2" class="edge">
<title>n0&#45;&gt;n1</title>
<path fill="none" stroke="black" d="M302.51,-325.56C258.1,-317.43 171.38,-300.18 99.84,-277.71 98.79,-277.38 97.73,-277.03 96.67,-276.68"/>
<polygon fill="black" stroke="black" points="97.6,-273.3 87.01,-273.27 95.28,-279.9 97.6,-273.3"/>
</g>
<!-- n3 -->
<g id="node4" class="node">
<title>n3</title>
<polygon fill="none" stroke="black" points="182.84,-274.49 108.84,-274.49 108.84,-238.49 182.84,-238.49 182.84,-274.49"/>
<text text-anchor="middle" x="145.84" y="-259.49" font-family="Helvetica,sans-Serif" font-size="10.00">Assignment</text>
<text text-anchor="middle" x="145.84" y="-248.49" font-family="Helvetica,sans-Serif" font-size="10.00">extra</text>
</g>
<!-- n0&#45;&gt;n3 -->
<g id="edge4" class="edge">
<title>n0&#45;&gt;n3</title>
<path fill="none" stroke="black" d="M302.66,-319.81C274.66,-309.28 231.22,-292.75 193.84,-277.71 193.4,-277.53 192.96,-277.35 192.51,-277.17"/>
<polygon fill="black" stroke="black" points="193.58,-273.83 183,-273.28 190.93,-280.31 193.58,-273.83"/>
</g>
<!-- n5 -->
<g id="node6" class="node">
<title>n5</title>
<polygon fill="none" stroke="black" points="276.84,-274.49 202.84,-274.49 202.84,-238.49 276.84,-238.49 276.84,-274.49"/>
<text text-anchor="middle" x="239.84" y="-259.49" font-family="Helvetica,sans-Serif" font-size="10.00">Assignment</text>
<text text-anchor="middle" x="239.84" y="-248.49" font-family="Helvetica,sans-Serif" font-size="10.00">tasa</text>
</g>
<!-- n0&#45;&gt;n5 -->
<g id="edge6" class="edge">
<title>n0&#45;&gt;n5</title>
<path fill="none" stroke="black" d="M310.04,-313.36C297.89,-303.69 282.6,-291.52 269.39,-281.01"/>
<polygon fill="black" stroke="black" points="271.49,-278.21 261.49,-274.72 267.13,-283.68 271.49,-278.21"/>
</g>
<!-- n7 -->
<g id="node8" class="node">
<title>n7</title>
<polygon fill="none" stroke="black" points="368.84,-274.49 294.84,-274.49 294.84,-238.49 368.84,-238.49 368.84,-274.49"/>
<text text-anchor="middle" x="331.84" y="-259.49" font-family="Helvetica,sans-Serif" font-size="10.00">Assignment</text>
<text text-anchor="middle" x="331.84" y="-248.49" font-family="Helvetica,sans-Serif" font-size="10.00">ingreso</text>
</g>
<!-- n0&#45;&gt;n7 -->
<g id="edge10" class="edge">
<title>n0&#45;&gt;n7</title>
<path fill="none" stroke="black" d="M331.84,-313.36C331.84,-304.88 331.84,-294.47 331.84,-284.95"/>
<polygon fill="black" stroke="black" points="335.34,-284.72 331.84,-274.72 328.34,-284.72 335.34,-284.72"/>
</g>
<!-- n11 -->
<g id="node12" class="node">
<title>n11</title>
<polygon fill="none" stroke="black" points="460.84,-274.49 386.84,-274.49 386.84,-238.49 460.84,-238.49 460.84,-274.49"/>
<text text-anchor="middle" x="423.84" y="-259.49" font-family="Helvetica,sans-Serif" font-size="10.00">Assignment</text>
<text text-anchor="middle" x="423.84" y="-248.49" font-family="Helvetica,sans-Serif" font-size="10.00">impuesto</text>
</g>
<!-- n0&#45;&gt;n11 -->
<g id="edge12" class="edge">
<title>n0&#45;&gt;n11</title>
<path fill="none" stroke="black" d="M353.64,-313.36C365.79,-303.69 381.08,-291.52 394.29,-281.01"/>
<polygon fill="black" stroke="black" points="396.55,-283.68 402.19,-274.72 392.19,-278.21 396.55,-283.68"/>
</g>
<!-- n13 -->
<g id="node14" class="node">
<title>n13</title>
<polygon fill="none" stroke="black" points="544.84,-274.49 490.84,-274.49 490.84,-238.49 544.84,-238.49 544.84,-274.49"/>
<text text-anchor="middle" x="517.84" y="-253.99" font-family="Helvetica,sans-Serif" font-size="10.00">Rule</text>
</g>
<!-- n0&#45;&gt;n13 -->
<g id="edge19" class="edge">
<title>n0&#45;&gt;n13</title>
<path fill="none" stroke="black" d="M361.02,-319.81C389.03,-309.28 432.46,-292.75 469.84,-277.71 473.56,-276.21 477.42,-274.63 481.28,-273.03"/>
<polygon fill="black" stroke="black" points="482.86,-276.16 490.74,-269.08 480.16,-269.7 482.86,-276.16"/>
</g>
<!-- n20 -->
<g id="node21" class="node">
<title>n20</title>
<ellipse fill="none" stroke="black" cx="606.84" cy="-256.49" rx="43.68" ry="21.43"/>
<text text-anchor="middle" x="606.84" y="-259.49" font-family="Helvetica,sans-Serif" font-size="10.00">Print</text>
<text text-anchor="middle" x="606.84" y="-248.49" font-family="Helvetica,sans-Serif" font-size="10.00">impuesto</text>
</g>
<!-- n0&#45;&gt;n20 -->
<g id="edge20" class="edge">
<title>n0&#45;&gt;n20</title>
<path fill="none" stroke="black" d="M360.9,-325.03C403.62,-316.4 485.69,-298.74 553.84,-277.71 557.34,-276.63 560.94,-275.43 564.54,-274.18"/>
<polygon fill="black" stroke="black" points="565.77,-277.46 573.99,-270.78 563.4,-270.87 565.77,-277.46"/>
</g>
<!-- n2 -->
<g id="node3" class="node">
<title>n2</title>
<ellipse fill="none" stroke="black" cx="43.84" cy="-178.07" rx="43.68" ry="21.43"/>
<text text-anchor="middle" x="43.84" y="-181.07" font-family="Helvetica,sans-Serif" font-size="10.00">Number</text>
<text text-anchor="middle" x="43.84" y="-170.07" font-family="Helvetica,sans-Serif" font-size="10.00">110000.0</text>
</g>
<!-- n1&#45;&gt;n2 -->
<g id="edge1" class="edge">
<title>n1&#45;&gt;n2</title>
<path fill="none" stroke="black" d="M48.48,-238.15C47.81,-229.68 46.99,-219.23 46.23,-209.48"/>
<polygon fill="black" stroke="black" points="49.7,-209.01 45.43,-199.32 42.72,-209.56 49.7,-209.01"/>
</g>
<!-- n4 -->
<g id="node5" class="node">
<title>n4</title>
<ellipse fill="none" stroke="black" cx="144.84" cy="-178.07" rx="39.7" ry="21.43"/>
<text text-anchor="middle" x="144.84" y="-181.07" font-family="Helvetica,sans-Serif" font-size="10.00">Number</text>
<text text-anchor="middle" x="144.84" y="-170.07" font-family="Helvetica,sans-Serif" font-size="10.00">15000.0</text>
</g>
<!-- n3&#45;&gt;n4 -->
<g id="edge3" class="edge">
<title>n3&#45;&gt;n4</title>
<path fill="none" stroke="black" d="M145.61,-238.15C145.5,-229.68 145.37,-219.23 145.24,-209.48"/>
<polygon fill="black" stroke="black" points="148.74,-209.27 145.11,-199.32 141.74,-209.36 148.74,-209.27"/>
</g>
<!-- n6 -->
<g id="node7" class="node">
<title>n6</title>
<ellipse fill="none" stroke="black" cx="241.84" cy="-178.07" rx="39.7" ry="21.43"/>
<text text-anchor="middle" x="241.84" y="-181.07" font-family="Helvetica,sans-Serif" font-size="10.00">Number</text>
<text text-anchor="middle" x="241.84" y="-170.07" font-family="Helvetica,sans-Serif" font-size="10.00">0.18</text>
</g>
<!-- n5&#45;&gt;n6 -->
<g id="edge5" class="edge">
<title>n5&#45;&gt;n6</title>
<path fill="none" stroke="black" d="M240.29,-238.15C240.52,-229.68 240.79,-219.23 241.04,-209.48"/>
<polygon fill="black" stroke="black" points="244.55,-209.4 241.31,-199.32 237.55,-209.22 244.55,-209.4"/>
</g>
<!-- n8 -->
<g id="node9" class="node">
<title>n8</title>
<ellipse fill="none" stroke="black" cx="331.84" cy="-178.07" rx="32.55" ry="21.43"/>
<text text-anchor="middle" x="331.84" y="-181.07" font-family="Helvetica,sans-Serif" font-size="10.00">BinOp</text>
<text text-anchor="middle" x="331.84" y="-170.07" font-family="Helvetica,sans-Serif" font-size="10.00">+</text>
</g>
<!-- n7&#45;&gt;n8 -->
<g id="edge9" class="edge">
<title>n7&#45;&gt;n8</title>
<path fill="none" stroke="black" d="M331.84,-238.15C331.84,-229.68 331.84,-219.23 331.84,-209.48"/>
<polygon fill="black" stroke="black" points="335.34,-209.32 331.84,-199.32 328.34,-209.32 335.34,-209.32"/>
</g>
<!-- n9 -->
<g id="node10" class="node">
<title>n9</title>
<ellipse fill="none" stroke="black" cx="293.84" cy="-99.64" rx="28.07" ry="21.43"/>
<text text-anchor="middle" x="293.84" y="-102.64" font-family="Helvetica,sans-Serif" font-size="10.00">Var</text>
<text text-anchor="middle" x="293.84" y="-91.64" font-family="Helvetica,sans-Serif" font-size="10.00">base</text>
</g>
<!-- n8&#45;&gt;n9 -->
<g id="edge7" class="edge">
<title>n8&#45;&gt;n9</title>
<path fill="none" stroke="black" d="M322.25,-157.78C317.9,-149.02 312.66,-138.5 307.88,-128.87"/>
<polygon fill="black" stroke="black" points="310.88,-127.05 303.29,-119.65 304.61,-130.17 310.88,-127.05"/>
</g>
<!-- n10 -->
<g id="node11" class="node">
<title>n10</title>
<ellipse fill="none" stroke="black" cx="369.84" cy="-99.64" rx="29.9" ry="21.43"/>
<text text-anchor="middle" x="369.84" y="-102.64" font-family="Helvetica,sans-Serif" font-size="10.00">Var</text>
<text text-anchor="middle" x="369.84" y="-91.64" font-family="Helvetica,sans-Serif" font-size="10.00">extra</text>
</g>
<!-- n8&#45;&gt;n10 -->
<g id="edge8" class="edge">
<title>n8&#45;&gt;n10</title>
<path fill="none" stroke="black" d="M341.43,-157.78C345.75,-149.09 350.94,-138.66 355.69,-129.09"/>
<polygon fill="black" stroke="black" points="358.94,-130.43 360.25,-119.92 352.67,-127.32 358.94,-130.43"/>
</g>
<!-- n12 -->
<g id="node13" class="node">
<title>n12</title>
<ellipse fill="none" stroke="black" cx="421.84" cy="-178.07" rx="39.7" ry="21.43"/>
<text text-anchor="middle" x="421.84" y="-181.07" font-family="Helvetica,sans-Serif" font-size="10.00">Number</text>
<text text-anchor="middle" x="421.84" y="-170.07" font-family="Helvetica,sans-Serif" font-size="10.00">0.0</text>
</g>
<!-- n11&#45;&gt;n12 -->
<g id="edge11" class="edge">
<title>n11&#45;&gt;n12</title>
<path fill="none" stroke="black" d="M423.39,-238.15C423.17,-229.68 422.89,-219.23 422.64,-209.48"/>
<polygon fill="black" stroke="black" points="426.13,-209.22 422.37,-199.32 419.13,-209.4 426.13,-209.22"/>
</g>
<!-- n14 -->
<g id="node15" class="node">
<title>n14</title>
<ellipse fill="none" stroke="black" cx="530.84" cy="-178.07" rx="50.82" ry="21.43"/>
<text text-anchor="middle" x="530.84" y="-181.07" font-family="Helvetica,sans-Serif" font-size="10.00">Cond</text>
<text text-anchor="middle" x="530.84" y="-170.07" font-family="Helvetica,sans-Serif" font-size="10.00">ingreso &gt;=</text>
</g>
<!-- n13&#45;&gt;n14 -->
<g id="edge14" class="edge">
<title>n13&#45;&gt;n14</title>
<path fill="none" stroke="black" d="M520.79,-238.15C522.23,-229.68 524.01,-219.23 525.67,-209.48"/>
<polygon fill="black" stroke="black" points="529.17,-209.76 527.4,-199.32 522.27,-208.59 529.17,-209.76"/>
</g>
<!-- n16 -->
<g id="node17" class="node">
<title>n16</title>
<polygon fill="none" stroke="black" points="661.84,-196.07 599.84,-196.07 599.84,-160.07 661.84,-160.07 661.84,-196.07"/>
<text text-anchor="middle" x="630.84" y="-181.07" font-family="Helvetica,sans-Serif" font-size="10.00">Action</text>
<text text-anchor="middle" x="630.84" y="-170.07" font-family="Helvetica,sans-Serif" font-size="10.00">impuesto</text>
</g>
<!-- n13&#45;&gt;n16 -->
<g id="edge18" class="edge">
<title>n13&#45;&gt;n16</title>
<path fill="none" stroke="black" d="M543.2,-238.34C559.05,-227.62 579.65,-213.69 596.9,-202.02"/>
<polygon fill="black" stroke="black" points="599.24,-204.66 605.57,-196.16 595.32,-198.86 599.24,-204.66"/>
</g>
<!-- n15 -->
<g id="node16" class="node">
<title>n15</title>
<ellipse fill="none" stroke="black" cx="530.84" cy="-99.64" rx="43.68" ry="21.43"/>
<text text-anchor="middle" x="530.84" y="-102.64" font-family="Helvetica,sans-Serif" font-size="10.00">Number</text>
<text text-anchor="middle" x="530.84" y="-91.64" font-family="Helvetica,sans-Serif" font-size="10.00">120000.0</text>
</g>
<!-- n14&#45;&gt;n15 -->
<g id="edge13" class="edge">
<title>n14&#45;&gt;n15</title>
<path fill="none" stroke="black" d="M530.84,-156.59C530.84,-148.73 530.84,-139.58 530.84,-130.99"/>
<polygon fill="black" stroke="black" points="534.34,-130.91 530.84,-120.91 527.34,-130.91 534.34,-130.91"/>
</g>
<!-- n17 -->
<g id="node18" class="node">
<title>n17</title>
<ellipse fill="none" stroke="black" cx="630.84" cy="-99.64" rx="32.55" ry="21.43"/>
<text text-anchor="middle" x="630.84" y="-102.64" font-family="Helvetica,sans-Serif" font-size="10.00">BinOp</text>
<text text-anchor="middle" x="630.84" y="-91.64" font-family="Helvetica,sans-Serif" font-size="10.00">*</text>
</g>
<!-- n16&#45;&gt;n17 -->
<g id="edge17" class="edge">
<title>n16&#45;&gt;n17</title>
<path fill="none" stroke="black" d="M630.84,-159.72C630.84,-151.25 630.84,-140.8 630.84,-131.06"/>
<polygon fill="black" stroke="black" points="634.34,-130.89 630.84,-120.89 627.34,-130.89 634.34,-130.89"/>
</g>
<!-- n18 -->
<g id="node19" class="node">
<title>n18</title>
<ellipse fill="none" stroke="black" cx="589.84" cy="-21.21" rx="37.45" ry="21.43"/>
<text text-anchor="middle" x="589.84" y="-24.21" font-family="Helvetica,sans-Serif" font-size="10.00">Var</text>
<text text-anchor="middle" x="589.84" y="-13.21" font-family="Helvetica,sans-Serif" font-size="10.00">ingreso</text>
</g>
<!-- n17&#45;&gt;n18 -->
<g id="edge15" class="edge">
<title>n17&#45;&gt;n18</title>
<path fill="none" stroke="black" d="M620.49,-79.35C615.82,-70.64 610.2,-60.17 605.06,-50.59"/>
<polygon fill="black" stroke="black" points="608.14,-48.92 600.33,-41.76 601.97,-52.23 608.14,-48.92"/>
</g>
<!-- n19 -->
<g id="node20" class="node">
<title>n19</title>
<ellipse fill="none" stroke="black" cx="671.84" cy="-21.21" rx="27" ry="21.43"/>
<text text-anchor="middle" x="671.84" y="-24.21" font-family="Helvetica,sans-Serif" font-size="10.00">Var</text>
<text text-anchor="middle" x="671.84" y="-13.21" font-family="Helvetica,sans-Serif" font-size="10.00">tasa</text>
</g>
<!-- n17&#45;&gt;n19 -->
<g id="edge16" class="edge">
<title>n17&#45;&gt;n19</title>
<path fill="none" stroke="black" d="M641.19,-79.35C645.97,-70.44 651.74,-59.69 656.97,-49.93"/>
<polygon fill="black" stroke="black" points="660.14,-51.43 661.78,-40.96 653.97,-48.12 660.14,-51.43"/>
</g>
</g>
</svg>
