<?xml version="1.0" encoding="UTF-8" standalone="no"?>
<!DOCTYPE svg PUBLIC "-//W3C//DTD SVG 1.1//EN"
 "http://www.w3.org/Graphics/SVG/1.1/DTD/svg11.dtd">
<!-- Generated by graphviz version 2.43.0 (0)
 -->
<!-- Title: ast Pages: 1 -->
<svg width="1748pt" height="515pt"
 viewBox="0.00 0.00 1747.60 514.56" xmlns="http://www.w3.org/2000/svg" xmlns:xlink="http://www.w3.org/1999/xlink">
<g id="graph0" class="graph" transform="scale(1 1) rotate(0) translate(4 510.56)">
<title>ast</title>
<polygon fill="white" stroke="transparent" points="-4,4 -4,-510.56 1743.6,-510.56 1743.6,4 -4,4"/>
<!-- n0 -->
<g id="node1" class="node">
<title>n0</title>
<polygon fill="none" stroke="black" points="805.6,-506.56 747.6,-506.56 747.6,-470.56 805.6,-470.56 805.6,-506.56"/>
<text text-anchor="middle" x="776.6" y="-486.06" font-family="Helvetica,sans-Serif" font-size="10.00">Program</text>
</g>
<!-- n1 -->
<g id="node2" class="node">
<title>n1</title>
<polygon fill="none" stroke="black" points="213.6,-431.35 139.6,-431.35 139.6,-395.35 213.6,-395.35 213.6,-431.35"/>
<text text-anchor="middle" x="176.6" y="-416.35" font-family="Helvetica,sans-Serif" font-size="10.00">Assignment</text>
<text text-anchor="middle" x="176.6" y="-405.35" font-family="Helvetica,sans-Serif" font-size="10.00">sueldo</text>
</g>
<!-- n0&#45;&gt;n1 -->
<g id="edge2" class="edge">
<title>n0&#45;&gt;n1</title>
<path fill="none" stroke="black" d="M747.57,-487.91C664.47,-488.27 419.1,-484.65 223.6,-434.56 223.38,-434.5 223.17,-434.45 222.95,-434.39"/>
<polygon fill="black" stroke="black" points="223.75,-430.97 213.16,-431.35 221.67,-437.66 223.75,-430.97"/>
</g>
<!-- n3 -->
<g id="node4" class="node">
<title>n3</title>
<polygon fill="none" stroke="black" points="306.6,-431.35 232.6,-431.35 232.6,-395.35 306.6,-395.35 306.6,-431.35"/>
<text text-anchor="middle" x="269.6" y="-416.35" font-family="Helvetica,sans-Serif" font-size="10.00">Assignment</text>
<text text-anchor="middle" x="269.6" y="-405.35" font-family="Helvetica,sans-Serif" font-size="10.00">bonos</text>
</g>
<!-- n0&#45;&gt;n3 -->
<g id="edge10" class="edge">
<title>n0&#45;&gt;n3</title>
<path fill="none" stroke="black" d="M747.36,-484.7C679.49,-477.86 506.13,-459.3 362.6,-434.56 347.65,-431.98 331.46,-428.65 316.84,-425.44"/>
<polygon fill="black" stroke="black" points="317.53,-422.01 307.01,-423.25 316.01,-428.84 317.53,-422.01"/>
</g>
<!-- n11 -->
<g id="node12" class="node">
<title>n11</title>
<polygon fill="none" stroke="black" points="445.6,-431.35 371.6,-431.35 371.6,-395.35 445.6,-395.35 445.6,-431.35"/>
<text text-anchor="middle" x="408.6" y="-416.35" font-family="Helvetica,sans-Serif" font-size="10.00">Assignment</text>
<text text-anchor="middle" x="408.6" y="-405.35" font-family="Helvetica,sans-Serif" font-size="10.00">deduc</text>
</g>
<!-- n0&#45;&gt;n11 -->
<g id="edge14" class="edge">
<title>n0&#45;&gt;n11</title>
<path fill="none" stroke="black" d="M747.18,-485.2C691.5,-480.22 567.01,-466.56 454.96,-434.27"/>
<polygon fill="black" stroke="black" points="455.78,-430.86 445.2,-431.4 453.81,-437.58 455.78,-430.86"/>
</g>
<!-- n15 -->
<g id="node16" class="node">
<title>n15</title>
<polygon fill="none" stroke="black" points="537.6,-431.35 463.6,-431.35 463.6,-395.35 537.6,-395.35 537.6,-431.35"/>
<text text-anchor="middle" x="500.6" y="-416.35" font-family="Helvetica,sans-Serif" font-size="10.00">Assignment</text>
<text text-anchor="middle" x="500.6" y="-405.35" font-family="Helvetica,sans-Serif" font-size="10.00">ingreso</text>
</g>
<!-- n0&#45;&gt;n15 -->
<g id="edge20" class="edge">
<title>n0&#45;&gt;n15</title>
<path fill="none" stroke="black" d="M747.43,-482.65C705.11,-475.15 624.18,-459.34 547.58,-434.6"/>
<polygon fill="black" stroke="black" points="548.37,-431.18 537.77,-431.38 546.18,-437.83 548.37,-431.18"/>
</g>
<!-- n21 -->
<g id="node22" class="node">
<title>n21</title>
<polygon fill="none" stroke="black" points="629.6,-431.35 555.6,-431.35 555.6,-395.35 629.6,-395.35 629.6,-431.35"/>
<text text-anchor="middle" x="592.6" y="-416.35" font-family="Helvetica,sans-Serif" font-size="10.00">Assignment</text>
<text text-anchor="middle" x="592.6" y="-405.35" font-family="Helvetica,sans-Serif" font-size="10.00">t1</text>
</g>
<!-- n0&#45;&gt;n21 -->
<g id="edge22" class="edge">
<title>n0&#45;&gt;n21</title>
<path fill="none" stroke="black" d="M747.36,-476.79C721.24,-467.06 681.73,-452.11 639.12,-434.7"/>
<polygon fill="black" stroke="black" points="640.27,-431.39 629.69,-430.82 637.61,-437.86 640.27,-431.39"/>
</g>
<!-- n23 -->
<g id="node24" class="node">
<title>n23</title>
<polygon fill="none" stroke="black" points="721.6,-431.35 647.6,-431.35 647.6,-395.35 721.6,-395.35 721.6,-431.35"/>
<text text-anchor="middle" x="684.6" y="-416.35" font-family="Helvetica,sans-Serif" font-size="10.00">Assignment</text>
<text text-anchor="middle" x="684.6" y="-405.35" font-family="Helvetica,sans-Serif" font-size="10.00">t2</text>
</g>
<!-- n0&#45;&gt;n23 -->
<g id="edge24" class="edge">
<title>n0&#45;&gt;n23</title>
<path fill="none" stroke="black" d="M754.8,-470.21C742.65,-460.54 727.36,-448.37 714.15,-437.86"/>
<polygon fill="black" stroke="black" points="716.25,-435.06 706.24,-431.57 711.89,-440.54 716.25,-435.06"/>
</g>
<!-- n25 -->
<g id="node26" class="node">
<title>n25</title>
<polygon fill="none" stroke="black" points="813.6,-431.35 739.6,-431.35 739.6,-395.35 813.6,-395.35 813.6,-431.35"/>
<text text-anchor="middle" x="776.6" y="-416.35" font-family="Helvetica,sans-Serif" font-size="10.00">Assignment</text>
<text text-anchor="middle" x="776.6" y="-405.35" font-family="Helvetica,sans-Serif" font-size="10.00">t3</text>
</g>
<!-- n0&#45;&gt;n25 -->
<g id="edge26" class="edge">
<title>n0&#45;&gt;n25</title>
<path fill="none" stroke="black" d="M776.6,-470.21C776.6,-461.73 776.6,-451.32 776.6,-441.8"/>
<polygon fill="black" stroke="black" points="780.1,-441.57 776.6,-431.57 773.1,-441.57 780.1,-441.57"/>
</g>
<!-- n27 -->
<g id="node28" class="node">
<title>n27</title>
<polygon fill="none" stroke="black" points="907.6,-431.35 833.6,-431.35 833.6,-395.35 907.6,-395.35 907.6,-431.35"/>
<text text-anchor="middle" x="870.6" y="-416.35" font-family="Helvetica,sans-Serif" font-size="10.00">Assignment</text>
<text text-anchor="middle" x="870.6" y="-405.35" font-family="Helvetica,sans-Serif" font-size="10.00">impuesto</text>
</g>
<!-- n0&#45;&gt;n27 -->
<g id="edge28" class="edge">
<title>n0&#45;&gt;n27</title>
<path fill="none" stroke="black" d="M798.87,-470.21C811.28,-460.54 826.91,-448.37 840.4,-437.86"/>
<polygon fill="black" stroke="black" points="842.74,-440.48 848.48,-431.57 838.44,-434.95 842.74,-440.48"/>
</g>
<!-- n29 -->
<g id="node30" class="node">
<title>n29</title>
<polygon fill="none" stroke="black" points="1002.6,-431.35 948.6,-431.35 948.6,-395.35 1002.6,-395.35 1002.6,-431.35"/>
<text text-anchor="middle" x="975.6" y="-410.85" font-family="Helvetica,sans-Serif" font-size="10.00">Rule</text>
</g>
<!-- n0&#45;&gt;n29 -->
<g id="edge39" class="edge">
<title>n0&#45;&gt;n29</title>
<path fill="none" stroke="black" d="M805.96,-476.76C841.19,-463.79 900.3,-442.05 938.61,-427.95"/>
<polygon fill="black" stroke="black" points="940.18,-431.11 948.35,-424.37 937.76,-424.54 940.18,-431.11"/>
</g>
<!-- n40 -->
<g id="node41" class="node">
<title>n40</title>
<polygon fill="none" stroke="black" points="1190.6,-431.35 1136.6,-431.35 1136.6,-395.35 1190.6,-395.35 1190.6,-431.35"/>
<text text-anchor="middle" x="1163.6" y="-410.85" font-family="Helvetica,sans-Serif" font-size="10.00">Rule</text>
</g>
<!-- n0&#45;&gt;n40 -->
<g id="edge48" class="edge">
<title>n0&#45;&gt;n40</title>
<path fill="none" stroke="black" d="M805.69,-482.06C874.94,-468.95 1049.53,-435.92 1126.35,-421.39"/>
<polygon fill="black" stroke="black" points="1127.34,-424.77 1136.52,-419.47 1126.04,-417.89 1127.34,-424.77"/>
</g>
<!-- n49 -->
<g id="node50" class="node">
<title>n49</title>
<polygon fill="none" stroke="black" points="1378.6,-431.35 1324.6,-431.35 1324.6,-395.35 1378.6,-395.35 1378.6,-431.35"/>
<text text-anchor="middle" x="1351.6" y="-410.85" font-family="Helvetica,sans-Serif" font-size="10.00">Rule</text>
</g>
<!-- n0&#45;&gt;n49 -->
<g id="edge57" class="edge">
<title>n0&#45;&gt;n49</title>
<path fill="none" stroke="black" d="M805.84,-483.97C874.56,-475.53 1051.69,-453.66 1199.6,-434.56 1238.68,-429.51 1283.4,-423.54 1314.16,-419.4"/>
<polygon fill="black" stroke="black" points="1314.98,-422.83 1324.42,-418.02 1314.05,-415.89 1314.98,-422.83"/>
</g>
<!-- n58 -->
<g id="node59" class="node">
<title>n58</title>
<polygon fill="none" stroke="black" points="1511.6,-431.35 1457.6,-431.35 1457.6,-395.35 1511.6,-395.35 1511.6,-431.35"/>
<text text-anchor="middle" x="1484.6" y="-410.85" font-family="Helvetica,sans-Serif" font-size="10.00">Rule</text>
</g>
<!-- n0&#45;&gt;n58 -->
<g id="edge68" class="edge">
<title>n0&#45;&gt;n58</title>
<path fill="none" stroke="black" d="M805.68,-486.27C893.74,-482.09 1165.06,-467.28 1387.6,-434.56 1407.61,-431.62 1429.7,-427.11 1447.74,-423.1"/>
<polygon fill="black" stroke="black" points="1448.59,-426.5 1457.57,-420.88 1447.05,-419.67 1448.59,-426.5"/>
</g>
<!-- n69 -->
<g id="node70" class="node">
<title>n69</title>
<ellipse fill="none" stroke="black" cx="1573.6" cy="-413.35" rx="43.68" ry="21.43"/>
<text text-anchor="middle" x="1573.6" y="-416.35" font-family="Helvetica,sans-Serif" font-size="10.00">Print</text>
<text text-anchor="middle" x="1573.6" y="-405.35" font-family="Helvetica,sans-Serif" font-size="10.00">impuesto</text>
</g>
<!-- n0&#45;&gt;n69 -->
<g id="edge69" class="edge">
<title>n0&#45;&gt;n69</title>
<path fill="none" stroke="black" d="M805.86,-486.62C925.87,-482.59 1380.57,-465.54 1520.6,-434.56 1524.44,-433.71 1528.37,-432.63 1532.27,-431.42"/>
<polygon fill="black" stroke="black" points="1533.48,-434.71 1541.83,-428.18 1531.24,-428.08 1533.48,-434.71"/>
</g>
<!-- n2 -->
<g id="node3" class="node">
<title>n2</title>
<ellipse fill="none" stroke="black" cx="151.6" cy="-334.92" rx="43.68" ry="21.43"/>
<text text-anchor="middle" x="151.6" y="-337.92" font-family="Helvetica,sans-Serif" font-size="10.00">Number</text>
<text text-anchor="middle" x="151.6" y="-326.92" font-family="Helvetica,sans-Serif" font-size="10.00">140000.5</text>
</g>
<!-- n1&#45;&gt;n2 -->
<g id="edge1" class="edge">
<title>n1&#45;&gt;n2</title>
<path fill="none" stroke="black" d="M170.93,-395C168.09,-386.35 164.59,-375.63 161.35,-365.72"/>
<polygon fill="black" stroke="black" points="164.66,-364.59 158.22,-356.17 158,-366.76 164.66,-364.59"/>
</g>
<!-- n4 -->
<g id="node5" class="node">
<title>n4</title>
<ellipse fill="none" stroke="black" cx="245.6" cy="-334.92" rx="32.55" ry="21.43"/>
<text text-anchor="middle" x="245.6" y="-337.92" font-family="Helvetica,sans-Serif" font-size="10.00">BinOp</text>
<text text-anchor="middle" x="245.6" y="-326.92" font-family="Helvetica,sans-Serif" font-size="10.00">&#45;</text>
</g>
<!-- n3&#45;&gt;n4 -->
<g id="edge9" class="edge">
<title>n3&#45;&gt;n4</title>
<path fill="none" stroke="black" d="M264.15,-395C261.41,-386.28 258.02,-375.47 254.88,-365.49"/>
<polygon fill="black" stroke="black" points="258.21,-364.38 251.87,-355.89 251.53,-366.48 258.21,-364.38"/>
</g>
<!-- n5 -->
<g id="node6" class="node">
<title>n5</title>
<ellipse fill="none" stroke="black" cx="136.6" cy="-256.49" rx="32.55" ry="21.43"/>
<text text-anchor="middle" x="136.6" y="-259.49" font-family="Helvetica,sans-Serif" font-size="10.00">BinOp</text>
<text text-anchor="middle" x="136.6" y="-248.49" font-family="Helvetica,sans-Serif" font-size="10.00">*</text>
</g>
<!-- n4&#45;&gt;n5 -->
<g id="edge5" class="edge">
<title>n4&#45;&gt;n5</title>
<path fill="none" stroke="black" d="M224.06,-318.82C207.64,-307.31 184.82,-291.31 166.61,-278.54"/>
<polygon fill="black" stroke="black" points="168.29,-275.44 158.09,-272.56 164.27,-281.17 168.29,-275.44"/>
</g>
<!-- n8 -->
<g id="node9" class="node">
<title>n8</title>
<ellipse fill="none" stroke="black" cx="233.6" cy="-256.49" rx="32.55" ry="21.43"/>
<text text-anchor="middle" x="233.6" y="-259.49" font-family="Helvetica,sans-Serif" font-size="10.00">BinOp</text>
<text text-anchor="middle" x="233.6" y="-248.49" font-family="Helvetica,sans-Serif" font-size="10.00">/</text>
</g>
<!-- n4&#45;&gt;n8 -->
<g id="edge8" class="edge">
<title>n4&#45;&gt;n8</title>
<path fill="none" stroke="black" d="M242.38,-313.44C241.15,-305.58 239.71,-296.44 238.36,-287.84"/>
<polygon fill="black" stroke="black" points="241.79,-287.1 236.78,-277.76 234.87,-288.19 241.79,-287.1"/>
</g>
<!-- n6 -->
<g id="node7" class="node">
<title>n6</title>
<ellipse fill="none" stroke="black" cx="39.6" cy="-178.07" rx="39.7" ry="21.43"/>
<text text-anchor="middle" x="39.6" y="-181.07" font-family="Helvetica,sans-Serif" font-size="10.00">Number</text>
<text text-anchor="middle" x="39.6" y="-170.07" font-family="Helvetica,sans-Serif" font-size="10.00">23000.0</text>
</g>
<!-- n5&#45;&gt;n6 -->
<g id="edge3" class="edge">
<title>n5&#45;&gt;n6</title>
<path fill="none" stroke="black" d="M116.5,-239.66C102.83,-228.88 84.51,-214.45 69.18,-202.37"/>
<polygon fill="black" stroke="black" points="71.04,-199.38 61.02,-195.94 66.71,-204.88 71.04,-199.38"/>
</g>
<!-- n7 -->
<g id="node8" class="node">
<title>n7</title>
<ellipse fill="none" stroke="black" cx="136.6" cy="-178.07" rx="39.7" ry="21.43"/>
<text text-anchor="middle" x="136.6" y="-181.07" font-family="Helvetica,sans-Serif" font-size="10.00">Number</text>
<text text-anchor="middle" x="136.6" y="-170.07" font-family="Helvetica,sans-Serif" font-size="10.00">1.15</text>
</g>
<!-- n5&#45;&gt;n7 -->
<g id="edge4" class="edge">
<title>n5&#45;&gt;n7</title>
<path fill="none" stroke="black" d="M136.6,-235.01C136.6,-227.15 136.6,-218.01 136.6,-209.42"/>
<polygon fill="black" stroke="black" points="140.1,-209.34 136.6,-199.34 133.1,-209.34 140.1,-209.34"/>
</g>
<!-- n9 -->
<g id="node10" class="node">
<title>n9</title>
<ellipse fill="none" stroke="black" cx="233.6" cy="-178.07" rx="39.7" ry="21.43"/>
<text text-anchor="middle" x="233.6" y="-181.07" font-family="Helvetica,sans-Serif" font-size="10.00">Number</text>
<text text-anchor="middle" x="233.6" y="-170.07" font-family="Helvetica,sans-Serif" font-size="10.00">1500.0</text>
</g>
<!-- n8&#45;&gt;n9 -->
<g id="edge6" class="edge">
<title>n8&#45;&gt;n9</title>
<path fill="none" stroke="black" d="M233.6,-235.01C233.6,-227.15 233.6,-218.01 233.6,-209.42"/>
<polygon fill="black" stroke="black" points="237.1,-209.34 233.6,-199.34 230.1,-209.34 237.1,-209.34"/>
</g>
<!-- n10 -->
<g id="node11" class="node">
<title>n10</title>
<ellipse fill="none" stroke="black" cx="330.6" cy="-178.07" rx="39.7" ry="21.43"/>
<text text-anchor="middle" x="330.6" y="-181.07" font-family="Helvetica,sans-Serif" font-size="10.00">Number</text>
<text text-anchor="middle" x="330.6" y="-170.07" font-family="Helvetica,sans-Serif" font-size="10.00">3.0</text>
</g>
<!-- n8&#45;&gt;n10 -->
<g id="edge7" class="edge">
<title>n8&#45;&gt;n10</title>
<path fill="none" stroke="black" d="M253.7,-239.66C267.37,-228.88 285.69,-214.45 301.02,-202.37"/>
<polygon fill="black" stroke="black" points="303.49,-204.88 309.18,-195.94 299.16,-199.38 303.49,-204.88"/>
</g>
<!-- n12 -->
<g id="node13" class="node">
<title>n12</title>
<ellipse fill="none" stroke="black" cx="408.6" cy="-334.92" rx="32.55" ry="21.43"/>
<text text-anchor="middle" x="408.6" y="-337.92" font-family="Helvetica,sans-Serif" font-size="10.00">BinOp</text>
<text text-anchor="middle" x="408.6" y="-326.92" font-family="Helvetica,sans-Serif" font-size="10.00">/</text>
</g>
<!-- n11&#45;&gt;n12 -->
<g id="edge13" class="edge">
<title>n11&#45;&gt;n12</title>
<path fill="none" stroke="black" d="M408.6,-395C408.6,-386.53 408.6,-376.08 408.6,-366.34"/>
<polygon fill="black" stroke="black" points="412.1,-366.17 408.6,-356.17 405.1,-366.17 412.1,-366.17"/>
</g>
<!-- n13 -->
<g id="node14" class="node">
<title>n13</title>
<ellipse fill="none" stroke="black" cx="323.6" cy="-256.49" rx="39.7" ry="21.43"/>
<text text-anchor="middle" x="323.6" y="-259.49" font-family="Helvetica,sans-Serif" font-size="10.00">Number</text>
<text text-anchor="middle" x="323.6" y="-248.49" font-family="Helvetica,sans-Serif" font-size="10.00">3200.25</text>
</g>
<!-- n12&#45;&gt;n13 -->
<g id="edge11" class="edge">
<title>n12&#45;&gt;n13</title>
<path fill="none" stroke="black" d="M390.15,-317.34C378.67,-307.01 363.69,-293.54 350.86,-282"/>
<polygon fill="black" stroke="black" points="352.97,-279.19 343.19,-275.11 348.28,-284.4 352.97,-279.19"/>
</g>
<!-- n14 -->
<g id="node15" class="node">
<title>n14</title>
<ellipse fill="none" stroke="black" cx="420.6" cy="-256.49" rx="39.7" ry="21.43"/>
<text text-anchor="middle" x="420.6" y="-259.49" font-family="Helvetica,sans-Serif" font-size="10.00">Number</text>
<text text-anchor="middle" x="420.6" y="-248.49" font-family="Helvetica,sans-Serif" font-size="10.00">1.5</text>
</g>
<!-- n12&#45;&gt;n14 -->
<g id="edge12" class="edge">
<title>n12&#45;&gt;n14</title>
<path fill="none" stroke="black" d="M411.81,-313.44C413.05,-305.58 414.48,-296.44 415.83,-287.84"/>
<polygon fill="black" stroke="black" points="419.32,-288.19 417.41,-277.76 412.41,-287.1 419.32,-288.19"/>
</g>
<!-- n16 -->
<g id="node17" class="node">
<title>n16</title>
<ellipse fill="none" stroke="black" cx="491.6" cy="-334.92" rx="32.55" ry="21.43"/>
<text text-anchor="middle" x="491.6" y="-337.92" font-family="Helvetica,sans-Serif" font-size="10.00">BinOp</text>
<text text-anchor="middle" x="491.6" y="-326.92" font-family="Helvetica,sans-Serif" font-size="10.00">&#45;</text>
</g>
<!-- n15&#45;&gt;n16 -->
<g id="edge19" class="edge">
<title>n15&#45;&gt;n16</title>
<path fill="none" stroke="black" d="M498.56,-395C497.56,-386.53 496.33,-376.08 495.18,-366.34"/>
<polygon fill="black" stroke="black" points="498.63,-365.69 493.98,-356.17 491.68,-366.51 498.63,-365.69"/>
</g>
<!-- n17 -->
<g id="node18" class="node">
<title>n17</title>
<ellipse fill="none" stroke="black" cx="510.6" cy="-256.49" rx="32.55" ry="21.43"/>
<text text-anchor="middle" x="510.6" y="-259.49" font-family="Helvetica,sans-Serif" font-size="10.00">BinOp</text>
<text text-anchor="middle" x="510.6" y="-248.49" font-family="Helvetica,sans-Serif" font-size="10.00">+</text>
</g>
<!-- n16&#45;&gt;n17 -->
<g id="edge17" class="edge">
<title>n16&#45;&gt;n17</title>
<path fill="none" stroke="black" d="M496.59,-313.84C498.58,-305.83 500.92,-296.43 503.1,-287.64"/>
<polygon fill="black" stroke="black" points="506.56,-288.25 505.57,-277.7 499.76,-286.56 506.56,-288.25"/>
</g>
<!-- n20 -->
<g id="node21" class="node">
<title>n20</title>
<ellipse fill="none" stroke="black" cx="593.6" cy="-256.49" rx="32.55" ry="21.43"/>
<text text-anchor="middle" x="593.6" y="-259.49" font-family="Helvetica,sans-Serif" font-size="10.00">Var</text>
<text text-anchor="middle" x="593.6" y="-248.49" font-family="Helvetica,sans-Serif" font-size="10.00">deduc</text>
</g>
<!-- n16&#45;&gt;n20 -->
<g id="edge18" class="edge">
<title>n16&#45;&gt;n20</title>
<path fill="none" stroke="black" d="M512.24,-318.45C527.31,-307.16 547.94,-291.7 564.65,-279.18"/>
<polygon fill="black" stroke="black" points="567.08,-281.73 572.99,-272.94 562.89,-276.13 567.08,-281.73"/>
</g>
<!-- n18 -->
<g id="node19" class="node">
<title>n18</title>
<ellipse fill="none" stroke="black" cx="468.6" cy="-178.07" rx="34.8" ry="21.43"/>
<text text-anchor="middle" x="468.6" y="-181.07" font-family="Helvetica,sans-Serif" font-size="10.00">Var</text>
<text text-anchor="middle" x="468.6" y="-170.07" font-family="Helvetica,sans-Serif" font-size="10.00">sueldo</text>
</g>
<!-- n17&#45;&gt;n18 -->
<g id="edge15" class="edge">
<title>n17&#45;&gt;n18</title>
<path fill="none" stroke="black" d="M500,-236.21C495.17,-227.43 489.37,-216.86 484.07,-207.22"/>
<polygon fill="black" stroke="black" points="487.08,-205.42 479.19,-198.35 480.94,-208.79 487.08,-205.42"/>
</g>
<!-- n19 -->
<g id="node20" class="node">
<title>n19</title>
<ellipse fill="none" stroke="black" cx="553.6" cy="-178.07" rx="32.55" ry="21.43"/>
<text text-anchor="middle" x="553.6" y="-181.07" font-family="Helvetica,sans-Serif" font-size="10.00">Var</text>
<text text-anchor="middle" x="553.6" y="-170.07" font-family="Helvetica,sans-Serif" font-size="10.00">bonos</text>
</g>
<!-- n17&#45;&gt;n19 -->
<g id="edge16" class="edge">
<title>n17&#45;&gt;n19</title>
<path fill="none" stroke="black" d="M521.45,-236.21C526.39,-227.43 532.33,-216.86 537.76,-207.22"/>
<polygon fill="black" stroke="black" points="540.9,-208.78 542.75,-198.35 534.8,-205.34 540.9,-208.78"/>
</g>
<!-- n22 -->
<g id="node23" class="node">
<title>n22</title>
<ellipse fill="none" stroke="black" cx="581.6" cy="-334.92" rx="39.7" ry="21.43"/>
<text text-anchor="middle" x="581.6" y="-337.92" font-family="Helvetica,sans-Serif" font-size="10.00">Number</text>
<text text-anchor="middle" x="581.6" y="-326.92" font-family="Helvetica,sans-Serif" font-size="10.00">0.18</text>
</g>
<!-- n21&#45;&gt;n22 -->
<g id="edge21" class="edge">
<title>n21&#45;&gt;n22</title>
<path fill="none" stroke="black" d="M590.1,-395C588.88,-386.53 587.38,-376.08 585.98,-366.34"/>
<polygon fill="black" stroke="black" points="589.4,-365.57 584.51,-356.17 582.47,-366.57 589.4,-365.57"/>
</g>
<!-- n24 -->
<g id="node25" class="node">
<title>n24</title>
<ellipse fill="none" stroke="black" cx="678.6" cy="-334.92" rx="39.7" ry="21.43"/>
<text text-anchor="middle" x="678.6" y="-337.92" font-family="Helvetica,sans-Serif" font-size="10.00">Number</text>
<text text-anchor="middle" x="678.6" y="-326.92" font-family="Helvetica,sans-Serif" font-size="10.00">0.22</text>
</g>
<!-- n23&#45;&gt;n24 -->
<g id="edge23" class="edge">
<title>n23&#45;&gt;n24</title>
<path fill="none" stroke="black" d="M683.24,-395C682.57,-386.53 681.75,-376.08 680.99,-366.34"/>
<polygon fill="black" stroke="black" points="684.46,-365.86 680.19,-356.17 677.48,-366.41 684.46,-365.86"/>
</g>
<!-- n26 -->
<g id="node27" class="node">
<title>n26</title>
<ellipse fill="none" stroke="black" cx="775.6" cy="-334.92" rx="39.7" ry="21.43"/>
<text text-anchor="middle" x="775.6" y="-337.92" font-family="Helvetica,sans-Serif" font-size="10.00">Number</text>
<text text-anchor="middle" x="775.6" y="-326.92" font-family="Helvetica,sans-Serif" font-size="10.00">0.3</text>
</g>
<!-- n25&#45;&gt;n26 -->
<g id="edge25" class="edge">
<title>n25&#45;&gt;n26</title>
<path fill="none" stroke="black" d="M776.37,-395C776.26,-386.53 776.12,-376.08 776,-366.34"/>
<polygon fill="black" stroke="black" points="779.49,-366.12 775.86,-356.17 772.49,-366.21 779.49,-366.12"/>
</g>
<!-- n28 -->
<g id="node29" class="node">
<title>n28</title>
<ellipse fill="none" stroke="black" cx="872.6" cy="-334.92" rx="39.7" ry="21.43"/>
<text text-anchor="middle" x="872.6" y="-337.92" font-family="Helvetica,sans-Serif" font-size="10.00">Number</text>
<text text-anchor="middle" x="872.6" y="-326.92" font-family="Helvetica,sans-Serif" font-size="10.00">0.0</text>
</g>
<!-- n27&#45;&gt;n28 -->
<g id="edge27" class="edge">
<title>n27&#45;&gt;n28</title>
<path fill="none" stroke="black" d="M871.05,-395C871.27,-386.53 871.55,-376.08 871.8,-366.34"/>
<polygon fill="black" stroke="black" points="875.31,-366.26 872.07,-356.17 868.31,-366.07 875.31,-366.26"/>
</g>
<!-- n30 -->
<g id="node31" class="node">
<title>n30</title>
<ellipse fill="none" stroke="black" cx="975.6" cy="-334.92" rx="45.01" ry="21.43"/>
<text text-anchor="middle" x="975.6" y="-337.92" font-family="Helvetica,sans-Serif" font-size="10.00">Cond</text>
<text text-anchor="middle" x="975.6" y="-326.92" font-family="Helvetica,sans-Serif" font-size="10.00">ingreso &gt;</text>
</g>
<!-- n29&#45;&gt;n30 -->
<g id="edge30" class="edge">
<title>n29&#45;&gt;n30</title>
<path fill="none" stroke="black" d="M975.6,-395C975.6,-386.53 975.6,-376.08 975.6,-366.34"/>
<polygon fill="black" stroke="black" points="979.1,-366.17 975.6,-356.17 972.1,-366.17 979.1,-366.17"/>
</g>
<!-- n32 -->
<g id="node33" class="node">
<title>n32</title>
<polygon fill="none" stroke="black" points="1100.6,-352.92 1038.6,-352.92 1038.6,-316.92 1100.6,-316.92 1100.6,-352.92"/>
<text text-anchor="middle" x="1069.6" y="-337.92" font-family="Helvetica,sans-Serif" font-size="10.00">Action</text>
<text text-anchor="middle" x="1069.6" y="-326.92" font-family="Helvetica,sans-Serif" font-size="10.00">impuesto</text>
</g>
<!-- n29&#45;&gt;n32 -->
<g id="edge38" class="edge">
<title>n29&#45;&gt;n32</title>
<path fill="none" stroke="black" d="M996.93,-395C1009.88,-384.47 1026.58,-370.89 1040.7,-359.41"/>
<polygon fill="black" stroke="black" points="1043.13,-361.95 1048.68,-352.93 1038.71,-356.52 1043.13,-361.95"/>
</g>
<!-- n31 -->
<g id="node32" class="node">
<title>n31</title>
<ellipse fill="none" stroke="black" cx="975.6" cy="-256.49" rx="43.68" ry="21.43"/>
<text text-anchor="middle" x="975.6" y="-259.49" font-family="Helvetica,sans-Serif" font-size="10.00">Number</text>
<text text-anchor="middle" x="975.6" y="-248.49" font-family="Helvetica,sans-Serif" font-size="10.00">300000.0</text>
</g>
<!-- n30&#45;&gt;n31 -->
<g id="edge29" class="edge">
<title>n30&#45;&gt;n31</title>
<path fill="none" stroke="black" d="M975.6,-313.44C975.6,-305.58 975.6,-296.44 975.6,-287.84"/>
<polygon fill="black" stroke="black" points="979.1,-287.76 975.6,-277.76 972.1,-287.76 979.1,-287.76"/>
</g>
<!-- n33 -->
<g id="node34" class="node">
<title>n33</title>
<ellipse fill="none" stroke="black" cx="1069.6" cy="-256.49" rx="32.55" ry="21.43"/>
<text text-anchor="middle" x="1069.6" y="-259.49" font-family="Helvetica,sans-Serif" font-size="10.00">BinOp</text>
<text text-anchor="middle" x="1069.6" y="-248.49" font-family="Helvetica,sans-Serif" font-size="10.00">+</text>
</g>
<!-- n32&#45;&gt;n33 -->
<g id="edge37" class="edge">
<title>n32&#45;&gt;n33</title>
<path fill="none" stroke="black" d="M1069.6,-316.58C1069.6,-308.1 1069.6,-297.65 1069.6,-287.91"/>
<polygon fill="black" stroke="black" points="1073.1,-287.74 1069.6,-277.74 1066.1,-287.74 1073.1,-287.74"/>
</g>
<!-- n34 -->
<g id="node35" class="node">
<title>n34</title>
<ellipse fill="none" stroke="black" cx="1018.6" cy="-178.07" rx="43.68" ry="21.43"/>
<text text-anchor="middle" x="1018.6" y="-181.07" font-family="Helvetica,sans-Serif" font-size="10.00">Var</text>
<text text-anchor="middle" x="1018.6" y="-170.07" font-family="Helvetica,sans-Serif" font-size="10.00">impuesto</text>
</g>
<!-- n33&#45;&gt;n34 -->
<g id="edge31" class="edge">
<title>n33&#45;&gt;n34</title>
<path fill="none" stroke="black" d="M1056.99,-236.6C1051.01,-227.64 1043.75,-216.76 1037.16,-206.89"/>
<polygon fill="black" stroke="black" points="1040.05,-204.91 1031.59,-198.54 1034.23,-208.8 1040.05,-204.91"/>
</g>
<!-- n35 -->
<g id="node36" class="node">
<title>n35</title>
<ellipse fill="none" stroke="black" cx="1112.6" cy="-178.07" rx="32.55" ry="21.43"/>
<text text-anchor="middle" x="1112.6" y="-181.07" font-family="Helvetica,sans-Serif" font-size="10.00">BinOp</text>
<text text-anchor="middle" x="1112.6" y="-170.07" font-family="Helvetica,sans-Serif" font-size="10.00">*</text>
</g>
<!-- n33&#45;&gt;n35 -->
<g id="edge36" class="edge">
<title>n33&#45;&gt;n35</title>
<path fill="none" stroke="black" d="M1080.45,-236.21C1085.39,-227.43 1091.33,-216.86 1096.76,-207.22"/>
<polygon fill="black" stroke="black" points="1099.9,-208.78 1101.75,-198.35 1093.8,-205.34 1099.9,-208.78"/>
</g>
<!-- n36 -->
<g id="node37" class="node">
<title>n36</title>
<ellipse fill="none" stroke="black" cx="1086.6" cy="-99.64" rx="32.55" ry="21.43"/>
<text text-anchor="middle" x="1086.6" y="-102.64" font-family="Helvetica,sans-Serif" font-size="10.00">BinOp</text>
<text text-anchor="middle" x="1086.6" y="-91.64" font-family="Helvetica,sans-Serif" font-size="10.00">&#45;</text>
</g>
<!-- n35&#45;&gt;n36 -->
<g id="edge34" class="edge">
<title>n35&#45;&gt;n36</title>
<path fill="none" stroke="black" d="M1105.77,-156.99C1102.99,-148.82 1099.72,-139.23 1096.68,-130.29"/>
<polygon fill="black" stroke="black" points="1099.92,-128.93 1093.38,-120.59 1093.29,-131.18 1099.92,-128.93"/>
</g>
<!-- n39 -->
<g id="node40" class="node">
<title>n39</title>
<ellipse fill="none" stroke="black" cx="1164.6" cy="-99.64" rx="27" ry="21.43"/>
<text text-anchor="middle" x="1164.6" y="-102.64" font-family="Helvetica,sans-Serif" font-size="10.00">Var</text>
<text text-anchor="middle" x="1164.6" y="-91.64" font-family="Helvetica,sans-Serif" font-size="10.00">t3</text>
</g>
<!-- n35&#45;&gt;n39 -->
<g id="edge35" class="edge">
<title>n35&#45;&gt;n39</title>
<path fill="none" stroke="black" d="M1125.45,-158.17C1131.78,-148.87 1139.52,-137.5 1146.44,-127.33"/>
<polygon fill="black" stroke="black" points="1149.52,-129.02 1152.25,-118.79 1143.73,-125.09 1149.52,-129.02"/>
</g>
<!-- n37 -->
<g id="node38" class="node">
<title>n37</title>
<ellipse fill="none" stroke="black" cx="1037.6" cy="-21.21" rx="37.45" ry="21.43"/>
<text text-anchor="middle" x="1037.6" y="-24.21" font-family="Helvetica,sans-Serif" font-size="10.00">Var</text>
<text text-anchor="middle" x="1037.6" y="-13.21" font-family="Helvetica,sans-Serif" font-size="10.00">ingreso</text>
</g>
<!-- n36&#45;&gt;n37 -->
<g id="edge32" class="edge">
<title>n36&#45;&gt;n37</title>
<path fill="none" stroke="black" d="M1074.49,-79.75C1068.76,-70.81 1061.8,-59.97 1055.48,-50.11"/>
<polygon fill="black" stroke="black" points="1058.26,-47.95 1049.91,-41.42 1052.36,-51.73 1058.26,-47.95"/>
</g>
<!-- n38 -->
<g id="node39" class="node">
<title>n38</title>
<ellipse fill="none" stroke="black" cx="1136.6" cy="-21.21" rx="43.68" ry="21.43"/>
<text text-anchor="middle" x="1136.6" y="-24.21" font-family="Helvetica,sans-Serif" font-size="10.00">Number</text>
<text text-anchor="middle" x="1136.6" y="-13.21" font-family="Helvetica,sans-Serif" font-size="10.00">300000.0</text>
</g>
<!-- n36&#45;&gt;n38 -->
<g id="edge33" class="edge">
<title>n36&#45;&gt;n38</title>
<path fill="none" stroke="black" d="M1098.96,-79.75C1104.76,-70.88 1111.79,-60.13 1118.2,-50.33"/>
<polygon fill="black" stroke="black" points="1121.31,-51.97 1123.86,-41.69 1115.45,-48.14 1121.31,-51.97"/>
</g>
<!-- n41 -->
<g id="node42" class="node">
<title>n41</title>
<ellipse fill="none" stroke="black" cx="1163.6" cy="-334.92" rx="45.01" ry="21.43"/>
<text text-anchor="middle" x="1163.6" y="-337.92" font-family="Helvetica,sans-Serif" font-size="10.00">Cond</text>
<text text-anchor="middle" x="1163.6" y="-326.92" font-family="Helvetica,sans-Serif" font-size="10.00">ingreso &gt;</text>
</g>
<!-- n40&#45;&gt;n41 -->
<g id="edge41" class="edge">
<title>n40&#45;&gt;n41</title>
<path fill="none" stroke="black" d="M1163.6,-395C1163.6,-386.53 1163.6,-376.08 1163.6,-366.34"/>
<polygon fill="black" stroke="black" points="1167.1,-366.17 1163.6,-356.17 1160.1,-366.17 1167.1,-366.17"/>
</g>
<!-- n43 -->
<g id="node44" class="node">
<title>n43</title>
<polygon fill="none" stroke="black" points="1288.6,-352.92 1226.6,-352.92 1226.6,-316.92 1288.6,-316.92 1288.6,-352.92"/>
<text text-anchor="middle" x="1257.6" y="-337.92" font-family="Helvetica,sans-Serif" font-size="10.00">Action</text>
<text text-anchor="middle" x="1257.6" y="-326.92" font-family="Helvetica,sans-Serif" font-size="10.00">impuesto</text>
</g>
<!-- n40&#45;&gt;n43 -->
<g id="edge47" class="edge">
<title>n40&#45;&gt;n43</title>
<path fill="none" stroke="black" d="M1184.93,-395C1197.88,-384.47 1214.58,-370.89 1228.7,-359.41"/>
<polygon fill="black" stroke="black" points="1231.13,-361.95 1236.68,-352.93 1226.71,-356.52 1231.13,-361.95"/>
</g>
<!-- n42 -->
<g id="node43" class="node">
<title>n42</title>
<ellipse fill="none" stroke="black" cx="1163.6" cy="-256.49" rx="43.68" ry="21.43"/>
<text text-anchor="middle" x="1163.6" y="-259.49" font-family="Helvetica,sans-Serif" font-size="10.00">Number</text>
<text text-anchor="middle" x="1163.6" y="-248.49" font-family="Helvetica,sans-Serif" font-size="10.00">200000.0</text>
</g>
<!-- n41&#45;&gt;n42 -->
<g id="edge40" class="edge">
<title>n41&#45;&gt;n42</title>
<path fill="none" stroke="black" d="M1163.6,-313.44C1163.6,-305.58 1163.6,-296.44 1163.6,-287.84"/>
<polygon fill="black" stroke="black" points="1167.1,-287.76 1163.6,-277.76 1160.1,-287.76 1167.1,-287.76"/>
</g>
<!-- n44 -->
<g id="node45" class="node">
<title>n44</title>
<ellipse fill="none" stroke="black" cx="1257.6" cy="-256.49" rx="32.55" ry="21.43"/>
<text text-anchor="middle" x="1257.6" y="-259.49" font-family="Helvetica,sans-Serif" font-size="10.00">BinOp</text>
<text text-anchor="middle" x="1257.6" y="-248.49" font-family="Helvetica,sans-Serif" font-size="10.00">+</text>
</g>
<!-- n43&#45;&gt;n44 -->
<g id="edge46" class="edge">
<title>n43&#45;&gt;n44</title>
<path fill="none" stroke="black" d="M1257.6,-316.58C1257.6,-308.1 1257.6,-297.65 1257.6,-287.91"/>
<polygon fill="black" stroke="black" points="1261.1,-287.74 1257.6,-277.74 1254.1,-287.74 1261.1,-287.74"/>
</g>
<!-- n45 -->
<g id="node46" class="node">
<title>n45</title>
<ellipse fill="none" stroke="black" cx="1212.6" cy="-178.07" rx="43.68" ry="21.43"/>
<text text-anchor="middle" x="1212.6" y="-181.07" font-family="Helvetica,sans-Serif" font-size="10.00">Var</text>
<text text-anchor="middle" x="1212.6" y="-170.07" font-family="Helvetica,sans-Serif" font-size="10.00">impuesto</text>
</g>
<!-- n44&#45;&gt;n45 -->
<g id="edge42" class="edge">
<title>n44&#45;&gt;n45</title>
<path fill="none" stroke="black" d="M1246.24,-236.21C1241.11,-227.49 1234.95,-217.03 1229.31,-207.44"/>
<polygon fill="black" stroke="black" points="1232.2,-205.45 1224.11,-198.61 1226.16,-209 1232.2,-205.45"/>
</g>
<!-- n46 -->
<g id="node47" class="node">
<title>n46</title>
<ellipse fill="none" stroke="black" cx="1306.6" cy="-178.07" rx="32.55" ry="21.43"/>
<text text-anchor="middle" x="1306.6" y="-181.07" font-family="Helvetica,sans-Serif" font-size="10.00">BinOp</text>
<text text-anchor="middle" x="1306.6" y="-170.07" font-family="Helvetica,sans-Serif" font-size="10.00">*</text>
</g>
<!-- n44&#45;&gt;n46 -->
<g id="edge45" class="edge">
<title>n44&#45;&gt;n46</title>
<path fill="none" stroke="black" d="M1269.71,-236.6C1275.54,-227.51 1282.64,-216.43 1289.05,-206.44"/>
<polygon fill="black" stroke="black" points="1292,-208.31 1294.46,-198.01 1286.11,-204.53 1292,-208.31"/>
</g>
<!-- n47 -->
<g id="node48" class="node">
<title>n47</title>
<ellipse fill="none" stroke="black" cx="1263.6" cy="-99.64" rx="43.68" ry="21.43"/>
<text text-anchor="middle" x="1263.6" y="-102.64" font-family="Helvetica,sans-Serif" font-size="10.00">Number</text>
<text text-anchor="middle" x="1263.6" y="-91.64" font-family="Helvetica,sans-Serif" font-size="10.00">100000.0</text>
</g>
<!-- n46&#45;&gt;n47 -->
<g id="edge43" class="edge">
<title>n46&#45;&gt;n47</title>
<path fill="none" stroke="black" d="M1295.75,-157.78C1290.85,-149.07 1284.95,-138.6 1279.56,-129.02"/>
<polygon fill="black" stroke="black" points="1282.55,-127.18 1274.59,-120.18 1276.45,-130.62 1282.55,-127.18"/>
</g>
<!-- n48 -->
<g id="node49" class="node">
<title>n48</title>
<ellipse fill="none" stroke="black" cx="1352.6" cy="-99.64" rx="27" ry="21.43"/>
<text text-anchor="middle" x="1352.6" y="-102.64" font-family="Helvetica,sans-Serif" font-size="10.00">Var</text>
<text text-anchor="middle" x="1352.6" y="-91.64" font-family="Helvetica,sans-Serif" font-size="10.00">t2</text>
</g>
<!-- n46&#45;&gt;n48 -->
<g id="edge44" class="edge">
<title>n46&#45;&gt;n48</title>
<path fill="none" stroke="black" d="M1317.97,-158.17C1323.47,-149.04 1330.17,-137.9 1336.21,-127.87"/>
<polygon fill="black" stroke="black" points="1339.36,-129.42 1341.52,-119.05 1333.36,-125.81 1339.36,-129.42"/>
</g>
<!-- n50 -->
<g id="node51" class="node">
<title>n50</title>
<ellipse fill="none" stroke="black" cx="1351.6" cy="-334.92" rx="45.01" ry="21.43"/>
<text text-anchor="middle" x="1351.6" y="-337.92" font-family="Helvetica,sans-Serif" font-size="10.00">Cond</text>
<text text-anchor="middle" x="1351.6" y="-326.92" font-family="Helvetica,sans-Serif" font-size="10.00">ingreso &gt;</text>
</g>
<!-- n49&#45;&gt;n50 -->
<g id="edge50" class="edge">
<title>n49&#45;&gt;n50</title>
<path fill="none" stroke="black" d="M1351.6,-395C1351.6,-386.53 1351.6,-376.08 1351.6,-366.34"/>
<polygon fill="black" stroke="black" points="1355.1,-366.17 1351.6,-356.17 1348.1,-366.17 1355.1,-366.17"/>
</g>
<!-- n52 -->
<g id="node53" class="node">
<title>n52</title>
<polygon fill="none" stroke="black" points="1476.6,-352.92 1414.6,-352.92 1414.6,-316.92 1476.6,-316.92 1476.6,-352.92"/>
<text text-anchor="middle" x="1445.6" y="-337.92" font-family="Helvetica,sans-Serif" font-size="10.00">Action</text>
<text text-anchor="middle" x="1445.6" y="-326.92" font-family="Helvetica,sans-Serif" font-size="10.00">impuesto</text>
</g>
<!-- n49&#45;&gt;n52 -->
<g id="edge56" class="edge">
<title>n49&#45;&gt;n52</title>
<path fill="none" stroke="black" d="M1372.93,-395C1385.88,-384.47 1402.58,-370.89 1416.7,-359.41"/>
<polygon fill="black" stroke="black" points="1419.13,-361.95 1424.68,-352.93 1414.71,-356.52 1419.13,-361.95"/>
</g>
<!-- n51 -->
<g id="node52" class="node">
<title>n51</title>
<ellipse fill="none" stroke="black" cx="1351.6" cy="-256.49" rx="43.68" ry="21.43"/>
<text text-anchor="middle" x="1351.6" y="-259.49" font-family="Helvetica,sans-Serif" font-size="10.00">Number</text>
<text text-anchor="middle" x="1351.6" y="-248.49" font-family="Helvetica,sans-Serif" font-size="10.00">200000.0</text>
</g>
<!-- n50&#45;&gt;n51 -->
<g id="edge49" class="edge">
<title>n50&#45;&gt;n51</title>
<path fill="none" stroke="black" d="M1351.6,-313.44C1351.6,-305.58 1351.6,-296.44 1351.6,-287.84"/>
<polygon fill="black" stroke="black" points="1355.1,-287.76 1351.6,-277.76 1348.1,-287.76 1355.1,-287.76"/>
</g>
<!-- n53 -->
<g id="node54" class="node">
<title>n53</title>
<ellipse fill="none" stroke="black" cx="1445.6" cy="-256.49" rx="32.55" ry="21.43"/>
<text text-anchor="middle" x="1445.6" y="-259.49" font-family="Helvetica,sans-Serif" font-size="10.00">BinOp</text>
<text text-anchor="middle" x="1445.6" y="-248.49" font-family="Helvetica,sans-Serif" font-size="10.00">+</text>
</g>
<!-- n52&#45;&gt;n53 -->
<g id="edge55" class="edge">
<title>n52&#45;&gt;n53</title>
<path fill="none" stroke="black" d="M1445.6,-316.58C1445.6,-308.1 1445.6,-297.65 1445.6,-287.91"/>
<polygon fill="black" stroke="black" points="1449.1,-287.74 1445.6,-277.74 1442.1,-287.74 1449.1,-287.74"/>
</g>
<!-- n54 -->
<g id="node55" class="node">
<title>n54</title>
<ellipse fill="none" stroke="black" cx="1403.6" cy="-178.07" rx="43.68" ry="21.43"/>
<text text-anchor="middle" x="1403.6" y="-181.07" font-family="Helvetica,sans-Serif" font-size="10.00">Var</text>
<text text-anchor="middle" x="1403.6" y="-170.07" font-family="Helvetica,sans-Serif" font-size="10.00">impuesto</text>
</g>
<!-- n53&#45;&gt;n54 -->
<g id="edge51" class="edge">
<title>n53&#45;&gt;n54</title>
<path fill="none" stroke="black" d="M1435,-236.21C1430.25,-227.56 1424.55,-217.19 1419.31,-207.66"/>
<polygon fill="black" stroke="black" points="1422.37,-205.96 1414.49,-198.88 1416.23,-209.33 1422.37,-205.96"/>
</g>
<!-- n55 -->
<g id="node56" class="node">
<title>n55</title>
<ellipse fill="none" stroke="black" cx="1497.6" cy="-178.07" rx="32.55" ry="21.43"/>
<text text-anchor="middle" x="1497.6" y="-181.07" font-family="Helvetica,sans-Serif" font-size="10.00">BinOp</text>
<text text-anchor="middle" x="1497.6" y="-170.07" font-family="Helvetica,sans-Serif" font-size="10.00">*</text>
</g>
<!-- n53&#45;&gt;n55 -->
<g id="edge54" class="edge">
<title>n53&#45;&gt;n55</title>
<path fill="none" stroke="black" d="M1458.45,-236.6C1464.69,-227.44 1472.29,-216.26 1479.13,-206.21"/>
<polygon fill="black" stroke="black" points="1482.16,-207.98 1484.89,-197.74 1476.37,-204.04 1482.16,-207.98"/>
</g>
<!-- n56 -->
<g id="node57" class="node">
<title>n56</title>
<ellipse fill="none" stroke="black" cx="1451.6" cy="-99.64" rx="43.68" ry="21.43"/>
<text text-anchor="middle" x="1451.6" y="-102.64" font-family="Helvetica,sans-Serif" font-size="10.00">Number</text>
<text text-anchor="middle" x="1451.6" y="-91.64" font-family="Helvetica,sans-Serif" font-size="10.00">100000.0</text>
</g>
<!-- n55&#45;&gt;n56 -->
<g id="edge52" class="edge">
<title>n55&#45;&gt;n56</title>
<path fill="none" stroke="black" d="M1486.23,-158.17C1480.89,-149.31 1474.42,-138.56 1468.52,-128.76"/>
<polygon fill="black" stroke="black" points="1471.47,-126.88 1463.32,-120.11 1465.48,-130.48 1471.47,-126.88"/>
</g>
<!-- n57 -->
<g id="node58" class="node">
<title>n57</title>
<ellipse fill="none" stroke="black" cx="1540.6" cy="-99.64" rx="27" ry="21.43"/>
<text text-anchor="middle" x="1540.6" y="-102.64" font-family="Helvetica,sans-Serif" font-size="10.00">Var</text>
<text text-anchor="middle" x="1540.6" y="-91.64" font-family="Helvetica,sans-Serif" font-size="10.00">t1</text>
</g>
<!-- n55&#45;&gt;n57 -->
<g id="edge53" class="edge">
<title>n55&#45;&gt;n57</title>
<path fill="none" stroke="black" d="M1508.45,-157.78C1513.46,-148.87 1519.51,-138.11 1525.01,-128.35"/>
<polygon fill="black" stroke="black" points="1528.19,-129.82 1530.05,-119.39 1522.09,-126.39 1528.19,-129.82"/>
</g>
<!-- n59 -->
<g id="node60" class="node">
<title>n59</title>
<ellipse fill="none" stroke="black" cx="1545.6" cy="-334.92" rx="50.82" ry="21.43"/>
<text text-anchor="middle" x="1545.6" y="-337.92" font-family="Helvetica,sans-Serif" font-size="10.00">Cond</text>
<text text-anchor="middle" x="1545.6" y="-326.92" font-family="Helvetica,sans-Serif" font-size="10.00">ingreso &lt;=</text>
</g>
<!-- n58&#45;&gt;n59 -->
<g id="edge59" class="edge">
<title>n58&#45;&gt;n59</title>
<path fill="none" stroke="black" d="M1498.44,-395C1505.87,-385.69 1515.21,-373.99 1523.61,-363.46"/>
<polygon fill="black" stroke="black" points="1526.59,-365.34 1530.09,-355.34 1521.12,-360.98 1526.59,-365.34"/>
</g>
<!-- n61 -->
<g id="node62" class="node">
<title>n61</title>
<polygon fill="none" stroke="black" points="1676.6,-352.92 1614.6,-352.92 1614.6,-316.92 1676.6,-316.92 1676.6,-352.92"/>
<text text-anchor="middle" x="1645.6" y="-337.92" font-family="Helvetica,sans-Serif" font-size="10.00">Action</text>
<text text-anchor="middle" x="1645.6" y="-326.92" font-family="Helvetica,sans-Serif" font-size="10.00">impuesto</text>
</g>
<!-- n58&#45;&gt;n61 -->
<g id="edge67" class="edge">
<title>n58&#45;&gt;n61</title>
<path fill="none" stroke="black" d="M1511.95,-396.58C1514.84,-395.03 1517.77,-393.52 1520.6,-392.13 1554.84,-375.33 1566.71,-373.57 1605.07,-356.23"/>
<polygon fill="black" stroke="black" points="1606.63,-359.36 1614.25,-352.01 1603.7,-353 1606.63,-359.36"/>
</g>
<!-- n60 -->
<g id="node61" class="node">
<title>n60</title>
<ellipse fill="none" stroke="black" cx="1545.6" cy="-256.49" rx="43.68" ry="21.43"/>
<text text-anchor="middle" x="1545.6" y="-259.49" font-family="Helvetica,sans-Serif" font-size="10.00">Number</text>
<text text-anchor="middle" x="1545.6" y="-248.49" font-family="Helvetica,sans-Serif" font-size="10.00">200000.0</text>
</g>
<!-- n59&#45;&gt;n60 -->
<g id="edge58" class="edge">
<title>n59&#45;&gt;n60</title>
<path fill="none" stroke="black" d="M1545.6,-313.44C1545.6,-305.58 1545.6,-296.44 1545.6,-287.84"/>
<polygon fill="black" stroke="black" points="1549.1,-287.76 1545.6,-277.76 1542.1,-287.76 1549.1,-287.76"/>
</g>
<!-- n62 -->
<g id="node63" class="node">
<title>n62</title>
<ellipse fill="none" stroke="black" cx="1645.6" cy="-256.49" rx="32.55" ry="21.43"/>
<text text-anchor="middle" x="1645.6" y="-259.49" font-family="Helvetica,sans-Serif" font-size="10.00">BinOp</text>
<text text-anchor="middle" x="1645.6" y="-248.49" font-family="Helvetica,sans-Serif" font-size="10.00">+</text>
</g>
<!-- n61&#45;&gt;n62 -->
<g id="edge66" class="edge">
<title>n61&#45;&gt;n62</title>
<path fill="none" stroke="black" d="M1645.6,-316.58C1645.6,-308.1 1645.6,-297.65 1645.6,-287.91"/>
<polygon fill="black" stroke="black" points="1649.1,-287.74 1645.6,-277.74 1642.1,-287.74 1649.1,-287.74"/>
</g>
<!-- n63 -->
<g id="node64" class="node">
<title>n63</title>
<ellipse fill="none" stroke="black" cx="1592.6" cy="-178.07" rx="43.68" ry="21.43"/>
<text text-anchor="middle" x="1592.6" y="-181.07" font-family="Helvetica,sans-Serif" font-size="10.00">Var</text>
<text text-anchor="middle" x="1592.6" y="-170.07" font-family="Helvetica,sans-Serif" font-size="10.00">impuesto</text>
</g>
<!-- n62&#45;&gt;n63 -->
<g id="edge60" class="edge">
<title>n62&#45;&gt;n63</title>
<path fill="none" stroke="black" d="M1632.77,-236.99C1626.51,-227.97 1618.86,-216.93 1611.91,-206.92"/>
<polygon fill="black" stroke="black" points="1614.62,-204.69 1606.05,-198.46 1608.87,-208.67 1614.62,-204.69"/>
</g>
<!-- n64 -->
<g id="node65" class="node">
<title>n64</title>
<ellipse fill="none" stroke="black" cx="1686.6" cy="-178.07" rx="32.55" ry="21.43"/>
<text text-anchor="middle" x="1686.6" y="-181.07" font-family="Helvetica,sans-Serif" font-size="10.00">BinOp</text>
<text text-anchor="middle" x="1686.6" y="-170.07" font-family="Helvetica,sans-Serif" font-size="10.00">*</text>
</g>
<!-- n62&#45;&gt;n64 -->
<g id="edge65" class="edge">
<title>n62&#45;&gt;n64</title>
<path fill="none" stroke="black" d="M1655.94,-236.21C1660.65,-227.43 1666.32,-216.86 1671.49,-207.22"/>
<polygon fill="black" stroke="black" points="1674.61,-208.81 1676.26,-198.35 1668.44,-205.5 1674.61,-208.81"/>
</g>
<!-- n65 -->
<g id="node66" class="node">
<title>n65</title>
<ellipse fill="none" stroke="black" cx="1634.6" cy="-99.64" rx="32.55" ry="21.43"/>
<text text-anchor="middle" x="1634.6" y="-102.64" font-family="Helvetica,sans-Serif" font-size="10.00">BinOp</text>
<text text-anchor="middle" x="1634.6" y="-91.64" font-family="Helvetica,sans-Serif" font-size="10.00">&#45;</text>
</g>
<!-- n64&#45;&gt;n65 -->
<g id="edge63" class="edge">
<title>n64&#45;&gt;n65</title>
<path fill="none" stroke="black" d="M1673.74,-158.17C1667.51,-149.01 1659.91,-137.84 1653.07,-127.78"/>
<polygon fill="black" stroke="black" points="1655.82,-125.61 1647.3,-119.31 1650.04,-129.55 1655.82,-125.61"/>
</g>
<!-- n68 -->
<g id="node69" class="node">
<title>n68</title>
<ellipse fill="none" stroke="black" cx="1712.6" cy="-99.64" rx="27" ry="21.43"/>
<text text-anchor="middle" x="1712.6" y="-102.64" font-family="Helvetica,sans-Serif" font-size="10.00">Var</text>
<text text-anchor="middle" x="1712.6" y="-91.64" font-family="Helvetica,sans-Serif" font-size="10.00">t1</text>
</g>
<!-- n64&#45;&gt;n68 -->
<g id="edge64" class="edge">
<title>n64&#45;&gt;n68</title>
<path fill="none" stroke="black" d="M1693.43,-156.99C1696.23,-148.76 1699.52,-139.07 1702.58,-130.08"/>
<polygon fill="black" stroke="black" points="1706,-130.92 1705.9,-120.32 1699.37,-128.66 1706,-130.92"/>
</g>
<!-- n66 -->
<g id="node67" class="node">
<title>n66</title>
<ellipse fill="none" stroke="black" cx="1584.6" cy="-21.21" rx="37.45" ry="21.43"/>
<text text-anchor="middle" x="1584.6" y="-24.21" font-family="Helvetica,sans-Serif" font-size="10.00">Var</text>
<text text-anchor="middle" x="1584.6" y="-13.21" font-family="Helvetica,sans-Serif" font-size="10.00">ingreso</text>
</g>
<!-- n65&#45;&gt;n66 -->
<g id="edge61" class="edge">
<title>n65&#45;&gt;n66</title>
<path fill="none" stroke="black" d="M1622.24,-79.75C1616.33,-70.72 1609.15,-59.74 1602.65,-49.81"/>
<polygon fill="black" stroke="black" points="1605.57,-47.87 1597.16,-41.42 1599.71,-51.7 1605.57,-47.87"/>
</g>
<!-- n67 -->
<g id="node68" class="node">
<title>n67</title>
<ellipse fill="none" stroke="black" cx="1683.6" cy="-21.21" rx="43.68" ry="21.43"/>
<text text-anchor="middle" x="1683.6" y="-24.21" font-family="Helvetica,sans-Serif" font-size="10.00">Number</text>
<text text-anchor="middle" x="1683.6" y="-13.21" font-family="Helvetica,sans-Serif" font-size="10.00">100000.0</text>
</g>
<!-- n65&#45;&gt;n67 -->
<g id="edge62" class="edge">
<title>n65&#45;&gt;n67</title>
<path fill="none" stroke="black" d="M1646.71,-79.75C1652.4,-70.88 1659.29,-60.13 1665.57,-50.33"/>
<polygon fill="black" stroke="black" points="1668.66,-51.99 1671.11,-41.69 1662.77,-48.22 1668.66,-51.99"/>
</g>
</g>
</svg>
