<?xml version="1.0" encoding="UTF-8" standalone="no"?>
<!DOCTYPE svg PUBLIC "-//W3C//DTD SVG 1.1//EN"
 "http://www.w3.org/Graphics/SVG/1.1/DTD/svg11.dtd">
<!-- Generated by graphviz version 2.43.0 (0)
 -->
<!-- Title: parse Pages: 1 -->
<svg width="1239pt" height="908pt"
 viewBox="0.00 0.00 1239.00 908.00" xmlns="http://www.w3.org/2000/svg" xmlns:xlink="http://www.w3.org/1999/xlink">
<g id="graph0" class="graph" transform="scale(1 1) rotate(0) translate(4 904)">
<title>parse</title>
<polygon fill="white" stroke="transparent" points="-4,4 -4,-904 1235,-904 1235,4 -4,4"/>
<!-- n0 -->
<g id="node1" class="node">
<title>n0</title>
<polygon fill="none" stroke="black" points="679,-900 621,-900 621,-864 679,-864 679,-900"/>
<text text-anchor="middle" x="650" y="-879.5" font-family="Helvetica,sans-Serif" font-size="10.00">program</text>
</g>
<!-- n1 -->
<g id="node2" class="node">
<title>n1</title>
<polygon fill="none" stroke="black" points="343.5,-828 276.5,-828 276.5,-792 343.5,-792 343.5,-828"/>
<text text-anchor="middle" x="310" y="-807.5" font-family="Helvetica,sans-Serif" font-size="10.00">statement</text>
</g>
<!-- n0&#45;&gt;n1 -->
<g id="edge9" class="edge">
<title>n0&#45;&gt;n1</title>
<path fill="none" stroke="black" d="M620.72,-874.97C560.77,-862.63 423.78,-834.43 353.44,-819.94"/>
<polygon fill="black" stroke="black" points="354.06,-816.5 343.56,-817.91 352.65,-823.35 354.06,-816.5"/>
</g>
<!-- n10 -->
<g id="node11" class="node">
<title>n10</title>
<polygon fill="none" stroke="black" points="533.5,-828 466.5,-828 466.5,-792 533.5,-792 533.5,-828"/>
<text text-anchor="middle" x="500" y="-807.5" font-family="Helvetica,sans-Serif" font-size="10.00">statement</text>
</g>
<!-- n0&#45;&gt;n10 -->
<g id="edge18" class="edge">
<title>n0&#45;&gt;n10</title>
<path fill="none" stroke="black" d="M620.72,-867.34C598.57,-857 567.82,-842.65 542.89,-831.02"/>
<polygon fill="black" stroke="black" points="544.2,-827.76 533.65,-826.71 541.24,-834.11 544.2,-827.76"/>
</g>
<!-- n19 -->
<g id="node20" class="node">
<title>n19</title>
<polygon fill="none" stroke="black" points="683.5,-828 616.5,-828 616.5,-792 683.5,-792 683.5,-828"/>
<text text-anchor="middle" x="650" y="-807.5" font-family="Helvetica,sans-Serif" font-size="10.00">statement</text>
</g>
<!-- n0&#45;&gt;n19 -->
<g id="edge52" class="edge">
<title>n0&#45;&gt;n19</title>
<path fill="none" stroke="black" d="M650,-863.7C650,-855.98 650,-846.71 650,-838.11"/>
<polygon fill="black" stroke="black" points="653.5,-838.1 650,-828.1 646.5,-838.1 653.5,-838.1"/>
</g>
<!-- n53 -->
<g id="node54" class="node">
<title>n53</title>
<polygon fill="none" stroke="black" points="768.5,-828 701.5,-828 701.5,-792 768.5,-792 768.5,-828"/>
<text text-anchor="middle" x="735" y="-807.5" font-family="Helvetica,sans-Serif" font-size="10.00">statement</text>
</g>
<!-- n0&#45;&gt;n53 -->
<g id="edge59" class="edge">
<title>n0&#45;&gt;n53</title>
<path fill="none" stroke="black" d="M671.01,-863.7C681.72,-854.88 694.89,-844.03 706.5,-834.47"/>
<polygon fill="black" stroke="black" points="708.74,-837.16 714.23,-828.1 704.29,-831.76 708.74,-837.16"/>
</g>
<!-- n60 -->
<g id="node61" class="node">
<title>n60</title>
<polygon fill="none" stroke="black" points="841,-828 787,-828 787,-792 841,-792 841,-828"/>
<text text-anchor="start" x="804" y="-807.5" font-family="Helvetica,sans-Serif" font-size="10.00">EOF</text>
</g>
<!-- n0&#45;&gt;n60 -->
<g id="edge60" class="edge">
<title>n0&#45;&gt;n60</title>
<path fill="none" stroke="black" d="M679.13,-869.19C704.95,-858.63 743.63,-842.62 777,-828 777.2,-827.91 777.41,-827.82 777.61,-827.73"/>
<polygon fill="black" stroke="black" points="779.27,-830.83 786.97,-823.55 776.41,-824.43 779.27,-830.83"/>
</g>
<!-- n2 -->
<g id="node3" class="node">
<title>n2</title>
<polygon fill="none" stroke="black" points="208,-756 134,-756 134,-720 208,-720 208,-756"/>
<text text-anchor="middle" x="171" y="-735.5" font-family="Helvetica,sans-Serif" font-size="10.00">assignment</text>
</g>
<!-- n1&#45;&gt;n2 -->
<g id="edge8" class="edge">
<title>n1&#45;&gt;n2</title>
<path fill="none" stroke="black" d="M276.35,-792.05C257.54,-782.58 233.9,-770.68 213.78,-760.55"/>
<polygon fill="black" stroke="black" points="215.33,-757.4 204.82,-756.03 212.18,-763.66 215.33,-757.4"/>
</g>
<!-- n3 -->
<g id="node4" class="node">
<title>n3</title>
<polygon fill="none" stroke="black" points="54,-684 0,-684 0,-648 54,-648 54,-684"/>
<text text-anchor="middle" x="27" y="-663.5" font-family="Helvetica,sans-Serif" font-size="10.00">ingreso</text>
</g>
<!-- n2&#45;&gt;n3 -->
<g id="edge1" class="edge">
<title>n2&#45;&gt;n3</title>
<path fill="none" stroke="black" d="M135.77,-719.88C113.77,-709.18 85.51,-695.44 63.3,-684.65"/>
<polygon fill="black" stroke="black" points="64.72,-681.44 54.2,-680.22 61.66,-687.74 64.72,-681.44"/>
</g>
<!-- n4 -->
<g id="node5" class="node">
<title>n4</title>
<polygon fill="none" stroke="black" points="126,-684 72,-684 72,-648 126,-648 126,-684"/>
<text text-anchor="middle" x="99" y="-663.5" font-family="Helvetica,sans-Serif" font-size="10.00">=</text>
</g>
<!-- n2&#45;&gt;n4 -->
<g id="edge2" class="edge">
<title>n2&#45;&gt;n4</title>
<path fill="none" stroke="black" d="M153.2,-719.7C144.4,-711.14 133.62,-700.66 124,-691.3"/>
<polygon fill="black" stroke="black" points="126.2,-688.57 116.59,-684.1 121.32,-693.58 126.2,-688.57"/>
</g>
<!-- n5 -->
<g id="node6" class="node">
<title>n5</title>
<polygon fill="none" stroke="black" points="198,-684 144,-684 144,-648 198,-648 198,-684"/>
<text text-anchor="middle" x="171" y="-663.5" font-family="Helvetica,sans-Serif" font-size="10.00">expr</text>
</g>
<!-- n2&#45;&gt;n5 -->
<g id="edge6" class="edge">
<title>n2&#45;&gt;n5</title>
<path fill="none" stroke="black" d="M171,-719.7C171,-711.98 171,-702.71 171,-694.11"/>
<polygon fill="black" stroke="black" points="174.5,-694.1 171,-684.1 167.5,-694.1 174.5,-694.1"/>
</g>
<!-- n9 -->
<g id="node10" class="node">
<title>n9</title>
<polygon fill="none" stroke="black" points="270,-684 216,-684 216,-648 270,-648 270,-684"/>
<text text-anchor="middle" x="243" y="-663.5" font-family="Helvetica,sans-Serif" font-size="10.00">;</text>
</g>
<!-- n2&#45;&gt;n9 -->
<g id="edge7" class="edge">
<title>n2&#45;&gt;n9</title>
<path fill="none" stroke="black" d="M188.8,-719.7C197.6,-711.14 208.38,-700.66 218,-691.3"/>
<polygon fill="black" stroke="black" points="220.68,-693.58 225.41,-684.1 215.8,-688.57 220.68,-693.58"/>
</g>
<!-- n6 -->
<g id="node7" class="node">
<title>n6</title>
<polygon fill="none" stroke="black" points="198,-612 144,-612 144,-576 198,-576 198,-612"/>
<text text-anchor="middle" x="171" y="-591.5" font-family="Helvetica,sans-Serif" font-size="10.00">term</text>
</g>
<!-- n5&#45;&gt;n6 -->
<g id="edge5" class="edge">
<title>n5&#45;&gt;n6</title>
<path fill="none" stroke="black" d="M171,-647.7C171,-639.98 171,-630.71 171,-622.11"/>
<polygon fill="black" stroke="black" points="174.5,-622.1 171,-612.1 167.5,-622.1 174.5,-622.1"/>
</g>
<!-- n7 -->
<g id="node8" class="node">
<title>n7</title>
<polygon fill="none" stroke="black" points="198,-540 144,-540 144,-504 198,-504 198,-540"/>
<text text-anchor="middle" x="171" y="-519.5" font-family="Helvetica,sans-Serif" font-size="10.00">factor</text>
</g>
<!-- n6&#45;&gt;n7 -->
<g id="edge4" class="edge">
<title>n6&#45;&gt;n7</title>
<path fill="none" stroke="black" d="M171,-575.7C171,-567.98 171,-558.71 171,-550.11"/>
<polygon fill="black" stroke="black" points="174.5,-550.1 171,-540.1 167.5,-550.1 174.5,-550.1"/>
</g>
<!-- n8 -->
<g id="node9" class="node">
<title>n8</title>
<polygon fill="none" stroke="black" points="198,-468 144,-468 144,-432 198,-432 198,-468"/>
<text text-anchor="middle" x="171" y="-447.5" font-family="Helvetica,sans-Serif" font-size="10.00">180000</text>
</g>
<!-- n7&#45;&gt;n8 -->
<g id="edge3" class="edge">
<title>n7&#45;&gt;n8</title>
<path fill="none" stroke="black" d="M171,-503.7C171,-495.98 171,-486.71 171,-478.11"/>
<polygon fill="black" stroke="black" points="174.5,-478.1 171,-468.1 167.5,-478.1 174.5,-478.1"/>
</g>
<!-- n11 -->
<g id="node12" class="node">
<title>n11</title>
<polygon fill="none" stroke="black" points="504,-756 430,-756 430,-720 504,-720 504,-756"/>
<text text-anchor="middle" x="467" y="-735.5" font-family="Helvetica,sans-Serif" font-size="10.00">assignment</text>
</g>
<!-- n10&#45;&gt;n11 -->
<g id="edge17" class="edge">
<title>n10&#45;&gt;n11</title>
<path fill="none" stroke="black" d="M491.84,-791.7C488.09,-783.73 483.55,-774.1 479.38,-765.26"/>
<polygon fill="black" stroke="black" points="482.49,-763.66 475.06,-756.1 476.16,-766.64 482.49,-763.66"/>
</g>
<!-- n12 -->
<g id="node13" class="node">
<title>n12</title>
<polygon fill="none" stroke="black" points="350,-684 288,-684 288,-648 350,-648 350,-684"/>
<text text-anchor="middle" x="319" y="-663.5" font-family="Helvetica,sans-Serif" font-size="10.00">impuesto</text>
</g>
<!-- n11&#45;&gt;n12 -->
<g id="edge10" class="edge">
<title>n11&#45;&gt;n12</title>
<path fill="none" stroke="black" d="M430.8,-719.88C409.23,-709.68 381.81,-696.71 359.52,-686.17"/>
<polygon fill="black" stroke="black" points="360.86,-682.92 350.32,-681.81 357.86,-689.25 360.86,-682.92"/>
</g>
<!-- n13 -->
<g id="node14" class="node">
<title>n13</title>
<polygon fill="none" stroke="black" points="422,-684 368,-684 368,-648 422,-648 422,-684"/>
<text text-anchor="middle" x="395" y="-663.5" font-family="Helvetica,sans-Serif" font-size="10.00">=</text>
</g>
<!-- n11&#45;&gt;n13 -->
<g id="edge11" class="edge">
<title>n11&#45;&gt;n13</title>
<path fill="none" stroke="black" d="M449.2,-719.7C440.4,-711.14 429.62,-700.66 420,-691.3"/>
<polygon fill="black" stroke="black" points="422.2,-688.57 412.59,-684.1 417.32,-693.58 422.2,-688.57"/>
</g>
<!-- n14 -->
<g id="node15" class="node">
<title>n14</title>
<polygon fill="none" stroke="black" points="494,-684 440,-684 440,-648 494,-648 494,-684"/>
<text text-anchor="middle" x="467" y="-663.5" font-family="Helvetica,sans-Serif" font-size="10.00">expr</text>
</g>
<!-- n11&#45;&gt;n14 -->
<g id="edge15" class="edge">
<title>n11&#45;&gt;n14</title>
<path fill="none" stroke="black" d="M467,-719.7C467,-711.98 467,-702.71 467,-694.11"/>
<polygon fill="black" stroke="black" points="470.5,-694.1 467,-684.1 463.5,-694.1 470.5,-694.1"/>
</g>
<!-- n18 -->
<g id="node19" class="node">
<title>n18</title>
<polygon fill="none" stroke="black" points="566,-684 512,-684 512,-648 566,-648 566,-684"/>
<text text-anchor="middle" x="539" y="-663.5" font-family="Helvetica,sans-Serif" font-size="10.00">;</text>
</g>
<!-- n11&#45;&gt;n18 -->
<g id="edge16" class="edge">
<title>n11&#45;&gt;n18</title>
<path fill="none" stroke="black" d="M484.8,-719.7C493.6,-711.14 504.38,-700.66 514,-691.3"/>
<polygon fill="black" stroke="black" points="516.68,-693.58 521.41,-684.1 511.8,-688.57 516.68,-693.58"/>
</g>
<!-- n15 -->
<g id="node16" class="node">
<title>n15</title>
<polygon fill="none" stroke="black" points="484,-612 430,-612 430,-576 484,-576 484,-612"/>
<text text-anchor="middle" x="457" y="-591.5" font-family="Helvetica,sans-Serif" font-size="10.00">term</text>
</g>
<!-- n14&#45;&gt;n15 -->
<g id="edge14" class="edge">
<title>n14&#45;&gt;n15</title>
<path fill="none" stroke="black" d="M464.53,-647.7C463.43,-639.98 462.1,-630.71 460.87,-622.11"/>
<polygon fill="black" stroke="black" points="464.32,-621.51 459.44,-612.1 457.39,-622.5 464.32,-621.51"/>
</g>
<!-- n16 -->
<g id="node17" class="node">
<title>n16</title>
<polygon fill="none" stroke="black" points="484,-540 430,-540 430,-504 484,-504 484,-540"/>
<text text-anchor="middle" x="457" y="-519.5" font-family="Helvetica,sans-Serif" font-size="10.00">factor</text>
</g>
<!-- n15&#45;&gt;n16 -->
<g id="edge13" class="edge">
<title>n15&#45;&gt;n16</title>
<path fill="none" stroke="black" d="M457,-575.7C457,-567.98 457,-558.71 457,-550.11"/>
<polygon fill="black" stroke="black" points="460.5,-550.1 457,-540.1 453.5,-550.1 460.5,-550.1"/>
</g>
<!-- n17 -->
<g id="node18" class="node">
<title>n17</title>
<polygon fill="none" stroke="black" points="484,-468 430,-468 430,-432 484,-432 484,-468"/>
<text text-anchor="middle" x="457" y="-447.5" font-family="Helvetica,sans-Serif" font-size="10.00">0</text>
</g>
<!-- n16&#45;&gt;n17 -->
<g id="edge12" class="edge">
<title>n16&#45;&gt;n17</title>
<path fill="none" stroke="black" d="M457,-503.7C457,-495.98 457,-486.71 457,-478.11"/>
<polygon fill="black" stroke="black" points="460.5,-478.1 457,-468.1 453.5,-478.1 460.5,-478.1"/>
</g>
<!-- n20 -->
<g id="node21" class="node">
<title>n20</title>
<polygon fill="none" stroke="black" points="712.5,-756 653.5,-756 653.5,-720 712.5,-720 712.5,-756"/>
<text text-anchor="middle" x="683" y="-735.5" font-family="Helvetica,sans-Serif" font-size="10.00">ruleStmt</text>
</g>
<!-- n19&#45;&gt;n20 -->
<g id="edge51" class="edge">
<title>n19&#45;&gt;n20</title>
<path fill="none" stroke="black" d="M658.16,-791.7C661.91,-783.73 666.45,-774.1 670.62,-765.26"/>
<polygon fill="black" stroke="black" points="673.84,-766.64 674.94,-756.1 667.51,-763.66 673.84,-766.64"/>
</g>
<!-- n21 -->
<g id="node22" class="node">
<title>n21</title>
<polygon fill="none" stroke="black" points="638,-684 584,-684 584,-648 638,-648 638,-684"/>
<text text-anchor="middle" x="611" y="-663.5" font-family="Helvetica,sans-Serif" font-size="10.00">si</text>
</g>
<!-- n20&#45;&gt;n21 -->
<g id="edge19" class="edge">
<title>n20&#45;&gt;n21</title>
<path fill="none" stroke="black" d="M665.2,-719.7C656.4,-711.14 645.62,-700.66 636,-691.3"/>
<polygon fill="black" stroke="black" points="638.2,-688.57 628.59,-684.1 633.32,-693.58 638.2,-688.57"/>
</g>
<!-- n22 -->
<g id="node23" class="node">
<title>n22</title>
<polygon fill="none" stroke="black" points="710,-684 656,-684 656,-648 710,-648 710,-684"/>
<text text-anchor="middle" x="683" y="-663.5" font-family="Helvetica,sans-Serif" font-size="10.00">cond</text>
</g>
<!-- n20&#45;&gt;n22 -->
<g id="edge27" class="edge">
<title>n20&#45;&gt;n22</title>
<path fill="none" stroke="black" d="M683,-719.7C683,-711.98 683,-702.71 683,-694.11"/>
<polygon fill="black" stroke="black" points="686.5,-694.1 683,-684.1 679.5,-694.1 686.5,-694.1"/>
</g>
<!-- n30 -->
<g id="node31" class="node">
<title>n30</title>
<polygon fill="none" stroke="black" points="782,-684 728,-684 728,-648 782,-648 782,-684"/>
<text text-anchor="middle" x="755" y="-663.5" font-family="Helvetica,sans-Serif" font-size="10.00">:</text>
</g>
<!-- n20&#45;&gt;n30 -->
<g id="edge28" class="edge">
<title>n20&#45;&gt;n30</title>
<path fill="none" stroke="black" d="M700.8,-719.7C709.6,-711.14 720.38,-700.66 730,-691.3"/>
<polygon fill="black" stroke="black" points="732.68,-693.58 737.41,-684.1 727.8,-688.57 732.68,-693.58"/>
</g>
<!-- n31 -->
<g id="node32" class="node">
<title>n31</title>
<polygon fill="none" stroke="black" points="863,-684 809,-684 809,-648 863,-648 863,-684"/>
<text text-anchor="middle" x="836" y="-663.5" font-family="Helvetica,sans-Serif" font-size="10.00">action</text>
</g>
<!-- n20&#45;&gt;n31 -->
<g id="edge50" class="edge">
<title>n20&#45;&gt;n31</title>
<path fill="none" stroke="black" d="M712.86,-723.34C737.65,-712 772.99,-695.83 799.46,-683.72"/>
<polygon fill="black" stroke="black" points="801.14,-686.8 808.78,-679.45 798.23,-680.43 801.14,-686.8"/>
</g>
<!-- n23 -->
<g id="node24" class="node">
<title>n23</title>
<polygon fill="none" stroke="black" points="556,-612 502,-612 502,-576 556,-576 556,-612"/>
<text text-anchor="middle" x="529" y="-591.5" font-family="Helvetica,sans-Serif" font-size="10.00">ingreso</text>
</g>
<!-- n22&#45;&gt;n23 -->
<g id="edge20" class="edge">
<title>n22&#45;&gt;n23</title>
<path fill="none" stroke="black" d="M655.91,-652.11C652.91,-650.71 649.89,-649.32 647,-648 613.47,-632.73 602.79,-629.02 565.58,-612.2"/>
<polygon fill="black" stroke="black" points="566.64,-608.84 556.09,-607.89 563.75,-615.21 566.64,-608.84"/>
</g>
<!-- n24 -->
<g id="node25" class="node">
<title>n24</title>
<polygon fill="none" stroke="black" points="647.5,-612 574.5,-612 574.5,-576 647.5,-576 647.5,-612"/>
<text text-anchor="middle" x="611" y="-591.5" font-family="Helvetica,sans-Serif" font-size="10.00">comparator</text>
</g>
<!-- n22&#45;&gt;n24 -->
<g id="edge22" class="edge">
<title>n22&#45;&gt;n24</title>
<path fill="none" stroke="black" d="M665.2,-647.7C656.4,-639.14 645.62,-628.66 636,-619.3"/>
<polygon fill="black" stroke="black" points="638.2,-616.57 628.59,-612.1 633.32,-621.58 638.2,-616.57"/>
</g>
<!-- n26 -->
<g id="node27" class="node">
<title>n26</title>
<polygon fill="none" stroke="black" points="720,-612 666,-612 666,-576 720,-576 720,-612"/>
<text text-anchor="middle" x="693" y="-591.5" font-family="Helvetica,sans-Serif" font-size="10.00">expr</text>
</g>
<!-- n22&#45;&gt;n26 -->
<g id="edge26" class="edge">
<title>n22&#45;&gt;n26</title>
<path fill="none" stroke="black" d="M685.47,-647.7C686.57,-639.98 687.9,-630.71 689.13,-622.11"/>
<polygon fill="black" stroke="black" points="692.61,-622.5 690.56,-612.1 685.68,-621.51 692.61,-622.5"/>
</g>
<!-- n25 -->
<g id="node26" class="node">
<title>n25</title>
<polygon fill="none" stroke="black" points="638,-540 584,-540 584,-504 638,-504 638,-540"/>
<text text-anchor="middle" x="611" y="-519.5" font-family="Helvetica,sans-Serif" font-size="10.00">&gt;</text>
</g>
<!-- n24&#45;&gt;n25 -->
<g id="edge21" class="edge">
<title>n24&#45;&gt;n25</title>
<path fill="none" stroke="black" d="M611,-575.7C611,-567.98 611,-558.71 611,-550.11"/>
<polygon fill="black" stroke="black" points="614.5,-550.1 611,-540.1 607.5,-550.1 614.5,-550.1"/>
</g>
<!-- n27 -->
<g id="node28" class="node">
<title>n27</title>
<polygon fill="none" stroke="black" points="720,-540 666,-540 666,-504 720,-504 720,-540"/>
<text text-anchor="middle" x="693" y="-519.5" font-family="Helvetica,sans-Serif" font-size="10.00">term</text>
</g>
<!-- n26&#45;&gt;n27 -->
<g id="edge25" class="edge">
<title>n26&#45;&gt;n27</title>
<path fill="none" stroke="black" d="M693,-575.7C693,-567.98 693,-558.71 693,-550.11"/>
<polygon fill="black" stroke="black" points="696.5,-550.1 693,-540.1 689.5,-550.1 696.5,-550.1"/>
</g>
<!-- n28 -->
<g id="node29" class="node">
<title>n28</title>
<polygon fill="none" stroke="black" points="720,-468 666,-468 666,-432 720,-432 720,-468"/>
<text text-anchor="middle" x="693" y="-447.5" font-family="Helvetica,sans-Serif" font-size="10.00">factor</text>
</g>
<!-- n27&#45;&gt;n28 -->
<g id="edge24" class="edge">
<title>n27&#45;&gt;n28</title>
<path fill="none" stroke="black" d="M693,-503.7C693,-495.98 693,-486.71 693,-478.11"/>
<polygon fill="black" stroke="black" points="696.5,-478.1 693,-468.1 689.5,-478.1 696.5,-478.1"/>
</g>
<!-- n29 -->
<g id="node30" class="node">
<title>n29</title>
<polygon fill="none" stroke="black" points="720,-396 666,-396 666,-360 720,-360 720,-396"/>
<text text-anchor="middle" x="693" y="-375.5" font-family="Helvetica,sans-Serif" font-size="10.00">100000</text>
</g>
<!-- n28&#45;&gt;n29 -->
<g id="edge23" class="edge">
<title>n28&#45;&gt;n29</title>
<path fill="none" stroke="black" d="M693,-431.7C693,-423.98 693,-414.71 693,-406.11"/>
<polygon fill="black" stroke="black" points="696.5,-406.1 693,-396.1 689.5,-406.1 696.5,-406.1"/>
</g>
<!-- n32 -->
<g id="node33" class="node">
<title>n32</title>
<polygon fill="none" stroke="black" points="800,-612 738,-612 738,-576 800,-576 800,-612"/>
<text text-anchor="middle" x="769" y="-591.5" font-family="Helvetica,sans-Serif" font-size="10.00">impuesto</text>
</g>
<!-- n31&#45;&gt;n32 -->
<g id="edge29" class="edge">
<title>n31&#45;&gt;n32</title>
<path fill="none" stroke="black" d="M819.44,-647.7C811.32,-639.22 801.41,-628.86 792.53,-619.58"/>
<polygon fill="black" stroke="black" points="794.81,-616.91 785.37,-612.1 789.76,-621.75 794.81,-616.91"/>
</g>
<!-- n33 -->
<g id="node34" class="node">
<title>n33</title>
<polygon fill="none" stroke="black" points="872,-612 818,-612 818,-576 872,-576 872,-612"/>
<text text-anchor="middle" x="845" y="-591.5" font-family="Helvetica,sans-Serif" font-size="10.00">=</text>
</g>
<!-- n31&#45;&gt;n33 -->
<g id="edge30" class="edge">
<title>n31&#45;&gt;n33</title>
<path fill="none" stroke="black" d="M838.22,-647.7C839.22,-639.98 840.41,-630.71 841.51,-622.11"/>
<polygon fill="black" stroke="black" points="845,-622.47 842.8,-612.1 838.05,-621.58 845,-622.47"/>
</g>
<!-- n34 -->
<g id="node35" class="node">
<title>n34</title>
<polygon fill="none" stroke="black" points="944,-612 890,-612 890,-576 944,-576 944,-612"/>
<text text-anchor="middle" x="917" y="-591.5" font-family="Helvetica,sans-Serif" font-size="10.00">expr</text>
</g>
<!-- n31&#45;&gt;n34 -->
<g id="edge48" class="edge">
<title>n31&#45;&gt;n34</title>
<path fill="none" stroke="black" d="M856.02,-647.7C866.13,-638.97 878.54,-628.24 889.52,-618.75"/>
<polygon fill="black" stroke="black" points="891.93,-621.29 897.21,-612.1 887.35,-615.99 891.93,-621.29"/>
</g>
<!-- n52 -->
<g id="node53" class="node">
<title>n52</title>
<polygon fill="none" stroke="black" points="1016,-612 962,-612 962,-576 1016,-576 1016,-612"/>
<text text-anchor="middle" x="989" y="-591.5" font-family="Helvetica,sans-Serif" font-size="10.00">;</text>
</g>
<!-- n31&#45;&gt;n52 -->
<g id="edge49" class="edge">
<title>n31&#45;&gt;n52</title>
<path fill="none" stroke="black" d="M863.1,-652.12C866.1,-650.72 869.11,-649.32 872,-648 905.16,-632.81 915.65,-628.96 952.51,-612.17"/>
<polygon fill="black" stroke="black" points="954.27,-615.22 961.9,-607.88 951.35,-608.85 954.27,-615.22"/>
</g>
<!-- n35 -->
<g id="node36" class="node">
<title>n35</title>
<polygon fill="none" stroke="black" points="944,-540 890,-540 890,-504 944,-504 944,-540"/>
<text text-anchor="middle" x="917" y="-519.5" font-family="Helvetica,sans-Serif" font-size="10.00">term</text>
</g>
<!-- n34&#45;&gt;n35 -->
<g id="edge47" class="edge">
<title>n34&#45;&gt;n35</title>
<path fill="none" stroke="black" d="M917,-575.7C917,-567.98 917,-558.71 917,-550.11"/>
<polygon fill="black" stroke="black" points="920.5,-550.1 917,-540.1 913.5,-550.1 920.5,-550.1"/>
</g>
<!-- n36 -->
<g id="node37" class="node">
<title>n36</title>
<polygon fill="none" stroke="black" points="872,-468 818,-468 818,-432 872,-432 872,-468"/>
<text text-anchor="middle" x="845" y="-447.5" font-family="Helvetica,sans-Serif" font-size="10.00">term</text>
</g>
<!-- n35&#45;&gt;n36 -->
<g id="edge43" class="edge">
<title>n35&#45;&gt;n36</title>
<path fill="none" stroke="black" d="M899.2,-503.7C890.4,-495.14 879.62,-484.66 870,-475.3"/>
<polygon fill="black" stroke="black" points="872.2,-472.57 862.59,-468.1 867.32,-477.58 872.2,-472.57"/>
</g>
<!-- n49 -->
<g id="node50" class="node">
<title>n49</title>
<polygon fill="none" stroke="black" points="944,-468 890,-468 890,-432 944,-432 944,-468"/>
<text text-anchor="middle" x="917" y="-447.5" font-family="Helvetica,sans-Serif" font-size="10.00">*</text>
</g>
<!-- n35&#45;&gt;n49 -->
<g id="edge44" class="edge">
<title>n35&#45;&gt;n49</title>
<path fill="none" stroke="black" d="M917,-503.7C917,-495.98 917,-486.71 917,-478.11"/>
<polygon fill="black" stroke="black" points="920.5,-478.1 917,-468.1 913.5,-478.1 920.5,-478.1"/>
</g>
<!-- n50 -->
<g id="node51" class="node">
<title>n50</title>
<polygon fill="none" stroke="black" points="1016,-468 962,-468 962,-432 1016,-432 1016,-468"/>
<text text-anchor="middle" x="989" y="-447.5" font-family="Helvetica,sans-Serif" font-size="10.00">factor</text>
</g>
<!-- n35&#45;&gt;n50 -->
<g id="edge46" class="edge">
<title>n35&#45;&gt;n50</title>
<path fill="none" stroke="black" d="M934.8,-503.7C943.6,-495.14 954.38,-484.66 964,-475.3"/>
<polygon fill="black" stroke="black" points="966.68,-477.58 971.41,-468.1 961.8,-472.57 966.68,-477.58"/>
</g>
<!-- n37 -->
<g id="node38" class="node">
<title>n37</title>
<polygon fill="none" stroke="black" points="872,-396 818,-396 818,-360 872,-360 872,-396"/>
<text text-anchor="middle" x="845" y="-375.5" font-family="Helvetica,sans-Serif" font-size="10.00">factor</text>
</g>
<!-- n36&#45;&gt;n37 -->
<g id="edge42" class="edge">
<title>n36&#45;&gt;n37</title>
<path fill="none" stroke="black" d="M845,-431.7C845,-423.98 845,-414.71 845,-406.11"/>
<polygon fill="black" stroke="black" points="848.5,-406.1 845,-396.1 841.5,-406.1 848.5,-406.1"/>
</g>
<!-- n38 -->
<g id="node39" class="node">
<title>n38</title>
<polygon fill="none" stroke="black" points="800,-324 746,-324 746,-288 800,-288 800,-324"/>
<text text-anchor="middle" x="773" y="-303.5" font-family="Helvetica,sans-Serif" font-size="10.00">(</text>
</g>
<!-- n37&#45;&gt;n38 -->
<g id="edge31" class="edge">
<title>n37&#45;&gt;n38</title>
<path fill="none" stroke="black" d="M827.2,-359.7C818.4,-351.14 807.62,-340.66 798,-331.3"/>
<polygon fill="black" stroke="black" points="800.2,-328.57 790.59,-324.1 795.32,-333.58 800.2,-328.57"/>
</g>
<!-- n39 -->
<g id="node40" class="node">
<title>n39</title>
<polygon fill="none" stroke="black" points="872,-324 818,-324 818,-288 872,-288 872,-324"/>
<text text-anchor="middle" x="845" y="-303.5" font-family="Helvetica,sans-Serif" font-size="10.00">expr</text>
</g>
<!-- n37&#45;&gt;n39 -->
<g id="edge40" class="edge">
<title>n37&#45;&gt;n39</title>
<path fill="none" stroke="black" d="M845,-359.7C845,-351.98 845,-342.71 845,-334.11"/>
<polygon fill="black" stroke="black" points="848.5,-334.1 845,-324.1 841.5,-334.1 848.5,-334.1"/>
</g>
<!-- n48 -->
<g id="node49" class="node">
<title>n48</title>
<polygon fill="none" stroke="black" points="944,-324 890,-324 890,-288 944,-288 944,-324"/>
<text text-anchor="middle" x="917" y="-303.5" font-family="Helvetica,sans-Serif" font-size="10.00">)</text>
</g>
<!-- n37&#45;&gt;n48 -->
<g id="edge41" class="edge">
<title>n37&#45;&gt;n48</title>
<path fill="none" stroke="black" d="M862.8,-359.7C871.6,-351.14 882.38,-340.66 892,-331.3"/>
<polygon fill="black" stroke="black" points="894.68,-333.58 899.41,-324.1 889.8,-328.57 894.68,-333.58"/>
</g>
<!-- n40 -->
<g id="node41" class="node">
<title>n40</title>
<polygon fill="none" stroke="black" points="800,-252 746,-252 746,-216 800,-216 800,-252"/>
<text text-anchor="middle" x="773" y="-231.5" font-family="Helvetica,sans-Serif" font-size="10.00">expr</text>
</g>
<!-- n39&#45;&gt;n40 -->
<g id="edge35" class="edge">
<title>n39&#45;&gt;n40</title>
<path fill="none" stroke="black" d="M827.2,-287.7C818.4,-279.14 807.62,-268.66 798,-259.3"/>
<polygon fill="black" stroke="black" points="800.2,-256.57 790.59,-252.1 795.32,-261.58 800.2,-256.57"/>
</g>
<!-- n44 -->
<g id="node45" class="node">
<title>n44</title>
<polygon fill="none" stroke="black" points="872,-252 818,-252 818,-216 872,-216 872,-252"/>
<text text-anchor="middle" x="845" y="-231.5" font-family="Helvetica,sans-Serif" font-size="10.00">&#45;</text>
</g>
<!-- n39&#45;&gt;n44 -->
<g id="edge36" class="edge">
<title>n39&#45;&gt;n44</title>
<path fill="none" stroke="black" d="M845,-287.7C845,-279.98 845,-270.71 845,-262.11"/>
<polygon fill="black" stroke="black" points="848.5,-262.1 845,-252.1 841.5,-262.1 848.5,-262.1"/>
</g>
<!-- n45 -->
<g id="node46" class="node">
<title>n45</title>
<polygon fill="none" stroke="black" points="944,-252 890,-252 890,-216 944,-216 944,-252"/>
<text text-anchor="middle" x="917" y="-231.5" font-family="Helvetica,sans-Serif" font-size="10.00">term</text>
</g>
<!-- n39&#45;&gt;n45 -->
<g id="edge39" class="edge">
<title>n39&#45;&gt;n45</title>
<path fill="none" stroke="black" d="M862.8,-287.7C871.6,-279.14 882.38,-268.66 892,-259.3"/>
<polygon fill="black" stroke="black" points="894.68,-261.58 899.41,-252.1 889.8,-256.57 894.68,-261.58"/>
</g>
<!-- n41 -->
<g id="node42" class="node">
<title>n41</title>
<polygon fill="none" stroke="black" points="800,-180 746,-180 746,-144 800,-144 800,-180"/>
<text text-anchor="middle" x="773" y="-159.5" font-family="Helvetica,sans-Serif" font-size="10.00">term</text>
</g>
<!-- n40&#45;&gt;n41 -->
<g id="edge34" class="edge">
<title>n40&#45;&gt;n41</title>
<path fill="none" stroke="black" d="M773,-215.7C773,-207.98 773,-198.71 773,-190.11"/>
<polygon fill="black" stroke="black" points="776.5,-190.1 773,-180.1 769.5,-190.1 776.5,-190.1"/>
</g>
<!-- n42 -->
<g id="node43" class="node">
<title>n42</title>
<polygon fill="none" stroke="black" points="800,-108 746,-108 746,-72 800,-72 800,-108"/>
<text text-anchor="middle" x="773" y="-87.5" font-family="Helvetica,sans-Serif" font-size="10.00">factor</text>
</g>
<!-- n41&#45;&gt;n42 -->
<g id="edge33" class="edge">
<title>n41&#45;&gt;n42</title>
<path fill="none" stroke="black" d="M773,-143.7C773,-135.98 773,-126.71 773,-118.11"/>
<polygon fill="black" stroke="black" points="776.5,-118.1 773,-108.1 769.5,-118.1 776.5,-118.1"/>
</g>
<!-- n43 -->
<g id="node44" class="node">
<title>n43</title>
<polygon fill="none" stroke="black" points="800,-36 746,-36 746,0 800,0 800,-36"/>
<text text-anchor="middle" x="773" y="-15.5" font-family="Helvetica,sans-Serif" font-size="10.00">ingreso</text>
</g>
<!-- n42&#45;&gt;n43 -->
<g id="edge32" class="edge">
<title>n42&#45;&gt;n43</title>
<path fill="none" stroke="black" d="M773,-71.7C773,-63.98 773,-54.71 773,-46.11"/>
<polygon fill="black" stroke="black" points="776.5,-46.1 773,-36.1 769.5,-46.1 776.5,-46.1"/>
</g>
<!-- n46 -->
<g id="node47" class="node">
<title>n46</title>
<polygon fill="none" stroke="black" points="944,-180 890,-180 890,-144 944,-144 944,-180"/>
<text text-anchor="middle" x="917" y="-159.5" font-family="Helvetica,sans-Serif" font-size="10.00">factor</text>
</g>
<!-- n45&#45;&gt;n46 -->
<g id="edge38" class="edge">
<title>n45&#45;&gt;n46</title>
<path fill="none" stroke="black" d="M917,-215.7C917,-207.98 917,-198.71 917,-190.11"/>
<polygon fill="black" stroke="black" points="920.5,-190.1 917,-180.1 913.5,-190.1 920.5,-190.1"/>
</g>
<!-- n47 -->
<g id="node48" class="node">
<title>n47</title>
<polygon fill="none" stroke="black" points="944,-108 890,-108 890,-72 944,-72 944,-108"/>
<text text-anchor="middle" x="917" y="-87.5" font-family="Helvetica,sans-Serif" font-size="10.00">100000</text>
</g>
<!-- n46&#45;&gt;n47 -->
<g id="edge37" class="edge">
<title>n46&#45;&gt;n47</title>
<path fill="none" stroke="black" d="M917,-143.7C917,-135.98 917,-126.71 917,-118.11"/>
<polygon fill="black" stroke="black" points="920.5,-118.1 917,-108.1 913.5,-118.1 920.5,-118.1"/>
</g>
<!-- n51 -->
<g id="node52" class="node">
<title>n51</title>
<polygon fill="none" stroke="black" points="1016,-396 962,-396 962,-360 1016,-360 1016,-396"/>
<text text-anchor="middle" x="989" y="-375.5" font-family="Helvetica,sans-Serif" font-size="10.00">0.15</text>
</g>
<!-- n50&#45;&gt;n51 -->
<g id="edge45" class="edge">
<title>n50&#45;&gt;n51</title>
<path fill="none" stroke="black" d="M989,-431.7C989,-423.98 989,-414.71 989,-406.11"/>
<polygon fill="black" stroke="black" points="992.5,-406.1 989,-396.1 985.5,-406.1 992.5,-406.1"/>
</g>
<!-- n54 -->
<g id="node55" class="node">
<title>n54</title>
<polygon fill="none" stroke="black" points="1049,-756 987,-756 987,-720 1049,-720 1049,-756"/>
<text text-anchor="middle" x="1018" y="-735.5" font-family="Helvetica,sans-Serif" font-size="10.00">printStmt</text>
</g>
<!-- n53&#45;&gt;n54 -->
<g id="edge58" class="edge">
<title>n53&#45;&gt;n54</title>
<path fill="none" stroke="black" d="M768.62,-795.12C771.77,-794 774.93,-792.94 778,-792 846.62,-771.01 928.64,-754.72 976.86,-746.02"/>
<polygon fill="black" stroke="black" points="977.68,-749.43 986.91,-744.23 976.45,-742.54 977.68,-749.43"/>
</g>
<!-- n55 -->
<g id="node56" class="node">
<title>n55</title>
<polygon fill="none" stroke="black" points="935,-684 881,-684 881,-648 935,-648 935,-684"/>
<text text-anchor="middle" x="908" y="-663.5" font-family="Helvetica,sans-Serif" font-size="10.00">print</text>
</g>
<!-- n54&#45;&gt;n55 -->
<g id="edge53" class="edge">
<title>n54&#45;&gt;n55</title>
<path fill="none" stroke="black" d="M991.09,-719.88C976.84,-710.81 959.15,-699.55 943.76,-689.76"/>
<polygon fill="black" stroke="black" points="945.33,-686.61 935.01,-684.19 941.57,-692.51 945.33,-686.61"/>
</g>
<!-- n56 -->
<g id="node57" class="node">
<title>n56</title>
<polygon fill="none" stroke="black" points="1007,-684 953,-684 953,-648 1007,-648 1007,-684"/>
<text text-anchor="middle" x="980" y="-663.5" font-family="Helvetica,sans-Serif" font-size="10.00">(</text>
</g>
<!-- n54&#45;&gt;n56 -->
<g id="edge54" class="edge">
<title>n54&#45;&gt;n56</title>
<path fill="none" stroke="black" d="M1008.61,-719.7C1004.24,-711.64 998.94,-701.89 994.1,-692.98"/>
<polygon fill="black" stroke="black" points="997.13,-691.22 989.29,-684.1 990.98,-694.56 997.13,-691.22"/>
</g>
<!-- n57 -->
<g id="node58" class="node">
<title>n57</title>
<polygon fill="none" stroke="black" points="1087,-684 1025,-684 1025,-648 1087,-648 1087,-684"/>
<text text-anchor="middle" x="1056" y="-663.5" font-family="Helvetica,sans-Serif" font-size="10.00">impuesto</text>
</g>
<!-- n54&#45;&gt;n57 -->
<g id="edge55" class="edge">
<title>n54&#45;&gt;n57</title>
<path fill="none" stroke="black" d="M1027.39,-719.7C1031.76,-711.64 1037.06,-701.89 1041.9,-692.98"/>
<polygon fill="black" stroke="black" points="1045.02,-694.56 1046.71,-684.1 1038.87,-691.22 1045.02,-694.56"/>
</g>
<!-- n58 -->
<g id="node59" class="node">
<title>n58</title>
<polygon fill="none" stroke="black" points="1159,-684 1105,-684 1105,-648 1159,-648 1159,-684"/>
<text text-anchor="middle" x="1132" y="-663.5" font-family="Helvetica,sans-Serif" font-size="10.00">)</text>
</g>
<!-- n54&#45;&gt;n58 -->
<g id="edge56" class="edge">
<title>n54&#45;&gt;n58</title>
<path fill="none" stroke="black" d="M1045.89,-719.88C1061.02,-710.59 1079.88,-699 1096.1,-689.04"/>
<polygon fill="black" stroke="black" points="1098.1,-691.92 1104.79,-683.71 1094.44,-685.96 1098.1,-691.92"/>
</g>
<!-- n59 -->
<g id="node60" class="node">
<title>n59</title>
<polygon fill="none" stroke="black" points="1231,-684 1177,-684 1177,-648 1231,-648 1231,-684"/>
<text text-anchor="middle" x="1204" y="-663.5" font-family="Helvetica,sans-Serif" font-size="10.00">;</text>
</g>
<!-- n54&#45;&gt;n59 -->
<g id="edge57" class="edge">
<title>n54&#45;&gt;n59</title>
<path fill="none" stroke="black" d="M1049.08,-727.04C1077.69,-717.65 1121.42,-702.74 1167.14,-684.17"/>
<polygon fill="black" stroke="black" points="1168.69,-687.32 1176.61,-680.28 1166.03,-680.84 1168.69,-687.32"/>
</g>
</g>
</svg>
