<?xml version="1.0" encoding="UTF-8" standalone="no"?>
<!DOCTYPE svg PUBLIC "-//W3C//DTD SVG 1.1//EN"
 "http://www.w3.org/Graphics/SVG/1.1/DTD/svg11.dtd">
<!-- Generated by graphviz version 2.43.0 (0)
 -->
<!-- Title: ast Pages: 1 -->
<svg width="434pt" height="436pt"
 viewBox="0.00 0.00 434.44 436.13" xmlns="http://www.w3.org/2000/svg" xmlns:xlink="http://www.w3.org/1999/xlink">
<g id="graph0" class="graph" transform="scale(1 1) rotate(0) translate(4 432.13)">
<title>ast</title>
<polygon fill="white" stroke="transparent" points="-4,4 -4,-432.13 430.44,-432.13 430.44,4 -4,4"/>
<!-- n0 -->
<g id="node1" class="node">
<title>n0</title>
<polygon fill="none" stroke="black" points="219.84,-428.13 161.84,-428.13 161.84,-392.13 219.84,-392.13 219.84,-428.13"/>
<text text-anchor="middle" x="190.84" y="-407.63" font-family="Helvetica,sans-Serif" font-size="10.00">Program</text>
</g>
<!-- n1 -->
<g id="node2" class="node">
<title>n1</title>
<polygon fill="none" stroke="black" points="90.84,-352.92 16.84,-352.92 16.84,-316.92 90.84,-316.92 90.84,-352.92"/>
<text text-anchor="middle" x="53.84" y="-337.92" font-family="Helvetica,sans-Serif" font-size="10.00">Assignment</text>
<text text-anchor="middle" x="53.84" y="-326.92" font-family="Helvetica,sans-Serif" font-size="10.00">ingreso</text>
</g>
<!-- n0&#45;&gt;n1 -->
<g id="edge2" class="edge">
<title>n0&#45;&gt;n1</title>
<path fill="none" stroke="black" d="M161.79,-393.61C142.27,-383.17 116.27,-369.28 94.68,-357.74"/>
<polygon fill="black" stroke="black" points="96.19,-354.58 85.72,-352.96 92.89,-360.76 96.19,-354.58"/>
</g>
<!-- n3 -->
<g id="node4" class="node">
<title>n3</title>
<polygon fill="none" stroke="black" points="186.84,-352.92 112.84,-352.92 112.84,-316.92 186.84,-316.92 186.84,-352.92"/>
<text text-anchor="middle" x="149.84" y="-337.92" font-family="Helvetica,sans-Serif" font-size="10.00">Assignment</text>
<text text-anchor="middle" x="149.84" y="-326.92" font-family="Helvetica,sans-Serif" font-size="10.00">impuesto</text>
</g>
<!-- n0&#45;&gt;n3 -->
<g id="edge4" class="edge">
<title>n0&#45;&gt;n3</title>
<path fill="none" stroke="black" d="M181.12,-391.78C176.17,-382.94 170.04,-372 164.53,-362.15"/>
<polygon fill="black" stroke="black" points="167.43,-360.16 159.49,-353.14 161.32,-363.58 167.43,-360.16"/>
</g>
<!-- n5 -->
<g id="node6" class="node">
<title>n5</title>
<polygon fill="none" stroke="black" points="268.84,-352.92 214.84,-352.92 214.84,-316.92 268.84,-316.92 268.84,-352.92"/>
<text text-anchor="middle" x="241.84" y="-332.42" font-family="Helvetica,sans-Serif" font-size="10.00">Rule</text>
</g>
<!-- n0&#45;&gt;n5 -->
<g id="edge13" class="edge">
<title>n0&#45;&gt;n5</title>
<path fill="none" stroke="black" d="M202.93,-391.78C209.21,-382.75 217.02,-371.54 223.99,-361.54"/>
<polygon fill="black" stroke="black" points="227,-363.35 229.84,-353.14 221.25,-359.35 227,-363.35"/>
</g>
<!-- n14 -->
<g id="node15" class="node">
<title>n14</title>
<ellipse fill="none" stroke="black" cx="330.84" cy="-334.92" rx="43.68" ry="21.43"/>
<text text-anchor="middle" x="330.84" y="-337.92" font-family="Helvetica,sans-Serif" font-size="10.00">Print</text>
<text text-anchor="middle" x="330.84" y="-326.92" font-family="Helvetica,sans-Serif" font-size="10.00">impuesto</text>
</g>
<!-- n0&#45;&gt;n14 -->
<g id="edge14" class="edge">
<title>n0&#45;&gt;n14</title>
<path fill="none" stroke="black" d="M219.85,-393.96C240.97,-382.92 269.77,-367.86 292.74,-355.84"/>
<polygon fill="black" stroke="black" points="294.63,-358.8 301.87,-351.07 291.39,-352.6 294.63,-358.8"/>
</g>
<!-- n2 -->
<g id="node3" class="node">
<title>n2</title>
<ellipse fill="none" stroke="black" cx="43.84" cy="-256.49" rx="43.68" ry="21.43"/>
<text text-anchor="middle" x="43.84" y="-259.49" font-family="Helvetica,sans-Serif" font-size="10.00">Number</text>
<text text-anchor="middle" x="43.84" y="-248.49" font-family="Helvetica,sans-Serif" font-size="10.00">180000.0</text>
</g>
<!-- n1&#45;&gt;n2 -->
<g id="edge1" class="edge">
<title>n1&#45;&gt;n2</title>
<path fill="none" stroke="black" d="M51.57,-316.58C50.46,-308.1 49.1,-297.65 47.82,-287.91"/>
<polygon fill="black" stroke="black" points="51.26,-287.2 46.49,-277.74 44.32,-288.11 51.26,-287.2"/>
</g>
<!-- n4 -->
<g id="node5" class="node">
<title>n4</title>
<ellipse fill="none" stroke="black" cx="144.84" cy="-256.49" rx="39.7" ry="21.43"/>
<text text-anchor="middle" x="144.84" y="-259.49" font-family="Helvetica,sans-Serif" font-size="10.00">Number</text>
<text text-anchor="middle" x="144.84" y="-248.49" font-family="Helvetica,sans-Serif" font-size="10.00">0.0</text>
</g>
<!-- n3&#45;&gt;n4 -->
<g id="edge3" class="edge">
<title>n3&#45;&gt;n4</title>
<path fill="none" stroke="black" d="M148.71,-316.58C148.15,-308.1 147.47,-297.65 146.83,-287.91"/>
<polygon fill="black" stroke="black" points="150.31,-287.49 146.17,-277.74 143.33,-287.95 150.31,-287.49"/>
</g>
<!-- n6 -->
<g id="node7" class="node">
<title>n6</title>
<ellipse fill="none" stroke="black" cx="247.84" cy="-256.49" rx="45.01" ry="21.43"/>
<text text-anchor="middle" x="247.84" y="-259.49" font-family="Helvetica,sans-Serif" font-size="10.00">Cond</text>
<text text-anchor="middle" x="247.84" y="-248.49" font-family="Helvetica,sans-Serif" font-size="10.00">ingreso &gt;</text>
</g>
<!-- n5&#45;&gt;n6 -->
<g id="edge6" class="edge">
<title>n5&#45;&gt;n6</title>
<path fill="none" stroke="black" d="M243.2,-316.58C243.87,-308.1 244.69,-297.65 245.45,-287.91"/>
<polygon fill="black" stroke="black" points="248.96,-287.99 246.25,-277.74 241.98,-287.44 248.96,-287.99"/>
</g>
<!-- n8 -->
<g id="node9" class="node">
<title>n8</title>
<polygon fill="none" stroke="black" points="372.84,-274.49 310.84,-274.49 310.84,-238.49 372.84,-238.49 372.84,-274.49"/>
<text text-anchor="middle" x="341.84" y="-259.49" font-family="Helvetica,sans-Serif" font-size="10.00">Action</text>
<text text-anchor="middle" x="341.84" y="-248.49" font-family="Helvetica,sans-Serif" font-size="10.00">impuesto</text>
</g>
<!-- n5&#45;&gt;n8 -->
<g id="edge12" class="edge">
<title>n5&#45;&gt;n8</title>
<path fill="none" stroke="black" d="M264.53,-316.58C278.44,-305.95 296.41,-292.21 311.52,-280.66"/>
<polygon fill="black" stroke="black" points="313.76,-283.36 319.58,-274.5 309.51,-277.79 313.76,-283.36"/>
</g>
<!-- n7 -->
<g id="node8" class="node">
<title>n7</title>
<ellipse fill="none" stroke="black" cx="247.84" cy="-178.07" rx="43.68" ry="21.43"/>
<text text-anchor="middle" x="247.84" y="-181.07" font-family="Helvetica,sans-Serif" font-size="10.00">Number</text>
<text text-anchor="middle" x="247.84" y="-170.07" font-family="Helvetica,sans-Serif" font-size="10.00">100000.0</text>
</g>
<!-- n6&#45;&gt;n7 -->
<g id="edge5" class="edge">
<title>n6&#45;&gt;n7</title>
<path fill="none" stroke="black" d="M247.84,-235.01C247.84,-227.15 247.84,-218.01 247.84,-209.42"/>
<polygon fill="black" stroke="black" points="251.34,-209.34 247.84,-199.34 244.34,-209.34 251.34,-209.34"/>
</g>
<!-- n9 -->
<g id="node10" class="node">
<title>n9</title>
<ellipse fill="none" stroke="black" cx="341.84" cy="-178.07" rx="32.55" ry="21.43"/>
<text text-anchor="middle" x="341.84" y="-181.07" font-family="Helvetica,sans-Serif" font-size="10.00">BinOp</text>
<text text-anchor="middle" x="341.84" y="-170.07" font-family="Helvetica,sans-Serif" font-size="10.00">*</text>
</g>
<!-- n8&#45;&gt;n9 -->
<g id="edge11" class="edge">
<title>n8&#45;&gt;n9</title>
<path fill="none" stroke="black" d="M341.84,-238.15C341.84,-229.68 341.84,-219.23 341.84,-209.48"/>
<polygon fill="black" stroke="black" points="345.34,-209.32 341.84,-199.32 338.34,-209.32 345.34,-209.32"/>
</g>
<!-- n10 -->
<g id="node11" class="node">
<title>n10</title>
<ellipse fill="none" stroke="black" cx="296.84" cy="-99.64" rx="32.55" ry="21.43"/>
<text text-anchor="middle" x="296.84" y="-102.64" font-family="Helvetica,sans-Serif" font-size="10.00">BinOp</text>
<text text-anchor="middle" x="296.84" y="-91.64" font-family="Helvetica,sans-Serif" font-size="10.00">&#45;</text>
</g>
<!-- n9&#45;&gt;n10 -->
<g id="edge9" class="edge">
<title>n9&#45;&gt;n10</title>
<path fill="none" stroke="black" d="M330.49,-157.78C325.22,-148.84 318.87,-138.06 313.11,-128.27"/>
<polygon fill="black" stroke="black" points="316.13,-126.5 308.04,-119.65 310.09,-130.05 316.13,-126.5"/>
</g>
<!-- n13 -->
<g id="node14" class="node">
<title>n13</title>
<ellipse fill="none" stroke="black" cx="386.84" cy="-99.64" rx="39.7" ry="21.43"/>
<text text-anchor="middle" x="386.84" y="-102.64" font-family="Helvetica,sans-Serif" font-size="10.00">Number</text>
<text text-anchor="middle" x="386.84" y="-91.64" font-family="Helvetica,sans-Serif" font-size="10.00">0.15</text>
</g>
<!-- n9&#45;&gt;n13 -->
<g id="edge10" class="edge">
<title>n9&#45;&gt;n13</title>
<path fill="none" stroke="black" d="M353.2,-157.78C358.33,-149.07 364.49,-138.6 370.13,-129.02"/>
<polygon fill="black" stroke="black" points="373.27,-130.58 375.33,-120.18 367.24,-127.03 373.27,-130.58"/>
</g>
<!-- n11 -->
<g id="node12" class="node">
<title>n11</title>
<ellipse fill="none" stroke="black" cx="247.84" cy="-21.21" rx="37.45" ry="21.43"/>
<text text-anchor="middle" x="247.84" y="-24.21" font-family="Helvetica,sans-Serif" font-size="10.00">Var</text>
<text text-anchor="middle" x="247.84" y="-13.21" font-family="Helvetica,sans-Serif" font-size="10.00">ingreso</text>
</g>
<!-- n10&#45;&gt;n11 -->
<g id="edge7" class="edge">
<title>n10&#45;&gt;n11</title>
<path fill="none" stroke="black" d="M284.73,-79.75C279,-70.81 272.05,-59.97 265.73,-50.11"/>
<polygon fill="black" stroke="black" points="268.5,-47.95 260.15,-41.42 262.6,-51.73 268.5,-47.95"/>
</g>
<!-- n12 -->
<g id="node13" class="node">
<title>n12</title>
<ellipse fill="none" stroke="black" cx="346.84" cy="-21.21" rx="43.68" ry="21.43"/>
<text text-anchor="middle" x="346.84" y="-24.21" font-family="Helvetica,sans-Serif" font-size="10.00">Number</text>
<text text-anchor="middle" x="346.84" y="-13.21" font-family="Helvetica,sans-Serif" font-size="10.00">100000.0</text>
</g>
<!-- n10&#45;&gt;n12 -->
<g id="edge8" class="edge">
<title>n10&#45;&gt;n12</title>
<path fill="none" stroke="black" d="M309.2,-79.75C315,-70.88 322.03,-60.13 328.44,-50.33"/>
<polygon fill="black" stroke="black" points="331.56,-51.97 334.1,-41.69 325.7,-48.14 331.56,-51.97"/>
</g>
</g>
</svg>
