<?xml version="1.0" encoding="UTF-8" standalone="no"?>
<!DOCTYPE svg PUBLIC "-//W3C//DTD SVG 1.1//EN"
 "http://www.w3.org/Graphics/SVG/1.1/DTD/svg11.dtd">
<!-- Generated by graphviz version 2.43.0 (0)
 -->
<!-- Title: parse Pages: 1 -->
<svg width="953pt" height="620pt"
 viewBox="0.00 0.00 953.00 620.00" xmlns="http://www.w3.org/2000/svg" xmlns:xlink="http://www.w3.org/1999/xlink">
<g id="graph0" class="graph" transform="scale(1 1) rotate(0) translate(4 616)">
<title>parse</title>
<polygon fill="white" stroke="transparent" points="-4,4 -4,-616 949,-616 949,4 -4,4"/>
<!-- n0 -->
<g id="node1" class="node">
<title>n0</title>
<polygon fill="none" stroke="black" points="504,-612 446,-612 446,-576 504,-576 504,-612"/>
<text text-anchor="middle" x="475" y="-591.5" font-family="Helvetica,sans-Serif" font-size="10.00">program</text>
</g>
<!-- n1 -->
<g id="node2" class="node">
<title>n1</title>
<polygon fill="none" stroke="black" points="280.5,-540 213.5,-540 213.5,-504 280.5,-504 280.5,-540"/>
<text text-anchor="middle" x="247" y="-519.5" font-family="Helvetica,sans-Serif" font-size="10.00">statement</text>
</g>
<!-- n0&#45;&gt;n1 -->
<g id="edge9" class="edge">
<title>n0&#45;&gt;n1</title>
<path fill="none" stroke="black" d="M445.66,-583.99C406.22,-571.88 335.8,-550.26 290.27,-536.29"/>
<polygon fill="black" stroke="black" points="291.26,-532.93 280.67,-533.34 289.21,-539.62 291.26,-532.93"/>
</g>
<!-- n10 -->
<g id="node11" class="node">
<title>n10</title>
<polygon fill="none" stroke="black" points="466.5,-540 399.5,-540 399.5,-504 466.5,-504 466.5,-540"/>
<text text-anchor="middle" x="433" y="-519.5" font-family="Helvetica,sans-Serif" font-size="10.00">statement</text>
</g>
<!-- n0&#45;&gt;n10 -->
<g id="edge33" class="edge">
<title>n0&#45;&gt;n10</title>
<path fill="none" stroke="black" d="M464.62,-575.7C459.74,-567.56 453.81,-557.69 448.42,-548.7"/>
<polygon fill="black" stroke="black" points="451.41,-546.88 443.26,-540.1 445.41,-550.48 451.41,-546.88"/>
</g>
<!-- n34 -->
<g id="node35" class="node">
<title>n34</title>
<polygon fill="none" stroke="black" points="551.5,-540 484.5,-540 484.5,-504 551.5,-504 551.5,-540"/>
<text text-anchor="middle" x="518" y="-519.5" font-family="Helvetica,sans-Serif" font-size="10.00">statement</text>
</g>
<!-- n0&#45;&gt;n34 -->
<g id="edge40" class="edge">
<title>n0&#45;&gt;n34</title>
<path fill="none" stroke="black" d="M485.63,-575.7C490.63,-567.56 496.69,-557.69 502.21,-548.7"/>
<polygon fill="black" stroke="black" points="505.24,-550.46 507.49,-540.1 499.28,-546.79 505.24,-550.46"/>
</g>
<!-- n41 -->
<g id="node42" class="node">
<title>n41</title>
<polygon fill="none" stroke="black" points="624,-540 570,-540 570,-504 624,-504 624,-540"/>
<text text-anchor="start" x="587" y="-519.5" font-family="Helvetica,sans-Serif" font-size="10.00">EOF</text>
</g>
<!-- n0&#45;&gt;n41 -->
<g id="edge41" class="edge">
<title>n0&#45;&gt;n41</title>
<path fill="none" stroke="black" d="M504.22,-576.23C521.15,-566.52 542.61,-554.21 560.62,-543.87"/>
<polygon fill="black" stroke="black" points="562.76,-546.68 569.69,-538.67 559.27,-540.61 562.76,-546.68"/>
</g>
<!-- n2 -->
<g id="node3" class="node">
<title>n2</title>
<polygon fill="none" stroke="black" points="208,-468 134,-468 134,-432 208,-432 208,-468"/>
<text text-anchor="middle" x="171" y="-447.5" font-family="Helvetica,sans-Serif" font-size="10.00">assignment</text>
</g>
<!-- n1&#45;&gt;n2 -->
<g id="edge8" class="edge">
<title>n1&#45;&gt;n2</title>
<path fill="none" stroke="black" d="M228.21,-503.7C218.83,-495.05 207.32,-484.45 197.09,-475.03"/>
<polygon fill="black" stroke="black" points="199.3,-472.3 189.57,-468.1 194.55,-477.45 199.3,-472.3"/>
</g>
<!-- n3 -->
<g id="node4" class="node">
<title>n3</title>
<polygon fill="none" stroke="black" points="54,-396 0,-396 0,-360 54,-360 54,-396"/>
<text text-anchor="middle" x="27" y="-375.5" font-family="Helvetica,sans-Serif" font-size="10.00">ingreso</text>
</g>
<!-- n2&#45;&gt;n3 -->
<g id="edge1" class="edge">
<title>n2&#45;&gt;n3</title>
<path fill="none" stroke="black" d="M135.77,-431.88C113.77,-421.18 85.51,-407.44 63.3,-396.65"/>
<polygon fill="black" stroke="black" points="64.72,-393.44 54.2,-392.22 61.66,-399.74 64.72,-393.44"/>
</g>
<!-- n4 -->
<g id="node5" class="node">
<title>n4</title>
<polygon fill="none" stroke="black" points="126,-396 72,-396 72,-360 126,-360 126,-396"/>
<text text-anchor="middle" x="99" y="-375.5" font-family="Helvetica,sans-Serif" font-size="10.00">=</text>
</g>
<!-- n2&#45;&gt;n4 -->
<g id="edge2" class="edge">
<title>n2&#45;&gt;n4</title>
<path fill="none" stroke="black" d="M153.2,-431.7C144.4,-423.14 133.62,-412.66 124,-403.3"/>
<polygon fill="black" stroke="black" points="126.2,-400.57 116.59,-396.1 121.32,-405.58 126.2,-400.57"/>
</g>
<!-- n5 -->
<g id="node6" class="node">
<title>n5</title>
<polygon fill="none" stroke="black" points="198,-396 144,-396 144,-360 198,-360 198,-396"/>
<text text-anchor="middle" x="171" y="-375.5" font-family="Helvetica,sans-Serif" font-size="10.00">expr</text>
</g>
<!-- n2&#45;&gt;n5 -->
<g id="edge6" class="edge">
<title>n2&#45;&gt;n5</title>
<path fill="none" stroke="black" d="M171,-431.7C171,-423.98 171,-414.71 171,-406.11"/>
<polygon fill="black" stroke="black" points="174.5,-406.1 171,-396.1 167.5,-406.1 174.5,-406.1"/>
</g>
<!-- n9 -->
<g id="node10" class="node">
<title>n9</title>
<polygon fill="none" stroke="black" points="270,-396 216,-396 216,-360 270,-360 270,-396"/>
<text text-anchor="middle" x="243" y="-375.5" font-family="Helvetica,sans-Serif" font-size="10.00">;</text>
</g>
<!-- n2&#45;&gt;n9 -->
<g id="edge7" class="edge">
<title>n2&#45;&gt;n9</title>
<path fill="none" stroke="black" d="M188.8,-431.7C197.6,-423.14 208.38,-412.66 218,-403.3"/>
<polygon fill="black" stroke="black" points="220.68,-405.58 225.41,-396.1 215.8,-400.57 220.68,-405.58"/>
</g>
<!-- n6 -->
<g id="node7" class="node">
<title>n6</title>
<polygon fill="none" stroke="black" points="194,-324 140,-324 140,-288 194,-288 194,-324"/>
<text text-anchor="middle" x="167" y="-303.5" font-family="Helvetica,sans-Serif" font-size="10.00">term</text>
</g>
<!-- n5&#45;&gt;n6 -->
<g id="edge5" class="edge">
<title>n5&#45;&gt;n6</title>
<path fill="none" stroke="black" d="M170.01,-359.7C169.57,-351.98 169.04,-342.71 168.55,-334.11"/>
<polygon fill="black" stroke="black" points="172.04,-333.89 167.98,-324.1 165.05,-334.29 172.04,-333.89"/>
</g>
<!-- n7 -->
<g id="node8" class="node">
<title>n7</title>
<polygon fill="none" stroke="black" points="194,-252 140,-252 140,-216 194,-216 194,-252"/>
<text text-anchor="middle" x="167" y="-231.5" font-family="Helvetica,sans-Serif" font-size="10.00">factor</text>
</g>
<!-- n6&#45;&gt;n7 -->
<g id="edge4" class="edge">
<title>n6&#45;&gt;n7</title>
<path fill="none" stroke="black" d="M167,-287.7C167,-279.98 167,-270.71 167,-262.11"/>
<polygon fill="black" stroke="black" points="170.5,-262.1 167,-252.1 163.5,-262.1 170.5,-262.1"/>
</g>
<!-- n8 -->
<g id="node9" class="node">
<title>n8</title>
<polygon fill="none" stroke="black" points="194,-180 140,-180 140,-144 194,-144 194,-180"/>
<text text-anchor="middle" x="167" y="-159.5" font-family="Helvetica,sans-Serif" font-size="10.00">120000</text>
</g>
<!-- n7&#45;&gt;n8 -->
<g id="edge3" class="edge">
<title>n7&#45;&gt;n8</title>
<path fill="none" stroke="black" d="M167,-215.7C167,-207.98 167,-198.71 167,-190.11"/>
<polygon fill="black" stroke="black" points="170.5,-190.1 167,-180.1 163.5,-190.1 170.5,-190.1"/>
</g>
<!-- n11 -->
<g id="node12" class="node">
<title>n11</title>
<polygon fill="none" stroke="black" points="462.5,-468 403.5,-468 403.5,-432 462.5,-432 462.5,-468"/>
<text text-anchor="middle" x="433" y="-447.5" font-family="Helvetica,sans-Serif" font-size="10.00">ruleStmt</text>
</g>
<!-- n10&#45;&gt;n11 -->
<g id="edge32" class="edge">
<title>n10&#45;&gt;n11</title>
<path fill="none" stroke="black" d="M433,-503.7C433,-495.98 433,-486.71 433,-478.11"/>
<polygon fill="black" stroke="black" points="436.5,-478.1 433,-468.1 429.5,-478.1 436.5,-478.1"/>
</g>
<!-- n12 -->
<g id="node13" class="node">
<title>n12</title>
<polygon fill="none" stroke="black" points="352,-396 298,-396 298,-360 352,-360 352,-396"/>
<text text-anchor="middle" x="325" y="-375.5" font-family="Helvetica,sans-Serif" font-size="10.00">si</text>
</g>
<!-- n11&#45;&gt;n12 -->
<g id="edge10" class="edge">
<title>n11&#45;&gt;n12</title>
<path fill="none" stroke="black" d="M406.58,-431.88C392.59,-422.81 375.22,-411.55 360.11,-401.76"/>
<polygon fill="black" stroke="black" points="361.82,-398.69 351.52,-396.19 358.01,-404.57 361.82,-398.69"/>
</g>
<!-- n13 -->
<g id="node14" class="node">
<title>n13</title>
<polygon fill="none" stroke="black" points="424,-396 370,-396 370,-360 424,-360 424,-396"/>
<text text-anchor="middle" x="397" y="-375.5" font-family="Helvetica,sans-Serif" font-size="10.00">cond</text>
</g>
<!-- n11&#45;&gt;n13 -->
<g id="edge18" class="edge">
<title>n11&#45;&gt;n13</title>
<path fill="none" stroke="black" d="M424.1,-431.7C420,-423.73 415.05,-414.1 410.51,-405.26"/>
<polygon fill="black" stroke="black" points="413.48,-403.4 405.8,-396.1 407.26,-406.6 413.48,-403.4"/>
</g>
<!-- n21 -->
<g id="node22" class="node">
<title>n21</title>
<polygon fill="none" stroke="black" points="496,-396 442,-396 442,-360 496,-360 496,-396"/>
<text text-anchor="middle" x="469" y="-375.5" font-family="Helvetica,sans-Serif" font-size="10.00">:</text>
</g>
<!-- n11&#45;&gt;n21 -->
<g id="edge19" class="edge">
<title>n11&#45;&gt;n21</title>
<path fill="none" stroke="black" d="M441.9,-431.7C446,-423.73 450.95,-414.1 455.49,-405.26"/>
<polygon fill="black" stroke="black" points="458.74,-406.6 460.2,-396.1 452.52,-403.4 458.74,-406.6"/>
</g>
<!-- n22 -->
<g id="node23" class="node">
<title>n22</title>
<polygon fill="none" stroke="black" points="577,-396 523,-396 523,-360 577,-360 577,-396"/>
<text text-anchor="middle" x="550" y="-375.5" font-family="Helvetica,sans-Serif" font-size="10.00">action</text>
</g>
<!-- n11&#45;&gt;n22 -->
<g id="edge31" class="edge">
<title>n11&#45;&gt;n22</title>
<path fill="none" stroke="black" d="M461.62,-431.88C477.38,-422.45 497.08,-410.66 513.89,-400.61"/>
<polygon fill="black" stroke="black" points="516.1,-403.36 522.88,-395.23 512.5,-397.36 516.1,-403.36"/>
</g>
<!-- n14 -->
<g id="node15" class="node">
<title>n14</title>
<polygon fill="none" stroke="black" points="266,-324 212,-324 212,-288 266,-288 266,-324"/>
<text text-anchor="middle" x="239" y="-303.5" font-family="Helvetica,sans-Serif" font-size="10.00">ingreso</text>
</g>
<!-- n13&#45;&gt;n14 -->
<g id="edge11" class="edge">
<title>n13&#45;&gt;n14</title>
<path fill="none" stroke="black" d="M369.93,-364.06C366.93,-362.67 363.9,-361.29 361,-360 325.81,-344.33 314.44,-341.25 275.42,-324.09"/>
<polygon fill="black" stroke="black" points="276.63,-320.79 266.07,-319.94 273.79,-327.19 276.63,-320.79"/>
</g>
<!-- n15 -->
<g id="node16" class="node">
<title>n15</title>
<polygon fill="none" stroke="black" points="357.5,-324 284.5,-324 284.5,-288 357.5,-288 357.5,-324"/>
<text text-anchor="middle" x="321" y="-303.5" font-family="Helvetica,sans-Serif" font-size="10.00">comparator</text>
</g>
<!-- n13&#45;&gt;n15 -->
<g id="edge13" class="edge">
<title>n13&#45;&gt;n15</title>
<path fill="none" stroke="black" d="M378.21,-359.7C368.83,-351.05 357.32,-340.45 347.09,-331.03"/>
<polygon fill="black" stroke="black" points="349.3,-328.3 339.57,-324.1 344.55,-333.45 349.3,-328.3"/>
</g>
<!-- n17 -->
<g id="node18" class="node">
<title>n17</title>
<polygon fill="none" stroke="black" points="430,-324 376,-324 376,-288 430,-288 430,-324"/>
<text text-anchor="middle" x="403" y="-303.5" font-family="Helvetica,sans-Serif" font-size="10.00">expr</text>
</g>
<!-- n13&#45;&gt;n17 -->
<g id="edge17" class="edge">
<title>n13&#45;&gt;n17</title>
<path fill="none" stroke="black" d="M398.48,-359.7C399.14,-351.98 399.94,-342.71 400.68,-334.11"/>
<polygon fill="black" stroke="black" points="404.17,-334.37 401.53,-324.1 397.19,-333.77 404.17,-334.37"/>
</g>
<!-- n16 -->
<g id="node17" class="node">
<title>n16</title>
<polygon fill="none" stroke="black" points="348,-252 294,-252 294,-216 348,-216 348,-252"/>
<text text-anchor="middle" x="321" y="-231.5" font-family="Helvetica,sans-Serif" font-size="10.00">&gt;</text>
</g>
<!-- n15&#45;&gt;n16 -->
<g id="edge12" class="edge">
<title>n15&#45;&gt;n16</title>
<path fill="none" stroke="black" d="M321,-287.7C321,-279.98 321,-270.71 321,-262.11"/>
<polygon fill="black" stroke="black" points="324.5,-262.1 321,-252.1 317.5,-262.1 324.5,-262.1"/>
</g>
<!-- n18 -->
<g id="node19" class="node">
<title>n18</title>
<polygon fill="none" stroke="black" points="430,-252 376,-252 376,-216 430,-216 430,-252"/>
<text text-anchor="middle" x="403" y="-231.5" font-family="Helvetica,sans-Serif" font-size="10.00">term</text>
</g>
<!-- n17&#45;&gt;n18 -->
<g id="edge16" class="edge">
<title>n17&#45;&gt;n18</title>
<path fill="none" stroke="black" d="M403,-287.7C403,-279.98 403,-270.71 403,-262.11"/>
<polygon fill="black" stroke="black" points="406.5,-262.1 403,-252.1 399.5,-262.1 406.5,-262.1"/>
</g>
<!-- n19 -->
<g id="node20" class="node">
<title>n19</title>
<polygon fill="none" stroke="black" points="430,-180 376,-180 376,-144 430,-144 430,-180"/>
<text text-anchor="middle" x="403" y="-159.5" font-family="Helvetica,sans-Serif" font-size="10.00">factor</text>
</g>
<!-- n18&#45;&gt;n19 -->
<g id="edge15" class="edge">
<title>n18&#45;&gt;n19</title>
<path fill="none" stroke="black" d="M403,-215.7C403,-207.98 403,-198.71 403,-190.11"/>
<polygon fill="black" stroke="black" points="406.5,-190.1 403,-180.1 399.5,-190.1 406.5,-190.1"/>
</g>
<!-- n20 -->
<g id="node21" class="node">
<title>n20</title>
<polygon fill="none" stroke="black" points="430,-108 376,-108 376,-72 430,-72 430,-108"/>
<text text-anchor="middle" x="403" y="-87.5" font-family="Helvetica,sans-Serif" font-size="10.00">100000</text>
</g>
<!-- n19&#45;&gt;n20 -->
<g id="edge14" class="edge">
<title>n19&#45;&gt;n20</title>
<path fill="none" stroke="black" d="M403,-143.7C403,-135.98 403,-126.71 403,-118.11"/>
<polygon fill="black" stroke="black" points="406.5,-118.1 403,-108.1 399.5,-118.1 406.5,-118.1"/>
</g>
<!-- n23 -->
<g id="node24" class="node">
<title>n23</title>
<polygon fill="none" stroke="black" points="510,-324 448,-324 448,-288 510,-288 510,-324"/>
<text text-anchor="middle" x="479" y="-303.5" font-family="Helvetica,sans-Serif" font-size="10.00">impuesto</text>
</g>
<!-- n22&#45;&gt;n23 -->
<g id="edge20" class="edge">
<title>n22&#45;&gt;n23</title>
<path fill="none" stroke="black" d="M532.45,-359.7C523.77,-351.14 513.14,-340.66 503.65,-331.3"/>
<polygon fill="black" stroke="black" points="505.93,-328.63 496.35,-324.1 501.01,-333.62 505.93,-328.63"/>
</g>
<!-- n24 -->
<g id="node25" class="node">
<title>n24</title>
<polygon fill="none" stroke="black" points="582,-324 528,-324 528,-288 582,-288 582,-324"/>
<text text-anchor="middle" x="555" y="-303.5" font-family="Helvetica,sans-Serif" font-size="10.00">=</text>
</g>
<!-- n22&#45;&gt;n24 -->
<g id="edge21" class="edge">
<title>n22&#45;&gt;n24</title>
<path fill="none" stroke="black" d="M551.24,-359.7C551.79,-351.98 552.45,-342.71 553.06,-334.11"/>
<polygon fill="black" stroke="black" points="556.56,-334.33 553.78,-324.1 549.57,-333.83 556.56,-334.33"/>
</g>
<!-- n25 -->
<g id="node26" class="node">
<title>n25</title>
<polygon fill="none" stroke="black" points="654,-324 600,-324 600,-288 654,-288 654,-324"/>
<text text-anchor="middle" x="627" y="-303.5" font-family="Helvetica,sans-Serif" font-size="10.00">expr</text>
</g>
<!-- n22&#45;&gt;n25 -->
<g id="edge29" class="edge">
<title>n22&#45;&gt;n25</title>
<path fill="none" stroke="black" d="M569.03,-359.7C578.54,-351.05 590.21,-340.45 600.57,-331.03"/>
<polygon fill="black" stroke="black" points="603.14,-333.42 608.19,-324.1 598.43,-328.24 603.14,-333.42"/>
</g>
<!-- n33 -->
<g id="node34" class="node">
<title>n33</title>
<polygon fill="none" stroke="black" points="726,-324 672,-324 672,-288 726,-288 726,-324"/>
<text text-anchor="middle" x="699" y="-303.5" font-family="Helvetica,sans-Serif" font-size="10.00">;</text>
</g>
<!-- n22&#45;&gt;n33 -->
<g id="edge30" class="edge">
<title>n22&#45;&gt;n33</title>
<path fill="none" stroke="black" d="M577.12,-364.18C580.12,-362.77 583.12,-361.35 586,-360 617.52,-345.19 627.31,-340.74 662.39,-324.28"/>
<polygon fill="black" stroke="black" points="664.32,-327.24 671.88,-319.82 661.34,-320.9 664.32,-327.24"/>
</g>
<!-- n26 -->
<g id="node27" class="node">
<title>n26</title>
<polygon fill="none" stroke="black" points="654,-252 600,-252 600,-216 654,-216 654,-252"/>
<text text-anchor="middle" x="627" y="-231.5" font-family="Helvetica,sans-Serif" font-size="10.00">term</text>
</g>
<!-- n25&#45;&gt;n26 -->
<g id="edge28" class="edge">
<title>n25&#45;&gt;n26</title>
<path fill="none" stroke="black" d="M627,-287.7C627,-279.98 627,-270.71 627,-262.11"/>
<polygon fill="black" stroke="black" points="630.5,-262.1 627,-252.1 623.5,-262.1 630.5,-262.1"/>
</g>
<!-- n27 -->
<g id="node28" class="node">
<title>n27</title>
<polygon fill="none" stroke="black" points="582,-180 528,-180 528,-144 582,-144 582,-180"/>
<text text-anchor="middle" x="555" y="-159.5" font-family="Helvetica,sans-Serif" font-size="10.00">term</text>
</g>
<!-- n26&#45;&gt;n27 -->
<g id="edge24" class="edge">
<title>n26&#45;&gt;n27</title>
<path fill="none" stroke="black" d="M609.2,-215.7C600.4,-207.14 589.62,-196.66 580,-187.3"/>
<polygon fill="black" stroke="black" points="582.2,-184.57 572.59,-180.1 577.32,-189.58 582.2,-184.57"/>
</g>
<!-- n30 -->
<g id="node31" class="node">
<title>n30</title>
<polygon fill="none" stroke="black" points="654,-180 600,-180 600,-144 654,-144 654,-180"/>
<text text-anchor="middle" x="627" y="-159.5" font-family="Helvetica,sans-Serif" font-size="10.00">/</text>
</g>
<!-- n26&#45;&gt;n30 -->
<g id="edge25" class="edge">
<title>n26&#45;&gt;n30</title>
<path fill="none" stroke="black" d="M627,-215.7C627,-207.98 627,-198.71 627,-190.11"/>
<polygon fill="black" stroke="black" points="630.5,-190.1 627,-180.1 623.5,-190.1 630.5,-190.1"/>
</g>
<!-- n31 -->
<g id="node32" class="node">
<title>n31</title>
<polygon fill="none" stroke="black" points="726,-180 672,-180 672,-144 726,-144 726,-180"/>
<text text-anchor="middle" x="699" y="-159.5" font-family="Helvetica,sans-Serif" font-size="10.00">factor</text>
</g>
<!-- n26&#45;&gt;n31 -->
<g id="edge27" class="edge">
<title>n26&#45;&gt;n31</title>
<path fill="none" stroke="black" d="M644.8,-215.7C653.6,-207.14 664.38,-196.66 674,-187.3"/>
<polygon fill="black" stroke="black" points="676.68,-189.58 681.41,-180.1 671.8,-184.57 676.68,-189.58"/>
</g>
<!-- n28 -->
<g id="node29" class="node">
<title>n28</title>
<polygon fill="none" stroke="black" points="582,-108 528,-108 528,-72 582,-72 582,-108"/>
<text text-anchor="middle" x="555" y="-87.5" font-family="Helvetica,sans-Serif" font-size="10.00">factor</text>
</g>
<!-- n27&#45;&gt;n28 -->
<g id="edge23" class="edge">
<title>n27&#45;&gt;n28</title>
<path fill="none" stroke="black" d="M555,-143.7C555,-135.98 555,-126.71 555,-118.11"/>
<polygon fill="black" stroke="black" points="558.5,-118.1 555,-108.1 551.5,-118.1 558.5,-118.1"/>
</g>
<!-- n29 -->
<g id="node30" class="node">
<title>n29</title>
<polygon fill="none" stroke="black" points="582,-36 528,-36 528,0 582,0 582,-36"/>
<text text-anchor="middle" x="555" y="-15.5" font-family="Helvetica,sans-Serif" font-size="10.00">ingreso</text>
</g>
<!-- n28&#45;&gt;n29 -->
<g id="edge22" class="edge">
<title>n28&#45;&gt;n29</title>
<path fill="none" stroke="black" d="M555,-71.7C555,-63.98 555,-54.71 555,-46.11"/>
<polygon fill="black" stroke="black" points="558.5,-46.1 555,-36.1 551.5,-46.1 558.5,-46.1"/>
</g>
<!-- n32 -->
<g id="node33" class="node">
<title>n32</title>
<polygon fill="none" stroke="black" points="726,-108 672,-108 672,-72 726,-72 726,-108"/>
<text text-anchor="middle" x="699" y="-87.5" font-family="Helvetica,sans-Serif" font-size="10.00">0</text>
</g>
<!-- n31&#45;&gt;n32 -->
<g id="edge26" class="edge">
<title>n31&#45;&gt;n32</title>
<path fill="none" stroke="black" d="M699,-143.7C699,-135.98 699,-126.71 699,-118.11"/>
<polygon fill="black" stroke="black" points="702.5,-118.1 699,-108.1 695.5,-118.1 702.5,-118.1"/>
</g>
<!-- n35 -->
<g id="node36" class="node">
<title>n35</title>
<polygon fill="none" stroke="black" points="763,-468 701,-468 701,-432 763,-432 763,-468"/>
<text text-anchor="middle" x="732" y="-447.5" font-family="Helvetica,sans-Serif" font-size="10.00">printStmt</text>
</g>
<!-- n34&#45;&gt;n35 -->
<g id="edge39" class="edge">
<title>n34&#45;&gt;n35</title>
<path fill="none" stroke="black" d="M551.71,-507.39C554.84,-506.21 557.97,-505.07 561,-504 605.03,-488.5 656.25,-472.95 691.07,-462.74"/>
<polygon fill="black" stroke="black" points="692.26,-466.03 700.88,-459.87 690.3,-459.31 692.26,-466.03"/>
</g>
<!-- n36 -->
<g id="node37" class="node">
<title>n36</title>
<polygon fill="none" stroke="black" points="649,-396 595,-396 595,-360 649,-360 649,-396"/>
<text text-anchor="middle" x="622" y="-375.5" font-family="Helvetica,sans-Serif" font-size="10.00">print</text>
</g>
<!-- n35&#45;&gt;n36 -->
<g id="edge34" class="edge">
<title>n35&#45;&gt;n36</title>
<path fill="none" stroke="black" d="M705.09,-431.88C690.84,-422.81 673.15,-411.55 657.76,-401.76"/>
<polygon fill="black" stroke="black" points="659.33,-398.61 649.01,-396.19 655.57,-404.51 659.33,-398.61"/>
</g>
<!-- n37 -->
<g id="node38" class="node">
<title>n37</title>
<polygon fill="none" stroke="black" points="721,-396 667,-396 667,-360 721,-360 721,-396"/>
<text text-anchor="middle" x="694" y="-375.5" font-family="Helvetica,sans-Serif" font-size="10.00">(</text>
</g>
<!-- n35&#45;&gt;n37 -->
<g id="edge35" class="edge">
<title>n35&#45;&gt;n37</title>
<path fill="none" stroke="black" d="M722.61,-431.7C718.24,-423.64 712.94,-413.89 708.1,-404.98"/>
<polygon fill="black" stroke="black" points="711.13,-403.22 703.29,-396.1 704.98,-406.56 711.13,-403.22"/>
</g>
<!-- n38 -->
<g id="node39" class="node">
<title>n38</title>
<polygon fill="none" stroke="black" points="801,-396 739,-396 739,-360 801,-360 801,-396"/>
<text text-anchor="middle" x="770" y="-375.5" font-family="Helvetica,sans-Serif" font-size="10.00">impuesto</text>
</g>
<!-- n35&#45;&gt;n38 -->
<g id="edge36" class="edge">
<title>n35&#45;&gt;n38</title>
<path fill="none" stroke="black" d="M741.39,-431.7C745.76,-423.64 751.06,-413.89 755.9,-404.98"/>
<polygon fill="black" stroke="black" points="759.02,-406.56 760.71,-396.1 752.87,-403.22 759.02,-406.56"/>
</g>
<!-- n39 -->
<g id="node40" class="node">
<title>n39</title>
<polygon fill="none" stroke="black" points="873,-396 819,-396 819,-360 873,-360 873,-396"/>
<text text-anchor="middle" x="846" y="-375.5" font-family="Helvetica,sans-Serif" font-size="10.00">)</text>
</g>
<!-- n35&#45;&gt;n39 -->
<g id="edge37" class="edge">
<title>n35&#45;&gt;n39</title>
<path fill="none" stroke="black" d="M759.89,-431.88C775.02,-422.59 793.88,-411 810.1,-401.04"/>
<polygon fill="black" stroke="black" points="812.1,-403.92 818.79,-395.71 808.44,-397.96 812.1,-403.92"/>
</g>
<!-- n40 -->
<g id="node41" class="node">
<title>n40</title>
<polygon fill="none" stroke="black" points="945,-396 891,-396 891,-360 945,-360 945,-396"/>
<text text-anchor="middle" x="918" y="-375.5" font-family="Helvetica,sans-Serif" font-size="10.00">;</text>
</g>
<!-- n35&#45;&gt;n40 -->
<g id="edge38" class="edge">
<title>n35&#45;&gt;n40</title>
<path fill="none" stroke="black" d="M763.08,-439.04C791.69,-429.65 835.42,-414.74 881.14,-396.17"/>
<polygon fill="black" stroke="black" points="882.69,-399.32 890.61,-392.28 880.03,-392.84 882.69,-399.32"/>
</g>
</g>
</svg>
