<?xml version="1.0" encoding="UTF-8" standalone="no"?>
<!DOCTYPE svg PUBLIC "-//W3C//DTD SVG 1.1//EN"
 "http://www.w3.org/Graphics/SVG/1.1/DTD/svg11.dtd">
<!-- Generated by graphviz version 2.43.0 (0)
 -->
<!-- Title: ast Pages: 1 -->
<svg width="339pt" height="358pt"
 viewBox="0.00 0.00 339.44 357.71" xmlns="http://www.w3.org/2000/svg" xmlns:xlink="http://www.w3.org/1999/xlink">
<g id="graph0" class="graph" transform="scale(1 1) rotate(0) translate(4 353.71)">
<title>ast</title>
<polygon fill="white" stroke="transparent" points="-4,4 -4,-353.71 335.44,-353.71 335.44,4 -4,4"/>
<!-- n0 -->
<g id="node1" class="node">
<title>n0</title>
<polygon fill="none" stroke="black" points="179.84,-349.71 121.84,-349.71 121.84,-313.71 179.84,-313.71 179.84,-349.71"/>
<text text-anchor="middle" x="150.84" y="-329.21" font-family="Helvetica,sans-Serif" font-size="10.00">Program</text>
</g>
<!-- n1 -->
<g id="node2" class="node">
<title>n1</title>
<polygon fill="none" stroke="black" points="93.84,-274.49 19.84,-274.49 19.84,-238.49 93.84,-238.49 93.84,-274.49"/>
<text text-anchor="middle" x="56.84" y="-259.49" font-family="Helvetica,sans-Serif" font-size="10.00">Assignment</text>
<text text-anchor="middle" x="56.84" y="-248.49" font-family="Helvetica,sans-Serif" font-size="10.00">ingreso</text>
</g>
<!-- n0&#45;&gt;n1 -->
<g id="edge2" class="edge">
<title>n0&#45;&gt;n1</title>
<path fill="none" stroke="black" d="M128.56,-313.36C116.16,-303.69 100.53,-291.52 87.04,-281.01"/>
<polygon fill="black" stroke="black" points="89,-278.1 78.96,-274.72 84.7,-283.62 89,-278.1"/>
</g>
<!-- n3 -->
<g id="node4" class="node">
<title>n3</title>
<polygon fill="none" stroke="black" points="177.84,-274.49 123.84,-274.49 123.84,-238.49 177.84,-238.49 177.84,-274.49"/>
<text text-anchor="middle" x="150.84" y="-253.99" font-family="Helvetica,sans-Serif" font-size="10.00">Rule</text>
</g>
<!-- n0&#45;&gt;n3 -->
<g id="edge9" class="edge">
<title>n0&#45;&gt;n3</title>
<path fill="none" stroke="black" d="M150.84,-313.36C150.84,-304.88 150.84,-294.47 150.84,-284.95"/>
<polygon fill="black" stroke="black" points="154.34,-284.72 150.84,-274.72 147.34,-284.72 154.34,-284.72"/>
</g>
<!-- n10 -->
<g id="node11" class="node">
<title>n10</title>
<ellipse fill="none" stroke="black" cx="239.84" cy="-256.49" rx="43.68" ry="21.43"/>
<text text-anchor="middle" x="239.84" y="-259.49" font-family="Helvetica,sans-Serif" font-size="10.00">Print</text>
<text text-anchor="middle" x="239.84" y="-248.49" font-family="Helvetica,sans-Serif" font-size="10.00">impuesto</text>
</g>
<!-- n0&#45;&gt;n10 -->
<g id="edge10" class="edge">
<title>n0&#45;&gt;n10</title>
<path fill="none" stroke="black" d="M171.93,-313.36C183.4,-303.92 197.77,-292.1 210.34,-281.76"/>
<polygon fill="black" stroke="black" points="212.78,-284.28 218.28,-275.23 208.34,-278.88 212.78,-284.28"/>
</g>
<!-- n2 -->
<g id="node3" class="node">
<title>n2</title>
<ellipse fill="none" stroke="black" cx="43.84" cy="-178.07" rx="43.68" ry="21.43"/>
<text text-anchor="middle" x="43.84" y="-181.07" font-family="Helvetica,sans-Serif" font-size="10.00">Number</text>
<text text-anchor="middle" x="43.84" y="-170.07" font-family="Helvetica,sans-Serif" font-size="10.00">120000.0</text>
</g>
<!-- n1&#45;&gt;n2 -->
<g id="edge1" class="edge">
<title>n1&#45;&gt;n2</title>
<path fill="none" stroke="black" d="M53.89,-238.15C52.45,-229.68 50.67,-219.23 49.01,-209.48"/>
<polygon fill="black" stroke="black" points="52.41,-208.59 47.29,-199.32 45.51,-209.76 52.41,-208.59"/>
</g>
<!-- n4 -->
<g id="node5" class="node">
<title>n4</title>
<ellipse fill="none" stroke="black" cx="150.84" cy="-178.07" rx="45.01" ry="21.43"/>
<text text-anchor="middle" x="150.84" y="-181.07" font-family="Helvetica,sans-Serif" font-size="10.00">Cond</text>
<text text-anchor="middle" x="150.84" y="-170.07" font-family="Helvetica,sans-Serif" font-size="10.00">ingreso &gt;</text>
</g>
<!-- n3&#45;&gt;n4 -->
<g id="edge4" class="edge">
<title>n3&#45;&gt;n4</title>
<path fill="none" stroke="black" d="M150.84,-238.15C150.84,-229.68 150.84,-219.23 150.84,-209.48"/>
<polygon fill="black" stroke="black" points="154.34,-209.32 150.84,-199.32 147.34,-209.32 154.34,-209.32"/>
</g>
<!-- n6 -->
<g id="node7" class="node">
<title>n6</title>
<polygon fill="none" stroke="black" points="275.84,-196.07 213.84,-196.07 213.84,-160.07 275.84,-160.07 275.84,-196.07"/>
<text text-anchor="middle" x="244.84" y="-181.07" font-family="Helvetica,sans-Serif" font-size="10.00">Action</text>
<text text-anchor="middle" x="244.84" y="-170.07" font-family="Helvetica,sans-Serif" font-size="10.00">impuesto</text>
</g>
<!-- n3&#45;&gt;n6 -->
<g id="edge8" class="edge">
<title>n3&#45;&gt;n6</title>
<path fill="none" stroke="black" d="M172.17,-238.15C185.12,-227.62 201.82,-214.04 215.95,-202.56"/>
<polygon fill="black" stroke="black" points="218.37,-205.1 223.92,-196.08 213.95,-199.67 218.37,-205.1"/>
</g>
<!-- n5 -->
<g id="node6" class="node">
<title>n5</title>
<ellipse fill="none" stroke="black" cx="150.84" cy="-99.64" rx="43.68" ry="21.43"/>
<text text-anchor="middle" x="150.84" y="-102.64" font-family="Helvetica,sans-Serif" font-size="10.00">Number</text>
<text text-anchor="middle" x="150.84" y="-91.64" font-family="Helvetica,sans-Serif" font-size="10.00">100000.0</text>
</g>
<!-- n4&#45;&gt;n5 -->
<g id="edge3" class="edge">
<title>n4&#45;&gt;n5</title>
<path fill="none" stroke="black" d="M150.84,-156.59C150.84,-148.73 150.84,-139.58 150.84,-130.99"/>
<polygon fill="black" stroke="black" points="154.34,-130.91 150.84,-120.91 147.34,-130.91 154.34,-130.91"/>
</g>
<!-- n7 -->
<g id="node8" class="node">
<title>n7</title>
<ellipse fill="none" stroke="black" cx="244.84" cy="-99.64" rx="32.55" ry="21.43"/>
<text text-anchor="middle" x="244.84" y="-102.64" font-family="Helvetica,sans-Serif" font-size="10.00">BinOp</text>
<text text-anchor="middle" x="244.84" y="-91.64" font-family="Helvetica,sans-Serif" font-size="10.00">/</text>
</g>
<!-- n6&#45;&gt;n7 -->
<g id="edge7" class="edge">
<title>n6&#45;&gt;n7</title>
<path fill="none" stroke="black" d="M244.84,-159.72C244.84,-151.25 244.84,-140.8 244.84,-131.06"/>
<polygon fill="black" stroke="black" points="248.34,-130.89 244.84,-120.89 241.34,-130.89 248.34,-130.89"/>
</g>
<!-- n8 -->
<g id="node9" class="node">
<title>n8</title>
<ellipse fill="none" stroke="black" cx="196.84" cy="-21.21" rx="37.45" ry="21.43"/>
<text text-anchor="middle" x="196.84" y="-24.21" font-family="Helvetica,sans-Serif" font-size="10.00">Var</text>
<text text-anchor="middle" x="196.84" y="-13.21" font-family="Helvetica,sans-Serif" font-size="10.00">ingreso</text>
</g>
<!-- n7&#45;&gt;n8 -->
<g id="edge5" class="edge">
<title>n7&#45;&gt;n8</title>
<path fill="none" stroke="black" d="M232.98,-79.75C227.36,-70.81 220.55,-59.97 214.36,-50.11"/>
<polygon fill="black" stroke="black" points="217.19,-48.03 208.9,-41.42 211.26,-51.75 217.19,-48.03"/>
</g>
<!-- n9 -->
<g id="node10" class="node">
<title>n9</title>
<ellipse fill="none" stroke="black" cx="291.84" cy="-21.21" rx="39.7" ry="21.43"/>
<text text-anchor="middle" x="291.84" y="-24.21" font-family="Helvetica,sans-Serif" font-size="10.00">Number</text>
<text text-anchor="middle" x="291.84" y="-13.21" font-family="Helvetica,sans-Serif" font-size="10.00">0.0</text>
</g>
<!-- n7&#45;&gt;n9 -->
<g id="edge6" class="edge">
<title>n7&#45;&gt;n9</title>
<path fill="none" stroke="black" d="M256.46,-79.75C261.91,-70.88 268.52,-60.13 274.55,-50.33"/>
<polygon fill="black" stroke="black" points="277.61,-52.04 279.87,-41.69 271.65,-48.37 277.61,-52.04"/>
</g>
</g>
</svg>
