<?xml version="1.0" encoding="UTF-8" standalone="no"?>
<!DOCTYPE svg PUBLIC "-//W3C//DTD SVG 1.1//EN"
 "http://www.w3.org/Graphics/SVG/1.1/DTD/svg11.dtd">
<!-- Generated by graphviz version 2.43.0 (0)
 -->
<!-- Title: parse Pages: 1 -->
<svg width="1231pt" height="548pt"
 viewBox="0.00 0.00 1231.00 548.00" xmlns="http://www.w3.org/2000/svg" xmlns:xlink="http://www.w3.org/1999/xlink">
<g id="graph0" class="graph" transform="scale(1 1) rotate(0) translate(4 544)">
<title>parse</title>
<polygon fill="white" stroke="transparent" points="-4,4 -4,-544 1227,-544 1227,4 -4,4"/>
<!-- n0 -->
<g id="node1" class="node">
<title>n0</title>
<polygon fill="none" stroke="black" points="679,-540 621,-540 621,-504 679,-504 679,-540"/>
<text text-anchor="middle" x="650" y="-519.5" font-family="Helvetica,sans-Serif" font-size="10.00">program</text>
</g>
<!-- n1 -->
<g id="node2" class="node">
<title>n1</title>
<polygon fill="none" stroke="black" points="343.5,-468 276.5,-468 276.5,-432 343.5,-432 343.5,-468"/>
<text text-anchor="middle" x="310" y="-447.5" font-family="Helvetica,sans-Serif" font-size="10.00">statement</text>
</g>
<!-- n0&#45;&gt;n1 -->
<g id="edge9" class="edge">
<title>n0&#45;&gt;n1</title>
<path fill="none" stroke="black" d="M620.72,-514.97C560.77,-502.63 423.78,-474.43 353.44,-459.94"/>
<polygon fill="black" stroke="black" points="354.06,-456.5 343.56,-457.91 352.65,-463.35 354.06,-456.5"/>
</g>
<!-- n10 -->
<g id="node11" class="node">
<title>n10</title>
<polygon fill="none" stroke="black" points="533.5,-468 466.5,-468 466.5,-432 533.5,-432 533.5,-468"/>
<text text-anchor="middle" x="500" y="-447.5" font-family="Helvetica,sans-Serif" font-size="10.00">statement</text>
</g>
<!-- n0&#45;&gt;n10 -->
<g id="edge18" class="edge">
<title>n0&#45;&gt;n10</title>
<path fill="none" stroke="black" d="M620.72,-507.34C598.57,-497 567.82,-482.65 542.89,-471.02"/>
<polygon fill="black" stroke="black" points="544.2,-467.76 533.65,-466.71 541.24,-474.11 544.2,-467.76"/>
</g>
<!-- n19 -->
<g id="node20" class="node">
<title>n19</title>
<polygon fill="none" stroke="black" points="683.5,-468 616.5,-468 616.5,-432 683.5,-432 683.5,-468"/>
<text text-anchor="middle" x="650" y="-447.5" font-family="Helvetica,sans-Serif" font-size="10.00">statement</text>
</g>
<!-- n0&#45;&gt;n19 -->
<g id="edge38" class="edge">
<title>n0&#45;&gt;n19</title>
<path fill="none" stroke="black" d="M650,-503.7C650,-495.98 650,-486.71 650,-478.11"/>
<polygon fill="black" stroke="black" points="653.5,-478.1 650,-468.1 646.5,-478.1 653.5,-478.1"/>
</g>
<!-- n39 -->
<g id="node40" class="node">
<title>n39</title>
<polygon fill="none" stroke="black" points="768.5,-468 701.5,-468 701.5,-432 768.5,-432 768.5,-468"/>
<text text-anchor="middle" x="735" y="-447.5" font-family="Helvetica,sans-Serif" font-size="10.00">statement</text>
</g>
<!-- n0&#45;&gt;n39 -->
<g id="edge45" class="edge">
<title>n0&#45;&gt;n39</title>
<path fill="none" stroke="black" d="M671.01,-503.7C681.72,-494.88 694.89,-484.03 706.5,-474.47"/>
<polygon fill="black" stroke="black" points="708.74,-477.16 714.23,-468.1 704.29,-471.76 708.74,-477.16"/>
</g>
<!-- n46 -->
<g id="node47" class="node">
<title>n46</title>
<polygon fill="none" stroke="black" points="841,-468 787,-468 787,-432 841,-432 841,-468"/>
<text text-anchor="start" x="804" y="-447.5" font-family="Helvetica,sans-Serif" font-size="10.00">EOF</text>
</g>
<!-- n0&#45;&gt;n46 -->
<g id="edge46" class="edge">
<title>n0&#45;&gt;n46</title>
<path fill="none" stroke="black" d="M679.13,-509.19C704.95,-498.63 743.63,-482.62 777,-468 777.2,-467.91 777.41,-467.82 777.61,-467.73"/>
<polygon fill="black" stroke="black" points="779.27,-470.83 786.97,-463.55 776.41,-464.43 779.27,-470.83"/>
</g>
<!-- n2 -->
<g id="node3" class="node">
<title>n2</title>
<polygon fill="none" stroke="black" points="208,-396 134,-396 134,-360 208,-360 208,-396"/>
<text text-anchor="middle" x="171" y="-375.5" font-family="Helvetica,sans-Serif" font-size="10.00">assignment</text>
</g>
<!-- n1&#45;&gt;n2 -->
<g id="edge8" class="edge">
<title>n1&#45;&gt;n2</title>
<path fill="none" stroke="black" d="M276.35,-432.05C257.54,-422.58 233.9,-410.68 213.78,-400.55"/>
<polygon fill="black" stroke="black" points="215.33,-397.4 204.82,-396.03 212.18,-403.66 215.33,-397.4"/>
</g>
<!-- n3 -->
<g id="node4" class="node">
<title>n3</title>
<polygon fill="none" stroke="black" points="54,-324 0,-324 0,-288 54,-288 54,-324"/>
<text text-anchor="middle" x="27" y="-303.5" font-family="Helvetica,sans-Serif" font-size="10.00">ingreso</text>
</g>
<!-- n2&#45;&gt;n3 -->
<g id="edge1" class="edge">
<title>n2&#45;&gt;n3</title>
<path fill="none" stroke="black" d="M135.77,-359.88C113.77,-349.18 85.51,-335.44 63.3,-324.65"/>
<polygon fill="black" stroke="black" points="64.72,-321.44 54.2,-320.22 61.66,-327.74 64.72,-321.44"/>
</g>
<!-- n4 -->
<g id="node5" class="node">
<title>n4</title>
<polygon fill="none" stroke="black" points="126,-324 72,-324 72,-288 126,-288 126,-324"/>
<text text-anchor="middle" x="99" y="-303.5" font-family="Helvetica,sans-Serif" font-size="10.00">=</text>
</g>
<!-- n2&#45;&gt;n4 -->
<g id="edge2" class="edge">
<title>n2&#45;&gt;n4</title>
<path fill="none" stroke="black" d="M153.2,-359.7C144.4,-351.14 133.62,-340.66 124,-331.3"/>
<polygon fill="black" stroke="black" points="126.2,-328.57 116.59,-324.1 121.32,-333.58 126.2,-328.57"/>
</g>
<!-- n5 -->
<g id="node6" class="node">
<title>n5</title>
<polygon fill="none" stroke="black" points="198,-324 144,-324 144,-288 198,-288 198,-324"/>
<text text-anchor="middle" x="171" y="-303.5" font-family="Helvetica,sans-Serif" font-size="10.00">expr</text>
</g>
<!-- n2&#45;&gt;n5 -->
<g id="edge6" class="edge">
<title>n2&#45;&gt;n5</title>
<path fill="none" stroke="black" d="M171,-359.7C171,-351.98 171,-342.71 171,-334.11"/>
<polygon fill="black" stroke="black" points="174.5,-334.1 171,-324.1 167.5,-334.1 174.5,-334.1"/>
</g>
<!-- n9 -->
<g id="node10" class="node">
<title>n9</title>
<polygon fill="none" stroke="black" points="270,-324 216,-324 216,-288 270,-288 270,-324"/>
<text text-anchor="middle" x="243" y="-303.5" font-family="Helvetica,sans-Serif" font-size="10.00">;</text>
</g>
<!-- n2&#45;&gt;n9 -->
<g id="edge7" class="edge">
<title>n2&#45;&gt;n9</title>
<path fill="none" stroke="black" d="M188.8,-359.7C197.6,-351.14 208.38,-340.66 218,-331.3"/>
<polygon fill="black" stroke="black" points="220.68,-333.58 225.41,-324.1 215.8,-328.57 220.68,-333.58"/>
</g>
<!-- n6 -->
<g id="node7" class="node">
<title>n6</title>
<polygon fill="none" stroke="black" points="198,-252 144,-252 144,-216 198,-216 198,-252"/>
<text text-anchor="middle" x="171" y="-231.5" font-family="Helvetica,sans-Serif" font-size="10.00">term</text>
</g>
<!-- n5&#45;&gt;n6 -->
<g id="edge5" class="edge">
<title>n5&#45;&gt;n6</title>
<path fill="none" stroke="black" d="M171,-287.7C171,-279.98 171,-270.71 171,-262.11"/>
<polygon fill="black" stroke="black" points="174.5,-262.1 171,-252.1 167.5,-262.1 174.5,-262.1"/>
</g>
<!-- n7 -->
<g id="node8" class="node">
<title>n7</title>
<polygon fill="none" stroke="black" points="198,-180 144,-180 144,-144 198,-144 198,-180"/>
<text text-anchor="middle" x="171" y="-159.5" font-family="Helvetica,sans-Serif" font-size="10.00">factor</text>
</g>
<!-- n6&#45;&gt;n7 -->
<g id="edge4" class="edge">
<title>n6&#45;&gt;n7</title>
<path fill="none" stroke="black" d="M171,-215.7C171,-207.98 171,-198.71 171,-190.11"/>
<polygon fill="black" stroke="black" points="174.5,-190.1 171,-180.1 167.5,-190.1 174.5,-190.1"/>
</g>
<!-- n8 -->
<g id="node9" class="node">
<title>n8</title>
<polygon fill="none" stroke="black" points="198,-108 144,-108 144,-72 198,-72 198,-108"/>
<text text-anchor="middle" x="171" y="-87.5" font-family="Helvetica,sans-Serif" font-size="10.00">95000</text>
</g>
<!-- n7&#45;&gt;n8 -->
<g id="edge3" class="edge">
<title>n7&#45;&gt;n8</title>
<path fill="none" stroke="black" d="M171,-143.7C171,-135.98 171,-126.71 171,-118.11"/>
<polygon fill="black" stroke="black" points="174.5,-118.1 171,-108.1 167.5,-118.1 174.5,-118.1"/>
</g>
<!-- n11 -->
<g id="node12" class="node">
<title>n11</title>
<polygon fill="none" stroke="black" points="504,-396 430,-396 430,-360 504,-360 504,-396"/>
<text text-anchor="middle" x="467" y="-375.5" font-family="Helvetica,sans-Serif" font-size="10.00">assignment</text>
</g>
<!-- n10&#45;&gt;n11 -->
<g id="edge17" class="edge">
<title>n10&#45;&gt;n11</title>
<path fill="none" stroke="black" d="M491.84,-431.7C488.09,-423.73 483.55,-414.1 479.38,-405.26"/>
<polygon fill="black" stroke="black" points="482.49,-403.66 475.06,-396.1 476.16,-406.64 482.49,-403.66"/>
</g>
<!-- n12 -->
<g id="node13" class="node">
<title>n12</title>
<polygon fill="none" stroke="black" points="350,-324 288,-324 288,-288 350,-288 350,-324"/>
<text text-anchor="middle" x="319" y="-303.5" font-family="Helvetica,sans-Serif" font-size="10.00">impuesto</text>
</g>
<!-- n11&#45;&gt;n12 -->
<g id="edge10" class="edge">
<title>n11&#45;&gt;n12</title>
<path fill="none" stroke="black" d="M430.8,-359.88C409.23,-349.68 381.81,-336.71 359.52,-326.17"/>
<polygon fill="black" stroke="black" points="360.86,-322.92 350.32,-321.81 357.86,-329.25 360.86,-322.92"/>
</g>
<!-- n13 -->
<g id="node14" class="node">
<title>n13</title>
<polygon fill="none" stroke="black" points="422,-324 368,-324 368,-288 422,-288 422,-324"/>
<text text-anchor="middle" x="395" y="-303.5" font-family="Helvetica,sans-Serif" font-size="10.00">=</text>
</g>
<!-- n11&#45;&gt;n13 -->
<g id="edge11" class="edge">
<title>n11&#45;&gt;n13</title>
<path fill="none" stroke="black" d="M449.2,-359.7C440.4,-351.14 429.62,-340.66 420,-331.3"/>
<polygon fill="black" stroke="black" points="422.2,-328.57 412.59,-324.1 417.32,-333.58 422.2,-328.57"/>
</g>
<!-- n14 -->
<g id="node15" class="node">
<title>n14</title>
<polygon fill="none" stroke="black" points="494,-324 440,-324 440,-288 494,-288 494,-324"/>
<text text-anchor="middle" x="467" y="-303.5" font-family="Helvetica,sans-Serif" font-size="10.00">expr</text>
</g>
<!-- n11&#45;&gt;n14 -->
<g id="edge15" class="edge">
<title>n11&#45;&gt;n14</title>
<path fill="none" stroke="black" d="M467,-359.7C467,-351.98 467,-342.71 467,-334.11"/>
<polygon fill="black" stroke="black" points="470.5,-334.1 467,-324.1 463.5,-334.1 470.5,-334.1"/>
</g>
<!-- n18 -->
<g id="node19" class="node">
<title>n18</title>
<polygon fill="none" stroke="black" points="566,-324 512,-324 512,-288 566,-288 566,-324"/>
<text text-anchor="middle" x="539" y="-303.5" font-family="Helvetica,sans-Serif" font-size="10.00">;</text>
</g>
<!-- n11&#45;&gt;n18 -->
<g id="edge16" class="edge">
<title>n11&#45;&gt;n18</title>
<path fill="none" stroke="black" d="M484.8,-359.7C493.6,-351.14 504.38,-340.66 514,-331.3"/>
<polygon fill="black" stroke="black" points="516.68,-333.58 521.41,-324.1 511.8,-328.57 516.68,-333.58"/>
</g>
<!-- n15 -->
<g id="node16" class="node">
<title>n15</title>
<polygon fill="none" stroke="black" points="484,-252 430,-252 430,-216 484,-216 484,-252"/>
<text text-anchor="middle" x="457" y="-231.5" font-family="Helvetica,sans-Serif" font-size="10.00">term</text>
</g>
<!-- n14&#45;&gt;n15 -->
<g id="edge14" class="edge">
<title>n14&#45;&gt;n15</title>
<path fill="none" stroke="black" d="M464.53,-287.7C463.43,-279.98 462.1,-270.71 460.87,-262.11"/>
<polygon fill="black" stroke="black" points="464.32,-261.51 459.44,-252.1 457.39,-262.5 464.32,-261.51"/>
</g>
<!-- n16 -->
<g id="node17" class="node">
<title>n16</title>
<polygon fill="none" stroke="black" points="484,-180 430,-180 430,-144 484,-144 484,-180"/>
<text text-anchor="middle" x="457" y="-159.5" font-family="Helvetica,sans-Serif" font-size="10.00">factor</text>
</g>
<!-- n15&#45;&gt;n16 -->
<g id="edge13" class="edge">
<title>n15&#45;&gt;n16</title>
<path fill="none" stroke="black" d="M457,-215.7C457,-207.98 457,-198.71 457,-190.11"/>
<polygon fill="black" stroke="black" points="460.5,-190.1 457,-180.1 453.5,-190.1 460.5,-190.1"/>
</g>
<!-- n17 -->
<g id="node18" class="node">
<title>n17</title>
<polygon fill="none" stroke="black" points="484,-108 430,-108 430,-72 484,-72 484,-108"/>
<text text-anchor="middle" x="457" y="-87.5" font-family="Helvetica,sans-Serif" font-size="10.00">0</text>
</g>
<!-- n16&#45;&gt;n17 -->
<g id="edge12" class="edge">
<title>n16&#45;&gt;n17</title>
<path fill="none" stroke="black" d="M457,-143.7C457,-135.98 457,-126.71 457,-118.11"/>
<polygon fill="black" stroke="black" points="460.5,-118.1 457,-108.1 453.5,-118.1 460.5,-118.1"/>
</g>
<!-- n20 -->
<g id="node21" class="node">
<title>n20</title>
<polygon fill="none" stroke="black" points="712.5,-396 653.5,-396 653.5,-360 712.5,-360 712.5,-396"/>
<text text-anchor="middle" x="683" y="-375.5" font-family="Helvetica,sans-Serif" font-size="10.00">ruleStmt</text>
</g>
<!-- n19&#45;&gt;n20 -->
<g id="edge37" class="edge">
<title>n19&#45;&gt;n20</title>
<path fill="none" stroke="black" d="M658.16,-431.7C661.91,-423.73 666.45,-414.1 670.62,-405.26"/>
<polygon fill="black" stroke="black" points="673.84,-406.64 674.94,-396.1 667.51,-403.66 673.84,-406.64"/>
</g>
<!-- n21 -->
<g id="node22" class="node">
<title>n21</title>
<polygon fill="none" stroke="black" points="638,-324 584,-324 584,-288 638,-288 638,-324"/>
<text text-anchor="middle" x="611" y="-303.5" font-family="Helvetica,sans-Serif" font-size="10.00">si</text>
</g>
<!-- n20&#45;&gt;n21 -->
<g id="edge19" class="edge">
<title>n20&#45;&gt;n21</title>
<path fill="none" stroke="black" d="M665.2,-359.7C656.4,-351.14 645.62,-340.66 636,-331.3"/>
<polygon fill="black" stroke="black" points="638.2,-328.57 628.59,-324.1 633.32,-333.58 638.2,-328.57"/>
</g>
<!-- n22 -->
<g id="node23" class="node">
<title>n22</title>
<polygon fill="none" stroke="black" points="710,-324 656,-324 656,-288 710,-288 710,-324"/>
<text text-anchor="middle" x="683" y="-303.5" font-family="Helvetica,sans-Serif" font-size="10.00">cond</text>
</g>
<!-- n20&#45;&gt;n22 -->
<g id="edge27" class="edge">
<title>n20&#45;&gt;n22</title>
<path fill="none" stroke="black" d="M683,-359.7C683,-351.98 683,-342.71 683,-334.11"/>
<polygon fill="black" stroke="black" points="686.5,-334.1 683,-324.1 679.5,-334.1 686.5,-334.1"/>
</g>
<!-- n30 -->
<g id="node31" class="node">
<title>n30</title>
<polygon fill="none" stroke="black" points="782,-324 728,-324 728,-288 782,-288 782,-324"/>
<text text-anchor="middle" x="755" y="-303.5" font-family="Helvetica,sans-Serif" font-size="10.00">:</text>
</g>
<!-- n20&#45;&gt;n30 -->
<g id="edge28" class="edge">
<title>n20&#45;&gt;n30</title>
<path fill="none" stroke="black" d="M700.8,-359.7C709.6,-351.14 720.38,-340.66 730,-331.3"/>
<polygon fill="black" stroke="black" points="732.68,-333.58 737.41,-324.1 727.8,-328.57 732.68,-333.58"/>
</g>
<!-- n31 -->
<g id="node32" class="node">
<title>n31</title>
<polygon fill="none" stroke="black" points="863,-324 809,-324 809,-288 863,-288 863,-324"/>
<text text-anchor="middle" x="836" y="-303.5" font-family="Helvetica,sans-Serif" font-size="10.00">action</text>
</g>
<!-- n20&#45;&gt;n31 -->
<g id="edge36" class="edge">
<title>n20&#45;&gt;n31</title>
<path fill="none" stroke="black" d="M712.86,-363.34C737.65,-352 772.99,-335.83 799.46,-323.72"/>
<polygon fill="black" stroke="black" points="801.14,-326.8 808.78,-319.45 798.23,-320.43 801.14,-326.8"/>
</g>
<!-- n23 -->
<g id="node24" class="node">
<title>n23</title>
<polygon fill="none" stroke="black" points="556,-252 502,-252 502,-216 556,-216 556,-252"/>
<text text-anchor="middle" x="529" y="-231.5" font-family="Helvetica,sans-Serif" font-size="10.00">ingreso</text>
</g>
<!-- n22&#45;&gt;n23 -->
<g id="edge20" class="edge">
<title>n22&#45;&gt;n23</title>
<path fill="none" stroke="black" d="M655.91,-292.11C652.91,-290.71 649.89,-289.32 647,-288 613.47,-272.73 602.79,-269.02 565.58,-252.2"/>
<polygon fill="black" stroke="black" points="566.64,-248.84 556.09,-247.89 563.75,-255.21 566.64,-248.84"/>
</g>
<!-- n24 -->
<g id="node25" class="node">
<title>n24</title>
<polygon fill="none" stroke="black" points="647.5,-252 574.5,-252 574.5,-216 647.5,-216 647.5,-252"/>
<text text-anchor="middle" x="611" y="-231.5" font-family="Helvetica,sans-Serif" font-size="10.00">comparator</text>
</g>
<!-- n22&#45;&gt;n24 -->
<g id="edge22" class="edge">
<title>n22&#45;&gt;n24</title>
<path fill="none" stroke="black" d="M665.2,-287.7C656.4,-279.14 645.62,-268.66 636,-259.3"/>
<polygon fill="black" stroke="black" points="638.2,-256.57 628.59,-252.1 633.32,-261.58 638.2,-256.57"/>
</g>
<!-- n26 -->
<g id="node27" class="node">
<title>n26</title>
<polygon fill="none" stroke="black" points="720,-252 666,-252 666,-216 720,-216 720,-252"/>
<text text-anchor="middle" x="693" y="-231.5" font-family="Helvetica,sans-Serif" font-size="10.00">expr</text>
</g>
<!-- n22&#45;&gt;n26 -->
<g id="edge26" class="edge">
<title>n22&#45;&gt;n26</title>
<path fill="none" stroke="black" d="M685.47,-287.7C686.57,-279.98 687.9,-270.71 689.13,-262.11"/>
<polygon fill="black" stroke="black" points="692.61,-262.5 690.56,-252.1 685.68,-261.51 692.61,-262.5"/>
</g>
<!-- n25 -->
<g id="node26" class="node">
<title>n25</title>
<polygon fill="none" stroke="black" points="638,-180 584,-180 584,-144 638,-144 638,-180"/>
<text text-anchor="middle" x="611" y="-159.5" font-family="Helvetica,sans-Serif" font-size="10.00">&lt;=</text>
</g>
<!-- n24&#45;&gt;n25 -->
<g id="edge21" class="edge">
<title>n24&#45;&gt;n25</title>
<path fill="none" stroke="black" d="M611,-215.7C611,-207.98 611,-198.71 611,-190.11"/>
<polygon fill="black" stroke="black" points="614.5,-190.1 611,-180.1 607.5,-190.1 614.5,-190.1"/>
</g>
<!-- n27 -->
<g id="node28" class="node">
<title>n27</title>
<polygon fill="none" stroke="black" points="720,-180 666,-180 666,-144 720,-144 720,-180"/>
<text text-anchor="middle" x="693" y="-159.5" font-family="Helvetica,sans-Serif" font-size="10.00">term</text>
</g>
<!-- n26&#45;&gt;n27 -->
<g id="edge25" class="edge">
<title>n26&#45;&gt;n27</title>
<path fill="none" stroke="black" d="M693,-215.7C693,-207.98 693,-198.71 693,-190.11"/>
<polygon fill="black" stroke="black" points="696.5,-190.1 693,-180.1 689.5,-190.1 696.5,-190.1"/>
</g>
<!-- n28 -->
<g id="node29" class="node">
<title>n28</title>
<polygon fill="none" stroke="black" points="720,-108 666,-108 666,-72 720,-72 720,-108"/>
<text text-anchor="middle" x="693" y="-87.5" font-family="Helvetica,sans-Serif" font-size="10.00">factor</text>
</g>
<!-- n27&#45;&gt;n28 -->
<g id="edge24" class="edge">
<title>n27&#45;&gt;n28</title>
<path fill="none" stroke="black" d="M693,-143.7C693,-135.98 693,-126.71 693,-118.11"/>
<polygon fill="black" stroke="black" points="696.5,-118.1 693,-108.1 689.5,-118.1 696.5,-118.1"/>
</g>
<!-- n29 -->
<g id="node30" class="node">
<title>n29</title>
<polygon fill="none" stroke="black" points="720,-36 666,-36 666,0 720,0 720,-36"/>
<text text-anchor="middle" x="693" y="-15.5" font-family="Helvetica,sans-Serif" font-size="10.00">90000</text>
</g>
<!-- n28&#45;&gt;n29 -->
<g id="edge23" class="edge">
<title>n28&#45;&gt;n29</title>
<path fill="none" stroke="black" d="M693,-71.7C693,-63.98 693,-54.71 693,-46.11"/>
<polygon fill="black" stroke="black" points="696.5,-46.1 693,-36.1 689.5,-46.1 696.5,-46.1"/>
</g>
<!-- n32 -->
<g id="node33" class="node">
<title>n32</title>
<polygon fill="none" stroke="black" points="800,-252 738,-252 738,-216 800,-216 800,-252"/>
<text text-anchor="middle" x="769" y="-231.5" font-family="Helvetica,sans-Serif" font-size="10.00">impuesto</text>
</g>
<!-- n31&#45;&gt;n32 -->
<g id="edge29" class="edge">
<title>n31&#45;&gt;n32</title>
<path fill="none" stroke="black" d="M819.44,-287.7C811.32,-279.22 801.41,-268.86 792.53,-259.58"/>
<polygon fill="black" stroke="black" points="794.81,-256.91 785.37,-252.1 789.76,-261.75 794.81,-256.91"/>
</g>
<!-- n33 -->
<g id="node34" class="node">
<title>n33</title>
<polygon fill="none" stroke="black" points="872,-252 818,-252 818,-216 872,-216 872,-252"/>
<text text-anchor="middle" x="845" y="-231.5" font-family="Helvetica,sans-Serif" font-size="10.00">=</text>
</g>
<!-- n31&#45;&gt;n33 -->
<g id="edge30" class="edge">
<title>n31&#45;&gt;n33</title>
<path fill="none" stroke="black" d="M838.22,-287.7C839.22,-279.98 840.41,-270.71 841.51,-262.11"/>
<polygon fill="black" stroke="black" points="845,-262.47 842.8,-252.1 838.05,-261.58 845,-262.47"/>
</g>
<!-- n34 -->
<g id="node35" class="node">
<title>n34</title>
<polygon fill="none" stroke="black" points="944,-252 890,-252 890,-216 944,-216 944,-252"/>
<text text-anchor="middle" x="917" y="-231.5" font-family="Helvetica,sans-Serif" font-size="10.00">expr</text>
</g>
<!-- n31&#45;&gt;n34 -->
<g id="edge34" class="edge">
<title>n31&#45;&gt;n34</title>
<path fill="none" stroke="black" d="M856.02,-287.7C866.13,-278.97 878.54,-268.24 889.52,-258.75"/>
<polygon fill="black" stroke="black" points="891.93,-261.29 897.21,-252.1 887.35,-255.99 891.93,-261.29"/>
</g>
<!-- n38 -->
<g id="node39" class="node">
<title>n38</title>
<polygon fill="none" stroke="black" points="1016,-252 962,-252 962,-216 1016,-216 1016,-252"/>
<text text-anchor="middle" x="989" y="-231.5" font-family="Helvetica,sans-Serif" font-size="10.00">;</text>
</g>
<!-- n31&#45;&gt;n38 -->
<g id="edge35" class="edge">
<title>n31&#45;&gt;n38</title>
<path fill="none" stroke="black" d="M863.1,-292.12C866.1,-290.72 869.11,-289.32 872,-288 905.16,-272.81 915.65,-268.96 952.51,-252.17"/>
<polygon fill="black" stroke="black" points="954.27,-255.22 961.9,-247.88 951.35,-248.85 954.27,-255.22"/>
</g>
<!-- n35 -->
<g id="node36" class="node">
<title>n35</title>
<polygon fill="none" stroke="black" points="944,-180 890,-180 890,-144 944,-144 944,-180"/>
<text text-anchor="middle" x="917" y="-159.5" font-family="Helvetica,sans-Serif" font-size="10.00">term</text>
</g>
<!-- n34&#45;&gt;n35 -->
<g id="edge33" class="edge">
<title>n34&#45;&gt;n35</title>
<path fill="none" stroke="black" d="M917,-215.7C917,-207.98 917,-198.71 917,-190.11"/>
<polygon fill="black" stroke="black" points="920.5,-190.1 917,-180.1 913.5,-190.1 920.5,-190.1"/>
</g>
<!-- n36 -->
<g id="node37" class="node">
<title>n36</title>
<polygon fill="none" stroke="black" points="944,-108 890,-108 890,-72 944,-72 944,-108"/>
<text text-anchor="middle" x="917" y="-87.5" font-family="Helvetica,sans-Serif" font-size="10.00">factor</text>
</g>
<!-- n35&#45;&gt;n36 -->
<g id="edge32" class="edge">
<title>n35&#45;&gt;n36</title>
<path fill="none" stroke="black" d="M917,-143.7C917,-135.98 917,-126.71 917,-118.11"/>
<polygon fill="black" stroke="black" points="920.5,-118.1 917,-108.1 913.5,-118.1 920.5,-118.1"/>
</g>
<!-- n37 -->
<g id="node38" class="node">
<title>n37</title>
<polygon fill="none" stroke="black" points="944,-36 890,-36 890,0 944,0 944,-36"/>
<text text-anchor="middle" x="917" y="-15.5" font-family="Helvetica,sans-Serif" font-size="10.00">0</text>
</g>
<!-- n36&#45;&gt;n37 -->
<g id="edge31" class="edge">
<title>n36&#45;&gt;n37</title>
<path fill="none" stroke="black" d="M917,-71.7C917,-63.98 917,-54.71 917,-46.11"/>
<polygon fill="black" stroke="black" points="920.5,-46.1 917,-36.1 913.5,-46.1 920.5,-46.1"/>
</g>
<!-- n40 -->
<g id="node41" class="node">
<title>n40</title>
<polygon fill="none" stroke="black" points="1047,-396 985,-396 985,-360 1047,-360 1047,-396"/>
<text text-anchor="middle" x="1016" y="-375.5" font-family="Helvetica,sans-Serif" font-size="10.00">printStmt</text>
</g>
<!-- n39&#45;&gt;n40 -->
<g id="edge44" class="edge">
<title>n39&#45;&gt;n40</title>
<path fill="none" stroke="black" d="M768.62,-435.13C771.77,-434 774.93,-432.94 778,-432 845.86,-411.17 926.94,-394.89 974.81,-386.13"/>
<polygon fill="black" stroke="black" points="975.57,-389.55 984.79,-384.33 974.32,-382.66 975.57,-389.55"/>
</g>
<!-- n41 -->
<g id="node42" class="node">
<title>n41</title>
<polygon fill="none" stroke="black" points="935,-324 881,-324 881,-288 935,-288 935,-324"/>
<text text-anchor="middle" x="908" y="-303.5" font-family="Helvetica,sans-Serif" font-size="10.00">print</text>
</g>
<!-- n40&#45;&gt;n41 -->
<g id="edge39" class="edge">
<title>n40&#45;&gt;n41</title>
<path fill="none" stroke="black" d="M989.58,-359.88C975.59,-350.81 958.22,-339.55 943.11,-329.76"/>
<polygon fill="black" stroke="black" points="944.82,-326.69 934.52,-324.19 941.01,-332.57 944.82,-326.69"/>
</g>
<!-- n42 -->
<g id="node43" class="node">
<title>n42</title>
<polygon fill="none" stroke="black" points="1007,-324 953,-324 953,-288 1007,-288 1007,-324"/>
<text text-anchor="middle" x="980" y="-303.5" font-family="Helvetica,sans-Serif" font-size="10.00">(</text>
</g>
<!-- n40&#45;&gt;n42 -->
<g id="edge40" class="edge">
<title>n40&#45;&gt;n42</title>
<path fill="none" stroke="black" d="M1007.1,-359.7C1003,-351.73 998.05,-342.1 993.51,-333.26"/>
<polygon fill="black" stroke="black" points="996.48,-331.4 988.8,-324.1 990.26,-334.6 996.48,-331.4"/>
</g>
<!-- n43 -->
<g id="node44" class="node">
<title>n43</title>
<polygon fill="none" stroke="black" points="1079,-324 1025,-324 1025,-288 1079,-288 1079,-324"/>
<text text-anchor="middle" x="1052" y="-303.5" font-family="Helvetica,sans-Serif" font-size="10.00">ingreso</text>
</g>
<!-- n40&#45;&gt;n43 -->
<g id="edge41" class="edge">
<title>n40&#45;&gt;n43</title>
<path fill="none" stroke="black" d="M1024.9,-359.7C1029,-351.73 1033.95,-342.1 1038.49,-333.26"/>
<polygon fill="black" stroke="black" points="1041.74,-334.6 1043.2,-324.1 1035.52,-331.4 1041.74,-334.6"/>
</g>
<!-- n44 -->
<g id="node45" class="node">
<title>n44</title>
<polygon fill="none" stroke="black" points="1151,-324 1097,-324 1097,-288 1151,-288 1151,-324"/>
<text text-anchor="middle" x="1124" y="-303.5" font-family="Helvetica,sans-Serif" font-size="10.00">)</text>
</g>
<!-- n40&#45;&gt;n44 -->
<g id="edge42" class="edge">
<title>n40&#45;&gt;n44</title>
<path fill="none" stroke="black" d="M1042.42,-359.88C1056.41,-350.81 1073.78,-339.55 1088.89,-329.76"/>
<polygon fill="black" stroke="black" points="1090.99,-332.57 1097.48,-324.19 1087.18,-326.69 1090.99,-332.57"/>
</g>
<!-- n45 -->
<g id="node46" class="node">
<title>n45</title>
<polygon fill="none" stroke="black" points="1223,-324 1169,-324 1169,-288 1223,-288 1223,-324"/>
<text text-anchor="middle" x="1196" y="-303.5" font-family="Helvetica,sans-Serif" font-size="10.00">;</text>
</g>
<!-- n40&#45;&gt;n45 -->
<g id="edge43" class="edge">
<title>n40&#45;&gt;n45</title>
<path fill="none" stroke="black" d="M1047.21,-366.41C1074.63,-356.91 1115.75,-342.19 1159.6,-324"/>
<polygon fill="black" stroke="black" points="1161.12,-327.16 1168.99,-320.07 1158.41,-320.7 1161.12,-327.16"/>
</g>
</g>
</svg>
