<?xml version="1.0" encoding="UTF-8" standalone="no"?>
<!DOCTYPE svg PUBLIC "-//W3C//DTD SVG 1.1//EN"
 "http://www.w3.org/Graphics/SVG/1.1/DTD/svg11.dtd">
<!-- Generated by graphviz version 2.43.0 (0)
 -->
<!-- Title: ast Pages: 1 -->
<svg width="393pt" height="279pt"
 viewBox="0.00 0.00 393.20 279.28" xmlns="http://www.w3.org/2000/svg" xmlns:xlink="http://www.w3.org/1999/xlink">
<g id="graph0" class="graph" transform="scale(1 1) rotate(0) translate(4 275.28)">
<title>ast</title>
<polygon fill="white" stroke="transparent" points="-4,4 -4,-275.28 389.2,-275.28 389.2,4 -4,4"/>
<!-- n0 -->
<g id="node1" class="node">
<title>n0</title>
<polygon fill="none" stroke="black" points="213.6,-271.28 155.6,-271.28 155.6,-235.28 213.6,-235.28 213.6,-271.28"/>
<text text-anchor="middle" x="184.6" y="-250.78" font-family="Helvetica,sans-Serif" font-size="10.00">Program</text>
</g>
<!-- n1 -->
<g id="node2" class="node">
<title>n1</title>
<polygon fill="none" stroke="black" points="86.6,-196.07 12.6,-196.07 12.6,-160.07 86.6,-160.07 86.6,-196.07"/>
<text text-anchor="middle" x="49.6" y="-181.07" font-family="Helvetica,sans-Serif" font-size="10.00">Assignment</text>
<text text-anchor="middle" x="49.6" y="-170.07" font-family="Helvetica,sans-Serif" font-size="10.00">ingreso</text>
</g>
<!-- n0&#45;&gt;n1 -->
<g id="edge2" class="edge">
<title>n0&#45;&gt;n1</title>
<path fill="none" stroke="black" d="M155.3,-236.39C136.26,-226.06 111.15,-212.45 90.19,-201.08"/>
<polygon fill="black" stroke="black" points="91.65,-197.89 81.19,-196.2 88.31,-204.04 91.65,-197.89"/>
</g>
<!-- n3 -->
<g id="node4" class="node">
<title>n3</title>
<polygon fill="none" stroke="black" points="180.6,-196.07 106.6,-196.07 106.6,-160.07 180.6,-160.07 180.6,-196.07"/>
<text text-anchor="middle" x="143.6" y="-181.07" font-family="Helvetica,sans-Serif" font-size="10.00">Assignment</text>
<text text-anchor="middle" x="143.6" y="-170.07" font-family="Helvetica,sans-Serif" font-size="10.00">impuesto</text>
</g>
<!-- n0&#45;&gt;n3 -->
<g id="edge4" class="edge">
<title>n0&#45;&gt;n3</title>
<path fill="none" stroke="black" d="M174.88,-234.93C169.93,-226.08 163.8,-215.14 158.29,-205.3"/>
<polygon fill="black" stroke="black" points="161.18,-203.31 153.24,-196.29 155.08,-206.73 161.18,-203.31"/>
</g>
<!-- n5 -->
<g id="node6" class="node">
<title>n5</title>
<polygon fill="none" stroke="black" points="265.6,-196.07 211.6,-196.07 211.6,-160.07 265.6,-160.07 265.6,-196.07"/>
<text text-anchor="middle" x="238.6" y="-175.57" font-family="Helvetica,sans-Serif" font-size="10.00">Rule</text>
</g>
<!-- n0&#45;&gt;n5 -->
<g id="edge9" class="edge">
<title>n0&#45;&gt;n5</title>
<path fill="none" stroke="black" d="M197.4,-234.93C204.12,-225.81 212.49,-214.47 219.92,-204.38"/>
<polygon fill="black" stroke="black" points="222.77,-206.42 225.89,-196.29 217.14,-202.26 222.77,-206.42"/>
</g>
<!-- n10 -->
<g id="node11" class="node">
<title>n10</title>
<ellipse fill="none" stroke="black" cx="320.6" cy="-178.07" rx="37.45" ry="21.43"/>
<text text-anchor="middle" x="320.6" y="-181.07" font-family="Helvetica,sans-Serif" font-size="10.00">Print</text>
<text text-anchor="middle" x="320.6" y="-170.07" font-family="Helvetica,sans-Serif" font-size="10.00">ingreso</text>
</g>
<!-- n0&#45;&gt;n10 -->
<g id="edge10" class="edge">
<title>n0&#45;&gt;n10</title>
<path fill="none" stroke="black" d="M213.77,-236.57C234.76,-225.27 263.18,-209.98 285.42,-198"/>
<polygon fill="black" stroke="black" points="287.09,-201.08 294.23,-193.26 283.77,-194.92 287.09,-201.08"/>
</g>
<!-- n2 -->
<g id="node3" class="node">
<title>n2</title>
<ellipse fill="none" stroke="black" cx="39.6" cy="-99.64" rx="39.7" ry="21.43"/>
<text text-anchor="middle" x="39.6" y="-102.64" font-family="Helvetica,sans-Serif" font-size="10.00">Number</text>
<text text-anchor="middle" x="39.6" y="-91.64" font-family="Helvetica,sans-Serif" font-size="10.00">95000.0</text>
</g>
<!-- n1&#45;&gt;n2 -->
<g id="edge1" class="edge">
<title>n1&#45;&gt;n2</title>
<path fill="none" stroke="black" d="M47.33,-159.72C46.22,-151.25 44.85,-140.8 43.58,-131.06"/>
<polygon fill="black" stroke="black" points="47.02,-130.35 42.25,-120.89 40.07,-131.26 47.02,-130.35"/>
</g>
<!-- n4 -->
<g id="node5" class="node">
<title>n4</title>
<ellipse fill="none" stroke="black" cx="136.6" cy="-99.64" rx="39.7" ry="21.43"/>
<text text-anchor="middle" x="136.6" y="-102.64" font-family="Helvetica,sans-Serif" font-size="10.00">Number</text>
<text text-anchor="middle" x="136.6" y="-91.64" font-family="Helvetica,sans-Serif" font-size="10.00">0.0</text>
</g>
<!-- n3&#45;&gt;n4 -->
<g id="edge3" class="edge">
<title>n3&#45;&gt;n4</title>
<path fill="none" stroke="black" d="M142.01,-159.72C141.23,-151.25 140.28,-140.8 139.38,-131.06"/>
<polygon fill="black" stroke="black" points="142.85,-130.53 138.45,-120.89 135.88,-131.17 142.85,-130.53"/>
</g>
<!-- n6 -->
<g id="node7" class="node">
<title>n6</title>
<ellipse fill="none" stroke="black" cx="245.6" cy="-99.64" rx="50.82" ry="21.43"/>
<text text-anchor="middle" x="245.6" y="-102.64" font-family="Helvetica,sans-Serif" font-size="10.00">Cond</text>
<text text-anchor="middle" x="245.6" y="-91.64" font-family="Helvetica,sans-Serif" font-size="10.00">ingreso &lt;=</text>
</g>
<!-- n5&#45;&gt;n6 -->
<g id="edge6" class="edge">
<title>n5&#45;&gt;n6</title>
<path fill="none" stroke="black" d="M240.19,-159.72C240.96,-151.25 241.92,-140.8 242.81,-131.06"/>
<polygon fill="black" stroke="black" points="246.32,-131.17 243.74,-120.89 239.35,-130.53 246.32,-131.17"/>
</g>
<!-- n8 -->
<g id="node9" class="node">
<title>n8</title>
<polygon fill="none" stroke="black" points="376.6,-117.64 314.6,-117.64 314.6,-81.64 376.6,-81.64 376.6,-117.64"/>
<text text-anchor="middle" x="345.6" y="-102.64" font-family="Helvetica,sans-Serif" font-size="10.00">Action</text>
<text text-anchor="middle" x="345.6" y="-91.64" font-family="Helvetica,sans-Serif" font-size="10.00">impuesto</text>
</g>
<!-- n5&#45;&gt;n8 -->
<g id="edge8" class="edge">
<title>n5&#45;&gt;n8</title>
<path fill="none" stroke="black" d="M262.61,-159.91C277.62,-149.2 297.12,-135.26 313.46,-123.6"/>
<polygon fill="black" stroke="black" points="315.56,-126.39 321.67,-117.73 311.49,-120.7 315.56,-126.39"/>
</g>
<!-- n7 -->
<g id="node8" class="node">
<title>n7</title>
<ellipse fill="none" stroke="black" cx="245.6" cy="-21.21" rx="39.7" ry="21.43"/>
<text text-anchor="middle" x="245.6" y="-24.21" font-family="Helvetica,sans-Serif" font-size="10.00">Number</text>
<text text-anchor="middle" x="245.6" y="-13.21" font-family="Helvetica,sans-Serif" font-size="10.00">90000.0</text>
</g>
<!-- n6&#45;&gt;n7 -->
<g id="edge5" class="edge">
<title>n6&#45;&gt;n7</title>
<path fill="none" stroke="black" d="M245.6,-78.16C245.6,-70.3 245.6,-61.16 245.6,-52.57"/>
<polygon fill="black" stroke="black" points="249.1,-52.49 245.6,-42.49 242.1,-52.49 249.1,-52.49"/>
</g>
<!-- n9 -->
<g id="node10" class="node">
<title>n9</title>
<ellipse fill="none" stroke="black" cx="345.6" cy="-21.21" rx="39.7" ry="21.43"/>
<text text-anchor="middle" x="345.6" y="-24.21" font-family="Helvetica,sans-Serif" font-size="10.00">Number</text>
<text text-anchor="middle" x="345.6" y="-13.21" font-family="Helvetica,sans-Serif" font-size="10.00">0.0</text>
</g>
<!-- n8&#45;&gt;n9 -->
<g id="edge7" class="edge">
<title>n8&#45;&gt;n9</title>
<path fill="none" stroke="black" d="M345.6,-81.3C345.6,-72.82 345.6,-62.37 345.6,-52.63"/>
<polygon fill="black" stroke="black" points="349.1,-52.46 345.6,-42.46 342.1,-52.46 349.1,-52.46"/>
</g>
</g>
</svg>
