<?xml version="1.0" encoding="UTF-8" standalone="no"?>
<!DOCTYPE svg PUBLIC "-//W3C//DTD SVG 1.1//EN"
 "http://www.w3.org/Graphics/SVG/1.1/DTD/svg11.dtd">
<!-- Generated by graphviz version 2.43.0 (0)
 -->
<!-- Title: parse Pages: 1 -->
<svg width="638pt" height="548pt"
 viewBox="0.00 0.00 638.00 548.00" xmlns="http://www.w3.org/2000/svg" xmlns:xlink="http://www.w3.org/1999/xlink">
<g id="graph0" class="graph" transform="scale(1 1) rotate(0) translate(4 544)">
<title>parse</title>
<polygon fill="white" stroke="transparent" points="-4,4 -4,-544 634,-544 634,4 -4,4"/>
<!-- n0 -->
<g id="node1" class="node">
<title>n0</title>
<polygon fill="none" stroke="black" points="383,-540 325,-540 325,-504 383,-504 383,-540"/>
<text text-anchor="middle" x="354" y="-519.5" font-family="Helvetica,sans-Serif" font-size="10.00">program</text>
</g>
<!-- n1 -->
<g id="node2" class="node">
<title>n1</title>
<polygon fill="none" stroke="black" points="269.5,-468 202.5,-468 202.5,-432 269.5,-432 269.5,-468"/>
<text text-anchor="middle" x="236" y="-447.5" font-family="Helvetica,sans-Serif" font-size="10.00">statement</text>
</g>
<!-- n0&#45;&gt;n1 -->
<g id="edge14" class="edge">
<title>n0&#45;&gt;n1</title>
<path fill="none" stroke="black" d="M325.13,-503.88C309.71,-494.72 290.52,-483.34 273.9,-473.48"/>
<polygon fill="black" stroke="black" points="275.36,-470.28 264.98,-468.19 271.79,-476.3 275.36,-470.28"/>
</g>
<!-- n15 -->
<g id="node16" class="node">
<title>n15</title>
<polygon fill="none" stroke="black" points="387.5,-468 320.5,-468 320.5,-432 387.5,-432 387.5,-468"/>
<text text-anchor="middle" x="354" y="-447.5" font-family="Helvetica,sans-Serif" font-size="10.00">statement</text>
</g>
<!-- n0&#45;&gt;n15 -->
<g id="edge21" class="edge">
<title>n0&#45;&gt;n15</title>
<path fill="none" stroke="black" d="M354,-503.7C354,-495.98 354,-486.71 354,-478.11"/>
<polygon fill="black" stroke="black" points="357.5,-478.1 354,-468.1 350.5,-478.1 357.5,-478.1"/>
</g>
<!-- n22 -->
<g id="node23" class="node">
<title>n22</title>
<polygon fill="none" stroke="black" points="460,-468 406,-468 406,-432 460,-432 460,-468"/>
<text text-anchor="start" x="423" y="-447.5" font-family="Helvetica,sans-Serif" font-size="10.00">EOF</text>
</g>
<!-- n0&#45;&gt;n22 -->
<g id="edge22" class="edge">
<title>n0&#45;&gt;n22</title>
<path fill="none" stroke="black" d="M373.53,-503.7C383.38,-494.97 395.49,-484.24 406.2,-474.75"/>
<polygon fill="black" stroke="black" points="408.53,-477.36 413.7,-468.1 403.89,-472.12 408.53,-477.36"/>
</g>
<!-- n2 -->
<g id="node3" class="node">
<title>n2</title>
<polygon fill="none" stroke="black" points="208,-396 134,-396 134,-360 208,-360 208,-396"/>
<text text-anchor="middle" x="171" y="-375.5" font-family="Helvetica,sans-Serif" font-size="10.00">assignment</text>
</g>
<!-- n1&#45;&gt;n2 -->
<g id="edge13" class="edge">
<title>n1&#45;&gt;n2</title>
<path fill="none" stroke="black" d="M219.93,-431.7C212.06,-423.22 202.44,-412.86 193.83,-403.58"/>
<polygon fill="black" stroke="black" points="196.25,-401.05 186.88,-396.1 191.12,-405.81 196.25,-401.05"/>
</g>
<!-- n3 -->
<g id="node4" class="node">
<title>n3</title>
<polygon fill="none" stroke="black" points="54,-324 0,-324 0,-288 54,-288 54,-324"/>
<text text-anchor="middle" x="27" y="-303.5" font-family="Helvetica,sans-Serif" font-size="10.00">ingreso</text>
</g>
<!-- n2&#45;&gt;n3 -->
<g id="edge1" class="edge">
<title>n2&#45;&gt;n3</title>
<path fill="none" stroke="black" d="M135.77,-359.88C113.77,-349.18 85.51,-335.44 63.3,-324.65"/>
<polygon fill="black" stroke="black" points="64.72,-321.44 54.2,-320.22 61.66,-327.74 64.72,-321.44"/>
</g>
<!-- n4 -->
<g id="node5" class="node">
<title>n4</title>
<polygon fill="none" stroke="black" points="126,-324 72,-324 72,-288 126,-288 126,-324"/>
<text text-anchor="middle" x="99" y="-303.5" font-family="Helvetica,sans-Serif" font-size="10.00">=</text>
</g>
<!-- n2&#45;&gt;n4 -->
<g id="edge2" class="edge">
<title>n2&#45;&gt;n4</title>
<path fill="none" stroke="black" d="M153.2,-359.7C144.4,-351.14 133.62,-340.66 124,-331.3"/>
<polygon fill="black" stroke="black" points="126.2,-328.57 116.59,-324.1 121.32,-333.58 126.2,-328.57"/>
</g>
<!-- n5 -->
<g id="node6" class="node">
<title>n5</title>
<polygon fill="none" stroke="black" points="198,-324 144,-324 144,-288 198,-288 198,-324"/>
<text text-anchor="middle" x="171" y="-303.5" font-family="Helvetica,sans-Serif" font-size="10.00">expr</text>
</g>
<!-- n2&#45;&gt;n5 -->
<g id="edge11" class="edge">
<title>n2&#45;&gt;n5</title>
<path fill="none" stroke="black" d="M171,-359.7C171,-351.98 171,-342.71 171,-334.11"/>
<polygon fill="black" stroke="black" points="174.5,-334.1 171,-324.1 167.5,-334.1 174.5,-334.1"/>
</g>
<!-- n14 -->
<g id="node15" class="node">
<title>n14</title>
<polygon fill="none" stroke="black" points="270,-324 216,-324 216,-288 270,-288 270,-324"/>
<text text-anchor="middle" x="243" y="-303.5" font-family="Helvetica,sans-Serif" font-size="10.00">;</text>
</g>
<!-- n2&#45;&gt;n14 -->
<g id="edge12" class="edge">
<title>n2&#45;&gt;n14</title>
<path fill="none" stroke="black" d="M188.8,-359.7C197.6,-351.14 208.38,-340.66 218,-331.3"/>
<polygon fill="black" stroke="black" points="220.68,-333.58 225.41,-324.1 215.8,-328.57 220.68,-333.58"/>
</g>
<!-- n6 -->
<g id="node7" class="node">
<title>n6</title>
<polygon fill="none" stroke="black" points="126,-252 72,-252 72,-216 126,-216 126,-252"/>
<text text-anchor="middle" x="99" y="-231.5" font-family="Helvetica,sans-Serif" font-size="10.00">expr</text>
</g>
<!-- n5&#45;&gt;n6 -->
<g id="edge6" class="edge">
<title>n5&#45;&gt;n6</title>
<path fill="none" stroke="black" d="M153.2,-287.7C144.4,-279.14 133.62,-268.66 124,-259.3"/>
<polygon fill="black" stroke="black" points="126.2,-256.57 116.59,-252.1 121.32,-261.58 126.2,-256.57"/>
</g>
<!-- n10 -->
<g id="node11" class="node">
<title>n10</title>
<polygon fill="none" stroke="black" points="198,-252 144,-252 144,-216 198,-216 198,-252"/>
<text text-anchor="middle" x="171" y="-231.5" font-family="Helvetica,sans-Serif" font-size="10.00">+</text>
</g>
<!-- n5&#45;&gt;n10 -->
<g id="edge7" class="edge">
<title>n5&#45;&gt;n10</title>
<path fill="none" stroke="black" d="M171,-287.7C171,-279.98 171,-270.71 171,-262.11"/>
<polygon fill="black" stroke="black" points="174.5,-262.1 171,-252.1 167.5,-262.1 174.5,-262.1"/>
</g>
<!-- n11 -->
<g id="node12" class="node">
<title>n11</title>
<polygon fill="none" stroke="black" points="270,-252 216,-252 216,-216 270,-216 270,-252"/>
<text text-anchor="middle" x="243" y="-231.5" font-family="Helvetica,sans-Serif" font-size="10.00">term</text>
</g>
<!-- n5&#45;&gt;n11 -->
<g id="edge10" class="edge">
<title>n5&#45;&gt;n11</title>
<path fill="none" stroke="black" d="M188.8,-287.7C197.6,-279.14 208.38,-268.66 218,-259.3"/>
<polygon fill="black" stroke="black" points="220.68,-261.58 225.41,-252.1 215.8,-256.57 220.68,-261.58"/>
</g>
<!-- n7 -->
<g id="node8" class="node">
<title>n7</title>
<polygon fill="none" stroke="black" points="126,-180 72,-180 72,-144 126,-144 126,-180"/>
<text text-anchor="middle" x="99" y="-159.5" font-family="Helvetica,sans-Serif" font-size="10.00">term</text>
</g>
<!-- n6&#45;&gt;n7 -->
<g id="edge5" class="edge">
<title>n6&#45;&gt;n7</title>
<path fill="none" stroke="black" d="M99,-215.7C99,-207.98 99,-198.71 99,-190.11"/>
<polygon fill="black" stroke="black" points="102.5,-190.1 99,-180.1 95.5,-190.1 102.5,-190.1"/>
</g>
<!-- n8 -->
<g id="node9" class="node">
<title>n8</title>
<polygon fill="none" stroke="black" points="126,-108 72,-108 72,-72 126,-72 126,-108"/>
<text text-anchor="middle" x="99" y="-87.5" font-family="Helvetica,sans-Serif" font-size="10.00">factor</text>
</g>
<!-- n7&#45;&gt;n8 -->
<g id="edge4" class="edge">
<title>n7&#45;&gt;n8</title>
<path fill="none" stroke="black" d="M99,-143.7C99,-135.98 99,-126.71 99,-118.11"/>
<polygon fill="black" stroke="black" points="102.5,-118.1 99,-108.1 95.5,-118.1 102.5,-118.1"/>
</g>
<!-- n9 -->
<g id="node10" class="node">
<title>n9</title>
<polygon fill="none" stroke="black" points="126,-36 72,-36 72,0 126,0 126,-36"/>
<text text-anchor="middle" x="99" y="-15.5" font-family="Helvetica,sans-Serif" font-size="10.00">x</text>
</g>
<!-- n8&#45;&gt;n9 -->
<g id="edge3" class="edge">
<title>n8&#45;&gt;n9</title>
<path fill="none" stroke="black" d="M99,-71.7C99,-63.98 99,-54.71 99,-46.11"/>
<polygon fill="black" stroke="black" points="102.5,-46.1 99,-36.1 95.5,-46.1 102.5,-46.1"/>
</g>
<!-- n12 -->
<g id="node13" class="node">
<title>n12</title>
<polygon fill="none" stroke="black" points="270,-180 216,-180 216,-144 270,-144 270,-180"/>
<text text-anchor="middle" x="243" y="-159.5" font-family="Helvetica,sans-Serif" font-size="10.00">factor</text>
</g>
<!-- n11&#45;&gt;n12 -->
<g id="edge9" class="edge">
<title>n11&#45;&gt;n12</title>
<path fill="none" stroke="black" d="M243,-215.7C243,-207.98 243,-198.71 243,-190.11"/>
<polygon fill="black" stroke="black" points="246.5,-190.1 243,-180.1 239.5,-190.1 246.5,-190.1"/>
</g>
<!-- n13 -->
<g id="node14" class="node">
<title>n13</title>
<polygon fill="none" stroke="black" points="270,-108 216,-108 216,-72 270,-72 270,-108"/>
<text text-anchor="middle" x="243" y="-87.5" font-family="Helvetica,sans-Serif" font-size="10.00">1000</text>
</g>
<!-- n12&#45;&gt;n13 -->
<g id="edge8" class="edge">
<title>n12&#45;&gt;n13</title>
<path fill="none" stroke="black" d="M243,-143.7C243,-135.98 243,-126.71 243,-118.11"/>
<polygon fill="black" stroke="black" points="246.5,-118.1 243,-108.1 239.5,-118.1 246.5,-118.1"/>
</g>
<!-- n16 -->
<g id="node17" class="node">
<title>n16</title>
<polygon fill="none" stroke="black" points="454,-396 392,-396 392,-360 454,-360 454,-396"/>
<text text-anchor="middle" x="423" y="-375.5" font-family="Helvetica,sans-Serif" font-size="10.00">printStmt</text>
</g>
<!-- n15&#45;&gt;n16 -->
<g id="edge20" class="edge">
<title>n15&#45;&gt;n16</title>
<path fill="none" stroke="black" d="M371.06,-431.7C379.5,-423.14 389.82,-412.66 399.04,-403.3"/>
<polygon fill="black" stroke="black" points="401.61,-405.68 406.14,-396.1 396.63,-400.77 401.61,-405.68"/>
</g>
<!-- n17 -->
<g id="node18" class="node">
<title>n17</title>
<polygon fill="none" stroke="black" points="342,-324 288,-324 288,-288 342,-288 342,-324"/>
<text text-anchor="middle" x="315" y="-303.5" font-family="Helvetica,sans-Serif" font-size="10.00">print</text>
</g>
<!-- n16&#45;&gt;n17 -->
<g id="edge15" class="edge">
<title>n16&#45;&gt;n17</title>
<path fill="none" stroke="black" d="M396.58,-359.88C382.59,-350.81 365.22,-339.55 350.11,-329.76"/>
<polygon fill="black" stroke="black" points="351.82,-326.69 341.52,-324.19 348.01,-332.57 351.82,-326.69"/>
</g>
<!-- n18 -->
<g id="node19" class="node">
<title>n18</title>
<polygon fill="none" stroke="black" points="414,-324 360,-324 360,-288 414,-288 414,-324"/>
<text text-anchor="middle" x="387" y="-303.5" font-family="Helvetica,sans-Serif" font-size="10.00">(</text>
</g>
<!-- n16&#45;&gt;n18 -->
<g id="edge16" class="edge">
<title>n16&#45;&gt;n18</title>
<path fill="none" stroke="black" d="M414.1,-359.7C410,-351.73 405.05,-342.1 400.51,-333.26"/>
<polygon fill="black" stroke="black" points="403.48,-331.4 395.8,-324.1 397.26,-334.6 403.48,-331.4"/>
</g>
<!-- n19 -->
<g id="node20" class="node">
<title>n19</title>
<polygon fill="none" stroke="black" points="486,-324 432,-324 432,-288 486,-288 486,-324"/>
<text text-anchor="middle" x="459" y="-303.5" font-family="Helvetica,sans-Serif" font-size="10.00">ingreso</text>
</g>
<!-- n16&#45;&gt;n19 -->
<g id="edge17" class="edge">
<title>n16&#45;&gt;n19</title>
<path fill="none" stroke="black" d="M431.9,-359.7C436,-351.73 440.95,-342.1 445.49,-333.26"/>
<polygon fill="black" stroke="black" points="448.74,-334.6 450.2,-324.1 442.52,-331.4 448.74,-334.6"/>
</g>
<!-- n20 -->
<g id="node21" class="node">
<title>n20</title>
<polygon fill="none" stroke="black" points="558,-324 504,-324 504,-288 558,-288 558,-324"/>
<text text-anchor="middle" x="531" y="-303.5" font-family="Helvetica,sans-Serif" font-size="10.00">)</text>
</g>
<!-- n16&#45;&gt;n20 -->
<g id="edge18" class="edge">
<title>n16&#45;&gt;n20</title>
<path fill="none" stroke="black" d="M449.42,-359.88C463.41,-350.81 480.78,-339.55 495.89,-329.76"/>
<polygon fill="black" stroke="black" points="497.99,-332.57 504.48,-324.19 494.18,-326.69 497.99,-332.57"/>
</g>
<!-- n21 -->
<g id="node22" class="node">
<title>n21</title>
<polygon fill="none" stroke="black" points="630,-324 576,-324 576,-288 630,-288 630,-324"/>
<text text-anchor="middle" x="603" y="-303.5" font-family="Helvetica,sans-Serif" font-size="10.00">;</text>
</g>
<!-- n16&#45;&gt;n21 -->
<g id="edge19" class="edge">
<title>n16&#45;&gt;n21</title>
<path fill="none" stroke="black" d="M454.21,-366.41C481.63,-356.91 522.75,-342.19 566.6,-324"/>
<polygon fill="black" stroke="black" points="568.12,-327.16 575.99,-320.07 565.41,-320.7 568.12,-327.16"/>
</g>
</g>
</svg>
