<?xml version="1.0" encoding="UTF-8" standalone="no"?>
<!DOCTYPE svg PUBLIC "-//W3C//DTD SVG 1.1//EN"
 "http://www.w3.org/Graphics/SVG/1.1/DTD/svg11.dtd">
<!-- Generated by graphviz version 2.43.0 (0)
 -->
<!-- Title: ast Pages: 1 -->
<svg width="206pt" height="279pt"
 viewBox="0.00 0.00 206.48 279.28" xmlns="http://www.w3.org/2000/svg" xmlns:xlink="http://www.w3.org/1999/xlink">
<g id="graph0" class="graph" transform="scale(1 1) rotate(0) translate(4 275.28)">
<title>ast</title>
<polygon fill="white" stroke="transparent" points="-4,4 -4,-275.28 202.48,-275.28 202.48,4 -4,4"/>
<!-- n0 -->
<g id="node1" class="node">
<title>n0</title>
<polygon fill="none" stroke="black" points="144,-271.28 86,-271.28 86,-235.28 144,-235.28 144,-271.28"/>
<text text-anchor="middle" x="115" y="-250.78" font-family="Helvetica,sans-Serif" font-size="10.00">Program</text>
</g>
<!-- n1 -->
<g id="node2" class="node">
<title>n1</title>
<polygon fill="none" stroke="black" points="106,-196.07 32,-196.07 32,-160.07 106,-160.07 106,-196.07"/>
<text text-anchor="middle" x="69" y="-181.07" font-family="Helvetica,sans-Serif" font-size="10.00">Assignment</text>
<text text-anchor="middle" x="69" y="-170.07" font-family="Helvetica,sans-Serif" font-size="10.00">ingreso</text>
</g>
<!-- n0&#45;&gt;n1 -->
<g id="edge4" class="edge">
<title>n0&#45;&gt;n1</title>
<path fill="none" stroke="black" d="M104.1,-234.93C98.48,-225.99 91.53,-214.92 85.29,-204.99"/>
<polygon fill="black" stroke="black" points="88.11,-202.9 79.82,-196.29 82.18,-206.62 88.11,-202.9"/>
</g>
<!-- n5 -->
<g id="node6" class="node">
<title>n5</title>
<ellipse fill="none" stroke="black" cx="161" cy="-178.07" rx="37.45" ry="21.43"/>
<text text-anchor="middle" x="161" y="-181.07" font-family="Helvetica,sans-Serif" font-size="10.00">Print</text>
<text text-anchor="middle" x="161" y="-170.07" font-family="Helvetica,sans-Serif" font-size="10.00">ingreso</text>
</g>
<!-- n0&#45;&gt;n5 -->
<g id="edge5" class="edge">
<title>n0&#45;&gt;n5</title>
<path fill="none" stroke="black" d="M125.9,-234.93C131.14,-226.6 137.54,-216.41 143.44,-207.02"/>
<polygon fill="black" stroke="black" points="146.53,-208.68 148.88,-198.35 140.6,-204.96 146.53,-208.68"/>
</g>
<!-- n2 -->
<g id="node3" class="node">
<title>n2</title>
<ellipse fill="none" stroke="black" cx="69" cy="-99.64" rx="32.55" ry="21.43"/>
<text text-anchor="middle" x="69" y="-102.64" font-family="Helvetica,sans-Serif" font-size="10.00">BinOp</text>
<text text-anchor="middle" x="69" y="-91.64" font-family="Helvetica,sans-Serif" font-size="10.00">+</text>
</g>
<!-- n1&#45;&gt;n2 -->
<g id="edge3" class="edge">
<title>n1&#45;&gt;n2</title>
<path fill="none" stroke="black" d="M69,-159.72C69,-151.25 69,-140.8 69,-131.06"/>
<polygon fill="black" stroke="black" points="72.5,-130.89 69,-120.89 65.5,-130.89 72.5,-130.89"/>
</g>
<!-- n3 -->
<g id="node4" class="node">
<title>n3</title>
<ellipse fill="none" stroke="black" cx="27" cy="-21.21" rx="27" ry="21.43"/>
<text text-anchor="middle" x="27" y="-24.21" font-family="Helvetica,sans-Serif" font-size="10.00">Var</text>
<text text-anchor="middle" x="27" y="-13.21" font-family="Helvetica,sans-Serif" font-size="10.00">x</text>
</g>
<!-- n2&#45;&gt;n3 -->
<g id="edge1" class="edge">
<title>n2&#45;&gt;n3</title>
<path fill="none" stroke="black" d="M58.4,-79.35C53.5,-70.44 47.59,-59.69 42.23,-49.93"/>
<polygon fill="black" stroke="black" points="45.19,-48.04 37.3,-40.96 39.05,-51.41 45.19,-48.04"/>
</g>
<!-- n4 -->
<g id="node5" class="node">
<title>n4</title>
<ellipse fill="none" stroke="black" cx="112" cy="-21.21" rx="39.7" ry="21.43"/>
<text text-anchor="middle" x="112" y="-24.21" font-family="Helvetica,sans-Serif" font-size="10.00">Number</text>
<text text-anchor="middle" x="112" y="-13.21" font-family="Helvetica,sans-Serif" font-size="10.00">1000.0</text>
</g>
<!-- n2&#45;&gt;n4 -->
<g id="edge2" class="edge">
<title>n2&#45;&gt;n4</title>
<path fill="none" stroke="black" d="M79.85,-79.35C84.75,-70.64 90.64,-60.17 96.03,-50.59"/>
<polygon fill="black" stroke="black" points="99.15,-52.19 101,-41.76 93.05,-48.76 99.15,-52.19"/>
</g>
</g>
</svg>
