<?xml version="1.0" encoding="UTF-8" standalone="no"?>
<!DOCTYPE svg PUBLIC "-//W3C//DTD SVG 1.1//EN"
 "http://www.w3.org/Graphics/SVG/1.1/DTD/svg11.dtd">
<!-- Generated by graphviz version 2.43.0 (0)
 -->
<!-- Title: ast Pages: 1 -->
<svg width="1089pt" height="515pt"
 viewBox="0.00 0.00 1089.00 514.56" xmlns="http://www.w3.org/2000/svg" xmlns:xlink="http://www.w3.org/1999/xlink">
<g id="graph0" class="graph" transform="scale(1 1) rotate(0) translate(4 510.56)">
<title>ast</title>
<polygon fill="white" stroke="transparent" points="-4,4 -4,-510.56 1085,-510.56 1085,4 -4,4"/>
<!-- n0 -->
<g id="node1" class="node">
<title>n0</title>
<polygon fill="none" stroke="black" points="664,-506.56 606,-506.56 606,-470.56 664,-470.56 664,-506.56"/>
<text text-anchor="middle" x="635" y="-486.06" font-family="Helvetica,sans-Serif" font-size="10.00">Program</text>
</g>
<!-- n1 -->
<g id="node2" class="node">
<title>n1</title>
<polygon fill="none" stroke="black" points="346,-431.35 272,-431.35 272,-395.35 346,-395.35 346,-431.35"/>
<text text-anchor="middle" x="309" y="-416.35" font-family="Helvetica,sans-Serif" font-size="10.00">Assignment</text>
<text text-anchor="middle" x="309" y="-405.35" font-family="Helvetica,sans-Serif" font-size="10.00">a</text>
</g>
<!-- n0&#45;&gt;n1 -->
<g id="edge2" class="edge">
<title>n0&#45;&gt;n1</title>
<path fill="none" stroke="black" d="M605.7,-484.04C554.48,-477.42 445.66,-461.35 357,-434.56 356.56,-434.42 356.11,-434.29 355.67,-434.15"/>
<polygon fill="black" stroke="black" points="356.79,-430.83 346.19,-430.9 354.52,-437.45 356.79,-430.83"/>
</g>
<!-- n3 -->
<g id="node4" class="node">
<title>n3</title>
<polygon fill="none" stroke="black" points="440,-431.35 366,-431.35 366,-395.35 440,-395.35 440,-431.35"/>
<text text-anchor="middle" x="403" y="-416.35" font-family="Helvetica,sans-Serif" font-size="10.00">Assignment</text>
<text text-anchor="middle" x="403" y="-405.35" font-family="Helvetica,sans-Serif" font-size="10.00">b</text>
</g>
<!-- n0&#45;&gt;n3 -->
<g id="edge4" class="edge">
<title>n0&#45;&gt;n3</title>
<path fill="none" stroke="black" d="M605.98,-480.33C569.44,-470.98 504.91,-453.6 451,-434.56 450.55,-434.4 450.1,-434.24 449.65,-434.08"/>
<polygon fill="black" stroke="black" points="450.63,-430.71 440.04,-430.45 448.16,-437.26 450.63,-430.71"/>
</g>
<!-- n5 -->
<g id="node6" class="node">
<title>n5</title>
<polygon fill="none" stroke="black" points="534,-431.35 460,-431.35 460,-395.35 534,-395.35 534,-431.35"/>
<text text-anchor="middle" x="497" y="-416.35" font-family="Helvetica,sans-Serif" font-size="10.00">Assignment</text>
<text text-anchor="middle" x="497" y="-405.35" font-family="Helvetica,sans-Serif" font-size="10.00">c</text>
</g>
<!-- n0&#45;&gt;n5 -->
<g id="edge6" class="edge">
<title>n0&#45;&gt;n5</title>
<path fill="none" stroke="black" d="M605.73,-472.03C586.07,-461.6 559.88,-447.71 538.13,-436.17"/>
<polygon fill="black" stroke="black" points="539.59,-432.98 529.12,-431.38 536.31,-439.16 539.59,-432.98"/>
</g>
<!-- n7 -->
<g id="node8" class="node">
<title>n7</title>
<polygon fill="none" stroke="black" points="626,-431.35 552,-431.35 552,-395.35 626,-395.35 626,-431.35"/>
<text text-anchor="middle" x="589" y="-416.35" font-family="Helvetica,sans-Serif" font-size="10.00">Assignment</text>
<text text-anchor="middle" x="589" y="-405.35" font-family="Helvetica,sans-Serif" font-size="10.00">ingreso</text>
</g>
<!-- n0&#45;&gt;n7 -->
<g id="edge24" class="edge">
<title>n0&#45;&gt;n7</title>
<path fill="none" stroke="black" d="M624.1,-470.21C618.48,-461.27 611.53,-450.2 605.29,-440.27"/>
<polygon fill="black" stroke="black" points="608.11,-438.18 599.82,-431.57 602.18,-441.9 608.11,-438.18"/>
</g>
<!-- n25 -->
<g id="node26" class="node">
<title>n25</title>
<polygon fill="none" stroke="black" points="718,-431.35 644,-431.35 644,-395.35 718,-395.35 718,-431.35"/>
<text text-anchor="middle" x="681" y="-416.35" font-family="Helvetica,sans-Serif" font-size="10.00">Assignment</text>
<text text-anchor="middle" x="681" y="-405.35" font-family="Helvetica,sans-Serif" font-size="10.00">tasa</text>
</g>
<!-- n0&#45;&gt;n25 -->
<g id="edge32" class="edge">
<title>n0&#45;&gt;n25</title>
<path fill="none" stroke="black" d="M645.9,-470.21C651.52,-461.27 658.47,-450.2 664.71,-440.27"/>
<polygon fill="black" stroke="black" points="667.82,-441.9 670.18,-431.57 661.89,-438.18 667.82,-441.9"/>
</g>
<!-- n33 -->
<g id="node34" class="node">
<title>n33</title>
<polygon fill="none" stroke="black" points="810,-431.35 736,-431.35 736,-395.35 810,-395.35 810,-431.35"/>
<text text-anchor="middle" x="773" y="-416.35" font-family="Helvetica,sans-Serif" font-size="10.00">Assignment</text>
<text text-anchor="middle" x="773" y="-405.35" font-family="Helvetica,sans-Serif" font-size="10.00">impuesto</text>
</g>
<!-- n0&#45;&gt;n33 -->
<g id="edge34" class="edge">
<title>n0&#45;&gt;n33</title>
<path fill="none" stroke="black" d="M664.27,-472.03C683.93,-461.6 710.12,-447.71 731.87,-436.17"/>
<polygon fill="black" stroke="black" points="733.69,-439.16 740.88,-431.38 730.41,-432.98 733.69,-439.16"/>
</g>
<!-- n35 -->
<g id="node36" class="node">
<title>n35</title>
<polygon fill="none" stroke="black" points="892,-431.35 838,-431.35 838,-395.35 892,-395.35 892,-431.35"/>
<text text-anchor="middle" x="865" y="-410.85" font-family="Helvetica,sans-Serif" font-size="10.00">Rule</text>
</g>
<!-- n0&#45;&gt;n35 -->
<g id="edge41" class="edge">
<title>n0&#45;&gt;n35</title>
<path fill="none" stroke="black" d="M664.06,-480.47C700.66,-471.25 765.23,-454.02 819,-434.56 822.03,-433.46 825.15,-432.26 828.27,-431"/>
<polygon fill="black" stroke="black" points="829.64,-434.22 837.51,-427.14 826.94,-427.77 829.64,-434.22"/>
</g>
<!-- n42 -->
<g id="node43" class="node">
<title>n42</title>
<ellipse fill="none" stroke="black" cx="954" cy="-413.35" rx="43.68" ry="21.43"/>
<text text-anchor="middle" x="954" y="-416.35" font-family="Helvetica,sans-Serif" font-size="10.00">Print</text>
<text text-anchor="middle" x="954" y="-405.35" font-family="Helvetica,sans-Serif" font-size="10.00">impuesto</text>
</g>
<!-- n0&#45;&gt;n42 -->
<g id="edge42" class="edge">
<title>n0&#45;&gt;n42</title>
<path fill="none" stroke="black" d="M664.11,-483.4C713.45,-475.98 816.39,-458.94 901,-434.56 904.57,-433.53 908.24,-432.37 911.9,-431.13"/>
<polygon fill="black" stroke="black" points="913.24,-434.37 921.5,-427.72 910.9,-427.77 913.24,-434.37"/>
</g>
<!-- n2 -->
<g id="node3" class="node">
<title>n2</title>
<ellipse fill="none" stroke="black" cx="304" cy="-334.92" rx="39.7" ry="21.43"/>
<text text-anchor="middle" x="304" y="-337.92" font-family="Helvetica,sans-Serif" font-size="10.00">Number</text>
<text text-anchor="middle" x="304" y="-326.92" font-family="Helvetica,sans-Serif" font-size="10.00">12345.0</text>
</g>
<!-- n1&#45;&gt;n2 -->
<g id="edge1" class="edge">
<title>n1&#45;&gt;n2</title>
<path fill="none" stroke="black" d="M307.87,-395C307.31,-386.53 306.63,-376.08 305.99,-366.34"/>
<polygon fill="black" stroke="black" points="309.47,-365.92 305.32,-356.17 302.49,-366.38 309.47,-365.92"/>
</g>
<!-- n4 -->
<g id="node5" class="node">
<title>n4</title>
<ellipse fill="none" stroke="black" cx="401" cy="-334.92" rx="39.7" ry="21.43"/>
<text text-anchor="middle" x="401" y="-337.92" font-family="Helvetica,sans-Serif" font-size="10.00">Number</text>
<text text-anchor="middle" x="401" y="-326.92" font-family="Helvetica,sans-Serif" font-size="10.00">6789.0</text>
</g>
<!-- n3&#45;&gt;n4 -->
<g id="edge3" class="edge">
<title>n3&#45;&gt;n4</title>
<path fill="none" stroke="black" d="M402.55,-395C402.32,-386.53 402.05,-376.08 401.8,-366.34"/>
<polygon fill="black" stroke="black" points="405.29,-366.07 401.53,-356.17 398.29,-366.26 405.29,-366.07"/>
</g>
<!-- n6 -->
<g id="node7" class="node">
<title>n6</title>
<ellipse fill="none" stroke="black" cx="498" cy="-334.92" rx="39.7" ry="21.43"/>
<text text-anchor="middle" x="498" y="-337.92" font-family="Helvetica,sans-Serif" font-size="10.00">Number</text>
<text text-anchor="middle" x="498" y="-326.92" font-family="Helvetica,sans-Serif" font-size="10.00">2.75</text>
</g>
<!-- n5&#45;&gt;n6 -->
<g id="edge5" class="edge">
<title>n5&#45;&gt;n6</title>
<path fill="none" stroke="black" d="M497.23,-395C497.34,-386.53 497.47,-376.08 497.6,-366.34"/>
<polygon fill="black" stroke="black" points="501.1,-366.21 497.74,-356.17 494.1,-366.12 501.1,-366.21"/>
</g>
<!-- n8 -->
<g id="node9" class="node">
<title>n8</title>
<ellipse fill="none" stroke="black" cx="588" cy="-334.92" rx="32.55" ry="21.43"/>
<text text-anchor="middle" x="588" y="-337.92" font-family="Helvetica,sans-Serif" font-size="10.00">BinOp</text>
<text text-anchor="middle" x="588" y="-326.92" font-family="Helvetica,sans-Serif" font-size="10.00">+</text>
</g>
<!-- n7&#45;&gt;n8 -->
<g id="edge23" class="edge">
<title>n7&#45;&gt;n8</title>
<path fill="none" stroke="black" d="M588.77,-395C588.66,-386.53 588.53,-376.08 588.4,-366.34"/>
<polygon fill="black" stroke="black" points="591.9,-366.12 588.26,-356.17 584.9,-366.21 591.9,-366.12"/>
</g>
<!-- n9 -->
<g id="node10" class="node">
<title>n9</title>
<ellipse fill="none" stroke="black" cx="238" cy="-256.49" rx="32.55" ry="21.43"/>
<text text-anchor="middle" x="238" y="-259.49" font-family="Helvetica,sans-Serif" font-size="10.00">BinOp</text>
<text text-anchor="middle" x="238" y="-248.49" font-family="Helvetica,sans-Serif" font-size="10.00">/</text>
</g>
<!-- n8&#45;&gt;n9 -->
<g id="edge15" class="edge">
<title>n8&#45;&gt;n9</title>
<path fill="none" stroke="black" d="M563.75,-320.59C558.35,-318.01 552.58,-315.55 547,-313.71 454.69,-283.22 341.07,-267.93 280.61,-261.46"/>
<polygon fill="black" stroke="black" points="280.62,-257.94 270.31,-260.39 279.89,-264.9 280.62,-257.94"/>
</g>
<!-- n18 -->
<g id="node19" class="node">
<title>n18</title>
<ellipse fill="none" stroke="black" cx="496" cy="-256.49" rx="32.55" ry="21.43"/>
<text text-anchor="middle" x="496" y="-259.49" font-family="Helvetica,sans-Serif" font-size="10.00">BinOp</text>
<text text-anchor="middle" x="496" y="-248.49" font-family="Helvetica,sans-Serif" font-size="10.00">*</text>
</g>
<!-- n8&#45;&gt;n18 -->
<g id="edge22" class="edge">
<title>n8&#45;&gt;n18</title>
<path fill="none" stroke="black" d="M568.49,-317.71C555.32,-306.77 537.75,-292.17 523.2,-280.09"/>
<polygon fill="black" stroke="black" points="525.41,-277.37 515.48,-273.68 520.94,-282.76 525.41,-277.37"/>
</g>
<!-- n10 -->
<g id="node11" class="node">
<title>n10</title>
<ellipse fill="none" stroke="black" cx="105" cy="-178.07" rx="32.55" ry="21.43"/>
<text text-anchor="middle" x="105" y="-181.07" font-family="Helvetica,sans-Serif" font-size="10.00">BinOp</text>
<text text-anchor="middle" x="105" y="-170.07" font-family="Helvetica,sans-Serif" font-size="10.00">*</text>
</g>
<!-- n9&#45;&gt;n10 -->
<g id="edge11" class="edge">
<title>n9&#45;&gt;n10</title>
<path fill="none" stroke="black" d="M214.22,-241.83C192.98,-229.62 161.66,-211.62 138,-198.03"/>
<polygon fill="black" stroke="black" points="139.43,-194.82 129.02,-192.87 135.95,-200.89 139.43,-194.82"/>
</g>
<!-- n15 -->
<g id="node16" class="node">
<title>n15</title>
<ellipse fill="none" stroke="black" cx="238" cy="-178.07" rx="32.55" ry="21.43"/>
<text text-anchor="middle" x="238" y="-181.07" font-family="Helvetica,sans-Serif" font-size="10.00">BinOp</text>
<text text-anchor="middle" x="238" y="-170.07" font-family="Helvetica,sans-Serif" font-size="10.00">+</text>
</g>
<!-- n9&#45;&gt;n15 -->
<g id="edge14" class="edge">
<title>n9&#45;&gt;n15</title>
<path fill="none" stroke="black" d="M238,-235.01C238,-227.15 238,-218.01 238,-209.42"/>
<polygon fill="black" stroke="black" points="241.5,-209.34 238,-199.34 234.5,-209.34 241.5,-209.34"/>
</g>
<!-- n11 -->
<g id="node12" class="node">
<title>n11</title>
<ellipse fill="none" stroke="black" cx="27" cy="-99.64" rx="27" ry="21.43"/>
<text text-anchor="middle" x="27" y="-102.64" font-family="Helvetica,sans-Serif" font-size="10.00">Var</text>
<text text-anchor="middle" x="27" y="-91.64" font-family="Helvetica,sans-Serif" font-size="10.00">a</text>
</g>
<!-- n10&#45;&gt;n11 -->
<g id="edge7" class="edge">
<title>n10&#45;&gt;n11</title>
<path fill="none" stroke="black" d="M87.69,-160.1C76.87,-149.5 62.77,-135.69 50.89,-124.05"/>
<polygon fill="black" stroke="black" points="53.05,-121.27 43.46,-116.77 48.15,-126.27 53.05,-121.27"/>
</g>
<!-- n12 -->
<g id="node13" class="node">
<title>n12</title>
<ellipse fill="none" stroke="black" cx="105" cy="-99.64" rx="32.55" ry="21.43"/>
<text text-anchor="middle" x="105" y="-102.64" font-family="Helvetica,sans-Serif" font-size="10.00">BinOp</text>
<text text-anchor="middle" x="105" y="-91.64" font-family="Helvetica,sans-Serif" font-size="10.00">+</text>
</g>
<!-- n10&#45;&gt;n12 -->
<g id="edge10" class="edge">
<title>n10&#45;&gt;n12</title>
<path fill="none" stroke="black" d="M105,-156.59C105,-148.73 105,-139.58 105,-130.99"/>
<polygon fill="black" stroke="black" points="108.5,-130.91 105,-120.91 101.5,-130.91 108.5,-130.91"/>
</g>
<!-- n13 -->
<g id="node14" class="node">
<title>n13</title>
<ellipse fill="none" stroke="black" cx="63" cy="-21.21" rx="27" ry="21.43"/>
<text text-anchor="middle" x="63" y="-24.21" font-family="Helvetica,sans-Serif" font-size="10.00">Var</text>
<text text-anchor="middle" x="63" y="-13.21" font-family="Helvetica,sans-Serif" font-size="10.00">b</text>
</g>
<!-- n12&#45;&gt;n13 -->
<g id="edge8" class="edge">
<title>n12&#45;&gt;n13</title>
<path fill="none" stroke="black" d="M94.4,-79.35C89.5,-70.44 83.59,-59.69 78.23,-49.93"/>
<polygon fill="black" stroke="black" points="81.19,-48.04 73.3,-40.96 75.05,-51.41 81.19,-48.04"/>
</g>
<!-- n14 -->
<g id="node15" class="node">
<title>n14</title>
<ellipse fill="none" stroke="black" cx="148" cy="-21.21" rx="39.7" ry="21.43"/>
<text text-anchor="middle" x="148" y="-24.21" font-family="Helvetica,sans-Serif" font-size="10.00">Number</text>
<text text-anchor="middle" x="148" y="-13.21" font-family="Helvetica,sans-Serif" font-size="10.00">111.0</text>
</g>
<!-- n12&#45;&gt;n14 -->
<g id="edge9" class="edge">
<title>n12&#45;&gt;n14</title>
<path fill="none" stroke="black" d="M115.85,-79.35C120.75,-70.64 126.64,-60.17 132.03,-50.59"/>
<polygon fill="black" stroke="black" points="135.15,-52.19 137,-41.76 129.05,-48.76 135.15,-52.19"/>
</g>
<!-- n16 -->
<g id="node17" class="node">
<title>n16</title>
<ellipse fill="none" stroke="black" cx="195" cy="-99.64" rx="39.7" ry="21.43"/>
<text text-anchor="middle" x="195" y="-102.64" font-family="Helvetica,sans-Serif" font-size="10.00">Number</text>
<text text-anchor="middle" x="195" y="-91.64" font-family="Helvetica,sans-Serif" font-size="10.00">3.0</text>
</g>
<!-- n15&#45;&gt;n16 -->
<g id="edge12" class="edge">
<title>n15&#45;&gt;n16</title>
<path fill="none" stroke="black" d="M227.15,-157.78C222.25,-149.07 216.36,-138.6 210.97,-129.02"/>
<polygon fill="black" stroke="black" points="213.95,-127.18 206,-120.18 207.85,-130.62 213.95,-127.18"/>
</g>
<!-- n17 -->
<g id="node18" class="node">
<title>n17</title>
<ellipse fill="none" stroke="black" cx="280" cy="-99.64" rx="27" ry="21.43"/>
<text text-anchor="middle" x="280" y="-102.64" font-family="Helvetica,sans-Serif" font-size="10.00">Var</text>
<text text-anchor="middle" x="280" y="-91.64" font-family="Helvetica,sans-Serif" font-size="10.00">c</text>
</g>
<!-- n15&#45;&gt;n17 -->
<g id="edge13" class="edge">
<title>n15&#45;&gt;n17</title>
<path fill="none" stroke="black" d="M248.6,-157.78C253.5,-148.87 259.41,-138.11 264.77,-128.35"/>
<polygon fill="black" stroke="black" points="267.95,-129.84 269.7,-119.39 261.81,-126.47 267.95,-129.84"/>
</g>
<!-- n19 -->
<g id="node20" class="node">
<title>n19</title>
<ellipse fill="none" stroke="black" cx="413" cy="-178.07" rx="32.55" ry="21.43"/>
<text text-anchor="middle" x="413" y="-181.07" font-family="Helvetica,sans-Serif" font-size="10.00">BinOp</text>
<text text-anchor="middle" x="413" y="-170.07" font-family="Helvetica,sans-Serif" font-size="10.00">&#45;</text>
</g>
<!-- n18&#45;&gt;n19 -->
<g id="edge18" class="edge">
<title>n18&#45;&gt;n19</title>
<path fill="none" stroke="black" d="M477.58,-238.53C466.11,-227.97 451.19,-214.23 438.58,-202.62"/>
<polygon fill="black" stroke="black" points="440.81,-199.92 431.08,-195.72 436.07,-205.07 440.81,-199.92"/>
</g>
<!-- n22 -->
<g id="node23" class="node">
<title>n22</title>
<ellipse fill="none" stroke="black" cx="496" cy="-178.07" rx="32.55" ry="21.43"/>
<text text-anchor="middle" x="496" y="-181.07" font-family="Helvetica,sans-Serif" font-size="10.00">BinOp</text>
<text text-anchor="middle" x="496" y="-170.07" font-family="Helvetica,sans-Serif" font-size="10.00">+</text>
</g>
<!-- n18&#45;&gt;n22 -->
<g id="edge21" class="edge">
<title>n18&#45;&gt;n22</title>
<path fill="none" stroke="black" d="M496,-235.01C496,-227.15 496,-218.01 496,-209.42"/>
<polygon fill="black" stroke="black" points="499.5,-209.34 496,-199.34 492.5,-209.34 499.5,-209.34"/>
</g>
<!-- n20 -->
<g id="node21" class="node">
<title>n20</title>
<ellipse fill="none" stroke="black" cx="352" cy="-99.64" rx="27" ry="21.43"/>
<text text-anchor="middle" x="352" y="-102.64" font-family="Helvetica,sans-Serif" font-size="10.00">Var</text>
<text text-anchor="middle" x="352" y="-91.64" font-family="Helvetica,sans-Serif" font-size="10.00">a</text>
</g>
<!-- n19&#45;&gt;n20 -->
<g id="edge16" class="edge">
<title>n19&#45;&gt;n20</title>
<path fill="none" stroke="black" d="M398.54,-158.95C390.68,-149.11 380.83,-136.77 372.22,-125.98"/>
<polygon fill="black" stroke="black" points="374.91,-123.73 365.93,-118.1 369.44,-128.09 374.91,-123.73"/>
</g>
<!-- n21 -->
<g id="node22" class="node">
<title>n21</title>
<ellipse fill="none" stroke="black" cx="424" cy="-99.64" rx="27" ry="21.43"/>
<text text-anchor="middle" x="424" y="-102.64" font-family="Helvetica,sans-Serif" font-size="10.00">Var</text>
<text text-anchor="middle" x="424" y="-91.64" font-family="Helvetica,sans-Serif" font-size="10.00">b</text>
</g>
<!-- n19&#45;&gt;n21 -->
<g id="edge17" class="edge">
<title>n19&#45;&gt;n21</title>
<path fill="none" stroke="black" d="M415.95,-156.59C417.08,-148.73 418.4,-139.58 419.63,-130.99"/>
<polygon fill="black" stroke="black" points="423.12,-131.31 421.08,-120.91 416.19,-130.31 423.12,-131.31"/>
</g>
<!-- n23 -->
<g id="node24" class="node">
<title>n23</title>
<ellipse fill="none" stroke="black" cx="496" cy="-99.64" rx="27" ry="21.43"/>
<text text-anchor="middle" x="496" y="-102.64" font-family="Helvetica,sans-Serif" font-size="10.00">Var</text>
<text text-anchor="middle" x="496" y="-91.64" font-family="Helvetica,sans-Serif" font-size="10.00">c</text>
</g>
<!-- n22&#45;&gt;n23 -->
<g id="edge19" class="edge">
<title>n22&#45;&gt;n23</title>
<path fill="none" stroke="black" d="M496,-156.59C496,-148.73 496,-139.58 496,-130.99"/>
<polygon fill="black" stroke="black" points="499.5,-130.91 496,-120.91 492.5,-130.91 499.5,-130.91"/>
</g>
<!-- n24 -->
<g id="node25" class="node">
<title>n24</title>
<ellipse fill="none" stroke="black" cx="581" cy="-99.64" rx="39.7" ry="21.43"/>
<text text-anchor="middle" x="581" y="-102.64" font-family="Helvetica,sans-Serif" font-size="10.00">Number</text>
<text text-anchor="middle" x="581" y="-91.64" font-family="Helvetica,sans-Serif" font-size="10.00">1.25</text>
</g>
<!-- n22&#45;&gt;n24 -->
<g id="edge20" class="edge">
<title>n22&#45;&gt;n24</title>
<path fill="none" stroke="black" d="M514.44,-160.48C525.93,-150.16 540.9,-136.69 553.74,-125.15"/>
<polygon fill="black" stroke="black" points="556.31,-127.54 561.41,-118.25 551.63,-122.34 556.31,-127.54"/>
</g>
<!-- n26 -->
<g id="node27" class="node">
<title>n26</title>
<ellipse fill="none" stroke="black" cx="681" cy="-334.92" rx="32.55" ry="21.43"/>
<text text-anchor="middle" x="681" y="-337.92" font-family="Helvetica,sans-Serif" font-size="10.00">BinOp</text>
<text text-anchor="middle" x="681" y="-326.92" font-family="Helvetica,sans-Serif" font-size="10.00">+</text>
</g>
<!-- n25&#45;&gt;n26 -->
<g id="edge31" class="edge">
<title>n25&#45;&gt;n26</title>
<path fill="none" stroke="black" d="M681,-395C681,-386.53 681,-376.08 681,-366.34"/>
<polygon fill="black" stroke="black" points="684.5,-366.17 681,-356.17 677.5,-366.17 684.5,-366.17"/>
</g>
<!-- n27 -->
<g id="node28" class="node">
<title>n27</title>
<ellipse fill="none" stroke="black" cx="681" cy="-256.49" rx="32.55" ry="21.43"/>
<text text-anchor="middle" x="681" y="-259.49" font-family="Helvetica,sans-Serif" font-size="10.00">BinOp</text>
<text text-anchor="middle" x="681" y="-248.49" font-family="Helvetica,sans-Serif" font-size="10.00">/</text>
</g>
<!-- n26&#45;&gt;n27 -->
<g id="edge27" class="edge">
<title>n26&#45;&gt;n27</title>
<path fill="none" stroke="black" d="M681,-313.44C681,-305.58 681,-296.44 681,-287.84"/>
<polygon fill="black" stroke="black" points="684.5,-287.76 681,-277.76 677.5,-287.76 684.5,-287.76"/>
</g>
<!-- n30 -->
<g id="node31" class="node">
<title>n30</title>
<ellipse fill="none" stroke="black" cx="780" cy="-256.49" rx="32.55" ry="21.43"/>
<text text-anchor="middle" x="780" y="-259.49" font-family="Helvetica,sans-Serif" font-size="10.00">BinOp</text>
<text text-anchor="middle" x="780" y="-248.49" font-family="Helvetica,sans-Serif" font-size="10.00">/</text>
</g>
<!-- n26&#45;&gt;n30 -->
<g id="edge30" class="edge">
<title>n26&#45;&gt;n30</title>
<path fill="none" stroke="black" d="M701.51,-318.08C715.98,-306.91 735.55,-291.81 751.53,-279.47"/>
<polygon fill="black" stroke="black" points="753.74,-282.19 759.51,-273.31 749.46,-276.65 753.74,-282.19"/>
</g>
<!-- n28 -->
<g id="node29" class="node">
<title>n28</title>
<ellipse fill="none" stroke="black" cx="586" cy="-178.07" rx="39.7" ry="21.43"/>
<text text-anchor="middle" x="586" y="-181.07" font-family="Helvetica,sans-Serif" font-size="10.00">Number</text>
<text text-anchor="middle" x="586" y="-170.07" font-family="Helvetica,sans-Serif" font-size="10.00">3.0</text>
</g>
<!-- n27&#45;&gt;n28 -->
<g id="edge25" class="edge">
<title>n27&#45;&gt;n28</title>
<path fill="none" stroke="black" d="M660.85,-239.28C647.53,-228.56 629.84,-214.34 615.01,-202.4"/>
<polygon fill="black" stroke="black" points="617.09,-199.59 607.11,-196.05 612.7,-205.04 617.09,-199.59"/>
</g>
<!-- n29 -->
<g id="node30" class="node">
<title>n29</title>
<ellipse fill="none" stroke="black" cx="683" cy="-178.07" rx="39.7" ry="21.43"/>
<text text-anchor="middle" x="683" y="-181.07" font-family="Helvetica,sans-Serif" font-size="10.00">Number</text>
<text text-anchor="middle" x="683" y="-170.07" font-family="Helvetica,sans-Serif" font-size="10.00">20.0</text>
</g>
<!-- n27&#45;&gt;n29 -->
<g id="edge26" class="edge">
<title>n27&#45;&gt;n29</title>
<path fill="none" stroke="black" d="M681.54,-235.01C681.74,-227.15 681.98,-218.01 682.21,-209.42"/>
<polygon fill="black" stroke="black" points="685.71,-209.43 682.47,-199.34 678.71,-209.24 685.71,-209.43"/>
</g>
<!-- n31 -->
<g id="node32" class="node">
<title>n31</title>
<ellipse fill="none" stroke="black" cx="780" cy="-178.07" rx="39.7" ry="21.43"/>
<text text-anchor="middle" x="780" y="-181.07" font-family="Helvetica,sans-Serif" font-size="10.00">Number</text>
<text text-anchor="middle" x="780" y="-170.07" font-family="Helvetica,sans-Serif" font-size="10.00">7.0</text>
</g>
<!-- n30&#45;&gt;n31 -->
<g id="edge28" class="edge">
<title>n30&#45;&gt;n31</title>
<path fill="none" stroke="black" d="M780,-235.01C780,-227.15 780,-218.01 780,-209.42"/>
<polygon fill="black" stroke="black" points="783.5,-209.34 780,-199.34 776.5,-209.34 783.5,-209.34"/>
</g>
<!-- n32 -->
<g id="node33" class="node">
<title>n32</title>
<ellipse fill="none" stroke="black" cx="877" cy="-178.07" rx="39.7" ry="21.43"/>
<text text-anchor="middle" x="877" y="-181.07" font-family="Helvetica,sans-Serif" font-size="10.00">Number</text>
<text text-anchor="middle" x="877" y="-170.07" font-family="Helvetica,sans-Serif" font-size="10.00">200.0</text>
</g>
<!-- n30&#45;&gt;n32 -->
<g id="edge29" class="edge">
<title>n30&#45;&gt;n32</title>
<path fill="none" stroke="black" d="M800.1,-239.66C813.77,-228.88 832.09,-214.45 847.42,-202.37"/>
<polygon fill="black" stroke="black" points="849.89,-204.88 855.58,-195.94 845.56,-199.38 849.89,-204.88"/>
</g>
<!-- n34 -->
<g id="node35" class="node">
<title>n34</title>
<ellipse fill="none" stroke="black" cx="772" cy="-334.92" rx="39.7" ry="21.43"/>
<text text-anchor="middle" x="772" y="-337.92" font-family="Helvetica,sans-Serif" font-size="10.00">Number</text>
<text text-anchor="middle" x="772" y="-326.92" font-family="Helvetica,sans-Serif" font-size="10.00">0.0</text>
</g>
<!-- n33&#45;&gt;n34 -->
<g id="edge33" class="edge">
<title>n33&#45;&gt;n34</title>
<path fill="none" stroke="black" d="M772.77,-395C772.66,-386.53 772.53,-376.08 772.4,-366.34"/>
<polygon fill="black" stroke="black" points="775.9,-366.12 772.26,-356.17 768.9,-366.21 775.9,-366.12"/>
</g>
<!-- n36 -->
<g id="node37" class="node">
<title>n36</title>
<ellipse fill="none" stroke="black" cx="875" cy="-334.92" rx="45.01" ry="21.43"/>
<text text-anchor="middle" x="875" y="-337.92" font-family="Helvetica,sans-Serif" font-size="10.00">Cond</text>
<text text-anchor="middle" x="875" y="-326.92" font-family="Helvetica,sans-Serif" font-size="10.00">ingreso &gt;</text>
</g>
<!-- n35&#45;&gt;n36 -->
<g id="edge36" class="edge">
<title>n35&#45;&gt;n36</title>
<path fill="none" stroke="black" d="M867.27,-395C868.38,-386.53 869.75,-376.08 871.02,-366.34"/>
<polygon fill="black" stroke="black" points="874.52,-366.54 872.35,-356.17 867.58,-365.63 874.52,-366.54"/>
</g>
<!-- n38 -->
<g id="node39" class="node">
<title>n38</title>
<polygon fill="none" stroke="black" points="1002,-352.92 940,-352.92 940,-316.92 1002,-316.92 1002,-352.92"/>
<text text-anchor="middle" x="971" y="-337.92" font-family="Helvetica,sans-Serif" font-size="10.00">Action</text>
<text text-anchor="middle" x="971" y="-326.92" font-family="Helvetica,sans-Serif" font-size="10.00">impuesto</text>
</g>
<!-- n35&#45;&gt;n38 -->
<g id="edge40" class="edge">
<title>n35&#45;&gt;n38</title>
<path fill="none" stroke="black" d="M888.79,-395.19C903.65,-384.48 922.98,-370.54 939.16,-358.88"/>
<polygon fill="black" stroke="black" points="941.23,-361.7 947.29,-353.01 937.13,-356.02 941.23,-361.7"/>
</g>
<!-- n37 -->
<g id="node38" class="node">
<title>n37</title>
<ellipse fill="none" stroke="black" cx="875" cy="-256.49" rx="43.68" ry="21.43"/>
<text text-anchor="middle" x="875" y="-259.49" font-family="Helvetica,sans-Serif" font-size="10.00">Number</text>
<text text-anchor="middle" x="875" y="-248.49" font-family="Helvetica,sans-Serif" font-size="10.00">100000.0</text>
</g>
<!-- n36&#45;&gt;n37 -->
<g id="edge35" class="edge">
<title>n36&#45;&gt;n37</title>
<path fill="none" stroke="black" d="M875,-313.44C875,-305.58 875,-296.44 875,-287.84"/>
<polygon fill="black" stroke="black" points="878.5,-287.76 875,-277.76 871.5,-287.76 878.5,-287.76"/>
</g>
<!-- n39 -->
<g id="node40" class="node">
<title>n39</title>
<ellipse fill="none" stroke="black" cx="972" cy="-256.49" rx="32.55" ry="21.43"/>
<text text-anchor="middle" x="972" y="-259.49" font-family="Helvetica,sans-Serif" font-size="10.00">BinOp</text>
<text text-anchor="middle" x="972" y="-248.49" font-family="Helvetica,sans-Serif" font-size="10.00">*</text>
</g>
<!-- n38&#45;&gt;n39 -->
<g id="edge39" class="edge">
<title>n38&#45;&gt;n39</title>
<path fill="none" stroke="black" d="M971.23,-316.58C971.34,-308.1 971.47,-297.65 971.6,-287.91"/>
<polygon fill="black" stroke="black" points="975.1,-287.79 971.74,-277.74 968.1,-287.7 975.1,-287.79"/>
</g>
<!-- n40 -->
<g id="node41" class="node">
<title>n40</title>
<ellipse fill="none" stroke="black" cx="972" cy="-178.07" rx="37.45" ry="21.43"/>
<text text-anchor="middle" x="972" y="-181.07" font-family="Helvetica,sans-Serif" font-size="10.00">Var</text>
<text text-anchor="middle" x="972" y="-170.07" font-family="Helvetica,sans-Serif" font-size="10.00">ingreso</text>
</g>
<!-- n39&#45;&gt;n40 -->
<g id="edge37" class="edge">
<title>n39&#45;&gt;n40</title>
<path fill="none" stroke="black" d="M972,-235.01C972,-227.15 972,-218.01 972,-209.42"/>
<polygon fill="black" stroke="black" points="975.5,-209.34 972,-199.34 968.5,-209.34 975.5,-209.34"/>
</g>
<!-- n41 -->
<g id="node42" class="node">
<title>n41</title>
<ellipse fill="none" stroke="black" cx="1054" cy="-178.07" rx="27" ry="21.43"/>
<text text-anchor="middle" x="1054" y="-181.07" font-family="Helvetica,sans-Serif" font-size="10.00">Var</text>
<text text-anchor="middle" x="1054" y="-170.07" font-family="Helvetica,sans-Serif" font-size="10.00">tasa</text>
</g>
<!-- n39&#45;&gt;n41 -->
<g id="edge38" class="edge">
<title>n39&#45;&gt;n41</title>
<path fill="none" stroke="black" d="M990.2,-238.53C1001.76,-227.75 1016.88,-213.66 1029.49,-201.91"/>
<polygon fill="black" stroke="black" points="1032.04,-204.31 1036.97,-194.94 1027.27,-199.19 1032.04,-204.31"/>
</g>
</g>
</svg>
