<?xml version="1.0" encoding="UTF-8" standalone="no"?>
<!DOCTYPE svg PUBLIC "-//W3C//DTD SVG 1.1//EN"
 "http://www.w3.org/Graphics/SVG/1.1/DTD/svg11.dtd">
<!-- Generated by graphviz version 2.43.0 (0)
 -->
<!-- Title: parse Pages: 1 -->
<svg width="1239pt" height="620pt"
 viewBox="0.00 0.00 1239.00 620.00" xmlns="http://www.w3.org/2000/svg" xmlns:xlink="http://www.w3.org/1999/xlink">
<g id="graph0" class="graph" transform="scale(1 1) rotate(0) translate(4 616)">
<title>parse</title>
<polygon fill="white" stroke="transparent" points="-4,4 -4,-616 1235,-616 1235,4 -4,4"/>
<!-- n0 -->
<g id="node1" class="node">
<title>n0</title>
<polygon fill="none" stroke="black" points="679,-612 621,-612 621,-576 679,-576 679,-612"/>
<text text-anchor="middle" x="650" y="-591.5" font-family="Helvetica,sans-Serif" font-size="10.00">program</text>
</g>
<!-- n1 -->
<g id="node2" class="node">
<title>n1</title>
<polygon fill="none" stroke="black" points="343.5,-540 276.5,-540 276.5,-504 343.5,-504 343.5,-540"/>
<text text-anchor="middle" x="310" y="-519.5" font-family="Helvetica,sans-Serif" font-size="10.00">statement</text>
</g>
<!-- n0&#45;&gt;n1 -->
<g id="edge9" class="edge">
<title>n0&#45;&gt;n1</title>
<path fill="none" stroke="black" d="M620.72,-586.97C560.77,-574.63 423.78,-546.43 353.44,-531.94"/>
<polygon fill="black" stroke="black" points="354.06,-528.5 343.56,-529.91 352.65,-535.35 354.06,-528.5"/>
</g>
<!-- n10 -->
<g id="node11" class="node">
<title>n10</title>
<polygon fill="none" stroke="black" points="533.5,-540 466.5,-540 466.5,-504 533.5,-504 533.5,-540"/>
<text text-anchor="middle" x="500" y="-519.5" font-family="Helvetica,sans-Serif" font-size="10.00">statement</text>
</g>
<!-- n0&#45;&gt;n10 -->
<g id="edge18" class="edge">
<title>n0&#45;&gt;n10</title>
<path fill="none" stroke="black" d="M620.72,-579.34C598.57,-569 567.82,-554.65 542.89,-543.02"/>
<polygon fill="black" stroke="black" points="544.2,-539.76 533.65,-538.71 541.24,-546.11 544.2,-539.76"/>
</g>
<!-- n19 -->
<g id="node20" class="node">
<title>n19</title>
<polygon fill="none" stroke="black" points="683.5,-540 616.5,-540 616.5,-504 683.5,-504 683.5,-540"/>
<text text-anchor="middle" x="650" y="-519.5" font-family="Helvetica,sans-Serif" font-size="10.00">statement</text>
</g>
<!-- n0&#45;&gt;n19 -->
<g id="edge42" class="edge">
<title>n0&#45;&gt;n19</title>
<path fill="none" stroke="black" d="M650,-575.7C650,-567.98 650,-558.71 650,-550.11"/>
<polygon fill="black" stroke="black" points="653.5,-550.1 650,-540.1 646.5,-550.1 653.5,-550.1"/>
</g>
<!-- n43 -->
<g id="node44" class="node">
<title>n43</title>
<polygon fill="none" stroke="black" points="768.5,-540 701.5,-540 701.5,-504 768.5,-504 768.5,-540"/>
<text text-anchor="middle" x="735" y="-519.5" font-family="Helvetica,sans-Serif" font-size="10.00">statement</text>
</g>
<!-- n0&#45;&gt;n43 -->
<g id="edge49" class="edge">
<title>n0&#45;&gt;n43</title>
<path fill="none" stroke="black" d="M671.01,-575.7C681.72,-566.88 694.89,-556.03 706.5,-546.47"/>
<polygon fill="black" stroke="black" points="708.74,-549.16 714.23,-540.1 704.29,-543.76 708.74,-549.16"/>
</g>
<!-- n50 -->
<g id="node51" class="node">
<title>n50</title>
<polygon fill="none" stroke="black" points="841,-540 787,-540 787,-504 841,-504 841,-540"/>
<text text-anchor="start" x="804" y="-519.5" font-family="Helvetica,sans-Serif" font-size="10.00">EOF</text>
</g>
<!-- n0&#45;&gt;n50 -->
<g id="edge50" class="edge">
<title>n0&#45;&gt;n50</title>
<path fill="none" stroke="black" d="M679.13,-581.19C704.95,-570.63 743.63,-554.62 777,-540 777.2,-539.91 777.41,-539.82 777.61,-539.73"/>
<polygon fill="black" stroke="black" points="779.27,-542.83 786.97,-535.55 776.41,-536.43 779.27,-542.83"/>
</g>
<!-- n2 -->
<g id="node3" class="node">
<title>n2</title>
<polygon fill="none" stroke="black" points="208,-468 134,-468 134,-432 208,-432 208,-468"/>
<text text-anchor="middle" x="171" y="-447.5" font-family="Helvetica,sans-Serif" font-size="10.00">assignment</text>
</g>
<!-- n1&#45;&gt;n2 -->
<g id="edge8" class="edge">
<title>n1&#45;&gt;n2</title>
<path fill="none" stroke="black" d="M276.35,-504.05C257.54,-494.58 233.9,-482.68 213.78,-472.55"/>
<polygon fill="black" stroke="black" points="215.33,-469.4 204.82,-468.03 212.18,-475.66 215.33,-469.4"/>
</g>
<!-- n3 -->
<g id="node4" class="node">
<title>n3</title>
<polygon fill="none" stroke="black" points="54,-396 0,-396 0,-360 54,-360 54,-396"/>
<text text-anchor="middle" x="27" y="-375.5" font-family="Helvetica,sans-Serif" font-size="10.00">ingreso</text>
</g>
<!-- n2&#45;&gt;n3 -->
<g id="edge1" class="edge">
<title>n2&#45;&gt;n3</title>
<path fill="none" stroke="black" d="M135.77,-431.88C113.77,-421.18 85.51,-407.44 63.3,-396.65"/>
<polygon fill="black" stroke="black" points="64.72,-393.44 54.2,-392.22 61.66,-399.74 64.72,-393.44"/>
</g>
<!-- n4 -->
<g id="node5" class="node">
<title>n4</title>
<polygon fill="none" stroke="black" points="126,-396 72,-396 72,-360 126,-360 126,-396"/>
<text text-anchor="middle" x="99" y="-375.5" font-family="Helvetica,sans-Serif" font-size="10.00">=</text>
</g>
<!-- n2&#45;&gt;n4 -->
<g id="edge2" class="edge">
<title>n2&#45;&gt;n4</title>
<path fill="none" stroke="black" d="M153.2,-431.7C144.4,-423.14 133.62,-412.66 124,-403.3"/>
<polygon fill="black" stroke="black" points="126.2,-400.57 116.59,-396.1 121.32,-405.58 126.2,-400.57"/>
</g>
<!-- n5 -->
<g id="node6" class="node">
<title>n5</title>
<polygon fill="none" stroke="black" points="198,-396 144,-396 144,-360 198,-360 198,-396"/>
<text text-anchor="middle" x="171" y="-375.5" font-family="Helvetica,sans-Serif" font-size="10.00">expr</text>
</g>
<!-- n2&#45;&gt;n5 -->
<g id="edge6" class="edge">
<title>n2&#45;&gt;n5</title>
<path fill="none" stroke="black" d="M171,-431.7C171,-423.98 171,-414.71 171,-406.11"/>
<polygon fill="black" stroke="black" points="174.5,-406.1 171,-396.1 167.5,-406.1 174.5,-406.1"/>
</g>
<!-- n9 -->
<g id="node10" class="node">
<title>n9</title>
<polygon fill="none" stroke="black" points="270,-396 216,-396 216,-360 270,-360 270,-396"/>
<text text-anchor="middle" x="243" y="-375.5" font-family="Helvetica,sans-Serif" font-size="10.00">;</text>
</g>
<!-- n2&#45;&gt;n9 -->
<g id="edge7" class="edge">
<title>n2&#45;&gt;n9</title>
<path fill="none" stroke="black" d="M188.8,-431.7C197.6,-423.14 208.38,-412.66 218,-403.3"/>
<polygon fill="black" stroke="black" points="220.68,-405.58 225.41,-396.1 215.8,-400.57 220.68,-405.58"/>
</g>
<!-- n6 -->
<g id="node7" class="node">
<title>n6</title>
<polygon fill="none" stroke="black" points="198,-324 144,-324 144,-288 198,-288 198,-324"/>
<text text-anchor="middle" x="171" y="-303.5" font-family="Helvetica,sans-Serif" font-size="10.00">term</text>
</g>
<!-- n5&#45;&gt;n6 -->
<g id="edge5" class="edge">
<title>n5&#45;&gt;n6</title>
<path fill="none" stroke="black" d="M171,-359.7C171,-351.98 171,-342.71 171,-334.11"/>
<polygon fill="black" stroke="black" points="174.5,-334.1 171,-324.1 167.5,-334.1 174.5,-334.1"/>
</g>
<!-- n7 -->
<g id="node8" class="node">
<title>n7</title>
<polygon fill="none" stroke="black" points="198,-252 144,-252 144,-216 198,-216 198,-252"/>
<text text-anchor="middle" x="171" y="-231.5" font-family="Helvetica,sans-Serif" font-size="10.00">factor</text>
</g>
<!-- n6&#45;&gt;n7 -->
<g id="edge4" class="edge">
<title>n6&#45;&gt;n7</title>
<path fill="none" stroke="black" d="M171,-287.7C171,-279.98 171,-270.71 171,-262.11"/>
<polygon fill="black" stroke="black" points="174.5,-262.1 171,-252.1 167.5,-262.1 174.5,-262.1"/>
</g>
<!-- n8 -->
<g id="node9" class="node">
<title>n8</title>
<polygon fill="none" stroke="black" points="198,-180 144,-180 144,-144 198,-144 198,-180"/>
<text text-anchor="middle" x="171" y="-159.5" font-family="Helvetica,sans-Serif" font-size="10.00">120000</text>
</g>
<!-- n7&#45;&gt;n8 -->
<g id="edge3" class="edge">
<title>n7&#45;&gt;n8</title>
<path fill="none" stroke="black" d="M171,-215.7C171,-207.98 171,-198.71 171,-190.11"/>
<polygon fill="black" stroke="black" points="174.5,-190.1 171,-180.1 167.5,-190.1 174.5,-190.1"/>
</g>
<!-- n11 -->
<g id="node12" class="node">
<title>n11</title>
<polygon fill="none" stroke="black" points="504,-468 430,-468 430,-432 504,-432 504,-468"/>
<text text-anchor="middle" x="467" y="-447.5" font-family="Helvetica,sans-Serif" font-size="10.00">assignment</text>
</g>
<!-- n10&#45;&gt;n11 -->
<g id="edge17" class="edge">
<title>n10&#45;&gt;n11</title>
<path fill="none" stroke="black" d="M491.84,-503.7C488.09,-495.73 483.55,-486.1 479.38,-477.26"/>
<polygon fill="black" stroke="black" points="482.49,-475.66 475.06,-468.1 476.16,-478.64 482.49,-475.66"/>
</g>
<!-- n12 -->
<g id="node13" class="node">
<title>n12</title>
<polygon fill="none" stroke="black" points="350,-396 288,-396 288,-360 350,-360 350,-396"/>
<text text-anchor="middle" x="319" y="-375.5" font-family="Helvetica,sans-Serif" font-size="10.00">impuesto</text>
</g>
<!-- n11&#45;&gt;n12 -->
<g id="edge10" class="edge">
<title>n11&#45;&gt;n12</title>
<path fill="none" stroke="black" d="M430.8,-431.88C409.23,-421.68 381.81,-408.71 359.52,-398.17"/>
<polygon fill="black" stroke="black" points="360.86,-394.92 350.32,-393.81 357.86,-401.25 360.86,-394.92"/>
</g>
<!-- n13 -->
<g id="node14" class="node">
<title>n13</title>
<polygon fill="none" stroke="black" points="422,-396 368,-396 368,-360 422,-360 422,-396"/>
<text text-anchor="middle" x="395" y="-375.5" font-family="Helvetica,sans-Serif" font-size="10.00">=</text>
</g>
<!-- n11&#45;&gt;n13 -->
<g id="edge11" class="edge">
<title>n11&#45;&gt;n13</title>
<path fill="none" stroke="black" d="M449.2,-431.7C440.4,-423.14 429.62,-412.66 420,-403.3"/>
<polygon fill="black" stroke="black" points="422.2,-400.57 412.59,-396.1 417.32,-405.58 422.2,-400.57"/>
</g>
<!-- n14 -->
<g id="node15" class="node">
<title>n14</title>
<polygon fill="none" stroke="black" points="494,-396 440,-396 440,-360 494,-360 494,-396"/>
<text text-anchor="middle" x="467" y="-375.5" font-family="Helvetica,sans-Serif" font-size="10.00">expr</text>
</g>
<!-- n11&#45;&gt;n14 -->
<g id="edge15" class="edge">
<title>n11&#45;&gt;n14</title>
<path fill="none" stroke="black" d="M467,-431.7C467,-423.98 467,-414.71 467,-406.11"/>
<polygon fill="black" stroke="black" points="470.5,-406.1 467,-396.1 463.5,-406.1 470.5,-406.1"/>
</g>
<!-- n18 -->
<g id="node19" class="node">
<title>n18</title>
<polygon fill="none" stroke="black" points="566,-396 512,-396 512,-360 566,-360 566,-396"/>
<text text-anchor="middle" x="539" y="-375.5" font-family="Helvetica,sans-Serif" font-size="10.00">;</text>
</g>
<!-- n11&#45;&gt;n18 -->
<g id="edge16" class="edge">
<title>n11&#45;&gt;n18</title>
<path fill="none" stroke="black" d="M484.8,-431.7C493.6,-423.14 504.38,-412.66 514,-403.3"/>
<polygon fill="black" stroke="black" points="516.68,-405.58 521.41,-396.1 511.8,-400.57 516.68,-405.58"/>
</g>
<!-- n15 -->
<g id="node16" class="node">
<title>n15</title>
<polygon fill="none" stroke="black" points="484,-324 430,-324 430,-288 484,-288 484,-324"/>
<text text-anchor="middle" x="457" y="-303.5" font-family="Helvetica,sans-Serif" font-size="10.00">term</text>
</g>
<!-- n14&#45;&gt;n15 -->
<g id="edge14" class="edge">
<title>n14&#45;&gt;n15</title>
<path fill="none" stroke="black" d="M464.53,-359.7C463.43,-351.98 462.1,-342.71 460.87,-334.11"/>
<polygon fill="black" stroke="black" points="464.32,-333.51 459.44,-324.1 457.39,-334.5 464.32,-333.51"/>
</g>
<!-- n16 -->
<g id="node17" class="node">
<title>n16</title>
<polygon fill="none" stroke="black" points="484,-252 430,-252 430,-216 484,-216 484,-252"/>
<text text-anchor="middle" x="457" y="-231.5" font-family="Helvetica,sans-Serif" font-size="10.00">factor</text>
</g>
<!-- n15&#45;&gt;n16 -->
<g id="edge13" class="edge">
<title>n15&#45;&gt;n16</title>
<path fill="none" stroke="black" d="M457,-287.7C457,-279.98 457,-270.71 457,-262.11"/>
<polygon fill="black" stroke="black" points="460.5,-262.1 457,-252.1 453.5,-262.1 460.5,-262.1"/>
</g>
<!-- n17 -->
<g id="node18" class="node">
<title>n17</title>
<polygon fill="none" stroke="black" points="484,-180 430,-180 430,-144 484,-144 484,-180"/>
<text text-anchor="middle" x="457" y="-159.5" font-family="Helvetica,sans-Serif" font-size="10.00">0</text>
</g>
<!-- n16&#45;&gt;n17 -->
<g id="edge12" class="edge">
<title>n16&#45;&gt;n17</title>
<path fill="none" stroke="black" d="M457,-215.7C457,-207.98 457,-198.71 457,-190.11"/>
<polygon fill="black" stroke="black" points="460.5,-190.1 457,-180.1 453.5,-190.1 460.5,-190.1"/>
</g>
<!-- n20 -->
<g id="node21" class="node">
<title>n20</title>
<polygon fill="none" stroke="black" points="712.5,-468 653.5,-468 653.5,-432 712.5,-432 712.5,-468"/>
<text text-anchor="middle" x="683" y="-447.5" font-family="Helvetica,sans-Serif" font-size="10.00">ruleStmt</text>
</g>
<!-- n19&#45;&gt;n20 -->
<g id="edge41" class="edge">
<title>n19&#45;&gt;n20</title>
<path fill="none" stroke="black" d="M658.16,-503.7C661.91,-495.73 666.45,-486.1 670.62,-477.26"/>
<polygon fill="black" stroke="black" points="673.84,-478.64 674.94,-468.1 667.51,-475.66 673.84,-478.64"/>
</g>
<!-- n21 -->
<g id="node22" class="node">
<title>n21</title>
<polygon fill="none" stroke="black" points="638,-396 584,-396 584,-360 638,-360 638,-396"/>
<text text-anchor="middle" x="611" y="-375.5" font-family="Helvetica,sans-Serif" font-size="10.00">si</text>
</g>
<!-- n20&#45;&gt;n21 -->
<g id="edge19" class="edge">
<title>n20&#45;&gt;n21</title>
<path fill="none" stroke="black" d="M665.2,-431.7C656.4,-423.14 645.62,-412.66 636,-403.3"/>
<polygon fill="black" stroke="black" points="638.2,-400.57 628.59,-396.1 633.32,-405.58 638.2,-400.57"/>
</g>
<!-- n22 -->
<g id="node23" class="node">
<title>n22</title>
<polygon fill="none" stroke="black" points="710,-396 656,-396 656,-360 710,-360 710,-396"/>
<text text-anchor="middle" x="683" y="-375.5" font-family="Helvetica,sans-Serif" font-size="10.00">cond</text>
</g>
<!-- n20&#45;&gt;n22 -->
<g id="edge27" class="edge">
<title>n20&#45;&gt;n22</title>
<path fill="none" stroke="black" d="M683,-431.7C683,-423.98 683,-414.71 683,-406.11"/>
<polygon fill="black" stroke="black" points="686.5,-406.1 683,-396.1 679.5,-406.1 686.5,-406.1"/>
</g>
<!-- n30 -->
<g id="node31" class="node">
<title>n30</title>
<polygon fill="none" stroke="black" points="782,-396 728,-396 728,-360 782,-360 782,-396"/>
<text text-anchor="middle" x="755" y="-375.5" font-family="Helvetica,sans-Serif" font-size="10.00">:</text>
</g>
<!-- n20&#45;&gt;n30 -->
<g id="edge28" class="edge">
<title>n20&#45;&gt;n30</title>
<path fill="none" stroke="black" d="M700.8,-431.7C709.6,-423.14 720.38,-412.66 730,-403.3"/>
<polygon fill="black" stroke="black" points="732.68,-405.58 737.41,-396.1 727.8,-400.57 732.68,-405.58"/>
</g>
<!-- n31 -->
<g id="node32" class="node">
<title>n31</title>
<polygon fill="none" stroke="black" points="863,-396 809,-396 809,-360 863,-360 863,-396"/>
<text text-anchor="middle" x="836" y="-375.5" font-family="Helvetica,sans-Serif" font-size="10.00">action</text>
</g>
<!-- n20&#45;&gt;n31 -->
<g id="edge40" class="edge">
<title>n20&#45;&gt;n31</title>
<path fill="none" stroke="black" d="M712.86,-435.34C737.65,-424 772.99,-407.83 799.46,-395.72"/>
<polygon fill="black" stroke="black" points="801.14,-398.8 808.78,-391.45 798.23,-392.43 801.14,-398.8"/>
</g>
<!-- n23 -->
<g id="node24" class="node">
<title>n23</title>
<polygon fill="none" stroke="black" points="556,-324 502,-324 502,-288 556,-288 556,-324"/>
<text text-anchor="middle" x="529" y="-303.5" font-family="Helvetica,sans-Serif" font-size="10.00">ingreso</text>
</g>
<!-- n22&#45;&gt;n23 -->
<g id="edge20" class="edge">
<title>n22&#45;&gt;n23</title>
<path fill="none" stroke="black" d="M655.91,-364.11C652.91,-362.71 649.89,-361.32 647,-360 613.47,-344.73 602.79,-341.02 565.58,-324.2"/>
<polygon fill="black" stroke="black" points="566.64,-320.84 556.09,-319.89 563.75,-327.21 566.64,-320.84"/>
</g>
<!-- n24 -->
<g id="node25" class="node">
<title>n24</title>
<polygon fill="none" stroke="black" points="647.5,-324 574.5,-324 574.5,-288 647.5,-288 647.5,-324"/>
<text text-anchor="middle" x="611" y="-303.5" font-family="Helvetica,sans-Serif" font-size="10.00">comparator</text>
</g>
<!-- n22&#45;&gt;n24 -->
<g id="edge22" class="edge">
<title>n22&#45;&gt;n24</title>
<path fill="none" stroke="black" d="M665.2,-359.7C656.4,-351.14 645.62,-340.66 636,-331.3"/>
<polygon fill="black" stroke="black" points="638.2,-328.57 628.59,-324.1 633.32,-333.58 638.2,-328.57"/>
</g>
<!-- n26 -->
<g id="node27" class="node">
<title>n26</title>
<polygon fill="none" stroke="black" points="720,-324 666,-324 666,-288 720,-288 720,-324"/>
<text text-anchor="middle" x="693" y="-303.5" font-family="Helvetica,sans-Serif" font-size="10.00">expr</text>
</g>
<!-- n22&#45;&gt;n26 -->
<g id="edge26" class="edge">
<title>n22&#45;&gt;n26</title>
<path fill="none" stroke="black" d="M685.47,-359.7C686.57,-351.98 687.9,-342.71 689.13,-334.11"/>
<polygon fill="black" stroke="black" points="692.61,-334.5 690.56,-324.1 685.68,-333.51 692.61,-334.5"/>
</g>
<!-- n25 -->
<g id="node26" class="node">
<title>n25</title>
<polygon fill="none" stroke="black" points="638,-252 584,-252 584,-216 638,-216 638,-252"/>
<text text-anchor="middle" x="611" y="-231.5" font-family="Helvetica,sans-Serif" font-size="10.00">&gt;</text>
</g>
<!-- n24&#45;&gt;n25 -->
<g id="edge21" class="edge">
<title>n24&#45;&gt;n25</title>
<path fill="none" stroke="black" d="M611,-287.7C611,-279.98 611,-270.71 611,-262.11"/>
<polygon fill="black" stroke="black" points="614.5,-262.1 611,-252.1 607.5,-262.1 614.5,-262.1"/>
</g>
<!-- n27 -->
<g id="node28" class="node">
<title>n27</title>
<polygon fill="none" stroke="black" points="720,-252 666,-252 666,-216 720,-216 720,-252"/>
<text text-anchor="middle" x="693" y="-231.5" font-family="Helvetica,sans-Serif" font-size="10.00">term</text>
</g>
<!-- n26&#45;&gt;n27 -->
<g id="edge25" class="edge">
<title>n26&#45;&gt;n27</title>
<path fill="none" stroke="black" d="M693,-287.7C693,-279.98 693,-270.71 693,-262.11"/>
<polygon fill="black" stroke="black" points="696.5,-262.1 693,-252.1 689.5,-262.1 696.5,-262.1"/>
</g>
<!-- n28 -->
<g id="node29" class="node">
<title>n28</title>
<polygon fill="none" stroke="black" points="720,-180 666,-180 666,-144 720,-144 720,-180"/>
<text text-anchor="middle" x="693" y="-159.5" font-family="Helvetica,sans-Serif" font-size="10.00">factor</text>
</g>
<!-- n27&#45;&gt;n28 -->
<g id="edge24" class="edge">
<title>n27&#45;&gt;n28</title>
<path fill="none" stroke="black" d="M693,-215.7C693,-207.98 693,-198.71 693,-190.11"/>
<polygon fill="black" stroke="black" points="696.5,-190.1 693,-180.1 689.5,-190.1 696.5,-190.1"/>
</g>
<!-- n29 -->
<g id="node30" class="node">
<title>n29</title>
<polygon fill="none" stroke="black" points="720,-108 666,-108 666,-72 720,-72 720,-108"/>
<text text-anchor="middle" x="693" y="-87.5" font-family="Helvetica,sans-Serif" font-size="10.00">100000</text>
</g>
<!-- n28&#45;&gt;n29 -->
<g id="edge23" class="edge">
<title>n28&#45;&gt;n29</title>
<path fill="none" stroke="black" d="M693,-143.7C693,-135.98 693,-126.71 693,-118.11"/>
<polygon fill="black" stroke="black" points="696.5,-118.1 693,-108.1 689.5,-118.1 696.5,-118.1"/>
</g>
<!-- n32 -->
<g id="node33" class="node">
<title>n32</title>
<polygon fill="none" stroke="black" points="800,-324 738,-324 738,-288 800,-288 800,-324"/>
<text text-anchor="middle" x="769" y="-303.5" font-family="Helvetica,sans-Serif" font-size="10.00">impuesto</text>
</g>
<!-- n31&#45;&gt;n32 -->
<g id="edge29" class="edge">
<title>n31&#45;&gt;n32</title>
<path fill="none" stroke="black" d="M819.44,-359.7C811.32,-351.22 801.41,-340.86 792.53,-331.58"/>
<polygon fill="black" stroke="black" points="794.81,-328.91 785.37,-324.1 789.76,-333.75 794.81,-328.91"/>
</g>
<!-- n33 -->
<g id="node34" class="node">
<title>n33</title>
<polygon fill="none" stroke="black" points="872,-324 818,-324 818,-288 872,-288 872,-324"/>
<text text-anchor="middle" x="845" y="-303.5" font-family="Helvetica,sans-Serif" font-size="10.00">=</text>
</g>
<!-- n31&#45;&gt;n33 -->
<g id="edge30" class="edge">
<title>n31&#45;&gt;n33</title>
<path fill="none" stroke="black" d="M838.22,-359.7C839.22,-351.98 840.41,-342.71 841.51,-334.11"/>
<polygon fill="black" stroke="black" points="845,-334.47 842.8,-324.1 838.05,-333.58 845,-334.47"/>
</g>
<!-- n34 -->
<g id="node35" class="node">
<title>n34</title>
<polygon fill="none" stroke="black" points="944,-324 890,-324 890,-288 944,-288 944,-324"/>
<text text-anchor="middle" x="917" y="-303.5" font-family="Helvetica,sans-Serif" font-size="10.00">expr</text>
</g>
<!-- n31&#45;&gt;n34 -->
<g id="edge38" class="edge">
<title>n31&#45;&gt;n34</title>
<path fill="none" stroke="black" d="M856.02,-359.7C866.13,-350.97 878.54,-340.24 889.52,-330.75"/>
<polygon fill="black" stroke="black" points="891.93,-333.29 897.21,-324.1 887.35,-327.99 891.93,-333.29"/>
</g>
<!-- n42 -->
<g id="node43" class="node">
<title>n42</title>
<polygon fill="none" stroke="black" points="1016,-324 962,-324 962,-288 1016,-288 1016,-324"/>
<text text-anchor="middle" x="989" y="-303.5" font-family="Helvetica,sans-Serif" font-size="10.00">;</text>
</g>
<!-- n31&#45;&gt;n42 -->
<g id="edge39" class="edge">
<title>n31&#45;&gt;n42</title>
<path fill="none" stroke="black" d="M863.1,-364.12C866.1,-362.72 869.11,-361.32 872,-360 905.16,-344.81 915.65,-340.96 952.51,-324.17"/>
<polygon fill="black" stroke="black" points="954.27,-327.22 961.9,-319.88 951.35,-320.85 954.27,-327.22"/>
</g>
<!-- n35 -->
<g id="node36" class="node">
<title>n35</title>
<polygon fill="none" stroke="black" points="944,-252 890,-252 890,-216 944,-216 944,-252"/>
<text text-anchor="middle" x="917" y="-231.5" font-family="Helvetica,sans-Serif" font-size="10.00">term</text>
</g>
<!-- n34&#45;&gt;n35 -->
<g id="edge37" class="edge">
<title>n34&#45;&gt;n35</title>
<path fill="none" stroke="black" d="M917,-287.7C917,-279.98 917,-270.71 917,-262.11"/>
<polygon fill="black" stroke="black" points="920.5,-262.1 917,-252.1 913.5,-262.1 920.5,-262.1"/>
</g>
<!-- n36 -->
<g id="node37" class="node">
<title>n36</title>
<polygon fill="none" stroke="black" points="872,-180 818,-180 818,-144 872,-144 872,-180"/>
<text text-anchor="middle" x="845" y="-159.5" font-family="Helvetica,sans-Serif" font-size="10.00">term</text>
</g>
<!-- n35&#45;&gt;n36 -->
<g id="edge33" class="edge">
<title>n35&#45;&gt;n36</title>
<path fill="none" stroke="black" d="M899.2,-215.7C890.4,-207.14 879.62,-196.66 870,-187.3"/>
<polygon fill="black" stroke="black" points="872.2,-184.57 862.59,-180.1 867.32,-189.58 872.2,-184.57"/>
</g>
<!-- n39 -->
<g id="node40" class="node">
<title>n39</title>
<polygon fill="none" stroke="black" points="944,-180 890,-180 890,-144 944,-144 944,-180"/>
<text text-anchor="middle" x="917" y="-159.5" font-family="Helvetica,sans-Serif" font-size="10.00">*</text>
</g>
<!-- n35&#45;&gt;n39 -->
<g id="edge34" class="edge">
<title>n35&#45;&gt;n39</title>
<path fill="none" stroke="black" d="M917,-215.7C917,-207.98 917,-198.71 917,-190.11"/>
<polygon fill="black" stroke="black" points="920.5,-190.1 917,-180.1 913.5,-190.1 920.5,-190.1"/>
</g>
<!-- n40 -->
<g id="node41" class="node">
<title>n40</title>
<polygon fill="none" stroke="black" points="1016,-180 962,-180 962,-144 1016,-144 1016,-180"/>
<text text-anchor="middle" x="989" y="-159.5" font-family="Helvetica,sans-Serif" font-size="10.00">factor</text>
</g>
<!-- n35&#45;&gt;n40 -->
<g id="edge36" class="edge">
<title>n35&#45;&gt;n40</title>
<path fill="none" stroke="black" d="M934.8,-215.7C943.6,-207.14 954.38,-196.66 964,-187.3"/>
<polygon fill="black" stroke="black" points="966.68,-189.58 971.41,-180.1 961.8,-184.57 966.68,-189.58"/>
</g>
<!-- n37 -->
<g id="node38" class="node">
<title>n37</title>
<polygon fill="none" stroke="black" points="872,-108 818,-108 818,-72 872,-72 872,-108"/>
<text text-anchor="middle" x="845" y="-87.5" font-family="Helvetica,sans-Serif" font-size="10.00">factor</text>
</g>
<!-- n36&#45;&gt;n37 -->
<g id="edge32" class="edge">
<title>n36&#45;&gt;n37</title>
<path fill="none" stroke="black" d="M845,-143.7C845,-135.98 845,-126.71 845,-118.11"/>
<polygon fill="black" stroke="black" points="848.5,-118.1 845,-108.1 841.5,-118.1 848.5,-118.1"/>
</g>
<!-- n38 -->
<g id="node39" class="node">
<title>n38</title>
<polygon fill="none" stroke="black" points="872,-36 818,-36 818,0 872,0 872,-36"/>
<text text-anchor="middle" x="845" y="-15.5" font-family="Helvetica,sans-Serif" font-size="10.00">ingreso</text>
</g>
<!-- n37&#45;&gt;n38 -->
<g id="edge31" class="edge">
<title>n37&#45;&gt;n38</title>
<path fill="none" stroke="black" d="M845,-71.7C845,-63.98 845,-54.71 845,-46.11"/>
<polygon fill="black" stroke="black" points="848.5,-46.1 845,-36.1 841.5,-46.1 848.5,-46.1"/>
</g>
<!-- n41 -->
<g id="node42" class="node">
<title>n41</title>
<polygon fill="none" stroke="black" points="1016,-108 962,-108 962,-72 1016,-72 1016,-108"/>
<text text-anchor="middle" x="989" y="-87.5" font-family="Helvetica,sans-Serif" font-size="10.00">0.2</text>
</g>
<!-- n40&#45;&gt;n41 -->
<g id="edge35" class="edge">
<title>n40&#45;&gt;n41</title>
<path fill="none" stroke="black" d="M989,-143.7C989,-135.98 989,-126.71 989,-118.11"/>
<polygon fill="black" stroke="black" points="992.5,-118.1 989,-108.1 985.5,-118.1 992.5,-118.1"/>
</g>
<!-- n44 -->
<g id="node45" class="node">
<title>n44</title>
<polygon fill="none" stroke="black" points="1049,-468 987,-468 987,-432 1049,-432 1049,-468"/>
<text text-anchor="middle" x="1018" y="-447.5" font-family="Helvetica,sans-Serif" font-size="10.00">printStmt</text>
</g>
<!-- n43&#45;&gt;n44 -->
<g id="edge48" class="edge">
<title>n43&#45;&gt;n44</title>
<path fill="none" stroke="black" d="M768.62,-507.12C771.77,-506 774.93,-504.94 778,-504 846.62,-483.01 928.64,-466.72 976.86,-458.02"/>
<polygon fill="black" stroke="black" points="977.68,-461.43 986.91,-456.23 976.45,-454.54 977.68,-461.43"/>
</g>
<!-- n45 -->
<g id="node46" class="node">
<title>n45</title>
<polygon fill="none" stroke="black" points="935,-396 881,-396 881,-360 935,-360 935,-396"/>
<text text-anchor="middle" x="908" y="-375.5" font-family="Helvetica,sans-Serif" font-size="10.00">print</text>
</g>
<!-- n44&#45;&gt;n45 -->
<g id="edge43" class="edge">
<title>n44&#45;&gt;n45</title>
<path fill="none" stroke="black" d="M991.09,-431.88C976.84,-422.81 959.15,-411.55 943.76,-401.76"/>
<polygon fill="black" stroke="black" points="945.33,-398.61 935.01,-396.19 941.57,-404.51 945.33,-398.61"/>
</g>
<!-- n46 -->
<g id="node47" class="node">
<title>n46</title>
<polygon fill="none" stroke="black" points="1007,-396 953,-396 953,-360 1007,-360 1007,-396"/>
<text text-anchor="middle" x="980" y="-375.5" font-family="Helvetica,sans-Serif" font-size="10.00">(</text>
</g>
<!-- n44&#45;&gt;n46 -->
<g id="edge44" class="edge">
<title>n44&#45;&gt;n46</title>
<path fill="none" stroke="black" d="M1008.61,-431.7C1004.24,-423.64 998.94,-413.89 994.1,-404.98"/>
<polygon fill="black" stroke="black" points="997.13,-403.22 989.29,-396.1 990.98,-406.56 997.13,-403.22"/>
</g>
<!-- n47 -->
<g id="node48" class="node">
<title>n47</title>
<polygon fill="none" stroke="black" points="1087,-396 1025,-396 1025,-360 1087,-360 1087,-396"/>
<text text-anchor="middle" x="1056" y="-375.5" font-family="Helvetica,sans-Serif" font-size="10.00">impuesto</text>
</g>
<!-- n44&#45;&gt;n47 -->
<g id="edge45" class="edge">
<title>n44&#45;&gt;n47</title>
<path fill="none" stroke="black" d="M1027.39,-431.7C1031.76,-423.64 1037.06,-413.89 1041.9,-404.98"/>
<polygon fill="black" stroke="black" points="1045.02,-406.56 1046.71,-396.1 1038.87,-403.22 1045.02,-406.56"/>
</g>
<!-- n48 -->
<g id="node49" class="node">
<title>n48</title>
<polygon fill="none" stroke="black" points="1159,-396 1105,-396 1105,-360 1159,-360 1159,-396"/>
<text text-anchor="middle" x="1132" y="-375.5" font-family="Helvetica,sans-Serif" font-size="10.00">)</text>
</g>
<!-- n44&#45;&gt;n48 -->
<g id="edge46" class="edge">
<title>n44&#45;&gt;n48</title>
<path fill="none" stroke="black" d="M1045.89,-431.88C1061.02,-422.59 1079.88,-411 1096.1,-401.04"/>
<polygon fill="black" stroke="black" points="1098.1,-403.92 1104.79,-395.71 1094.44,-397.96 1098.1,-403.92"/>
</g>
<!-- n49 -->
<g id="node50" class="node">
<title>n49</title>
<polygon fill="none" stroke="black" points="1231,-396 1177,-396 1177,-360 1231,-360 1231,-396"/>
<text text-anchor="middle" x="1204" y="-375.5" font-family="Helvetica,sans-Serif" font-size="10.00">;</text>
</g>
<!-- n44&#45;&gt;n49 -->
<g id="edge47" class="edge">
<title>n44&#45;&gt;n49</title>
<path fill="none" stroke="black" d="M1049.08,-439.04C1077.69,-429.65 1121.42,-414.74 1167.14,-396.17"/>
<polygon fill="black" stroke="black" points="1168.69,-399.32 1176.61,-392.28 1166.03,-392.84 1168.69,-399.32"/>
</g>
</g>
</svg>
