<?xml version="1.0" encoding="UTF-8" standalone="no"?>
<!DOCTYPE svg PUBLIC "-//W3C//DTD SVG 1.1//EN"
 "http://www.w3.org/Graphics/SVG/1.1/DTD/svg11.dtd">
<!-- Generated by graphviz version 2.43.0 (0)
 -->
<!-- Title: ast Pages: 1 -->
<svg width="436pt" height="358pt"
 viewBox="0.00 0.00 436.44 357.71" xmlns="http://www.w3.org/2000/svg" xmlns:xlink="http://www.w3.org/1999/xlink">
<g id="graph0" class="graph" transform="scale(1 1) rotate(0) translate(4 353.71)">
<title>ast</title>
<polygon fill="white" stroke="transparent" points="-4,4 -4,-353.71 432.44,-353.71 432.44,4 -4,4"/>
<!-- n0 -->
<g id="node1" class="node">
<title>n0</title>
<polygon fill="none" stroke="black" points="219.84,-349.71 161.84,-349.71 161.84,-313.71 219.84,-313.71 219.84,-349.71"/>
<text text-anchor="middle" x="190.84" y="-329.21" font-family="Helvetica,sans-Serif" font-size="10.00">Program</text>
</g>
<!-- n1 -->
<g id="node2" class="node">
<title>n1</title>
<polygon fill="none" stroke="black" points="90.84,-274.49 16.84,-274.49 16.84,-238.49 90.84,-238.49 90.84,-274.49"/>
<text text-anchor="middle" x="53.84" y="-259.49" font-family="Helvetica,sans-Serif" font-size="10.00">Assignment</text>
<text text-anchor="middle" x="53.84" y="-248.49" font-family="Helvetica,sans-Serif" font-size="10.00">ingreso</text>
</g>
<!-- n0&#45;&gt;n1 -->
<g id="edge2" class="edge">
<title>n0&#45;&gt;n1</title>
<path fill="none" stroke="black" d="M161.79,-315.18C142.27,-304.75 116.27,-290.85 94.68,-279.31"/>
<polygon fill="black" stroke="black" points="96.19,-276.16 85.72,-274.53 92.89,-282.33 96.19,-276.16"/>
</g>
<!-- n3 -->
<g id="node4" class="node">
<title>n3</title>
<polygon fill="none" stroke="black" points="186.84,-274.49 112.84,-274.49 112.84,-238.49 186.84,-238.49 186.84,-274.49"/>
<text text-anchor="middle" x="149.84" y="-259.49" font-family="Helvetica,sans-Serif" font-size="10.00">Assignment</text>
<text text-anchor="middle" x="149.84" y="-248.49" font-family="Helvetica,sans-Serif" font-size="10.00">impuesto</text>
</g>
<!-- n0&#45;&gt;n3 -->
<g id="edge4" class="edge">
<title>n0&#45;&gt;n3</title>
<path fill="none" stroke="black" d="M181.12,-313.36C176.17,-304.51 170.04,-293.57 164.53,-283.72"/>
<polygon fill="black" stroke="black" points="167.43,-281.73 159.49,-274.72 161.32,-285.15 167.43,-281.73"/>
</g>
<!-- n5 -->
<g id="node6" class="node">
<title>n5</title>
<polygon fill="none" stroke="black" points="268.84,-274.49 214.84,-274.49 214.84,-238.49 268.84,-238.49 268.84,-274.49"/>
<text text-anchor="middle" x="241.84" y="-253.99" font-family="Helvetica,sans-Serif" font-size="10.00">Rule</text>
</g>
<!-- n0&#45;&gt;n5 -->
<g id="edge11" class="edge">
<title>n0&#45;&gt;n5</title>
<path fill="none" stroke="black" d="M202.93,-313.36C209.21,-304.33 217.02,-293.12 223.99,-283.11"/>
<polygon fill="black" stroke="black" points="227,-284.92 229.84,-274.72 221.25,-280.92 227,-284.92"/>
</g>
<!-- n12 -->
<g id="node13" class="node">
<title>n12</title>
<ellipse fill="none" stroke="black" cx="330.84" cy="-256.49" rx="43.68" ry="21.43"/>
<text text-anchor="middle" x="330.84" y="-259.49" font-family="Helvetica,sans-Serif" font-size="10.00">Print</text>
<text text-anchor="middle" x="330.84" y="-248.49" font-family="Helvetica,sans-Serif" font-size="10.00">impuesto</text>
</g>
<!-- n0&#45;&gt;n12 -->
<g id="edge12" class="edge">
<title>n0&#45;&gt;n12</title>
<path fill="none" stroke="black" d="M219.85,-315.54C240.97,-304.49 269.77,-289.43 292.74,-277.42"/>
<polygon fill="black" stroke="black" points="294.63,-280.38 301.87,-272.64 291.39,-274.18 294.63,-280.38"/>
</g>
<!-- n2 -->
<g id="node3" class="node">
<title>n2</title>
<ellipse fill="none" stroke="black" cx="43.84" cy="-178.07" rx="43.68" ry="21.43"/>
<text text-anchor="middle" x="43.84" y="-181.07" font-family="Helvetica,sans-Serif" font-size="10.00">Number</text>
<text text-anchor="middle" x="43.84" y="-170.07" font-family="Helvetica,sans-Serif" font-size="10.00">120000.0</text>
</g>
<!-- n1&#45;&gt;n2 -->
<g id="edge1" class="edge">
<title>n1&#45;&gt;n2</title>
<path fill="none" stroke="black" d="M51.57,-238.15C50.46,-229.68 49.1,-219.23 47.82,-209.48"/>
<polygon fill="black" stroke="black" points="51.26,-208.78 46.49,-199.32 44.32,-209.69 51.26,-208.78"/>
</g>
<!-- n4 -->
<g id="node5" class="node">
<title>n4</title>
<ellipse fill="none" stroke="black" cx="144.84" cy="-178.07" rx="39.7" ry="21.43"/>
<text text-anchor="middle" x="144.84" y="-181.07" font-family="Helvetica,sans-Serif" font-size="10.00">Number</text>
<text text-anchor="middle" x="144.84" y="-170.07" font-family="Helvetica,sans-Serif" font-size="10.00">0.0</text>
</g>
<!-- n3&#45;&gt;n4 -->
<g id="edge3" class="edge">
<title>n3&#45;&gt;n4</title>
<path fill="none" stroke="black" d="M148.71,-238.15C148.15,-229.68 147.47,-219.23 146.83,-209.48"/>
<polygon fill="black" stroke="black" points="150.31,-209.07 146.17,-199.32 143.33,-209.52 150.31,-209.07"/>
</g>
<!-- n6 -->
<g id="node7" class="node">
<title>n6</title>
<ellipse fill="none" stroke="black" cx="247.84" cy="-178.07" rx="45.01" ry="21.43"/>
<text text-anchor="middle" x="247.84" y="-181.07" font-family="Helvetica,sans-Serif" font-size="10.00">Cond</text>
<text text-anchor="middle" x="247.84" y="-170.07" font-family="Helvetica,sans-Serif" font-size="10.00">ingreso &gt;</text>
</g>
<!-- n5&#45;&gt;n6 -->
<g id="edge6" class="edge">
<title>n5&#45;&gt;n6</title>
<path fill="none" stroke="black" d="M243.2,-238.15C243.87,-229.68 244.69,-219.23 245.45,-209.48"/>
<polygon fill="black" stroke="black" points="248.96,-209.56 246.25,-199.32 241.98,-209.01 248.96,-209.56"/>
</g>
<!-- n8 -->
<g id="node9" class="node">
<title>n8</title>
<polygon fill="none" stroke="black" points="372.84,-196.07 310.84,-196.07 310.84,-160.07 372.84,-160.07 372.84,-196.07"/>
<text text-anchor="middle" x="341.84" y="-181.07" font-family="Helvetica,sans-Serif" font-size="10.00">Action</text>
<text text-anchor="middle" x="341.84" y="-170.07" font-family="Helvetica,sans-Serif" font-size="10.00">impuesto</text>
</g>
<!-- n5&#45;&gt;n8 -->
<g id="edge10" class="edge">
<title>n5&#45;&gt;n8</title>
<path fill="none" stroke="black" d="M264.53,-238.15C278.44,-227.52 296.41,-213.79 311.52,-202.24"/>
<polygon fill="black" stroke="black" points="313.76,-204.93 319.58,-196.08 309.51,-199.37 313.76,-204.93"/>
</g>
<!-- n7 -->
<g id="node8" class="node">
<title>n7</title>
<ellipse fill="none" stroke="black" cx="247.84" cy="-99.64" rx="43.68" ry="21.43"/>
<text text-anchor="middle" x="247.84" y="-102.64" font-family="Helvetica,sans-Serif" font-size="10.00">Number</text>
<text text-anchor="middle" x="247.84" y="-91.64" font-family="Helvetica,sans-Serif" font-size="10.00">100000.0</text>
</g>
<!-- n6&#45;&gt;n7 -->
<g id="edge5" class="edge">
<title>n6&#45;&gt;n7</title>
<path fill="none" stroke="black" d="M247.84,-156.59C247.84,-148.73 247.84,-139.58 247.84,-130.99"/>
<polygon fill="black" stroke="black" points="251.34,-130.91 247.84,-120.91 244.34,-130.91 251.34,-130.91"/>
</g>
<!-- n9 -->
<g id="node10" class="node">
<title>n9</title>
<ellipse fill="none" stroke="black" cx="341.84" cy="-99.64" rx="32.55" ry="21.43"/>
<text text-anchor="middle" x="341.84" y="-102.64" font-family="Helvetica,sans-Serif" font-size="10.00">BinOp</text>
<text text-anchor="middle" x="341.84" y="-91.64" font-family="Helvetica,sans-Serif" font-size="10.00">*</text>
</g>
<!-- n8&#45;&gt;n9 -->
<g id="edge9" class="edge">
<title>n8&#45;&gt;n9</title>
<path fill="none" stroke="black" d="M341.84,-159.72C341.84,-151.25 341.84,-140.8 341.84,-131.06"/>
<polygon fill="black" stroke="black" points="345.34,-130.89 341.84,-120.89 338.34,-130.89 345.34,-130.89"/>
</g>
<!-- n10 -->
<g id="node11" class="node">
<title>n10</title>
<ellipse fill="none" stroke="black" cx="293.84" cy="-21.21" rx="37.45" ry="21.43"/>
<text text-anchor="middle" x="293.84" y="-24.21" font-family="Helvetica,sans-Serif" font-size="10.00">Var</text>
<text text-anchor="middle" x="293.84" y="-13.21" font-family="Helvetica,sans-Serif" font-size="10.00">ingreso</text>
</g>
<!-- n9&#45;&gt;n10 -->
<g id="edge7" class="edge">
<title>n9&#45;&gt;n10</title>
<path fill="none" stroke="black" d="M329.98,-79.75C324.36,-70.81 317.55,-59.97 311.36,-50.11"/>
<polygon fill="black" stroke="black" points="314.19,-48.03 305.9,-41.42 308.26,-51.75 314.19,-48.03"/>
</g>
<!-- n11 -->
<g id="node12" class="node">
<title>n11</title>
<ellipse fill="none" stroke="black" cx="388.84" cy="-21.21" rx="39.7" ry="21.43"/>
<text text-anchor="middle" x="388.84" y="-24.21" font-family="Helvetica,sans-Serif" font-size="10.00">Number</text>
<text text-anchor="middle" x="388.84" y="-13.21" font-family="Helvetica,sans-Serif" font-size="10.00">0.2</text>
</g>
<!-- n9&#45;&gt;n11 -->
<g id="edge8" class="edge">
<title>n9&#45;&gt;n11</title>
<path fill="none" stroke="black" d="M353.46,-79.75C358.91,-70.88 365.52,-60.13 371.55,-50.33"/>
<polygon fill="black" stroke="black" points="374.61,-52.04 376.87,-41.69 368.65,-48.37 374.61,-52.04"/>
</g>
</g>
</svg>
