<?xml version="1.0" encoding="UTF-8" standalone="no"?>
<!DOCTYPE svg PUBLIC "-//W3C//DTD SVG 1.1//EN"
 "http://www.w3.org/Graphics/SVG/1.1/DTD/svg11.dtd">
<!-- Generated by graphviz version 2.43.0 (0)
 -->
<!-- Title: ast Pages: 1 -->
<svg width="448pt" height="358pt"
 viewBox="0.00 0.00 448.44 357.71" xmlns="http://www.w3.org/2000/svg" xmlns:xlink="http://www.w3.org/1999/xlink">
<g id="graph0" class="graph" transform="scale(1 1) rotate(0) translate(4 353.71)">
<title>ast</title>
<polygon fill="white" stroke="transparent" points="-4,4 -4,-353.71 444.44,-353.71 444.44,4 -4,4"/>
<!-- n0 -->
<g id="node1" class="node">
<title>n0</title>
<polygon fill="none" stroke="black" points="221.84,-349.71 163.84,-349.71 163.84,-313.71 221.84,-313.71 221.84,-349.71"/>
<text text-anchor="middle" x="192.84" y="-329.21" font-family="Helvetica,sans-Serif" font-size="10.00">Program</text>
</g>
<!-- n1 -->
<g id="node2" class="node">
<title>n1</title>
<polygon fill="none" stroke="black" points="92.84,-274.49 18.84,-274.49 18.84,-238.49 92.84,-238.49 92.84,-274.49"/>
<text text-anchor="middle" x="55.84" y="-259.49" font-family="Helvetica,sans-Serif" font-size="10.00">Assignment</text>
<text text-anchor="middle" x="55.84" y="-248.49" font-family="Helvetica,sans-Serif" font-size="10.00">ingreso</text>
</g>
<!-- n0&#45;&gt;n1 -->
<g id="edge2" class="edge">
<title>n0&#45;&gt;n1</title>
<path fill="none" stroke="black" d="M163.79,-315.18C144.27,-304.75 118.27,-290.85 96.68,-279.31"/>
<polygon fill="black" stroke="black" points="98.19,-276.16 87.72,-274.53 94.89,-282.33 98.19,-276.16"/>
</g>
<!-- n3 -->
<g id="node4" class="node">
<title>n3</title>
<polygon fill="none" stroke="black" points="188.84,-274.49 114.84,-274.49 114.84,-238.49 188.84,-238.49 188.84,-274.49"/>
<text text-anchor="middle" x="151.84" y="-259.49" font-family="Helvetica,sans-Serif" font-size="10.00">Assignment</text>
<text text-anchor="middle" x="151.84" y="-248.49" font-family="Helvetica,sans-Serif" font-size="10.00">impuesto</text>
</g>
<!-- n0&#45;&gt;n3 -->
<g id="edge4" class="edge">
<title>n0&#45;&gt;n3</title>
<path fill="none" stroke="black" d="M183.12,-313.36C178.17,-304.51 172.04,-293.57 166.53,-283.72"/>
<polygon fill="black" stroke="black" points="169.43,-281.73 161.49,-274.72 163.32,-285.15 169.43,-281.73"/>
</g>
<!-- n5 -->
<g id="node6" class="node">
<title>n5</title>
<polygon fill="none" stroke="black" points="273.84,-274.49 219.84,-274.49 219.84,-238.49 273.84,-238.49 273.84,-274.49"/>
<text text-anchor="middle" x="246.84" y="-253.99" font-family="Helvetica,sans-Serif" font-size="10.00">Rule</text>
</g>
<!-- n0&#45;&gt;n5 -->
<g id="edge11" class="edge">
<title>n0&#45;&gt;n5</title>
<path fill="none" stroke="black" d="M205.64,-313.36C212.36,-304.24 220.73,-292.89 228.17,-282.81"/>
<polygon fill="black" stroke="black" points="231.02,-284.84 234.14,-274.72 225.38,-280.69 231.02,-284.84"/>
</g>
<!-- n12 -->
<g id="node13" class="node">
<title>n12</title>
<ellipse fill="none" stroke="black" cx="335.84" cy="-256.49" rx="43.68" ry="21.43"/>
<text text-anchor="middle" x="335.84" y="-259.49" font-family="Helvetica,sans-Serif" font-size="10.00">Print</text>
<text text-anchor="middle" x="335.84" y="-248.49" font-family="Helvetica,sans-Serif" font-size="10.00">impuesto</text>
</g>
<!-- n0&#45;&gt;n12 -->
<g id="edge12" class="edge">
<title>n0&#45;&gt;n12</title>
<path fill="none" stroke="black" d="M222.12,-315.71C243.91,-304.56 273.84,-289.24 297.53,-277.11"/>
<polygon fill="black" stroke="black" points="299.29,-280.14 306.6,-272.46 296.1,-273.91 299.29,-280.14"/>
</g>
<!-- n2 -->
<g id="node3" class="node">
<title>n2</title>
<ellipse fill="none" stroke="black" cx="43.84" cy="-178.07" rx="43.68" ry="21.43"/>
<text text-anchor="middle" x="43.84" y="-181.07" font-family="Helvetica,sans-Serif" font-size="10.00">Number</text>
<text text-anchor="middle" x="43.84" y="-170.07" font-family="Helvetica,sans-Serif" font-size="10.00">100000.0</text>
</g>
<!-- n1&#45;&gt;n2 -->
<g id="edge1" class="edge">
<title>n1&#45;&gt;n2</title>
<path fill="none" stroke="black" d="M53.12,-238.15C51.79,-229.68 50.15,-219.23 48.62,-209.48"/>
<polygon fill="black" stroke="black" points="52.03,-208.65 47.02,-199.32 45.11,-209.74 52.03,-208.65"/>
</g>
<!-- n4 -->
<g id="node5" class="node">
<title>n4</title>
<ellipse fill="none" stroke="black" cx="144.84" cy="-178.07" rx="39.7" ry="21.43"/>
<text text-anchor="middle" x="144.84" y="-181.07" font-family="Helvetica,sans-Serif" font-size="10.00">Number</text>
<text text-anchor="middle" x="144.84" y="-170.07" font-family="Helvetica,sans-Serif" font-size="10.00">0.0</text>
</g>
<!-- n3&#45;&gt;n4 -->
<g id="edge3" class="edge">
<title>n3&#45;&gt;n4</title>
<path fill="none" stroke="black" d="M150.25,-238.15C149.48,-229.68 148.52,-219.23 147.63,-209.48"/>
<polygon fill="black" stroke="black" points="151.09,-208.96 146.7,-199.32 144.12,-209.59 151.09,-208.96"/>
</g>
<!-- n6 -->
<g id="node7" class="node">
<title>n6</title>
<ellipse fill="none" stroke="black" cx="253.84" cy="-178.07" rx="50.82" ry="21.43"/>
<text text-anchor="middle" x="253.84" y="-181.07" font-family="Helvetica,sans-Serif" font-size="10.00">Cond</text>
<text text-anchor="middle" x="253.84" y="-170.07" font-family="Helvetica,sans-Serif" font-size="10.00">ingreso &gt;=</text>
</g>
<!-- n5&#45;&gt;n6 -->
<g id="edge6" class="edge">
<title>n5&#45;&gt;n6</title>
<path fill="none" stroke="black" d="M248.43,-238.15C249.21,-229.68 250.16,-219.23 251.05,-209.48"/>
<polygon fill="black" stroke="black" points="254.56,-209.59 251.99,-199.32 247.59,-208.96 254.56,-209.59"/>
</g>
<!-- n8 -->
<g id="node9" class="node">
<title>n8</title>
<polygon fill="none" stroke="black" points="384.84,-196.07 322.84,-196.07 322.84,-160.07 384.84,-160.07 384.84,-196.07"/>
<text text-anchor="middle" x="353.84" y="-181.07" font-family="Helvetica,sans-Serif" font-size="10.00">Action</text>
<text text-anchor="middle" x="353.84" y="-170.07" font-family="Helvetica,sans-Serif" font-size="10.00">impuesto</text>
</g>
<!-- n5&#45;&gt;n8 -->
<g id="edge10" class="edge">
<title>n5&#45;&gt;n8</title>
<path fill="none" stroke="black" d="M270.85,-238.34C285.86,-227.62 305.37,-213.69 321.7,-202.02"/>
<polygon fill="black" stroke="black" points="323.8,-204.82 329.91,-196.16 319.74,-199.12 323.8,-204.82"/>
</g>
<!-- n7 -->
<g id="node8" class="node">
<title>n7</title>
<ellipse fill="none" stroke="black" cx="253.84" cy="-99.64" rx="43.68" ry="21.43"/>
<text text-anchor="middle" x="253.84" y="-102.64" font-family="Helvetica,sans-Serif" font-size="10.00">Number</text>
<text text-anchor="middle" x="253.84" y="-91.64" font-family="Helvetica,sans-Serif" font-size="10.00">100000.0</text>
</g>
<!-- n6&#45;&gt;n7 -->
<g id="edge5" class="edge">
<title>n6&#45;&gt;n7</title>
<path fill="none" stroke="black" d="M253.84,-156.59C253.84,-148.73 253.84,-139.58 253.84,-130.99"/>
<polygon fill="black" stroke="black" points="257.34,-130.91 253.84,-120.91 250.34,-130.91 257.34,-130.91"/>
</g>
<!-- n9 -->
<g id="node10" class="node">
<title>n9</title>
<ellipse fill="none" stroke="black" cx="353.84" cy="-99.64" rx="32.55" ry="21.43"/>
<text text-anchor="middle" x="353.84" y="-102.64" font-family="Helvetica,sans-Serif" font-size="10.00">BinOp</text>
<text text-anchor="middle" x="353.84" y="-91.64" font-family="Helvetica,sans-Serif" font-size="10.00">*</text>
</g>
<!-- n8&#45;&gt;n9 -->
<g id="edge9" class="edge">
<title>n8&#45;&gt;n9</title>
<path fill="none" stroke="black" d="M353.84,-159.72C353.84,-151.25 353.84,-140.8 353.84,-131.06"/>
<polygon fill="black" stroke="black" points="357.34,-130.89 353.84,-120.89 350.34,-130.89 357.34,-130.89"/>
</g>
<!-- n10 -->
<g id="node11" class="node">
<title>n10</title>
<ellipse fill="none" stroke="black" cx="305.84" cy="-21.21" rx="37.45" ry="21.43"/>
<text text-anchor="middle" x="305.84" y="-24.21" font-family="Helvetica,sans-Serif" font-size="10.00">Var</text>
<text text-anchor="middle" x="305.84" y="-13.21" font-family="Helvetica,sans-Serif" font-size="10.00">ingreso</text>
</g>
<!-- n9&#45;&gt;n10 -->
<g id="edge7" class="edge">
<title>n9&#45;&gt;n10</title>
<path fill="none" stroke="black" d="M341.98,-79.75C336.36,-70.81 329.55,-59.97 323.36,-50.11"/>
<polygon fill="black" stroke="black" points="326.19,-48.03 317.9,-41.42 320.26,-51.75 326.19,-48.03"/>
</g>
<!-- n11 -->
<g id="node12" class="node">
<title>n11</title>
<ellipse fill="none" stroke="black" cx="400.84" cy="-21.21" rx="39.7" ry="21.43"/>
<text text-anchor="middle" x="400.84" y="-24.21" font-family="Helvetica,sans-Serif" font-size="10.00">Number</text>
<text text-anchor="middle" x="400.84" y="-13.21" font-family="Helvetica,sans-Serif" font-size="10.00">0.15</text>
</g>
<!-- n9&#45;&gt;n11 -->
<g id="edge8" class="edge">
<title>n9&#45;&gt;n11</title>
<path fill="none" stroke="black" d="M365.46,-79.75C370.91,-70.88 377.52,-60.13 383.55,-50.33"/>
<polygon fill="black" stroke="black" points="386.61,-52.04 388.87,-41.69 380.65,-48.37 386.61,-52.04"/>
</g>
</g>
</svg>
