<?xml version="1.0" encoding="UTF-8" standalone="no"?>
<!DOCTYPE svg PUBLIC "-//W3C//DTD SVG 1.1//EN"
 "http://www.w3.org/Graphics/SVG/1.1/DTD/svg11.dtd">
<!-- Generated by graphviz version 2.43.0 (0)
 -->
<!-- Title: ast Pages: 1 -->
<svg width="1335pt" height="515pt"
 viewBox="0.00 0.00 1334.60 514.56" xmlns="http://www.w3.org/2000/svg" xmlns:xlink="http://www.w3.org/1999/xlink">
<g id="graph0" class="graph" transform="scale(1 1) rotate(0) translate(4 510.56)">
<title>ast</title>
<polygon fill="white" stroke="transparent" points="-4,4 -4,-510.56 1330.6,-510.56 1330.6,4 -4,4"/>
<!-- n0 -->
<g id="node1" class="node">
<title>n0</title>
<polygon fill="none" stroke="black" points="669.6,-506.56 611.6,-506.56 611.6,-470.56 669.6,-470.56 669.6,-506.56"/>
<text text-anchor="middle" x="640.6" y="-486.06" font-family="Helvetica,sans-Serif" font-size="10.00">Program</text>
</g>
<!-- n1 -->
<g id="node2" class="node">
<title>n1</title>
<polygon fill="none" stroke="black" points="217.6,-431.35 143.6,-431.35 143.6,-395.35 217.6,-395.35 217.6,-431.35"/>
<text text-anchor="middle" x="180.6" y="-416.35" font-family="Helvetica,sans-Serif" font-size="10.00">Assignment</text>
<text text-anchor="middle" x="180.6" y="-405.35" font-family="Helvetica,sans-Serif" font-size="10.00">bruto</text>
</g>
<!-- n0&#45;&gt;n1 -->
<g id="edge4" class="edge">
<title>n0&#45;&gt;n1</title>
<path fill="none" stroke="black" d="M611.21,-484.15C548.43,-476.68 396.65,-457.7 270.6,-434.56 256.53,-431.98 241.32,-428.73 227.48,-425.61"/>
<polygon fill="black" stroke="black" points="228.21,-422.18 217.68,-423.36 226.65,-429.01 228.21,-422.18"/>
</g>
<!-- n5 -->
<g id="node6" class="node">
<title>n5</title>
<polygon fill="none" stroke="black" points="353.6,-431.35 279.6,-431.35 279.6,-395.35 353.6,-395.35 353.6,-431.35"/>
<text text-anchor="middle" x="316.6" y="-416.35" font-family="Helvetica,sans-Serif" font-size="10.00">Assignment</text>
<text text-anchor="middle" x="316.6" y="-405.35" font-family="Helvetica,sans-Serif" font-size="10.00">ajuste</text>
</g>
<!-- n0&#45;&gt;n5 -->
<g id="edge10" class="edge">
<title>n0&#45;&gt;n5</title>
<path fill="none" stroke="black" d="M611.38,-484.09C560.31,-477.57 451.84,-461.62 363.6,-434.56 363.5,-434.53 363.4,-434.5 363.3,-434.47"/>
<polygon fill="black" stroke="black" points="364.37,-431.13 353.78,-431.2 362.1,-437.76 364.37,-431.13"/>
</g>
<!-- n11 -->
<g id="node12" class="node">
<title>n11</title>
<polygon fill="none" stroke="black" points="446.6,-431.35 372.6,-431.35 372.6,-395.35 446.6,-395.35 446.6,-431.35"/>
<text text-anchor="middle" x="409.6" y="-416.35" font-family="Helvetica,sans-Serif" font-size="10.00">Assignment</text>
<text text-anchor="middle" x="409.6" y="-405.35" font-family="Helvetica,sans-Serif" font-size="10.00">ingreso</text>
</g>
<!-- n0&#45;&gt;n11 -->
<g id="edge14" class="edge">
<title>n0&#45;&gt;n11</title>
<path fill="none" stroke="black" d="M611.56,-480.4C574.99,-471.11 510.44,-453.8 456.6,-434.56 456.39,-434.49 456.19,-434.41 455.99,-434.34"/>
<polygon fill="black" stroke="black" points="457.22,-431.06 446.63,-430.78 454.73,-437.61 457.22,-431.06"/>
</g>
<!-- n15 -->
<g id="node16" class="node">
<title>n15</title>
<polygon fill="none" stroke="black" points="539.6,-431.35 465.6,-431.35 465.6,-395.35 539.6,-395.35 539.6,-431.35"/>
<text text-anchor="middle" x="502.6" y="-416.35" font-family="Helvetica,sans-Serif" font-size="10.00">Assignment</text>
<text text-anchor="middle" x="502.6" y="-405.35" font-family="Helvetica,sans-Serif" font-size="10.00">t1</text>
</g>
<!-- n0&#45;&gt;n15 -->
<g id="edge16" class="edge">
<title>n0&#45;&gt;n15</title>
<path fill="none" stroke="black" d="M611.33,-472.03C591.67,-461.6 565.48,-447.71 543.73,-436.17"/>
<polygon fill="black" stroke="black" points="545.19,-432.98 534.71,-431.38 541.91,-439.16 545.19,-432.98"/>
</g>
<!-- n17 -->
<g id="node18" class="node">
<title>n17</title>
<polygon fill="none" stroke="black" points="631.6,-431.35 557.6,-431.35 557.6,-395.35 631.6,-395.35 631.6,-431.35"/>
<text text-anchor="middle" x="594.6" y="-416.35" font-family="Helvetica,sans-Serif" font-size="10.00">Assignment</text>
<text text-anchor="middle" x="594.6" y="-405.35" font-family="Helvetica,sans-Serif" font-size="10.00">t2</text>
</g>
<!-- n0&#45;&gt;n17 -->
<g id="edge18" class="edge">
<title>n0&#45;&gt;n17</title>
<path fill="none" stroke="black" d="M629.7,-470.21C624.08,-461.27 617.12,-450.2 610.89,-440.27"/>
<polygon fill="black" stroke="black" points="613.7,-438.18 605.42,-431.57 607.78,-441.9 613.7,-438.18"/>
</g>
<!-- n19 -->
<g id="node20" class="node">
<title>n19</title>
<polygon fill="none" stroke="black" points="723.6,-431.35 649.6,-431.35 649.6,-395.35 723.6,-395.35 723.6,-431.35"/>
<text text-anchor="middle" x="686.6" y="-416.35" font-family="Helvetica,sans-Serif" font-size="10.00">Assignment</text>
<text text-anchor="middle" x="686.6" y="-405.35" font-family="Helvetica,sans-Serif" font-size="10.00">impuesto</text>
</g>
<!-- n0&#45;&gt;n19 -->
<g id="edge20" class="edge">
<title>n0&#45;&gt;n19</title>
<path fill="none" stroke="black" d="M651.5,-470.21C657.11,-461.27 664.07,-450.2 670.31,-440.27"/>
<polygon fill="black" stroke="black" points="673.42,-441.9 675.77,-431.57 667.49,-438.18 673.42,-441.9"/>
</g>
<!-- n21 -->
<g id="node22" class="node">
<title>n21</title>
<polygon fill="none" stroke="black" points="816.6,-431.35 762.6,-431.35 762.6,-395.35 816.6,-395.35 816.6,-431.35"/>
<text text-anchor="middle" x="789.6" y="-410.85" font-family="Helvetica,sans-Serif" font-size="10.00">Rule</text>
</g>
<!-- n0&#45;&gt;n21 -->
<g id="edge31" class="edge">
<title>n0&#45;&gt;n21</title>
<path fill="none" stroke="black" d="M669.68,-473.27C693.67,-461.48 727.81,-444.71 753.53,-432.07"/>
<polygon fill="black" stroke="black" points="755.16,-435.16 762.59,-427.61 752.08,-428.88 755.16,-435.16"/>
</g>
<!-- n32 -->
<g id="node33" class="node">
<title>n32</title>
<polygon fill="none" stroke="black" points="1004.6,-431.35 950.6,-431.35 950.6,-395.35 1004.6,-395.35 1004.6,-431.35"/>
<text text-anchor="middle" x="977.6" y="-410.85" font-family="Helvetica,sans-Serif" font-size="10.00">Rule</text>
</g>
<!-- n0&#45;&gt;n32 -->
<g id="edge40" class="edge">
<title>n0&#45;&gt;n32</title>
<path fill="none" stroke="black" d="M669.62,-481.25C730.82,-467.96 873.01,-437.07 940.61,-422.38"/>
<polygon fill="black" stroke="black" points="941.39,-425.79 950.41,-420.25 939.9,-418.95 941.39,-425.79"/>
</g>
<!-- n41 -->
<g id="node42" class="node">
<title>n41</title>
<polygon fill="none" stroke="black" points="1137.6,-431.35 1083.6,-431.35 1083.6,-395.35 1137.6,-395.35 1137.6,-431.35"/>
<text text-anchor="middle" x="1110.6" y="-410.85" font-family="Helvetica,sans-Serif" font-size="10.00">Rule</text>
</g>
<!-- n0&#45;&gt;n41 -->
<g id="edge51" class="edge">
<title>n0&#45;&gt;n41</title>
<path fill="none" stroke="black" d="M669.72,-484.07C732.66,-476.38 886.03,-456.89 1013.6,-434.56 1033.52,-431.07 1055.6,-426.52 1073.66,-422.62"/>
<polygon fill="black" stroke="black" points="1074.49,-426.03 1083.51,-420.48 1072.99,-419.19 1074.49,-426.03"/>
</g>
<!-- n52 -->
<g id="node53" class="node">
<title>n52</title>
<ellipse fill="none" stroke="black" cx="1199.6" cy="-413.35" rx="43.68" ry="21.43"/>
<text text-anchor="middle" x="1199.6" y="-416.35" font-family="Helvetica,sans-Serif" font-size="10.00">Print</text>
<text text-anchor="middle" x="1199.6" y="-405.35" font-family="Helvetica,sans-Serif" font-size="10.00">impuesto</text>
</g>
<!-- n0&#45;&gt;n52 -->
<g id="edge52" class="edge">
<title>n0&#45;&gt;n52</title>
<path fill="none" stroke="black" d="M669.85,-487.14C748.22,-485.44 968.97,-476.97 1146.6,-434.56 1150.42,-433.65 1154.34,-432.53 1158.24,-431.29"/>
<polygon fill="black" stroke="black" points="1159.47,-434.56 1167.79,-428.01 1157.19,-427.94 1159.47,-434.56"/>
</g>
<!-- n2 -->
<g id="node3" class="node">
<title>n2</title>
<ellipse fill="none" stroke="black" cx="136.6" cy="-334.92" rx="32.55" ry="21.43"/>
<text text-anchor="middle" x="136.6" y="-337.92" font-family="Helvetica,sans-Serif" font-size="10.00">BinOp</text>
<text text-anchor="middle" x="136.6" y="-326.92" font-family="Helvetica,sans-Serif" font-size="10.00">+</text>
</g>
<!-- n1&#45;&gt;n2 -->
<g id="edge3" class="edge">
<title>n1&#45;&gt;n2</title>
<path fill="none" stroke="black" d="M170.61,-395C165.32,-385.81 158.68,-374.28 152.68,-363.86"/>
<polygon fill="black" stroke="black" points="155.65,-361.99 147.62,-355.07 149.58,-365.48 155.65,-361.99"/>
</g>
<!-- n3 -->
<g id="node4" class="node">
<title>n3</title>
<ellipse fill="none" stroke="black" cx="39.6" cy="-256.49" rx="39.7" ry="21.43"/>
<text text-anchor="middle" x="39.6" y="-259.49" font-family="Helvetica,sans-Serif" font-size="10.00">Number</text>
<text text-anchor="middle" x="39.6" y="-248.49" font-family="Helvetica,sans-Serif" font-size="10.00">80000.0</text>
</g>
<!-- n2&#45;&gt;n3 -->
<g id="edge1" class="edge">
<title>n2&#45;&gt;n3</title>
<path fill="none" stroke="black" d="M116.5,-318.08C102.83,-307.31 84.51,-292.88 69.18,-280.8"/>
<polygon fill="black" stroke="black" points="71.04,-277.81 61.02,-274.37 66.71,-283.31 71.04,-277.81"/>
</g>
<!-- n4 -->
<g id="node5" class="node">
<title>n4</title>
<ellipse fill="none" stroke="black" cx="136.6" cy="-256.49" rx="39.7" ry="21.43"/>
<text text-anchor="middle" x="136.6" y="-259.49" font-family="Helvetica,sans-Serif" font-size="10.00">Number</text>
<text text-anchor="middle" x="136.6" y="-248.49" font-family="Helvetica,sans-Serif" font-size="10.00">95000.0</text>
</g>
<!-- n2&#45;&gt;n4 -->
<g id="edge2" class="edge">
<title>n2&#45;&gt;n4</title>
<path fill="none" stroke="black" d="M136.6,-313.44C136.6,-305.58 136.6,-296.44 136.6,-287.84"/>
<polygon fill="black" stroke="black" points="140.1,-287.76 136.6,-277.76 133.1,-287.76 140.1,-287.76"/>
</g>
<!-- n6 -->
<g id="node7" class="node">
<title>n6</title>
<ellipse fill="none" stroke="black" cx="316.6" cy="-334.92" rx="32.55" ry="21.43"/>
<text text-anchor="middle" x="316.6" y="-337.92" font-family="Helvetica,sans-Serif" font-size="10.00">BinOp</text>
<text text-anchor="middle" x="316.6" y="-326.92" font-family="Helvetica,sans-Serif" font-size="10.00">+</text>
</g>
<!-- n5&#45;&gt;n6 -->
<g id="edge9" class="edge">
<title>n5&#45;&gt;n6</title>
<path fill="none" stroke="black" d="M316.6,-395C316.6,-386.53 316.6,-376.08 316.6,-366.34"/>
<polygon fill="black" stroke="black" points="320.1,-366.17 316.6,-356.17 313.1,-366.17 320.1,-366.17"/>
</g>
<!-- n7 -->
<g id="node8" class="node">
<title>n7</title>
<ellipse fill="none" stroke="black" cx="226.6" cy="-256.49" rx="32.55" ry="21.43"/>
<text text-anchor="middle" x="226.6" y="-259.49" font-family="Helvetica,sans-Serif" font-size="10.00">BinOp</text>
<text text-anchor="middle" x="226.6" y="-248.49" font-family="Helvetica,sans-Serif" font-size="10.00">+</text>
</g>
<!-- n6&#45;&gt;n7 -->
<g id="edge7" class="edge">
<title>n6&#45;&gt;n7</title>
<path fill="none" stroke="black" d="M297.51,-317.71C284.83,-306.94 267.98,-292.64 253.89,-280.67"/>
<polygon fill="black" stroke="black" points="255.86,-277.75 245.97,-273.94 251.32,-283.08 255.86,-277.75"/>
</g>
<!-- n10 -->
<g id="node11" class="node">
<title>n10</title>
<ellipse fill="none" stroke="black" cx="316.6" cy="-256.49" rx="39.7" ry="21.43"/>
<text text-anchor="middle" x="316.6" y="-259.49" font-family="Helvetica,sans-Serif" font-size="10.00">Number</text>
<text text-anchor="middle" x="316.6" y="-248.49" font-family="Helvetica,sans-Serif" font-size="10.00">0.02</text>
</g>
<!-- n6&#45;&gt;n10 -->
<g id="edge8" class="edge">
<title>n6&#45;&gt;n10</title>
<path fill="none" stroke="black" d="M316.6,-313.44C316.6,-305.58 316.6,-296.44 316.6,-287.84"/>
<polygon fill="black" stroke="black" points="320.1,-287.76 316.6,-277.76 313.1,-287.76 320.1,-287.76"/>
</g>
<!-- n8 -->
<g id="node9" class="node">
<title>n8</title>
<ellipse fill="none" stroke="black" cx="178.6" cy="-178.07" rx="39.7" ry="21.43"/>
<text text-anchor="middle" x="178.6" y="-181.07" font-family="Helvetica,sans-Serif" font-size="10.00">Number</text>
<text text-anchor="middle" x="178.6" y="-170.07" font-family="Helvetica,sans-Serif" font-size="10.00">1.02</text>
</g>
<!-- n7&#45;&gt;n8 -->
<g id="edge5" class="edge">
<title>n7&#45;&gt;n8</title>
<path fill="none" stroke="black" d="M214.73,-236.6C209.12,-227.67 202.31,-216.82 196.12,-206.96"/>
<polygon fill="black" stroke="black" points="198.94,-204.88 190.66,-198.27 193.01,-208.6 198.94,-204.88"/>
</g>
<!-- n9 -->
<g id="node10" class="node">
<title>n9</title>
<ellipse fill="none" stroke="black" cx="275.6" cy="-178.07" rx="39.7" ry="21.43"/>
<text text-anchor="middle" x="275.6" y="-181.07" font-family="Helvetica,sans-Serif" font-size="10.00">Number</text>
<text text-anchor="middle" x="275.6" y="-170.07" font-family="Helvetica,sans-Serif" font-size="10.00">0.03</text>
</g>
<!-- n7&#45;&gt;n9 -->
<g id="edge6" class="edge">
<title>n7&#45;&gt;n9</title>
<path fill="none" stroke="black" d="M238.71,-236.6C244.44,-227.67 251.39,-216.82 257.71,-206.96"/>
<polygon fill="black" stroke="black" points="260.83,-208.58 263.28,-198.27 254.94,-204.8 260.83,-208.58"/>
</g>
<!-- n12 -->
<g id="node13" class="node">
<title>n12</title>
<ellipse fill="none" stroke="black" cx="402.6" cy="-334.92" rx="32.55" ry="21.43"/>
<text text-anchor="middle" x="402.6" y="-337.92" font-family="Helvetica,sans-Serif" font-size="10.00">BinOp</text>
<text text-anchor="middle" x="402.6" y="-326.92" font-family="Helvetica,sans-Serif" font-size="10.00">*</text>
</g>
<!-- n11&#45;&gt;n12 -->
<g id="edge13" class="edge">
<title>n11&#45;&gt;n12</title>
<path fill="none" stroke="black" d="M408.01,-395C407.23,-386.53 406.28,-376.08 405.38,-366.34"/>
<polygon fill="black" stroke="black" points="408.85,-365.81 404.45,-356.17 401.88,-366.45 408.85,-365.81"/>
</g>
<!-- n13 -->
<g id="node14" class="node">
<title>n13</title>
<ellipse fill="none" stroke="black" cx="403.6" cy="-256.49" rx="29.9" ry="21.43"/>
<text text-anchor="middle" x="403.6" y="-259.49" font-family="Helvetica,sans-Serif" font-size="10.00">Var</text>
<text text-anchor="middle" x="403.6" y="-248.49" font-family="Helvetica,sans-Serif" font-size="10.00">bruto</text>
</g>
<!-- n12&#45;&gt;n13 -->
<g id="edge11" class="edge">
<title>n12&#45;&gt;n13</title>
<path fill="none" stroke="black" d="M402.87,-313.44C402.97,-305.58 403.09,-296.44 403.2,-287.84"/>
<polygon fill="black" stroke="black" points="406.7,-287.81 403.33,-277.76 399.7,-287.72 406.7,-287.81"/>
</g>
<!-- n14 -->
<g id="node15" class="node">
<title>n14</title>
<ellipse fill="none" stroke="black" cx="484.6" cy="-256.49" rx="33.47" ry="21.43"/>
<text text-anchor="middle" x="484.6" y="-259.49" font-family="Helvetica,sans-Serif" font-size="10.00">Var</text>
<text text-anchor="middle" x="484.6" y="-248.49" font-family="Helvetica,sans-Serif" font-size="10.00">ajuste</text>
</g>
<!-- n12&#45;&gt;n14 -->
<g id="edge12" class="edge">
<title>n12&#45;&gt;n14</title>
<path fill="none" stroke="black" d="M420.8,-316.96C432.05,-306.47 446.66,-292.85 459.06,-281.29"/>
<polygon fill="black" stroke="black" points="461.52,-283.78 466.45,-274.41 456.75,-278.66 461.52,-283.78"/>
</g>
<!-- n16 -->
<g id="node17" class="node">
<title>n16</title>
<ellipse fill="none" stroke="black" cx="492.6" cy="-334.92" rx="39.7" ry="21.43"/>
<text text-anchor="middle" x="492.6" y="-337.92" font-family="Helvetica,sans-Serif" font-size="10.00">Number</text>
<text text-anchor="middle" x="492.6" y="-326.92" font-family="Helvetica,sans-Serif" font-size="10.00">0.18</text>
</g>
<!-- n15&#45;&gt;n16 -->
<g id="edge15" class="edge">
<title>n15&#45;&gt;n16</title>
<path fill="none" stroke="black" d="M500.33,-395C499.22,-386.53 497.85,-376.08 496.58,-366.34"/>
<polygon fill="black" stroke="black" points="500.02,-365.63 495.25,-356.17 493.07,-366.54 500.02,-365.63"/>
</g>
<!-- n18 -->
<g id="node19" class="node">
<title>n18</title>
<ellipse fill="none" stroke="black" cx="589.6" cy="-334.92" rx="39.7" ry="21.43"/>
<text text-anchor="middle" x="589.6" y="-337.92" font-family="Helvetica,sans-Serif" font-size="10.00">Number</text>
<text text-anchor="middle" x="589.6" y="-326.92" font-family="Helvetica,sans-Serif" font-size="10.00">0.22</text>
</g>
<!-- n17&#45;&gt;n18 -->
<g id="edge17" class="edge">
<title>n17&#45;&gt;n18</title>
<path fill="none" stroke="black" d="M593.46,-395C592.91,-386.53 592.23,-376.08 591.59,-366.34"/>
<polygon fill="black" stroke="black" points="595.07,-365.92 590.92,-356.17 588.08,-366.38 595.07,-365.92"/>
</g>
<!-- n20 -->
<g id="node21" class="node">
<title>n20</title>
<ellipse fill="none" stroke="black" cx="686.6" cy="-334.92" rx="39.7" ry="21.43"/>
<text text-anchor="middle" x="686.6" y="-337.92" font-family="Helvetica,sans-Serif" font-size="10.00">Number</text>
<text text-anchor="middle" x="686.6" y="-326.92" font-family="Helvetica,sans-Serif" font-size="10.00">0.0</text>
</g>
<!-- n19&#45;&gt;n20 -->
<g id="edge19" class="edge">
<title>n19&#45;&gt;n20</title>
<path fill="none" stroke="black" d="M686.6,-395C686.6,-386.53 686.6,-376.08 686.6,-366.34"/>
<polygon fill="black" stroke="black" points="690.1,-366.17 686.6,-356.17 683.1,-366.17 690.1,-366.17"/>
</g>
<!-- n22 -->
<g id="node23" class="node">
<title>n22</title>
<ellipse fill="none" stroke="black" cx="789.6" cy="-334.92" rx="45.01" ry="21.43"/>
<text text-anchor="middle" x="789.6" y="-337.92" font-family="Helvetica,sans-Serif" font-size="10.00">Cond</text>
<text text-anchor="middle" x="789.6" y="-326.92" font-family="Helvetica,sans-Serif" font-size="10.00">ingreso &gt;</text>
</g>
<!-- n21&#45;&gt;n22 -->
<g id="edge22" class="edge">
<title>n21&#45;&gt;n22</title>
<path fill="none" stroke="black" d="M789.6,-395C789.6,-386.53 789.6,-376.08 789.6,-366.34"/>
<polygon fill="black" stroke="black" points="793.1,-366.17 789.6,-356.17 786.1,-366.17 793.1,-366.17"/>
</g>
<!-- n24 -->
<g id="node25" class="node">
<title>n24</title>
<polygon fill="none" stroke="black" points="914.6,-352.92 852.6,-352.92 852.6,-316.92 914.6,-316.92 914.6,-352.92"/>
<text text-anchor="middle" x="883.6" y="-337.92" font-family="Helvetica,sans-Serif" font-size="10.00">Action</text>
<text text-anchor="middle" x="883.6" y="-326.92" font-family="Helvetica,sans-Serif" font-size="10.00">impuesto</text>
</g>
<!-- n21&#45;&gt;n24 -->
<g id="edge30" class="edge">
<title>n21&#45;&gt;n24</title>
<path fill="none" stroke="black" d="M810.93,-395C823.88,-384.47 840.58,-370.89 854.7,-359.41"/>
<polygon fill="black" stroke="black" points="857.13,-361.95 862.68,-352.93 852.71,-356.52 857.13,-361.95"/>
</g>
<!-- n23 -->
<g id="node24" class="node">
<title>n23</title>
<ellipse fill="none" stroke="black" cx="789.6" cy="-256.49" rx="43.68" ry="21.43"/>
<text text-anchor="middle" x="789.6" y="-259.49" font-family="Helvetica,sans-Serif" font-size="10.00">Number</text>
<text text-anchor="middle" x="789.6" y="-248.49" font-family="Helvetica,sans-Serif" font-size="10.00">200000.0</text>
</g>
<!-- n22&#45;&gt;n23 -->
<g id="edge21" class="edge">
<title>n22&#45;&gt;n23</title>
<path fill="none" stroke="black" d="M789.6,-313.44C789.6,-305.58 789.6,-296.44 789.6,-287.84"/>
<polygon fill="black" stroke="black" points="793.1,-287.76 789.6,-277.76 786.1,-287.76 793.1,-287.76"/>
</g>
<!-- n25 -->
<g id="node26" class="node">
<title>n25</title>
<ellipse fill="none" stroke="black" cx="883.6" cy="-256.49" rx="32.55" ry="21.43"/>
<text text-anchor="middle" x="883.6" y="-259.49" font-family="Helvetica,sans-Serif" font-size="10.00">BinOp</text>
<text text-anchor="middle" x="883.6" y="-248.49" font-family="Helvetica,sans-Serif" font-size="10.00">+</text>
</g>
<!-- n24&#45;&gt;n25 -->
<g id="edge29" class="edge">
<title>n24&#45;&gt;n25</title>
<path fill="none" stroke="black" d="M883.6,-316.58C883.6,-308.1 883.6,-297.65 883.6,-287.91"/>
<polygon fill="black" stroke="black" points="887.1,-287.74 883.6,-277.74 880.1,-287.74 887.1,-287.74"/>
</g>
<!-- n26 -->
<g id="node27" class="node">
<title>n26</title>
<ellipse fill="none" stroke="black" cx="789.6" cy="-178.07" rx="43.68" ry="21.43"/>
<text text-anchor="middle" x="789.6" y="-181.07" font-family="Helvetica,sans-Serif" font-size="10.00">Var</text>
<text text-anchor="middle" x="789.6" y="-170.07" font-family="Helvetica,sans-Serif" font-size="10.00">impuesto</text>
</g>
<!-- n25&#45;&gt;n26 -->
<g id="edge23" class="edge">
<title>n25&#45;&gt;n26</title>
<path fill="none" stroke="black" d="M863.66,-239.28C850.66,-228.71 833.46,-214.73 818.91,-202.9"/>
<polygon fill="black" stroke="black" points="821.11,-200.17 811.14,-196.58 816.69,-205.61 821.11,-200.17"/>
</g>
<!-- n27 -->
<g id="node28" class="node">
<title>n27</title>
<ellipse fill="none" stroke="black" cx="883.6" cy="-178.07" rx="32.55" ry="21.43"/>
<text text-anchor="middle" x="883.6" y="-181.07" font-family="Helvetica,sans-Serif" font-size="10.00">BinOp</text>
<text text-anchor="middle" x="883.6" y="-170.07" font-family="Helvetica,sans-Serif" font-size="10.00">*</text>
</g>
<!-- n25&#45;&gt;n27 -->
<g id="edge28" class="edge">
<title>n25&#45;&gt;n27</title>
<path fill="none" stroke="black" d="M883.6,-235.01C883.6,-227.15 883.6,-218.01 883.6,-209.42"/>
<polygon fill="black" stroke="black" points="887.1,-209.34 883.6,-199.34 880.1,-209.34 887.1,-209.34"/>
</g>
<!-- n28 -->
<g id="node29" class="node">
<title>n28</title>
<ellipse fill="none" stroke="black" cx="855.6" cy="-99.64" rx="32.55" ry="21.43"/>
<text text-anchor="middle" x="855.6" y="-102.64" font-family="Helvetica,sans-Serif" font-size="10.00">BinOp</text>
<text text-anchor="middle" x="855.6" y="-91.64" font-family="Helvetica,sans-Serif" font-size="10.00">&#45;</text>
</g>
<!-- n27&#45;&gt;n28 -->
<g id="edge26" class="edge">
<title>n27&#45;&gt;n28</title>
<path fill="none" stroke="black" d="M876.24,-156.99C873.22,-148.74 869.66,-139.02 866.35,-130"/>
<polygon fill="black" stroke="black" points="869.63,-128.77 862.91,-120.59 863.06,-131.18 869.63,-128.77"/>
</g>
<!-- n31 -->
<g id="node32" class="node">
<title>n31</title>
<ellipse fill="none" stroke="black" cx="933.6" cy="-99.64" rx="27" ry="21.43"/>
<text text-anchor="middle" x="933.6" y="-102.64" font-family="Helvetica,sans-Serif" font-size="10.00">Var</text>
<text text-anchor="middle" x="933.6" y="-91.64" font-family="Helvetica,sans-Serif" font-size="10.00">t2</text>
</g>
<!-- n27&#45;&gt;n31 -->
<g id="edge27" class="edge">
<title>n27&#45;&gt;n31</title>
<path fill="none" stroke="black" d="M895.96,-158.17C902.04,-148.87 909.48,-137.5 916.13,-127.33"/>
<polygon fill="black" stroke="black" points="919.18,-129.07 921.72,-118.79 913.32,-125.24 919.18,-129.07"/>
</g>
<!-- n29 -->
<g id="node30" class="node">
<title>n29</title>
<ellipse fill="none" stroke="black" cx="806.6" cy="-21.21" rx="37.45" ry="21.43"/>
<text text-anchor="middle" x="806.6" y="-24.21" font-family="Helvetica,sans-Serif" font-size="10.00">Var</text>
<text text-anchor="middle" x="806.6" y="-13.21" font-family="Helvetica,sans-Serif" font-size="10.00">ingreso</text>
</g>
<!-- n28&#45;&gt;n29 -->
<g id="edge24" class="edge">
<title>n28&#45;&gt;n29</title>
<path fill="none" stroke="black" d="M843.49,-79.75C837.76,-70.81 830.8,-59.97 824.48,-50.11"/>
<polygon fill="black" stroke="black" points="827.26,-47.95 818.91,-41.42 821.36,-51.73 827.26,-47.95"/>
</g>
<!-- n30 -->
<g id="node31" class="node">
<title>n30</title>
<ellipse fill="none" stroke="black" cx="905.6" cy="-21.21" rx="43.68" ry="21.43"/>
<text text-anchor="middle" x="905.6" y="-24.21" font-family="Helvetica,sans-Serif" font-size="10.00">Number</text>
<text text-anchor="middle" x="905.6" y="-13.21" font-family="Helvetica,sans-Serif" font-size="10.00">200000.0</text>
</g>
<!-- n28&#45;&gt;n30 -->
<g id="edge25" class="edge">
<title>n28&#45;&gt;n30</title>
<path fill="none" stroke="black" d="M867.96,-79.75C873.76,-70.88 880.79,-60.13 887.2,-50.33"/>
<polygon fill="black" stroke="black" points="890.31,-51.97 892.86,-41.69 884.45,-48.14 890.31,-51.97"/>
</g>
<!-- n33 -->
<g id="node34" class="node">
<title>n33</title>
<ellipse fill="none" stroke="black" cx="977.6" cy="-334.92" rx="45.01" ry="21.43"/>
<text text-anchor="middle" x="977.6" y="-337.92" font-family="Helvetica,sans-Serif" font-size="10.00">Cond</text>
<text text-anchor="middle" x="977.6" y="-326.92" font-family="Helvetica,sans-Serif" font-size="10.00">ingreso &gt;</text>
</g>
<!-- n32&#45;&gt;n33 -->
<g id="edge33" class="edge">
<title>n32&#45;&gt;n33</title>
<path fill="none" stroke="black" d="M977.6,-395C977.6,-386.53 977.6,-376.08 977.6,-366.34"/>
<polygon fill="black" stroke="black" points="981.1,-366.17 977.6,-356.17 974.1,-366.17 981.1,-366.17"/>
</g>
<!-- n35 -->
<g id="node36" class="node">
<title>n35</title>
<polygon fill="none" stroke="black" points="1102.6,-352.92 1040.6,-352.92 1040.6,-316.92 1102.6,-316.92 1102.6,-352.92"/>
<text text-anchor="middle" x="1071.6" y="-337.92" font-family="Helvetica,sans-Serif" font-size="10.00">Action</text>
<text text-anchor="middle" x="1071.6" y="-326.92" font-family="Helvetica,sans-Serif" font-size="10.00">impuesto</text>
</g>
<!-- n32&#45;&gt;n35 -->
<g id="edge39" class="edge">
<title>n32&#45;&gt;n35</title>
<path fill="none" stroke="black" d="M998.93,-395C1011.88,-384.47 1028.58,-370.89 1042.7,-359.41"/>
<polygon fill="black" stroke="black" points="1045.13,-361.95 1050.68,-352.93 1040.71,-356.52 1045.13,-361.95"/>
</g>
<!-- n34 -->
<g id="node35" class="node">
<title>n34</title>
<ellipse fill="none" stroke="black" cx="977.6" cy="-256.49" rx="43.68" ry="21.43"/>
<text text-anchor="middle" x="977.6" y="-259.49" font-family="Helvetica,sans-Serif" font-size="10.00">Number</text>
<text text-anchor="middle" x="977.6" y="-248.49" font-family="Helvetica,sans-Serif" font-size="10.00">200000.0</text>
</g>
<!-- n33&#45;&gt;n34 -->
<g id="edge32" class="edge">
<title>n33&#45;&gt;n34</title>
<path fill="none" stroke="black" d="M977.6,-313.44C977.6,-305.58 977.6,-296.44 977.6,-287.84"/>
<polygon fill="black" stroke="black" points="981.1,-287.76 977.6,-277.76 974.1,-287.76 981.1,-287.76"/>
</g>
<!-- n36 -->
<g id="node37" class="node">
<title>n36</title>
<ellipse fill="none" stroke="black" cx="1071.6" cy="-256.49" rx="32.55" ry="21.43"/>
<text text-anchor="middle" x="1071.6" y="-259.49" font-family="Helvetica,sans-Serif" font-size="10.00">BinOp</text>
<text text-anchor="middle" x="1071.6" y="-248.49" font-family="Helvetica,sans-Serif" font-size="10.00">+</text>
</g>
<!-- n35&#45;&gt;n36 -->
<g id="edge38" class="edge">
<title>n35&#45;&gt;n36</title>
<path fill="none" stroke="black" d="M1071.6,-316.58C1071.6,-308.1 1071.6,-297.65 1071.6,-287.91"/>
<polygon fill="black" stroke="black" points="1075.1,-287.74 1071.6,-277.74 1068.1,-287.74 1075.1,-287.74"/>
</g>
<!-- n37 -->
<g id="node38" class="node">
<title>n37</title>
<ellipse fill="none" stroke="black" cx="983.6" cy="-178.07" rx="43.68" ry="21.43"/>
<text text-anchor="middle" x="983.6" y="-181.07" font-family="Helvetica,sans-Serif" font-size="10.00">Var</text>
<text text-anchor="middle" x="983.6" y="-170.07" font-family="Helvetica,sans-Serif" font-size="10.00">impuesto</text>
</g>
<!-- n36&#45;&gt;n37 -->
<g id="edge34" class="edge">
<title>n36&#45;&gt;n37</title>
<path fill="none" stroke="black" d="M1052.5,-238.91C1040.7,-228.66 1025.33,-215.31 1012.1,-203.82"/>
<polygon fill="black" stroke="black" points="1014.04,-200.86 1004.19,-196.95 1009.45,-206.15 1014.04,-200.86"/>
</g>
<!-- n38 -->
<g id="node39" class="node">
<title>n38</title>
<ellipse fill="none" stroke="black" cx="1077.6" cy="-178.07" rx="32.55" ry="21.43"/>
<text text-anchor="middle" x="1077.6" y="-181.07" font-family="Helvetica,sans-Serif" font-size="10.00">BinOp</text>
<text text-anchor="middle" x="1077.6" y="-170.07" font-family="Helvetica,sans-Serif" font-size="10.00">*</text>
</g>
<!-- n36&#45;&gt;n38 -->
<g id="edge37" class="edge">
<title>n36&#45;&gt;n38</title>
<path fill="none" stroke="black" d="M1073.21,-235.01C1073.82,-227.15 1074.54,-218.01 1075.22,-209.42"/>
<polygon fill="black" stroke="black" points="1078.71,-209.58 1076.01,-199.34 1071.73,-209.03 1078.71,-209.58"/>
</g>
<!-- n39 -->
<g id="node40" class="node">
<title>n39</title>
<ellipse fill="none" stroke="black" cx="1032.6" cy="-99.64" rx="43.68" ry="21.43"/>
<text text-anchor="middle" x="1032.6" y="-102.64" font-family="Helvetica,sans-Serif" font-size="10.00">Number</text>
<text text-anchor="middle" x="1032.6" y="-91.64" font-family="Helvetica,sans-Serif" font-size="10.00">100000.0</text>
</g>
<!-- n38&#45;&gt;n39 -->
<g id="edge35" class="edge">
<title>n38&#45;&gt;n39</title>
<path fill="none" stroke="black" d="M1066.24,-157.78C1061.11,-149.07 1054.95,-138.6 1049.31,-129.02"/>
<polygon fill="black" stroke="black" points="1052.2,-127.03 1044.11,-120.18 1046.16,-130.58 1052.2,-127.03"/>
</g>
<!-- n40 -->
<g id="node41" class="node">
<title>n40</title>
<ellipse fill="none" stroke="black" cx="1121.6" cy="-99.64" rx="27" ry="21.43"/>
<text text-anchor="middle" x="1121.6" y="-102.64" font-family="Helvetica,sans-Serif" font-size="10.00">Var</text>
<text text-anchor="middle" x="1121.6" y="-91.64" font-family="Helvetica,sans-Serif" font-size="10.00">t1</text>
</g>
<!-- n38&#45;&gt;n40 -->
<g id="edge36" class="edge">
<title>n38&#45;&gt;n40</title>
<path fill="none" stroke="black" d="M1088.7,-157.78C1093.83,-148.87 1100.02,-138.11 1105.64,-128.35"/>
<polygon fill="black" stroke="black" points="1108.85,-129.8 1110.8,-119.39 1102.78,-126.31 1108.85,-129.8"/>
</g>
<!-- n42 -->
<g id="node43" class="node">
<title>n42</title>
<ellipse fill="none" stroke="black" cx="1171.6" cy="-334.92" rx="50.82" ry="21.43"/>
<text text-anchor="middle" x="1171.6" y="-337.92" font-family="Helvetica,sans-Serif" font-size="10.00">Cond</text>
<text text-anchor="middle" x="1171.6" y="-326.92" font-family="Helvetica,sans-Serif" font-size="10.00">ingreso &lt;=</text>
</g>
<!-- n41&#45;&gt;n42 -->
<g id="edge42" class="edge">
<title>n41&#45;&gt;n42</title>
<path fill="none" stroke="black" d="M1124.44,-395C1131.87,-385.69 1141.21,-373.99 1149.61,-363.46"/>
<polygon fill="black" stroke="black" points="1152.59,-365.34 1156.09,-355.34 1147.12,-360.98 1152.59,-365.34"/>
</g>
<!-- n44 -->
<g id="node45" class="node">
<title>n44</title>
<polygon fill="none" stroke="black" points="1302.6,-352.92 1240.6,-352.92 1240.6,-316.92 1302.6,-316.92 1302.6,-352.92"/>
<text text-anchor="middle" x="1271.6" y="-337.92" font-family="Helvetica,sans-Serif" font-size="10.00">Action</text>
<text text-anchor="middle" x="1271.6" y="-326.92" font-family="Helvetica,sans-Serif" font-size="10.00">impuesto</text>
</g>
<!-- n41&#45;&gt;n44 -->
<g id="edge50" class="edge">
<title>n41&#45;&gt;n44</title>
<path fill="none" stroke="black" d="M1137.95,-396.58C1140.84,-395.03 1143.77,-393.52 1146.6,-392.13 1180.84,-375.33 1192.71,-373.57 1231.07,-356.23"/>
<polygon fill="black" stroke="black" points="1232.63,-359.36 1240.25,-352.01 1229.7,-353 1232.63,-359.36"/>
</g>
<!-- n43 -->
<g id="node44" class="node">
<title>n43</title>
<ellipse fill="none" stroke="black" cx="1171.6" cy="-256.49" rx="43.68" ry="21.43"/>
<text text-anchor="middle" x="1171.6" y="-259.49" font-family="Helvetica,sans-Serif" font-size="10.00">Number</text>
<text text-anchor="middle" x="1171.6" y="-248.49" font-family="Helvetica,sans-Serif" font-size="10.00">200000.0</text>
</g>
<!-- n42&#45;&gt;n43 -->
<g id="edge41" class="edge">
<title>n42&#45;&gt;n43</title>
<path fill="none" stroke="black" d="M1171.6,-313.44C1171.6,-305.58 1171.6,-296.44 1171.6,-287.84"/>
<polygon fill="black" stroke="black" points="1175.1,-287.76 1171.6,-277.76 1168.1,-287.76 1175.1,-287.76"/>
</g>
<!-- n45 -->
<g id="node46" class="node">
<title>n45</title>
<ellipse fill="none" stroke="black" cx="1271.6" cy="-256.49" rx="32.55" ry="21.43"/>
<text text-anchor="middle" x="1271.6" y="-259.49" font-family="Helvetica,sans-Serif" font-size="10.00">BinOp</text>
<text text-anchor="middle" x="1271.6" y="-248.49" font-family="Helvetica,sans-Serif" font-size="10.00">+</text>
</g>
<!-- n44&#45;&gt;n45 -->
<g id="edge49" class="edge">
<title>n44&#45;&gt;n45</title>
<path fill="none" stroke="black" d="M1271.6,-316.58C1271.6,-308.1 1271.6,-297.65 1271.6,-287.91"/>
<polygon fill="black" stroke="black" points="1275.1,-287.74 1271.6,-277.74 1268.1,-287.74 1275.1,-287.74"/>
</g>
<!-- n46 -->
<g id="node47" class="node">
<title>n46</title>
<ellipse fill="none" stroke="black" cx="1191.6" cy="-178.07" rx="43.68" ry="21.43"/>
<text text-anchor="middle" x="1191.6" y="-181.07" font-family="Helvetica,sans-Serif" font-size="10.00">Var</text>
<text text-anchor="middle" x="1191.6" y="-170.07" font-family="Helvetica,sans-Serif" font-size="10.00">impuesto</text>
</g>
<!-- n45&#45;&gt;n46 -->
<g id="edge43" class="edge">
<title>n45&#45;&gt;n46</title>
<path fill="none" stroke="black" d="M1253.84,-238.53C1243.35,-228.5 1229.85,-215.61 1218.11,-204.4"/>
<polygon fill="black" stroke="black" points="1220.35,-201.69 1210.7,-197.31 1215.51,-206.75 1220.35,-201.69"/>
</g>
<!-- n47 -->
<g id="node48" class="node">
<title>n47</title>
<ellipse fill="none" stroke="black" cx="1285.6" cy="-178.07" rx="32.55" ry="21.43"/>
<text text-anchor="middle" x="1285.6" y="-181.07" font-family="Helvetica,sans-Serif" font-size="10.00">BinOp</text>
<text text-anchor="middle" x="1285.6" y="-170.07" font-family="Helvetica,sans-Serif" font-size="10.00">*</text>
</g>
<!-- n45&#45;&gt;n47 -->
<g id="edge48" class="edge">
<title>n45&#45;&gt;n47</title>
<path fill="none" stroke="black" d="M1275.28,-235.41C1276.74,-227.4 1278.46,-218.01 1280.08,-209.21"/>
<polygon fill="black" stroke="black" points="1283.54,-209.74 1281.9,-199.28 1276.65,-208.48 1283.54,-209.74"/>
</g>
<!-- n48 -->
<g id="node49" class="node">
<title>n48</title>
<ellipse fill="none" stroke="black" cx="1221.6" cy="-99.64" rx="32.55" ry="21.43"/>
<text text-anchor="middle" x="1221.6" y="-102.64" font-family="Helvetica,sans-Serif" font-size="10.00">BinOp</text>
<text text-anchor="middle" x="1221.6" y="-91.64" font-family="Helvetica,sans-Serif" font-size="10.00">&#45;</text>
</g>
<!-- n47&#45;&gt;n48 -->
<g id="edge46" class="edge">
<title>n47&#45;&gt;n48</title>
<path fill="none" stroke="black" d="M1270.43,-158.95C1262.3,-149.25 1252.14,-137.12 1243.2,-126.44"/>
<polygon fill="black" stroke="black" points="1245.76,-124.04 1236.66,-118.62 1240.39,-128.54 1245.76,-124.04"/>
</g>
<!-- n51 -->
<g id="node52" class="node">
<title>n51</title>
<ellipse fill="none" stroke="black" cx="1299.6" cy="-99.64" rx="27" ry="21.43"/>
<text text-anchor="middle" x="1299.6" y="-102.64" font-family="Helvetica,sans-Serif" font-size="10.00">Var</text>
<text text-anchor="middle" x="1299.6" y="-91.64" font-family="Helvetica,sans-Serif" font-size="10.00">t1</text>
</g>
<!-- n47&#45;&gt;n51 -->
<g id="edge47" class="edge">
<title>n47&#45;&gt;n51</title>
<path fill="none" stroke="black" d="M1289.28,-156.99C1290.74,-148.98 1292.46,-139.58 1294.08,-130.78"/>
<polygon fill="black" stroke="black" points="1297.54,-131.32 1295.9,-120.85 1290.65,-130.06 1297.54,-131.32"/>
</g>
<!-- n49 -->
<g id="node50" class="node">
<title>n49</title>
<ellipse fill="none" stroke="black" cx="1171.6" cy="-21.21" rx="37.45" ry="21.43"/>
<text text-anchor="middle" x="1171.6" y="-24.21" font-family="Helvetica,sans-Serif" font-size="10.00">Var</text>
<text text-anchor="middle" x="1171.6" y="-13.21" font-family="Helvetica,sans-Serif" font-size="10.00">ingreso</text>
</g>
<!-- n48&#45;&gt;n49 -->
<g id="edge44" class="edge">
<title>n48&#45;&gt;n49</title>
<path fill="none" stroke="black" d="M1209.24,-79.75C1203.33,-70.72 1196.15,-59.74 1189.65,-49.81"/>
<polygon fill="black" stroke="black" points="1192.57,-47.87 1184.16,-41.42 1186.71,-51.7 1192.57,-47.87"/>
</g>
<!-- n50 -->
<g id="node51" class="node">
<title>n50</title>
<ellipse fill="none" stroke="black" cx="1270.6" cy="-21.21" rx="43.68" ry="21.43"/>
<text text-anchor="middle" x="1270.6" y="-24.21" font-family="Helvetica,sans-Serif" font-size="10.00">Number</text>
<text text-anchor="middle" x="1270.6" y="-13.21" font-family="Helvetica,sans-Serif" font-size="10.00">100000.0</text>
</g>
<!-- n48&#45;&gt;n50 -->
<g id="edge45" class="edge">
<title>n48&#45;&gt;n50</title>
<path fill="none" stroke="black" d="M1233.71,-79.75C1239.4,-70.88 1246.29,-60.13 1252.57,-50.33"/>
<polygon fill="black" stroke="black" points="1255.66,-51.99 1258.11,-41.69 1249.77,-48.22 1255.66,-51.99"/>
</g>
</g>
</svg>
