<?xml version="1.0" encoding="UTF-8" standalone="no"?>
<!DOCTYPE svg PUBLIC "-//W3C//DTD SVG 1.1//EN"
 "http://www.w3.org/Graphics/SVG/1.1/DTD/svg11.dtd">
<!-- Generated by graphviz version 2.43.0 (0)
 -->
<!-- Title: ast Pages: 1 -->
<svg width="1011pt" height="515pt"
 viewBox="0.00 0.00 1011.20 514.56" xmlns="http://www.w3.org/2000/svg" xmlns:xlink="http://www.w3.org/1999/xlink">
<g id="graph0" class="graph" transform="scale(1 1) rotate(0) translate(4 510.56)">
<title>ast</title>
<polygon fill="white" stroke="transparent" points="-4,4 -4,-510.56 1007.2,-510.56 1007.2,4 -4,4"/>
<!-- n0 -->
<g id="node1" class="node">
<title>n0</title>
<polygon fill="none" stroke="black" points="484.6,-506.56 426.6,-506.56 426.6,-470.56 484.6,-470.56 484.6,-506.56"/>
<text text-anchor="middle" x="455.6" y="-486.06" font-family="Helvetica,sans-Serif" font-size="10.00">Program</text>
</g>
<!-- n1 -->
<g id="node2" class="node">
<title>n1</title>
<polygon fill="none" stroke="black" points="105.6,-431.35 31.6,-431.35 31.6,-395.35 105.6,-395.35 105.6,-431.35"/>
<text text-anchor="middle" x="68.6" y="-416.35" font-family="Helvetica,sans-Serif" font-size="10.00">Assignment</text>
<text text-anchor="middle" x="68.6" y="-405.35" font-family="Helvetica,sans-Serif" font-size="10.00">base</text>
</g>
<!-- n0&#45;&gt;n1 -->
<g id="edge2" class="edge">
<title>n0&#45;&gt;n1</title>
<path fill="none" stroke="black" d="M426.32,-482.82C372.82,-474.07 255.71,-454.41 157.6,-434.56 143.98,-431.8 129.26,-428.57 115.78,-425.5"/>
<polygon fill="black" stroke="black" points="116.28,-422.02 105.75,-423.2 114.72,-428.85 116.28,-422.02"/>
</g>
<!-- n3 -->
<g id="node4" class="node">
<title>n3</title>
<polygon fill="none" stroke="black" points="240.6,-431.35 166.6,-431.35 166.6,-395.35 240.6,-395.35 240.6,-431.35"/>
<text text-anchor="middle" x="203.6" y="-416.35" font-family="Helvetica,sans-Serif" font-size="10.00">Assignment</text>
<text text-anchor="middle" x="203.6" y="-405.35" font-family="Helvetica,sans-Serif" font-size="10.00">horas_extra</text>
</g>
<!-- n0&#45;&gt;n3 -->
<g id="edge6" class="edge">
<title>n0&#45;&gt;n3</title>
<path fill="none" stroke="black" d="M426.58,-479.28C390.3,-468.92 326.32,-450.57 271.6,-434.56 264.69,-432.54 257.39,-430.39 250.24,-428.27"/>
<polygon fill="black" stroke="black" points="251.22,-424.91 240.64,-425.42 249.23,-431.62 251.22,-424.91"/>
</g>
<!-- n7 -->
<g id="node8" class="node">
<title>n7</title>
<polygon fill="none" stroke="black" points="354.6,-431.35 280.6,-431.35 280.6,-395.35 354.6,-395.35 354.6,-431.35"/>
<text text-anchor="middle" x="317.6" y="-416.35" font-family="Helvetica,sans-Serif" font-size="10.00">Assignment</text>
<text text-anchor="middle" x="317.6" y="-405.35" font-family="Helvetica,sans-Serif" font-size="10.00">bono</text>
</g>
<!-- n0&#45;&gt;n7 -->
<g id="edge10" class="edge">
<title>n0&#45;&gt;n7</title>
<path fill="none" stroke="black" d="M426.33,-472.03C406.67,-461.6 380.48,-447.71 358.73,-436.17"/>
<polygon fill="black" stroke="black" points="360.19,-432.98 349.71,-431.38 356.91,-439.16 360.19,-432.98"/>
</g>
<!-- n11 -->
<g id="node12" class="node">
<title>n11</title>
<polygon fill="none" stroke="black" points="446.6,-431.35 372.6,-431.35 372.6,-395.35 446.6,-395.35 446.6,-431.35"/>
<text text-anchor="middle" x="409.6" y="-416.35" font-family="Helvetica,sans-Serif" font-size="10.00">Assignment</text>
<text text-anchor="middle" x="409.6" y="-405.35" font-family="Helvetica,sans-Serif" font-size="10.00">ingreso</text>
</g>
<!-- n0&#45;&gt;n11 -->
<g id="edge16" class="edge">
<title>n0&#45;&gt;n11</title>
<path fill="none" stroke="black" d="M444.7,-470.21C439.08,-461.27 432.12,-450.2 425.89,-440.27"/>
<polygon fill="black" stroke="black" points="428.7,-438.18 420.42,-431.57 422.78,-441.9 428.7,-438.18"/>
</g>
<!-- n17 -->
<g id="node18" class="node">
<title>n17</title>
<polygon fill="none" stroke="black" points="538.6,-431.35 464.6,-431.35 464.6,-395.35 538.6,-395.35 538.6,-431.35"/>
<text text-anchor="middle" x="501.6" y="-416.35" font-family="Helvetica,sans-Serif" font-size="10.00">Assignment</text>
<text text-anchor="middle" x="501.6" y="-405.35" font-family="Helvetica,sans-Serif" font-size="10.00">impuesto</text>
</g>
<!-- n0&#45;&gt;n17 -->
<g id="edge18" class="edge">
<title>n0&#45;&gt;n17</title>
<path fill="none" stroke="black" d="M466.5,-470.21C472.11,-461.27 479.07,-450.2 485.31,-440.27"/>
<polygon fill="black" stroke="black" points="488.42,-441.9 490.77,-431.57 482.49,-438.18 488.42,-441.9"/>
</g>
<!-- n19 -->
<g id="node20" class="node">
<title>n19</title>
<polygon fill="none" stroke="black" points="629.6,-431.35 575.6,-431.35 575.6,-395.35 629.6,-395.35 629.6,-431.35"/>
<text text-anchor="middle" x="602.6" y="-410.85" font-family="Helvetica,sans-Serif" font-size="10.00">Rule</text>
</g>
<!-- n0&#45;&gt;n19 -->
<g id="edge29" class="edge">
<title>n0&#45;&gt;n19</title>
<path fill="none" stroke="black" d="M484.64,-473.09C507.94,-461.49 540.78,-445.13 565.9,-432.62"/>
<polygon fill="black" stroke="black" points="567.72,-435.63 575.11,-428.04 564.6,-429.36 567.72,-435.63"/>
</g>
<!-- n30 -->
<g id="node31" class="node">
<title>n30</title>
<polygon fill="none" stroke="black" points="759.6,-431.35 705.6,-431.35 705.6,-395.35 759.6,-395.35 759.6,-431.35"/>
<text text-anchor="middle" x="732.6" y="-410.85" font-family="Helvetica,sans-Serif" font-size="10.00">Rule</text>
</g>
<!-- n0&#45;&gt;n30 -->
<g id="edge38" class="edge">
<title>n0&#45;&gt;n30</title>
<path fill="none" stroke="black" d="M484.72,-479.86C535.46,-466.45 639.96,-438.83 695.69,-424.1"/>
<polygon fill="black" stroke="black" points="696.73,-427.45 705.51,-421.51 694.94,-420.68 696.73,-427.45"/>
</g>
<!-- n39 -->
<g id="node40" class="node">
<title>n39</title>
<ellipse fill="none" stroke="black" cx="821.6" cy="-413.35" rx="43.68" ry="21.43"/>
<text text-anchor="middle" x="821.6" y="-416.35" font-family="Helvetica,sans-Serif" font-size="10.00">Print</text>
<text text-anchor="middle" x="821.6" y="-405.35" font-family="Helvetica,sans-Serif" font-size="10.00">impuesto</text>
</g>
<!-- n0&#45;&gt;n39 -->
<g id="edge39" class="edge">
<title>n0&#45;&gt;n39</title>
<path fill="none" stroke="black" d="M484.92,-484.54C540.84,-478.36 666.24,-462.45 768.6,-434.56 772.23,-433.57 775.96,-432.42 779.68,-431.19"/>
<polygon fill="black" stroke="black" points="781.14,-434.39 789.42,-427.77 778.82,-427.78 781.14,-434.39"/>
</g>
<!-- n2 -->
<g id="node3" class="node">
<title>n2</title>
<ellipse fill="none" stroke="black" cx="57.6" cy="-334.92" rx="39.7" ry="21.43"/>
<text text-anchor="middle" x="57.6" y="-337.92" font-family="Helvetica,sans-Serif" font-size="10.00">Number</text>
<text text-anchor="middle" x="57.6" y="-326.92" font-family="Helvetica,sans-Serif" font-size="10.00">90000.0</text>
</g>
<!-- n1&#45;&gt;n2 -->
<g id="edge1" class="edge">
<title>n1&#45;&gt;n2</title>
<path fill="none" stroke="black" d="M66.1,-395C64.88,-386.53 63.38,-376.08 61.98,-366.34"/>
<polygon fill="black" stroke="black" points="65.4,-365.57 60.51,-356.17 58.47,-366.57 65.4,-365.57"/>
</g>
<!-- n4 -->
<g id="node5" class="node">
<title>n4</title>
<ellipse fill="none" stroke="black" cx="147.6" cy="-334.92" rx="32.55" ry="21.43"/>
<text text-anchor="middle" x="147.6" y="-337.92" font-family="Helvetica,sans-Serif" font-size="10.00">BinOp</text>
<text text-anchor="middle" x="147.6" y="-326.92" font-family="Helvetica,sans-Serif" font-size="10.00">*</text>
</g>
<!-- n3&#45;&gt;n4 -->
<g id="edge5" class="edge">
<title>n3&#45;&gt;n4</title>
<path fill="none" stroke="black" d="M190.89,-395C183.86,-385.41 174.98,-373.29 167.09,-362.53"/>
<polygon fill="black" stroke="black" points="169.77,-360.26 161.04,-354.26 164.12,-364.39 169.77,-360.26"/>
</g>
<!-- n5 -->
<g id="node6" class="node">
<title>n5</title>
<ellipse fill="none" stroke="black" cx="39.6" cy="-256.49" rx="39.7" ry="21.43"/>
<text text-anchor="middle" x="39.6" y="-259.49" font-family="Helvetica,sans-Serif" font-size="10.00">Number</text>
<text text-anchor="middle" x="39.6" y="-248.49" font-family="Helvetica,sans-Serif" font-size="10.00">15000.0</text>
</g>
<!-- n4&#45;&gt;n5 -->
<g id="edge3" class="edge">
<title>n4&#45;&gt;n5</title>
<path fill="none" stroke="black" d="M126.26,-318.82C110.52,-307.68 88.84,-292.34 71.11,-279.79"/>
<polygon fill="black" stroke="black" points="72.95,-276.8 62.76,-273.88 68.9,-282.52 72.95,-276.8"/>
</g>
<!-- n6 -->
<g id="node7" class="node">
<title>n6</title>
<ellipse fill="none" stroke="black" cx="136.6" cy="-256.49" rx="39.7" ry="21.43"/>
<text text-anchor="middle" x="136.6" y="-259.49" font-family="Helvetica,sans-Serif" font-size="10.00">Number</text>
<text text-anchor="middle" x="136.6" y="-248.49" font-family="Helvetica,sans-Serif" font-size="10.00">1.2</text>
</g>
<!-- n4&#45;&gt;n6 -->
<g id="edge4" class="edge">
<title>n4&#45;&gt;n6</title>
<path fill="none" stroke="black" d="M144.65,-313.44C143.52,-305.58 142.2,-296.44 140.97,-287.84"/>
<polygon fill="black" stroke="black" points="144.4,-287.16 139.52,-277.76 137.48,-288.16 144.4,-287.16"/>
</g>
<!-- n8 -->
<g id="node9" class="node">
<title>n8</title>
<ellipse fill="none" stroke="black" cx="317.6" cy="-334.92" rx="32.55" ry="21.43"/>
<text text-anchor="middle" x="317.6" y="-337.92" font-family="Helvetica,sans-Serif" font-size="10.00">BinOp</text>
<text text-anchor="middle" x="317.6" y="-326.92" font-family="Helvetica,sans-Serif" font-size="10.00">/</text>
</g>
<!-- n7&#45;&gt;n8 -->
<g id="edge9" class="edge">
<title>n7&#45;&gt;n8</title>
<path fill="none" stroke="black" d="M317.6,-395C317.6,-386.53 317.6,-376.08 317.6,-366.34"/>
<polygon fill="black" stroke="black" points="321.1,-366.17 317.6,-356.17 314.1,-366.17 321.1,-366.17"/>
</g>
<!-- n9 -->
<g id="node10" class="node">
<title>n9</title>
<ellipse fill="none" stroke="black" cx="233.6" cy="-256.49" rx="39.7" ry="21.43"/>
<text text-anchor="middle" x="233.6" y="-259.49" font-family="Helvetica,sans-Serif" font-size="10.00">Number</text>
<text text-anchor="middle" x="233.6" y="-248.49" font-family="Helvetica,sans-Serif" font-size="10.00">30000.0</text>
</g>
<!-- n8&#45;&gt;n9 -->
<g id="edge7" class="edge">
<title>n8&#45;&gt;n9</title>
<path fill="none" stroke="black" d="M299.37,-317.34C288.02,-307.01 273.22,-293.54 260.53,-282"/>
<polygon fill="black" stroke="black" points="262.71,-279.25 252.96,-275.11 258,-284.43 262.71,-279.25"/>
</g>
<!-- n10 -->
<g id="node11" class="node">
<title>n10</title>
<ellipse fill="none" stroke="black" cx="330.6" cy="-256.49" rx="39.7" ry="21.43"/>
<text text-anchor="middle" x="330.6" y="-259.49" font-family="Helvetica,sans-Serif" font-size="10.00">Number</text>
<text text-anchor="middle" x="330.6" y="-248.49" font-family="Helvetica,sans-Serif" font-size="10.00">1.5</text>
</g>
<!-- n8&#45;&gt;n10 -->
<g id="edge8" class="edge">
<title>n8&#45;&gt;n10</title>
<path fill="none" stroke="black" d="M321.08,-313.44C322.42,-305.58 323.97,-296.44 325.44,-287.84"/>
<polygon fill="black" stroke="black" points="328.92,-288.21 327.15,-277.76 322.02,-287.04 328.92,-288.21"/>
</g>
<!-- n12 -->
<g id="node13" class="node">
<title>n12</title>
<ellipse fill="none" stroke="black" cx="409.6" cy="-334.92" rx="32.55" ry="21.43"/>
<text text-anchor="middle" x="409.6" y="-337.92" font-family="Helvetica,sans-Serif" font-size="10.00">BinOp</text>
<text text-anchor="middle" x="409.6" y="-326.92" font-family="Helvetica,sans-Serif" font-size="10.00">+</text>
</g>
<!-- n11&#45;&gt;n12 -->
<g id="edge15" class="edge">
<title>n11&#45;&gt;n12</title>
<path fill="none" stroke="black" d="M409.6,-395C409.6,-386.53 409.6,-376.08 409.6,-366.34"/>
<polygon fill="black" stroke="black" points="413.1,-366.17 409.6,-356.17 406.1,-366.17 413.1,-366.17"/>
</g>
<!-- n13 -->
<g id="node14" class="node">
<title>n13</title>
<ellipse fill="none" stroke="black" cx="420.6" cy="-256.49" rx="32.55" ry="21.43"/>
<text text-anchor="middle" x="420.6" y="-259.49" font-family="Helvetica,sans-Serif" font-size="10.00">BinOp</text>
<text text-anchor="middle" x="420.6" y="-248.49" font-family="Helvetica,sans-Serif" font-size="10.00">+</text>
</g>
<!-- n12&#45;&gt;n13 -->
<g id="edge13" class="edge">
<title>n12&#45;&gt;n13</title>
<path fill="none" stroke="black" d="M412.55,-313.44C413.68,-305.58 414.99,-296.44 416.23,-287.84"/>
<polygon fill="black" stroke="black" points="419.72,-288.16 417.68,-277.76 412.79,-287.16 419.72,-288.16"/>
</g>
<!-- n16 -->
<g id="node17" class="node">
<title>n16</title>
<ellipse fill="none" stroke="black" cx="500.6" cy="-256.49" rx="28.98" ry="21.43"/>
<text text-anchor="middle" x="500.6" y="-259.49" font-family="Helvetica,sans-Serif" font-size="10.00">Var</text>
<text text-anchor="middle" x="500.6" y="-248.49" font-family="Helvetica,sans-Serif" font-size="10.00">bono</text>
</g>
<!-- n12&#45;&gt;n16 -->
<g id="edge14" class="edge">
<title>n12&#45;&gt;n16</title>
<path fill="none" stroke="black" d="M428.9,-317.71C442.1,-306.62 459.78,-291.78 474.27,-279.6"/>
<polygon fill="black" stroke="black" points="476.54,-282.27 481.95,-273.15 472.04,-276.91 476.54,-282.27"/>
</g>
<!-- n14 -->
<g id="node15" class="node">
<title>n14</title>
<ellipse fill="none" stroke="black" cx="355.6" cy="-178.07" rx="28.07" ry="21.43"/>
<text text-anchor="middle" x="355.6" y="-181.07" font-family="Helvetica,sans-Serif" font-size="10.00">Var</text>
<text text-anchor="middle" x="355.6" y="-170.07" font-family="Helvetica,sans-Serif" font-size="10.00">base</text>
</g>
<!-- n13&#45;&gt;n14 -->
<g id="edge11" class="edge">
<title>n13&#45;&gt;n14</title>
<path fill="none" stroke="black" d="M405.19,-237.38C396.76,-227.46 386.17,-215.02 376.95,-204.17"/>
<polygon fill="black" stroke="black" points="379.37,-201.61 370.22,-196.26 374.03,-206.15 379.37,-201.61"/>
</g>
<!-- n15 -->
<g id="node16" class="node">
<title>n15</title>
<ellipse fill="none" stroke="black" cx="454.6" cy="-178.07" rx="52.15" ry="21.43"/>
<text text-anchor="middle" x="454.6" y="-181.07" font-family="Helvetica,sans-Serif" font-size="10.00">Var</text>
<text text-anchor="middle" x="454.6" y="-170.07" font-family="Helvetica,sans-Serif" font-size="10.00">horas_extra</text>
</g>
<!-- n13&#45;&gt;n15 -->
<g id="edge12" class="edge">
<title>n13&#45;&gt;n15</title>
<path fill="none" stroke="black" d="M429.35,-235.81C433.06,-227.47 437.46,-217.58 441.54,-208.41"/>
<polygon fill="black" stroke="black" points="444.77,-209.77 445.64,-199.21 438.37,-206.93 444.77,-209.77"/>
</g>
<!-- n18 -->
<g id="node19" class="node">
<title>n18</title>
<ellipse fill="none" stroke="black" cx="499.6" cy="-334.92" rx="39.7" ry="21.43"/>
<text text-anchor="middle" x="499.6" y="-337.92" font-family="Helvetica,sans-Serif" font-size="10.00">Number</text>
<text text-anchor="middle" x="499.6" y="-326.92" font-family="Helvetica,sans-Serif" font-size="10.00">0.0</text>
</g>
<!-- n17&#45;&gt;n18 -->
<g id="edge17" class="edge">
<title>n17&#45;&gt;n18</title>
<path fill="none" stroke="black" d="M501.14,-395C500.92,-386.53 500.65,-376.08 500.39,-366.34"/>
<polygon fill="black" stroke="black" points="503.89,-366.07 500.13,-356.17 496.89,-366.26 503.89,-366.07"/>
</g>
<!-- n20 -->
<g id="node21" class="node">
<title>n20</title>
<ellipse fill="none" stroke="black" cx="602.6" cy="-334.92" rx="45.01" ry="21.43"/>
<text text-anchor="middle" x="602.6" y="-337.92" font-family="Helvetica,sans-Serif" font-size="10.00">Cond</text>
<text text-anchor="middle" x="602.6" y="-326.92" font-family="Helvetica,sans-Serif" font-size="10.00">ingreso &gt;</text>
</g>
<!-- n19&#45;&gt;n20 -->
<g id="edge20" class="edge">
<title>n19&#45;&gt;n20</title>
<path fill="none" stroke="black" d="M602.6,-395C602.6,-386.53 602.6,-376.08 602.6,-366.34"/>
<polygon fill="black" stroke="black" points="606.1,-366.17 602.6,-356.17 599.1,-366.17 606.1,-366.17"/>
</g>
<!-- n22 -->
<g id="node23" class="node">
<title>n22</title>
<polygon fill="none" stroke="black" points="727.6,-352.92 665.6,-352.92 665.6,-316.92 727.6,-316.92 727.6,-352.92"/>
<text text-anchor="middle" x="696.6" y="-337.92" font-family="Helvetica,sans-Serif" font-size="10.00">Action</text>
<text text-anchor="middle" x="696.6" y="-326.92" font-family="Helvetica,sans-Serif" font-size="10.00">impuesto</text>
</g>
<!-- n19&#45;&gt;n22 -->
<g id="edge28" class="edge">
<title>n19&#45;&gt;n22</title>
<path fill="none" stroke="black" d="M623.93,-395C636.88,-384.47 653.58,-370.89 667.7,-359.41"/>
<polygon fill="black" stroke="black" points="670.13,-361.95 675.68,-352.93 665.71,-356.52 670.13,-361.95"/>
</g>
<!-- n21 -->
<g id="node22" class="node">
<title>n21</title>
<ellipse fill="none" stroke="black" cx="602.6" cy="-256.49" rx="43.68" ry="21.43"/>
<text text-anchor="middle" x="602.6" y="-259.49" font-family="Helvetica,sans-Serif" font-size="10.00">Number</text>
<text text-anchor="middle" x="602.6" y="-248.49" font-family="Helvetica,sans-Serif" font-size="10.00">200000.0</text>
</g>
<!-- n20&#45;&gt;n21 -->
<g id="edge19" class="edge">
<title>n20&#45;&gt;n21</title>
<path fill="none" stroke="black" d="M602.6,-313.44C602.6,-305.58 602.6,-296.44 602.6,-287.84"/>
<polygon fill="black" stroke="black" points="606.1,-287.76 602.6,-277.76 599.1,-287.76 606.1,-287.76"/>
</g>
<!-- n23 -->
<g id="node24" class="node">
<title>n23</title>
<ellipse fill="none" stroke="black" cx="696.6" cy="-256.49" rx="32.55" ry="21.43"/>
<text text-anchor="middle" x="696.6" y="-259.49" font-family="Helvetica,sans-Serif" font-size="10.00">BinOp</text>
<text text-anchor="middle" x="696.6" y="-248.49" font-family="Helvetica,sans-Serif" font-size="10.00">+</text>
</g>
<!-- n22&#45;&gt;n23 -->
<g id="edge27" class="edge">
<title>n22&#45;&gt;n23</title>
<path fill="none" stroke="black" d="M696.6,-316.58C696.6,-308.1 696.6,-297.65 696.6,-287.91"/>
<polygon fill="black" stroke="black" points="700.1,-287.74 696.6,-277.74 693.1,-287.74 700.1,-287.74"/>
</g>
<!-- n24 -->
<g id="node25" class="node">
<title>n24</title>
<ellipse fill="none" stroke="black" cx="602.6" cy="-178.07" rx="43.68" ry="21.43"/>
<text text-anchor="middle" x="602.6" y="-181.07" font-family="Helvetica,sans-Serif" font-size="10.00">Var</text>
<text text-anchor="middle" x="602.6" y="-170.07" font-family="Helvetica,sans-Serif" font-size="10.00">impuesto</text>
</g>
<!-- n23&#45;&gt;n24 -->
<g id="edge21" class="edge">
<title>n23&#45;&gt;n24</title>
<path fill="none" stroke="black" d="M676.66,-239.28C663.66,-228.71 646.46,-214.73 631.91,-202.9"/>
<polygon fill="black" stroke="black" points="634.11,-200.17 624.14,-196.58 629.69,-205.61 634.11,-200.17"/>
</g>
<!-- n25 -->
<g id="node26" class="node">
<title>n25</title>
<ellipse fill="none" stroke="black" cx="696.6" cy="-178.07" rx="32.55" ry="21.43"/>
<text text-anchor="middle" x="696.6" y="-181.07" font-family="Helvetica,sans-Serif" font-size="10.00">BinOp</text>
<text text-anchor="middle" x="696.6" y="-170.07" font-family="Helvetica,sans-Serif" font-size="10.00">*</text>
</g>
<!-- n23&#45;&gt;n25 -->
<g id="edge26" class="edge">
<title>n23&#45;&gt;n25</title>
<path fill="none" stroke="black" d="M696.6,-235.01C696.6,-227.15 696.6,-218.01 696.6,-209.42"/>
<polygon fill="black" stroke="black" points="700.1,-209.34 696.6,-199.34 693.1,-209.34 700.1,-209.34"/>
</g>
<!-- n26 -->
<g id="node27" class="node">
<title>n26</title>
<ellipse fill="none" stroke="black" cx="628.6" cy="-99.64" rx="32.55" ry="21.43"/>
<text text-anchor="middle" x="628.6" y="-102.64" font-family="Helvetica,sans-Serif" font-size="10.00">BinOp</text>
<text text-anchor="middle" x="628.6" y="-91.64" font-family="Helvetica,sans-Serif" font-size="10.00">&#45;</text>
</g>
<!-- n25&#45;&gt;n26 -->
<g id="edge24" class="edge">
<title>n25&#45;&gt;n26</title>
<path fill="none" stroke="black" d="M680.83,-159.34C671.99,-149.4 660.81,-136.85 651.07,-125.9"/>
<polygon fill="black" stroke="black" points="653.55,-123.41 644.28,-118.27 648.32,-128.07 653.55,-123.41"/>
</g>
<!-- n29 -->
<g id="node30" class="node">
<title>n29</title>
<ellipse fill="none" stroke="black" cx="718.6" cy="-99.64" rx="39.7" ry="21.43"/>
<text text-anchor="middle" x="718.6" y="-102.64" font-family="Helvetica,sans-Serif" font-size="10.00">Number</text>
<text text-anchor="middle" x="718.6" y="-91.64" font-family="Helvetica,sans-Serif" font-size="10.00">0.22</text>
</g>
<!-- n25&#45;&gt;n29 -->
<g id="edge25" class="edge">
<title>n25&#45;&gt;n29</title>
<path fill="none" stroke="black" d="M702.38,-156.99C704.71,-148.89 707.45,-139.38 710,-130.5"/>
<polygon fill="black" stroke="black" points="713.38,-131.43 712.78,-120.85 706.65,-129.49 713.38,-131.43"/>
</g>
<!-- n27 -->
<g id="node28" class="node">
<title>n27</title>
<ellipse fill="none" stroke="black" cx="579.6" cy="-21.21" rx="37.45" ry="21.43"/>
<text text-anchor="middle" x="579.6" y="-24.21" font-family="Helvetica,sans-Serif" font-size="10.00">Var</text>
<text text-anchor="middle" x="579.6" y="-13.21" font-family="Helvetica,sans-Serif" font-size="10.00">ingreso</text>
</g>
<!-- n26&#45;&gt;n27 -->
<g id="edge22" class="edge">
<title>n26&#45;&gt;n27</title>
<path fill="none" stroke="black" d="M616.49,-79.75C610.76,-70.81 603.8,-59.97 597.48,-50.11"/>
<polygon fill="black" stroke="black" points="600.26,-47.95 591.91,-41.42 594.36,-51.73 600.26,-47.95"/>
</g>
<!-- n28 -->
<g id="node29" class="node">
<title>n28</title>
<ellipse fill="none" stroke="black" cx="678.6" cy="-21.21" rx="43.68" ry="21.43"/>
<text text-anchor="middle" x="678.6" y="-24.21" font-family="Helvetica,sans-Serif" font-size="10.00">Number</text>
<text text-anchor="middle" x="678.6" y="-13.21" font-family="Helvetica,sans-Serif" font-size="10.00">200000.0</text>
</g>
<!-- n26&#45;&gt;n28 -->
<g id="edge23" class="edge">
<title>n26&#45;&gt;n28</title>
<path fill="none" stroke="black" d="M640.96,-79.75C646.76,-70.88 653.79,-60.13 660.2,-50.33"/>
<polygon fill="black" stroke="black" points="663.31,-51.97 665.86,-41.69 657.45,-48.14 663.31,-51.97"/>
</g>
<!-- n31 -->
<g id="node32" class="node">
<title>n31</title>
<ellipse fill="none" stroke="black" cx="790.6" cy="-334.92" rx="45.01" ry="21.43"/>
<text text-anchor="middle" x="790.6" y="-337.92" font-family="Helvetica,sans-Serif" font-size="10.00">Cond</text>
<text text-anchor="middle" x="790.6" y="-326.92" font-family="Helvetica,sans-Serif" font-size="10.00">ingreso &gt;</text>
</g>
<!-- n30&#45;&gt;n31 -->
<g id="edge31" class="edge">
<title>n30&#45;&gt;n31</title>
<path fill="none" stroke="black" d="M745.76,-395C752.88,-385.62 761.84,-373.82 769.87,-363.23"/>
<polygon fill="black" stroke="black" points="772.81,-365.15 776.06,-355.07 767.23,-360.92 772.81,-365.15"/>
</g>
<!-- n33 -->
<g id="node34" class="node">
<title>n33</title>
<polygon fill="none" stroke="black" points="915.6,-352.92 853.6,-352.92 853.6,-316.92 915.6,-316.92 915.6,-352.92"/>
<text text-anchor="middle" x="884.6" y="-337.92" font-family="Helvetica,sans-Serif" font-size="10.00">Action</text>
<text text-anchor="middle" x="884.6" y="-326.92" font-family="Helvetica,sans-Serif" font-size="10.00">impuesto</text>
</g>
<!-- n30&#45;&gt;n33 -->
<g id="edge37" class="edge">
<title>n30&#45;&gt;n33</title>
<path fill="none" stroke="black" d="M759.62,-396.91C762.63,-395.27 765.67,-393.65 768.6,-392.13 799.21,-376.31 809.44,-373.03 843.89,-356.41"/>
<polygon fill="black" stroke="black" points="845.73,-359.41 853.19,-351.88 842.67,-353.11 845.73,-359.41"/>
</g>
<!-- n32 -->
<g id="node33" class="node">
<title>n32</title>
<ellipse fill="none" stroke="black" cx="790.6" cy="-256.49" rx="43.68" ry="21.43"/>
<text text-anchor="middle" x="790.6" y="-259.49" font-family="Helvetica,sans-Serif" font-size="10.00">Number</text>
<text text-anchor="middle" x="790.6" y="-248.49" font-family="Helvetica,sans-Serif" font-size="10.00">100000.0</text>
</g>
<!-- n31&#45;&gt;n32 -->
<g id="edge30" class="edge">
<title>n31&#45;&gt;n32</title>
<path fill="none" stroke="black" d="M790.6,-313.44C790.6,-305.58 790.6,-296.44 790.6,-287.84"/>
<polygon fill="black" stroke="black" points="794.1,-287.76 790.6,-277.76 787.1,-287.76 794.1,-287.76"/>
</g>
<!-- n34 -->
<g id="node35" class="node">
<title>n34</title>
<ellipse fill="none" stroke="black" cx="884.6" cy="-256.49" rx="32.55" ry="21.43"/>
<text text-anchor="middle" x="884.6" y="-259.49" font-family="Helvetica,sans-Serif" font-size="10.00">BinOp</text>
<text text-anchor="middle" x="884.6" y="-248.49" font-family="Helvetica,sans-Serif" font-size="10.00">+</text>
</g>
<!-- n33&#45;&gt;n34 -->
<g id="edge36" class="edge">
<title>n33&#45;&gt;n34</title>
<path fill="none" stroke="black" d="M884.6,-316.58C884.6,-308.1 884.6,-297.65 884.6,-287.91"/>
<polygon fill="black" stroke="black" points="888.1,-287.74 884.6,-277.74 881.1,-287.74 888.1,-287.74"/>
</g>
<!-- n35 -->
<g id="node36" class="node">
<title>n35</title>
<ellipse fill="none" stroke="black" cx="829.6" cy="-178.07" rx="43.68" ry="21.43"/>
<text text-anchor="middle" x="829.6" y="-181.07" font-family="Helvetica,sans-Serif" font-size="10.00">Var</text>
<text text-anchor="middle" x="829.6" y="-170.07" font-family="Helvetica,sans-Serif" font-size="10.00">impuesto</text>
</g>
<!-- n34&#45;&gt;n35 -->
<g id="edge32" class="edge">
<title>n34&#45;&gt;n35</title>
<path fill="none" stroke="black" d="M871.28,-236.99C864.73,-227.88 856.69,-216.71 849.43,-206.62"/>
<polygon fill="black" stroke="black" points="852.24,-204.54 843.56,-198.46 846.56,-208.62 852.24,-204.54"/>
</g>
<!-- n36 -->
<g id="node37" class="node">
<title>n36</title>
<ellipse fill="none" stroke="black" cx="923.6" cy="-178.07" rx="32.55" ry="21.43"/>
<text text-anchor="middle" x="923.6" y="-181.07" font-family="Helvetica,sans-Serif" font-size="10.00">BinOp</text>
<text text-anchor="middle" x="923.6" y="-170.07" font-family="Helvetica,sans-Serif" font-size="10.00">*</text>
</g>
<!-- n34&#45;&gt;n36 -->
<g id="edge35" class="edge">
<title>n34&#45;&gt;n36</title>
<path fill="none" stroke="black" d="M894.44,-236.21C898.87,-227.52 904.2,-217.08 909.08,-207.52"/>
<polygon fill="black" stroke="black" points="912.33,-208.84 913.76,-198.35 906.1,-205.66 912.33,-208.84"/>
</g>
<!-- n37 -->
<g id="node38" class="node">
<title>n37</title>
<ellipse fill="none" stroke="black" cx="862.6" cy="-99.64" rx="43.68" ry="21.43"/>
<text text-anchor="middle" x="862.6" y="-102.64" font-family="Helvetica,sans-Serif" font-size="10.00">Number</text>
<text text-anchor="middle" x="862.6" y="-91.64" font-family="Helvetica,sans-Serif" font-size="10.00">100000.0</text>
</g>
<!-- n36&#45;&gt;n37 -->
<g id="edge33" class="edge">
<title>n36&#45;&gt;n37</title>
<path fill="none" stroke="black" d="M909.14,-158.95C901.69,-149.62 892.46,-138.05 884.18,-127.68"/>
<polygon fill="black" stroke="black" points="886.78,-125.32 877.8,-119.69 881.3,-129.69 886.78,-125.32"/>
</g>
<!-- n38 -->
<g id="node39" class="node">
<title>n38</title>
<ellipse fill="none" stroke="black" cx="963.6" cy="-99.64" rx="39.7" ry="21.43"/>
<text text-anchor="middle" x="963.6" y="-102.64" font-family="Helvetica,sans-Serif" font-size="10.00">Number</text>
<text text-anchor="middle" x="963.6" y="-91.64" font-family="Helvetica,sans-Serif" font-size="10.00">0.18</text>
</g>
<!-- n36&#45;&gt;n38 -->
<g id="edge34" class="edge">
<title>n36&#45;&gt;n38</title>
<path fill="none" stroke="black" d="M933.69,-157.78C938.2,-149.16 943.62,-138.81 948.59,-129.31"/>
<polygon fill="black" stroke="black" points="951.83,-130.67 953.37,-120.18 945.63,-127.42 951.83,-130.67"/>
</g>
</g>
</svg>
