<?xml version="1.0" encoding="UTF-8" standalone="no"?>
<!DOCTYPE svg PUBLIC "-//W3C//DTD SVG 1.1//EN"
 "http://www.w3.org/Graphics/SVG/1.1/DTD/svg11.dtd">
<!-- Generated by graphviz version 2.43.0 (0)
 -->
<!-- Title: parse Pages: 1 -->
<svg width="945pt" height="548pt"
 viewBox="0.00 0.00 945.00 548.00" xmlns="http://www.w3.org/2000/svg" xmlns:xlink="http://www.w3.org/1999/xlink">
<g id="graph0" class="graph" transform="scale(1 1) rotate(0) translate(4 544)">
<title>parse</title>
<polygon fill="white" stroke="transparent" points="-4,4 -4,-544 941,-544 941,4 -4,4"/>
<!-- n0 -->
<g id="node1" class="node">
<title>n0</title>
<polygon fill="none" stroke="black" points="504,-540 446,-540 446,-504 504,-504 504,-540"/>
<text text-anchor="middle" x="475" y="-519.5" font-family="Helvetica,sans-Serif" font-size="10.00">program</text>
</g>
<!-- n1 -->
<g id="node2" class="node">
<title>n1</title>
<polygon fill="none" stroke="black" points="280.5,-468 213.5,-468 213.5,-432 280.5,-432 280.5,-468"/>
<text text-anchor="middle" x="247" y="-447.5" font-family="Helvetica,sans-Serif" font-size="10.00">statement</text>
</g>
<!-- n0&#45;&gt;n1 -->
<g id="edge9" class="edge">
<title>n0&#45;&gt;n1</title>
<path fill="none" stroke="black" d="M445.66,-511.99C406.22,-499.88 335.8,-478.26 290.27,-464.29"/>
<polygon fill="black" stroke="black" points="291.26,-460.93 280.67,-461.34 289.21,-467.62 291.26,-460.93"/>
</g>
<!-- n10 -->
<g id="node11" class="node">
<title>n10</title>
<polygon fill="none" stroke="black" points="466.5,-468 399.5,-468 399.5,-432 466.5,-432 466.5,-468"/>
<text text-anchor="middle" x="433" y="-447.5" font-family="Helvetica,sans-Serif" font-size="10.00">statement</text>
</g>
<!-- n0&#45;&gt;n10 -->
<g id="edge29" class="edge">
<title>n0&#45;&gt;n10</title>
<path fill="none" stroke="black" d="M464.62,-503.7C459.74,-495.56 453.81,-485.69 448.42,-476.7"/>
<polygon fill="black" stroke="black" points="451.41,-474.88 443.26,-468.1 445.41,-478.48 451.41,-474.88"/>
</g>
<!-- n30 -->
<g id="node31" class="node">
<title>n30</title>
<polygon fill="none" stroke="black" points="551.5,-468 484.5,-468 484.5,-432 551.5,-432 551.5,-468"/>
<text text-anchor="middle" x="518" y="-447.5" font-family="Helvetica,sans-Serif" font-size="10.00">statement</text>
</g>
<!-- n0&#45;&gt;n30 -->
<g id="edge36" class="edge">
<title>n0&#45;&gt;n30</title>
<path fill="none" stroke="black" d="M485.63,-503.7C490.63,-495.56 496.69,-485.69 502.21,-476.7"/>
<polygon fill="black" stroke="black" points="505.24,-478.46 507.49,-468.1 499.28,-474.79 505.24,-478.46"/>
</g>
<!-- n37 -->
<g id="node38" class="node">
<title>n37</title>
<polygon fill="none" stroke="black" points="624,-468 570,-468 570,-432 624,-432 624,-468"/>
<text text-anchor="start" x="587" y="-447.5" font-family="Helvetica,sans-Serif" font-size="10.00">EOF</text>
</g>
<!-- n0&#45;&gt;n37 -->
<g id="edge37" class="edge">
<title>n0&#45;&gt;n37</title>
<path fill="none" stroke="black" d="M504.22,-504.23C521.15,-494.52 542.61,-482.21 560.62,-471.87"/>
<polygon fill="black" stroke="black" points="562.76,-474.68 569.69,-466.67 559.27,-468.61 562.76,-474.68"/>
</g>
<!-- n2 -->
<g id="node3" class="node">
<title>n2</title>
<polygon fill="none" stroke="black" points="208,-396 134,-396 134,-360 208,-360 208,-396"/>
<text text-anchor="middle" x="171" y="-375.5" font-family="Helvetica,sans-Serif" font-size="10.00">assignment</text>
</g>
<!-- n1&#45;&gt;n2 -->
<g id="edge8" class="edge">
<title>n1&#45;&gt;n2</title>
<path fill="none" stroke="black" d="M228.21,-431.7C218.83,-423.05 207.32,-412.45 197.09,-403.03"/>
<polygon fill="black" stroke="black" points="199.3,-400.3 189.57,-396.1 194.55,-405.45 199.3,-400.3"/>
</g>
<!-- n3 -->
<g id="node4" class="node">
<title>n3</title>
<polygon fill="none" stroke="black" points="54,-324 0,-324 0,-288 54,-288 54,-324"/>
<text text-anchor="middle" x="27" y="-303.5" font-family="Helvetica,sans-Serif" font-size="10.00">ingreso</text>
</g>
<!-- n2&#45;&gt;n3 -->
<g id="edge1" class="edge">
<title>n2&#45;&gt;n3</title>
<path fill="none" stroke="black" d="M135.77,-359.88C113.77,-349.18 85.51,-335.44 63.3,-324.65"/>
<polygon fill="black" stroke="black" points="64.72,-321.44 54.2,-320.22 61.66,-327.74 64.72,-321.44"/>
</g>
<!-- n4 -->
<g id="node5" class="node">
<title>n4</title>
<polygon fill="none" stroke="black" points="126,-324 72,-324 72,-288 126,-288 126,-324"/>
<text text-anchor="middle" x="99" y="-303.5" font-family="Helvetica,sans-Serif" font-size="10.00">=</text>
</g>
<!-- n2&#45;&gt;n4 -->
<g id="edge2" class="edge">
<title>n2&#45;&gt;n4</title>
<path fill="none" stroke="black" d="M153.2,-359.7C144.4,-351.14 133.62,-340.66 124,-331.3"/>
<polygon fill="black" stroke="black" points="126.2,-328.57 116.59,-324.1 121.32,-333.58 126.2,-328.57"/>
</g>
<!-- n5 -->
<g id="node6" class="node">
<title>n5</title>
<polygon fill="none" stroke="black" points="198,-324 144,-324 144,-288 198,-288 198,-324"/>
<text text-anchor="middle" x="171" y="-303.5" font-family="Helvetica,sans-Serif" font-size="10.00">expr</text>
</g>
<!-- n2&#45;&gt;n5 -->
<g id="edge6" class="edge">
<title>n2&#45;&gt;n5</title>
<path fill="none" stroke="black" d="M171,-359.7C171,-351.98 171,-342.71 171,-334.11"/>
<polygon fill="black" stroke="black" points="174.5,-334.1 171,-324.1 167.5,-334.1 174.5,-334.1"/>
</g>
<!-- n9 -->
<g id="node10" class="node">
<title>n9</title>
<polygon fill="none" stroke="black" points="270,-324 216,-324 216,-288 270,-288 270,-324"/>
<text text-anchor="middle" x="243" y="-303.5" font-family="Helvetica,sans-Serif" font-size="10.00">;</text>
</g>
<!-- n2&#45;&gt;n9 -->
<g id="edge7" class="edge">
<title>n2&#45;&gt;n9</title>
<path fill="none" stroke="black" d="M188.8,-359.7C197.6,-351.14 208.38,-340.66 218,-331.3"/>
<polygon fill="black" stroke="black" points="220.68,-333.58 225.41,-324.1 215.8,-328.57 220.68,-333.58"/>
</g>
<!-- n6 -->
<g id="node7" class="node">
<title>n6</title>
<polygon fill="none" stroke="black" points="194,-252 140,-252 140,-216 194,-216 194,-252"/>
<text text-anchor="middle" x="167" y="-231.5" font-family="Helvetica,sans-Serif" font-size="10.00">term</text>
</g>
<!-- n5&#45;&gt;n6 -->
<g id="edge5" class="edge">
<title>n5&#45;&gt;n6</title>
<path fill="none" stroke="black" d="M170.01,-287.7C169.57,-279.98 169.04,-270.71 168.55,-262.11"/>
<polygon fill="black" stroke="black" points="172.04,-261.89 167.98,-252.1 165.05,-262.29 172.04,-261.89"/>
</g>
<!-- n7 -->
<g id="node8" class="node">
<title>n7</title>
<polygon fill="none" stroke="black" points="194,-180 140,-180 140,-144 194,-144 194,-180"/>
<text text-anchor="middle" x="167" y="-159.5" font-family="Helvetica,sans-Serif" font-size="10.00">factor</text>
</g>
<!-- n6&#45;&gt;n7 -->
<g id="edge4" class="edge">
<title>n6&#45;&gt;n7</title>
<path fill="none" stroke="black" d="M167,-215.7C167,-207.98 167,-198.71 167,-190.11"/>
<polygon fill="black" stroke="black" points="170.5,-190.1 167,-180.1 163.5,-190.1 170.5,-190.1"/>
</g>
<!-- n8 -->
<g id="node9" class="node">
<title>n8</title>
<polygon fill="none" stroke="black" points="194,-108 140,-108 140,-72 194,-72 194,-108"/>
<text text-anchor="middle" x="167" y="-87.5" font-family="Helvetica,sans-Serif" font-size="10.00">80000</text>
</g>
<!-- n7&#45;&gt;n8 -->
<g id="edge3" class="edge">
<title>n7&#45;&gt;n8</title>
<path fill="none" stroke="black" d="M167,-143.7C167,-135.98 167,-126.71 167,-118.11"/>
<polygon fill="black" stroke="black" points="170.5,-118.1 167,-108.1 163.5,-118.1 170.5,-118.1"/>
</g>
<!-- n11 -->
<g id="node12" class="node">
<title>n11</title>
<polygon fill="none" stroke="black" points="462.5,-396 403.5,-396 403.5,-360 462.5,-360 462.5,-396"/>
<text text-anchor="middle" x="433" y="-375.5" font-family="Helvetica,sans-Serif" font-size="10.00">ruleStmt</text>
</g>
<!-- n10&#45;&gt;n11 -->
<g id="edge28" class="edge">
<title>n10&#45;&gt;n11</title>
<path fill="none" stroke="black" d="M433,-431.7C433,-423.98 433,-414.71 433,-406.11"/>
<polygon fill="black" stroke="black" points="436.5,-406.1 433,-396.1 429.5,-406.1 436.5,-406.1"/>
</g>
<!-- n12 -->
<g id="node13" class="node">
<title>n12</title>
<polygon fill="none" stroke="black" points="352,-324 298,-324 298,-288 352,-288 352,-324"/>
<text text-anchor="middle" x="325" y="-303.5" font-family="Helvetica,sans-Serif" font-size="10.00">si</text>
</g>
<!-- n11&#45;&gt;n12 -->
<g id="edge10" class="edge">
<title>n11&#45;&gt;n12</title>
<path fill="none" stroke="black" d="M406.58,-359.88C392.59,-350.81 375.22,-339.55 360.11,-329.76"/>
<polygon fill="black" stroke="black" points="361.82,-326.69 351.52,-324.19 358.01,-332.57 361.82,-326.69"/>
</g>
<!-- n13 -->
<g id="node14" class="node">
<title>n13</title>
<polygon fill="none" stroke="black" points="424,-324 370,-324 370,-288 424,-288 424,-324"/>
<text text-anchor="middle" x="397" y="-303.5" font-family="Helvetica,sans-Serif" font-size="10.00">cond</text>
</g>
<!-- n11&#45;&gt;n13 -->
<g id="edge18" class="edge">
<title>n11&#45;&gt;n13</title>
<path fill="none" stroke="black" d="M424.1,-359.7C420,-351.73 415.05,-342.1 410.51,-333.26"/>
<polygon fill="black" stroke="black" points="413.48,-331.4 405.8,-324.1 407.26,-334.6 413.48,-331.4"/>
</g>
<!-- n21 -->
<g id="node22" class="node">
<title>n21</title>
<polygon fill="none" stroke="black" points="496,-324 442,-324 442,-288 496,-288 496,-324"/>
<text text-anchor="middle" x="469" y="-303.5" font-family="Helvetica,sans-Serif" font-size="10.00">:</text>
</g>
<!-- n11&#45;&gt;n21 -->
<g id="edge19" class="edge">
<title>n11&#45;&gt;n21</title>
<path fill="none" stroke="black" d="M441.9,-359.7C446,-351.73 450.95,-342.1 455.49,-333.26"/>
<polygon fill="black" stroke="black" points="458.74,-334.6 460.2,-324.1 452.52,-331.4 458.74,-334.6"/>
</g>
<!-- n22 -->
<g id="node23" class="node">
<title>n22</title>
<polygon fill="none" stroke="black" points="577,-324 523,-324 523,-288 577,-288 577,-324"/>
<text text-anchor="middle" x="550" y="-303.5" font-family="Helvetica,sans-Serif" font-size="10.00">action</text>
</g>
<!-- n11&#45;&gt;n22 -->
<g id="edge27" class="edge">
<title>n11&#45;&gt;n22</title>
<path fill="none" stroke="black" d="M461.62,-359.88C477.38,-350.45 497.08,-338.66 513.89,-328.61"/>
<polygon fill="black" stroke="black" points="516.1,-331.36 522.88,-323.23 512.5,-325.36 516.1,-331.36"/>
</g>
<!-- n14 -->
<g id="node15" class="node">
<title>n14</title>
<polygon fill="none" stroke="black" points="266,-252 212,-252 212,-216 266,-216 266,-252"/>
<text text-anchor="middle" x="239" y="-231.5" font-family="Helvetica,sans-Serif" font-size="10.00">salario</text>
</g>
<!-- n13&#45;&gt;n14 -->
<g id="edge11" class="edge">
<title>n13&#45;&gt;n14</title>
<path fill="none" stroke="black" d="M369.93,-292.06C366.93,-290.67 363.9,-289.29 361,-288 325.81,-272.33 314.44,-269.25 275.42,-252.09"/>
<polygon fill="black" stroke="black" points="276.63,-248.79 266.07,-247.94 273.79,-255.19 276.63,-248.79"/>
</g>
<!-- n15 -->
<g id="node16" class="node">
<title>n15</title>
<polygon fill="none" stroke="black" points="357.5,-252 284.5,-252 284.5,-216 357.5,-216 357.5,-252"/>
<text text-anchor="middle" x="321" y="-231.5" font-family="Helvetica,sans-Serif" font-size="10.00">comparator</text>
</g>
<!-- n13&#45;&gt;n15 -->
<g id="edge13" class="edge">
<title>n13&#45;&gt;n15</title>
<path fill="none" stroke="black" d="M378.21,-287.7C368.83,-279.05 357.32,-268.45 347.09,-259.03"/>
<polygon fill="black" stroke="black" points="349.3,-256.3 339.57,-252.1 344.55,-261.45 349.3,-256.3"/>
</g>
<!-- n17 -->
<g id="node18" class="node">
<title>n17</title>
<polygon fill="none" stroke="black" points="430,-252 376,-252 376,-216 430,-216 430,-252"/>
<text text-anchor="middle" x="403" y="-231.5" font-family="Helvetica,sans-Serif" font-size="10.00">expr</text>
</g>
<!-- n13&#45;&gt;n17 -->
<g id="edge17" class="edge">
<title>n13&#45;&gt;n17</title>
<path fill="none" stroke="black" d="M398.48,-287.7C399.14,-279.98 399.94,-270.71 400.68,-262.11"/>
<polygon fill="black" stroke="black" points="404.17,-262.37 401.53,-252.1 397.19,-261.77 404.17,-262.37"/>
</g>
<!-- n16 -->
<g id="node17" class="node">
<title>n16</title>
<polygon fill="none" stroke="black" points="348,-180 294,-180 294,-144 348,-144 348,-180"/>
<text text-anchor="middle" x="321" y="-159.5" font-family="Helvetica,sans-Serif" font-size="10.00">&gt;</text>
</g>
<!-- n15&#45;&gt;n16 -->
<g id="edge12" class="edge">
<title>n15&#45;&gt;n16</title>
<path fill="none" stroke="black" d="M321,-215.7C321,-207.98 321,-198.71 321,-190.11"/>
<polygon fill="black" stroke="black" points="324.5,-190.1 321,-180.1 317.5,-190.1 324.5,-190.1"/>
</g>
<!-- n18 -->
<g id="node19" class="node">
<title>n18</title>
<polygon fill="none" stroke="black" points="430,-180 376,-180 376,-144 430,-144 430,-180"/>
<text text-anchor="middle" x="403" y="-159.5" font-family="Helvetica,sans-Serif" font-size="10.00">term</text>
</g>
<!-- n17&#45;&gt;n18 -->
<g id="edge16" class="edge">
<title>n17&#45;&gt;n18</title>
<path fill="none" stroke="black" d="M403,-215.7C403,-207.98 403,-198.71 403,-190.11"/>
<polygon fill="black" stroke="black" points="406.5,-190.1 403,-180.1 399.5,-190.1 406.5,-190.1"/>
</g>
<!-- n19 -->
<g id="node20" class="node">
<title>n19</title>
<polygon fill="none" stroke="black" points="430,-108 376,-108 376,-72 430,-72 430,-108"/>
<text text-anchor="middle" x="403" y="-87.5" font-family="Helvetica,sans-Serif" font-size="10.00">factor</text>
</g>
<!-- n18&#45;&gt;n19 -->
<g id="edge15" class="edge">
<title>n18&#45;&gt;n19</title>
<path fill="none" stroke="black" d="M403,-143.7C403,-135.98 403,-126.71 403,-118.11"/>
<polygon fill="black" stroke="black" points="406.5,-118.1 403,-108.1 399.5,-118.1 406.5,-118.1"/>
</g>
<!-- n20 -->
<g id="node21" class="node">
<title>n20</title>
<polygon fill="none" stroke="black" points="430,-36 376,-36 376,0 430,0 430,-36"/>
<text text-anchor="middle" x="403" y="-15.5" font-family="Helvetica,sans-Serif" font-size="10.00">70000</text>
</g>
<!-- n19&#45;&gt;n20 -->
<g id="edge14" class="edge">
<title>n19&#45;&gt;n20</title>
<path fill="none" stroke="black" d="M403,-71.7C403,-63.98 403,-54.71 403,-46.11"/>
<polygon fill="black" stroke="black" points="406.5,-46.1 403,-36.1 399.5,-46.1 406.5,-46.1"/>
</g>
<!-- n23 -->
<g id="node24" class="node">
<title>n23</title>
<polygon fill="none" stroke="black" points="510,-252 448,-252 448,-216 510,-216 510,-252"/>
<text text-anchor="middle" x="479" y="-231.5" font-family="Helvetica,sans-Serif" font-size="10.00">impuesto</text>
</g>
<!-- n22&#45;&gt;n23 -->
<g id="edge20" class="edge">
<title>n22&#45;&gt;n23</title>
<path fill="none" stroke="black" d="M532.45,-287.7C523.77,-279.14 513.14,-268.66 503.65,-259.3"/>
<polygon fill="black" stroke="black" points="505.93,-256.63 496.35,-252.1 501.01,-261.62 505.93,-256.63"/>
</g>
<!-- n24 -->
<g id="node25" class="node">
<title>n24</title>
<polygon fill="none" stroke="black" points="582,-252 528,-252 528,-216 582,-216 582,-252"/>
<text text-anchor="middle" x="555" y="-231.5" font-family="Helvetica,sans-Serif" font-size="10.00">=</text>
</g>
<!-- n22&#45;&gt;n24 -->
<g id="edge21" class="edge">
<title>n22&#45;&gt;n24</title>
<path fill="none" stroke="black" d="M551.24,-287.7C551.79,-279.98 552.45,-270.71 553.06,-262.11"/>
<polygon fill="black" stroke="black" points="556.56,-262.33 553.78,-252.1 549.57,-261.83 556.56,-262.33"/>
</g>
<!-- n25 -->
<g id="node26" class="node">
<title>n25</title>
<polygon fill="none" stroke="black" points="654,-252 600,-252 600,-216 654,-216 654,-252"/>
<text text-anchor="middle" x="627" y="-231.5" font-family="Helvetica,sans-Serif" font-size="10.00">expr</text>
</g>
<!-- n22&#45;&gt;n25 -->
<g id="edge25" class="edge">
<title>n22&#45;&gt;n25</title>
<path fill="none" stroke="black" d="M569.03,-287.7C578.54,-279.05 590.21,-268.45 600.57,-259.03"/>
<polygon fill="black" stroke="black" points="603.14,-261.42 608.19,-252.1 598.43,-256.24 603.14,-261.42"/>
</g>
<!-- n29 -->
<g id="node30" class="node">
<title>n29</title>
<polygon fill="none" stroke="black" points="726,-252 672,-252 672,-216 726,-216 726,-252"/>
<text text-anchor="middle" x="699" y="-231.5" font-family="Helvetica,sans-Serif" font-size="10.00">;</text>
</g>
<!-- n22&#45;&gt;n29 -->
<g id="edge26" class="edge">
<title>n22&#45;&gt;n29</title>
<path fill="none" stroke="black" d="M577.12,-292.18C580.12,-290.77 583.12,-289.35 586,-288 617.52,-273.19 627.31,-268.74 662.39,-252.28"/>
<polygon fill="black" stroke="black" points="664.32,-255.24 671.88,-247.82 661.34,-248.9 664.32,-255.24"/>
</g>
<!-- n26 -->
<g id="node27" class="node">
<title>n26</title>
<polygon fill="none" stroke="black" points="654,-180 600,-180 600,-144 654,-144 654,-180"/>
<text text-anchor="middle" x="627" y="-159.5" font-family="Helvetica,sans-Serif" font-size="10.00">term</text>
</g>
<!-- n25&#45;&gt;n26 -->
<g id="edge24" class="edge">
<title>n25&#45;&gt;n26</title>
<path fill="none" stroke="black" d="M627,-215.7C627,-207.98 627,-198.71 627,-190.11"/>
<polygon fill="black" stroke="black" points="630.5,-190.1 627,-180.1 623.5,-190.1 630.5,-190.1"/>
</g>
<!-- n27 -->
<g id="node28" class="node">
<title>n27</title>
<polygon fill="none" stroke="black" points="654,-108 600,-108 600,-72 654,-72 654,-108"/>
<text text-anchor="middle" x="627" y="-87.5" font-family="Helvetica,sans-Serif" font-size="10.00">factor</text>
</g>
<!-- n26&#45;&gt;n27 -->
<g id="edge23" class="edge">
<title>n26&#45;&gt;n27</title>
<path fill="none" stroke="black" d="M627,-143.7C627,-135.98 627,-126.71 627,-118.11"/>
<polygon fill="black" stroke="black" points="630.5,-118.1 627,-108.1 623.5,-118.1 630.5,-118.1"/>
</g>
<!-- n28 -->
<g id="node29" class="node">
<title>n28</title>
<polygon fill="none" stroke="black" points="654,-36 600,-36 600,0 654,0 654,-36"/>
<text text-anchor="middle" x="627" y="-15.5" font-family="Helvetica,sans-Serif" font-size="10.00">0</text>
</g>
<!-- n27&#45;&gt;n28 -->
<g id="edge22" class="edge">
<title>n27&#45;&gt;n28</title>
<path fill="none" stroke="black" d="M627,-71.7C627,-63.98 627,-54.71 627,-46.11"/>
<polygon fill="black" stroke="black" points="630.5,-46.1 627,-36.1 623.5,-46.1 630.5,-46.1"/>
</g>
<!-- n31 -->
<g id="node32" class="node">
<title>n31</title>
<polygon fill="none" stroke="black" points="761,-396 699,-396 699,-360 761,-360 761,-396"/>
<text text-anchor="middle" x="730" y="-375.5" font-family="Helvetica,sans-Serif" font-size="10.00">printStmt</text>
</g>
<!-- n30&#45;&gt;n31 -->
<g id="edge35" class="edge">
<title>n30&#45;&gt;n31</title>
<path fill="none" stroke="black" d="M551.71,-435.4C554.84,-434.22 557.97,-433.07 561,-432 604.4,-416.64 654.84,-401.12 689.24,-390.88"/>
<polygon fill="black" stroke="black" points="690.34,-394.2 698.94,-388 688.36,-387.49 690.34,-394.2"/>
</g>
<!-- n32 -->
<g id="node33" class="node">
<title>n32</title>
<polygon fill="none" stroke="black" points="649,-324 595,-324 595,-288 649,-288 649,-324"/>
<text text-anchor="middle" x="622" y="-303.5" font-family="Helvetica,sans-Serif" font-size="10.00">print</text>
</g>
<!-- n31&#45;&gt;n32 -->
<g id="edge30" class="edge">
<title>n31&#45;&gt;n32</title>
<path fill="none" stroke="black" d="M703.58,-359.88C689.59,-350.81 672.22,-339.55 657.11,-329.76"/>
<polygon fill="black" stroke="black" points="658.82,-326.69 648.52,-324.19 655.01,-332.57 658.82,-326.69"/>
</g>
<!-- n33 -->
<g id="node34" class="node">
<title>n33</title>
<polygon fill="none" stroke="black" points="721,-324 667,-324 667,-288 721,-288 721,-324"/>
<text text-anchor="middle" x="694" y="-303.5" font-family="Helvetica,sans-Serif" font-size="10.00">(</text>
</g>
<!-- n31&#45;&gt;n33 -->
<g id="edge31" class="edge">
<title>n31&#45;&gt;n33</title>
<path fill="none" stroke="black" d="M721.1,-359.7C717,-351.73 712.05,-342.1 707.51,-333.26"/>
<polygon fill="black" stroke="black" points="710.48,-331.4 702.8,-324.1 704.26,-334.6 710.48,-331.4"/>
</g>
<!-- n34 -->
<g id="node35" class="node">
<title>n34</title>
<polygon fill="none" stroke="black" points="793,-324 739,-324 739,-288 793,-288 793,-324"/>
<text text-anchor="middle" x="766" y="-303.5" font-family="Helvetica,sans-Serif" font-size="10.00">ingreso</text>
</g>
<!-- n31&#45;&gt;n34 -->
<g id="edge32" class="edge">
<title>n31&#45;&gt;n34</title>
<path fill="none" stroke="black" d="M738.9,-359.7C743,-351.73 747.95,-342.1 752.49,-333.26"/>
<polygon fill="black" stroke="black" points="755.74,-334.6 757.2,-324.1 749.52,-331.4 755.74,-334.6"/>
</g>
<!-- n35 -->
<g id="node36" class="node">
<title>n35</title>
<polygon fill="none" stroke="black" points="865,-324 811,-324 811,-288 865,-288 865,-324"/>
<text text-anchor="middle" x="838" y="-303.5" font-family="Helvetica,sans-Serif" font-size="10.00">)</text>
</g>
<!-- n31&#45;&gt;n35 -->
<g id="edge33" class="edge">
<title>n31&#45;&gt;n35</title>
<path fill="none" stroke="black" d="M756.42,-359.88C770.41,-350.81 787.78,-339.55 802.89,-329.76"/>
<polygon fill="black" stroke="black" points="804.99,-332.57 811.48,-324.19 801.18,-326.69 804.99,-332.57"/>
</g>
<!-- n36 -->
<g id="node37" class="node">
<title>n36</title>
<polygon fill="none" stroke="black" points="937,-324 883,-324 883,-288 937,-288 937,-324"/>
<text text-anchor="middle" x="910" y="-303.5" font-family="Helvetica,sans-Serif" font-size="10.00">;</text>
</g>
<!-- n31&#45;&gt;n36 -->
<g id="edge34" class="edge">
<title>n31&#45;&gt;n36</title>
<path fill="none" stroke="black" d="M761.21,-366.41C788.63,-356.91 829.75,-342.19 873.6,-324"/>
<polygon fill="black" stroke="black" points="875.12,-327.16 882.99,-320.07 872.41,-320.7 875.12,-327.16"/>
</g>
</g>
</svg>
