<?xml version="1.0" encoding="UTF-8" standalone="no"?>
<!DOCTYPE svg PUBLIC "-//W3C//DTD SVG 1.1//EN"
 "http://www.w3.org/Graphics/SVG/1.1/DTD/svg11.dtd">
<!-- Generated by graphviz version 2.43.0 (0)
 -->
<!-- Title: ast Pages: 1 -->
<svg width="283pt" height="279pt"
 viewBox="0.00 0.00 283.20 279.28" xmlns="http://www.w3.org/2000/svg" xmlns:xlink="http://www.w3.org/1999/xlink">
<g id="graph0" class="graph" transform="scale(1 1) rotate(0) translate(4 275.28)">
<title>ast</title>
<polygon fill="white" stroke="transparent" points="-4,4 -4,-275.28 279.2,-275.28 279.2,4 -4,4"/>
<!-- n0 -->
<g id="node1" class="node">
<title>n0</title>
<polygon fill="none" stroke="black" points="169.6,-271.28 111.6,-271.28 111.6,-235.28 169.6,-235.28 169.6,-271.28"/>
<text text-anchor="middle" x="140.6" y="-250.78" font-family="Helvetica,sans-Serif" font-size="10.00">Program</text>
</g>
<!-- n1 -->
<g id="node2" class="node">
<title>n1</title>
<polygon fill="none" stroke="black" points="86.6,-196.07 12.6,-196.07 12.6,-160.07 86.6,-160.07 86.6,-196.07"/>
<text text-anchor="middle" x="49.6" y="-181.07" font-family="Helvetica,sans-Serif" font-size="10.00">Assignment</text>
<text text-anchor="middle" x="49.6" y="-170.07" font-family="Helvetica,sans-Serif" font-size="10.00">ingreso</text>
</g>
<!-- n0&#45;&gt;n1 -->
<g id="edge2" class="edge">
<title>n0&#45;&gt;n1</title>
<path fill="none" stroke="black" d="M119.03,-234.93C107.02,-225.26 91.89,-213.1 78.83,-202.58"/>
<polygon fill="black" stroke="black" points="80.99,-199.83 71.01,-196.29 76.61,-205.29 80.99,-199.83"/>
</g>
<!-- n3 -->
<g id="node4" class="node">
<title>n3</title>
<polygon fill="none" stroke="black" points="167.6,-196.07 113.6,-196.07 113.6,-160.07 167.6,-160.07 167.6,-196.07"/>
<text text-anchor="middle" x="140.6" y="-175.57" font-family="Helvetica,sans-Serif" font-size="10.00">Rule</text>
</g>
<!-- n0&#45;&gt;n3 -->
<g id="edge7" class="edge">
<title>n0&#45;&gt;n3</title>
<path fill="none" stroke="black" d="M140.6,-234.93C140.6,-226.45 140.6,-216.04 140.6,-206.52"/>
<polygon fill="black" stroke="black" points="144.1,-206.29 140.6,-196.29 137.1,-206.29 144.1,-206.29"/>
</g>
<!-- n8 -->
<g id="node9" class="node">
<title>n8</title>
<ellipse fill="none" stroke="black" cx="222.6" cy="-178.07" rx="37.45" ry="21.43"/>
<text text-anchor="middle" x="222.6" y="-181.07" font-family="Helvetica,sans-Serif" font-size="10.00">Print</text>
<text text-anchor="middle" x="222.6" y="-170.07" font-family="Helvetica,sans-Serif" font-size="10.00">ingreso</text>
</g>
<!-- n0&#45;&gt;n8 -->
<g id="edge8" class="edge">
<title>n0&#45;&gt;n8</title>
<path fill="none" stroke="black" d="M160.03,-234.93C170.65,-225.45 183.97,-213.55 195.59,-203.18"/>
<polygon fill="black" stroke="black" points="198.18,-205.56 203.3,-196.29 193.51,-200.34 198.18,-205.56"/>
</g>
<!-- n2 -->
<g id="node3" class="node">
<title>n2</title>
<ellipse fill="none" stroke="black" cx="39.6" cy="-99.64" rx="39.7" ry="21.43"/>
<text text-anchor="middle" x="39.6" y="-102.64" font-family="Helvetica,sans-Serif" font-size="10.00">Number</text>
<text text-anchor="middle" x="39.6" y="-91.64" font-family="Helvetica,sans-Serif" font-size="10.00">80000.0</text>
</g>
<!-- n1&#45;&gt;n2 -->
<g id="edge1" class="edge">
<title>n1&#45;&gt;n2</title>
<path fill="none" stroke="black" d="M47.33,-159.72C46.22,-151.25 44.85,-140.8 43.58,-131.06"/>
<polygon fill="black" stroke="black" points="47.02,-130.35 42.25,-120.89 40.07,-131.26 47.02,-130.35"/>
</g>
<!-- n4 -->
<g id="node5" class="node">
<title>n4</title>
<ellipse fill="none" stroke="black" cx="140.6" cy="-99.64" rx="43.27" ry="21.43"/>
<text text-anchor="middle" x="140.6" y="-102.64" font-family="Helvetica,sans-Serif" font-size="10.00">Cond</text>
<text text-anchor="middle" x="140.6" y="-91.64" font-family="Helvetica,sans-Serif" font-size="10.00">salario &gt;</text>
</g>
<!-- n3&#45;&gt;n4 -->
<g id="edge4" class="edge">
<title>n3&#45;&gt;n4</title>
<path fill="none" stroke="black" d="M140.6,-159.72C140.6,-151.25 140.6,-140.8 140.6,-131.06"/>
<polygon fill="black" stroke="black" points="144.1,-130.89 140.6,-120.89 137.1,-130.89 144.1,-130.89"/>
</g>
<!-- n6 -->
<g id="node7" class="node">
<title>n6</title>
<polygon fill="none" stroke="black" points="265.6,-117.64 203.6,-117.64 203.6,-81.64 265.6,-81.64 265.6,-117.64"/>
<text text-anchor="middle" x="234.6" y="-102.64" font-family="Helvetica,sans-Serif" font-size="10.00">Action</text>
<text text-anchor="middle" x="234.6" y="-91.64" font-family="Helvetica,sans-Serif" font-size="10.00">impuesto</text>
</g>
<!-- n3&#45;&gt;n6 -->
<g id="edge6" class="edge">
<title>n3&#45;&gt;n6</title>
<path fill="none" stroke="black" d="M161.93,-159.72C174.88,-149.19 191.58,-135.62 205.7,-124.13"/>
<polygon fill="black" stroke="black" points="208.13,-126.67 213.68,-117.65 203.71,-121.24 208.13,-126.67"/>
</g>
<!-- n5 -->
<g id="node6" class="node">
<title>n5</title>
<ellipse fill="none" stroke="black" cx="138.6" cy="-21.21" rx="39.7" ry="21.43"/>
<text text-anchor="middle" x="138.6" y="-24.21" font-family="Helvetica,sans-Serif" font-size="10.00">Number</text>
<text text-anchor="middle" x="138.6" y="-13.21" font-family="Helvetica,sans-Serif" font-size="10.00">70000.0</text>
</g>
<!-- n4&#45;&gt;n5 -->
<g id="edge3" class="edge">
<title>n4&#45;&gt;n5</title>
<path fill="none" stroke="black" d="M140.06,-78.16C139.86,-70.3 139.62,-61.16 139.39,-52.57"/>
<polygon fill="black" stroke="black" points="142.89,-52.39 139.13,-42.49 135.89,-52.57 142.89,-52.39"/>
</g>
<!-- n7 -->
<g id="node8" class="node">
<title>n7</title>
<ellipse fill="none" stroke="black" cx="235.6" cy="-21.21" rx="39.7" ry="21.43"/>
<text text-anchor="middle" x="235.6" y="-24.21" font-family="Helvetica,sans-Serif" font-size="10.00">Number</text>
<text text-anchor="middle" x="235.6" y="-13.21" font-family="Helvetica,sans-Serif" font-size="10.00">0.0</text>
</g>
<!-- n6&#45;&gt;n7 -->
<g id="edge5" class="edge">
<title>n6&#45;&gt;n7</title>
<path fill="none" stroke="black" d="M234.82,-81.3C234.94,-72.82 235.07,-62.37 235.2,-52.63"/>
<polygon fill="black" stroke="black" points="238.7,-52.51 235.33,-42.46 231.7,-52.42 238.7,-52.51"/>
</g>
</g>
</svg>
